<?xml version="1.0" encoding="UTF-8" standalone="no"?>
<svg
   width="64"
   height="64"
   viewBox="0 0 64 64"
   version="1.1"
   id="svg10"
   sodipodi:docname="amazon.svg"
   inkscape:version="1.2 (dc2aedaf03, 2022-05-15)"
   xmlns:inkscape="http://www.inkscape.org/namespaces/inkscape"
   xmlns:sodipodi="http://sodipodi.sourceforge.net/DTD/sodipodi-0.dtd"
   xmlns="http://www.w3.org/2000/svg"
   xmlns:svg="http://www.w3.org/2000/svg">
  <defs
     id="defs14" />
  <sodipodi:namedview
     id="namedview12"
     pagecolor="#505050"
     bordercolor="#eeeeee"
     borderopacity="1"
     inkscape:showpageshadow="0"
     inkscape:pageopacity="0"
     inkscape:pagecheckerboard="0"
     inkscape:deskcolor="#505050"
     showgrid="false"
     inkscape:zoom="8.0234375"
     inkscape:cx="29.725414"
     inkscape:cy="33.962999"
     inkscape:window-width="1499"
     inkscape:window-height="1236"
     inkscape:window-x="327"
     inkscape:window-y="64"
     inkscape:window-maximized="0"
     inkscape:current-layer="svg10" />
  <path
     style="fill:#000000;fill-opacity:1;stroke-width:0.0623174"
     d="M 31.442302,62.463769 C 27.910638,62.24663 24.821163,61.563028 21.732887,60.315389 12.040273,56.399648 5.1046257,47.751081 3.3742237,37.422627 c -0.301049,-1.796912 -0.347135,-2.446366 -0.347135,-4.891918 0,-2.445552 0.04609,-3.095006 0.347135,-4.891918 0.787775,-4.702084 2.685769,-9.170134 5.507396,-12.964907 1.7519693,-2.356202 4.0583143,-4.646738 6.3739863,-6.3302972 5.635323,-4.097038 12.592291,-6.155694 19.36488,-5.730316 6.39182,0.401463 12.1827,2.62937 17.10614,6.581199 6.41427,5.1484472 10.445697,12.8010842 11.091907,21.0551232 0.0818,1.044915 0.0806,3.523959 -0.002,4.589984 -0.43397,5.585925 -2.48252,11.056582 -5.822107,15.547957 -1.68503,2.266171 -3.84404,4.434423 -6.10888,6.135037 -4.08903,3.070347 -9.06311,5.084766 -14.14606,5.728923 -1.70838,0.216501 -3.83932,0.301899 -5.296981,0.212275 z M 31.571693,45.48881 c 2.024813,-0.197034 3.740093,-0.780832 4.947203,-1.683791 0.57927,-0.433309 1.38737,-1.264698 1.7442,-1.794465 0.94384,-1.401264 1.21745,-3.075071 0.78056,-4.775076 -0.29669,-1.154438 -1.06527,-2.128237 -2.90283,-3.67791 -1.3519,-1.140106 -1.67613,-1.565591 -1.67613,-2.19959 0,-0.392614 0.0895,-0.645848 0.38154,-1.079221 0.25539,-0.379009 0.34865,-0.479428 1.23644,-1.3313 0.98634,-0.946444 1.48115,-1.715906 1.76235,-2.740585 0.17806,-0.648872 0.22714,-2.425589 0.0811,-2.935016 -0.22529,-0.785684 -0.48209,-1.201437 -1.14221,-1.849229 l -0.61915,-0.607595 h 1.04936 1.04936 l 0.84259,-1.119978 c 0.46343,-0.615988 0.84259,-1.134781 0.84259,-1.152872 0,-0.06161 -7.751244,-0.03269 -8.319375,0.03105 -1.492727,0.167456 -2.243348,0.355412 -3.087349,0.773075 -1.850925,0.915952 -3.140914,2.424004 -3.687383,4.310714 -0.124653,0.43037 -0.142316,0.6286 -0.14101,1.582553 0.0015,1.072873 0.0049,1.100399 0.210268,1.697746 0.466015,1.355337 1.515271,2.613165 2.686,3.219926 0.918064,0.475812 1.707378,0.640865 3.043692,0.636468 0.818459,-0.0027 0.890272,0.006 0.852557,0.10364 -0.254672,0.659057 -0.294739,0.869946 -0.265508,1.397502 0.02528,0.456228 0.06549,0.617641 0.251336,1.008988 0.121684,0.256231 0.336626,0.635784 0.47765,0.843451 l 0.256406,0.377576 -0.329488,3.8e-5 c -0.512738,6e-5 -2.508215,0.241766 -3.159209,0.382666 -1.64295,0.355597 -3.373584,1.208205 -4.313088,2.124871 -0.513027,0.500557 -0.771923,0.878105 -1.05812,1.543058 -0.35814,0.832108 -0.451076,1.309129 -0.415424,2.132296 0.04965,1.146461 0.395457,1.892156 1.294158,2.790744 0.939851,0.939733 1.886318,1.445299 3.333879,1.780831 1.085496,0.251608 2.693171,0.335932 3.993072,0.209439 z m 13.410173,-11.446903 0.0167,-1.511198 h 1.49451 1.49451 v -1.028238 -1.028237 h -1.49449 -1.49449 l -0.0167,-1.480039 -0.0167,-1.480039 h -1.02824 -1.02823 l -0.0167,1.480039 -0.0167,1.480039 h -1.49449 -1.49449 v 1.028237 1.028238 h 1.49561 1.49562 v 1.485232 c 0,0.816878 0.0194,1.504596 0.043,1.528264 0.0237,0.02367 0.49339,0.03535 1.04382,0.02597 l 1.00079,-0.01707 z"
     id="path9126" />
  <path
     style="fill:#000000;fill-opacity:1;fill-rule:nonzero;stroke:none"
     id="path511"
     d="m 31.205248,15.881635 c -0.07249,0.455874 -0.0374,0.49893 -0.277232,0.911938 -0.324486,0.558779 -0.192879,0.128585 -0.462052,0.675906 -0.10413,0.211732 -0.167818,0.44108 -0.255399,0.660175 -0.03128,0.108351 -0.05658,0.218612 -0.09385,0.325053 -0.03358,0.09591 -0.08635,0.184499 -0.118338,0.280953 -0.176109,0.531012 -0.06514,0.431808 -0.333157,0.990193 -0.154812,0.322528 -0.279404,0.463766 -0.482968,0.731545 -0.322434,0.325968 -0.226205,0.818106 -0.451607,1.201299 -0.06003,0.102048 -0.162881,0.172792 -0.232193,0.268776 -0.06976,0.09661 -0.122309,0.204561 -0.183464,0.306841 -0.04979,0.09318 -0.109874,0.181549 -0.149359,0.279539 -0.1448,0.359347 -0.187222,0.765745 -0.28461,1.138577 -0.107063,0.409874 -0.13473,0.463147 -0.273495,0.858411 -0.06692,0.119163 -0.145275,0.232588 -0.20075,0.357489 -0.08415,0.189452 -0.146398,0.387903 -0.216901,0.582844 -0.247274,0.683717 -0.459276,1.380426 -0.725733,2.056898 -0.13539,0.343725 -0.302515,0.674116 -0.44902,1.013254 -0.105961,0.245283 -0.205555,0.493268 -0.308332,0.739903 -0.37388,0.589696 -0.31878,1.299587 -0.500689,1.946342 -0.06532,0.232222 -0.310002,0.750358 -0.472784,0.978964 -0.04841,0.06798 -0.118101,0.11794 -0.177151,0.17691 -0.03325,0.0271 -0.07348,0.04739 -0.09974,0.0813 -0.06813,0.088 -0.06452,0.320606 -0.07794,0.380924 -0.02368,0.106393 -0.06737,0.207403 -0.09624,0.312505 -0.184043,0.669824 0.0084,0.07142 -0.182299,0.639058 -0.142426,0.381255 -0.202563,0.782557 -0.297754,1.175587 -0.04157,0.171654 -0.109321,0.336751 -0.143722,0.509984 -0.277685,1.398352 0.09394,0.03789 -0.229514,1.145382 -0.177852,0.06434 -0.08549,0.303016 -0.195491,0.404748 -0.02065,0.0191 -0.0578,-0.06625 -0.07289,-0.04252 -0.05042,0.07929 -0.08926,0.786847 -0.09895,0.881391 -0.01995,0.125209 -0.0241,0.253981 -0.05985,0.375626 -0.04388,0.149342 -0.126831,0.284743 -0.17746,0.431935 -0.177239,0.515285 -0.284816,1.062589 -0.497401,1.566268 -0.03926,0.09301 -0.09775,0.176678 -0.146619,0.265017 -2.37e-4,0.201125 -0.184695,0.426826 -0.202354,0.623097 -0.0092,0.102265 0.02596,0.205162 0.01783,0.307517 -0.0061,0.0767 -0.09185,0.249218 -0.124016,0.319483 -2.030152,0.187696 -2.150037,0.19648 5.849438,-0.08432 0.04797,-0.0017 -0.07803,-0.06615 -0.08958,-0.112737 -0.03461,-0.139562 -0.03485,-0.285593 -0.04478,-0.42904 -0.150081,-2.165952 0.152606,1.487866 -0.09395,-1.378548 0.03218,-0.265577 0.04845,-0.53357 0.09654,-0.796731 0.04535,-0.248121 0.332168,-1.279409 0.382708,-1.519302 0.214693,-1.019054 0.24172,-1.645982 0.493458,-2.723335 0.144364,-0.617826 0.341383,-1.222153 0.512074,-1.83323 1.514537,-4.008998 -0.277639,0.746825 1.165543,-3.119145 0.182321,-0.488399 0.389899,-0.967818 0.55223,-1.46322 0.188309,-0.574683 0.285283,-1.178529 0.498802,-1.744329 0.191604,-0.507726 0.481996,-0.972558 0.711978,-1.464091 0.22907,-0.489585 0.443349,-0.985954 0.665023,-1.478931 0.248433,-0.369767 0.496867,-0.739534 0.7453,-1.109301 0.208297,-0.281142 0.426172,-0.555434 0.624892,-0.843425 0.172773,-0.250389 0.32895,-0.51187 0.488861,-0.770661 0.123554,-0.199953 0.227047,-0.412627 0.361459,-0.605449 0.450477,-0.646237 0.147454,0.03952 0.408496,-0.665707 0.08132,-0.674834 0.176608,-1.357809 0.401742,-2.002318 0.268219,-0.767854 0.120238,-0.09491 0.258619,-0.938722 0.006,-0.211231 0.0016,-0.423007 0.01794,-0.633692 0.04004,-0.517041 0.135894,-0.989987 0.22471,-1.501671 0.05092,-0.293364 0.300133,-1.746534 0.359113,-2.009164 0.06663,-0.296682 0.160242,-0.586651 0.240363,-0.879976 1.262835,-2.7480575 0.944079,-1.451647 -5.579173,-1.063082 -0.106087,0.0063 0.01152,0.212442 0.0092,0.318692 -0.0026,0.121527 -0.01596,0.242586 -0.02394,0.363879 -0.04732,0.549383 -0.175857,1.103094 -0.43397,1.595325 -0.08714,0.16618 -0.213119,0.309287 -0.308239,0.471033 -0.225226,0.382983 -0.461775,0.880499 -0.657536,1.276592 -0.556692,1.179639 -0.02611,0.04454 -0.550489,1.197448 -0.09009,0.198067 -0.202142,0.387099 -0.274033,0.592472 -0.110376,0.31532 -0.187663,0.641385 -0.271112,0.964875 -0.122813,0.476092 -0.201213,0.964109 -0.347575,1.433496 -0.14035,0.450107 -0.340468,0.879352 -0.510702,1.319028 -0.172433,0.307793 -0.355074,0.610086 -0.517297,0.923381 -0.412111,0.795894 -0.406361,1.070774 -1.021618,1.719563 -0.15531,0.163774 -0.374969,0.253759 -0.543309,0.404107 -0.536797,0.479426 -0.479458,0.610439 -0.812391,1.35819 -0.459205,1.132622 -1.050894,2.208779 -1.701841,3.241677 -0.314706,0.499365 -0.478627,0.659312 -0.745226,1.135905 -0.07289,0.130304 -0.13102,0.268333 -0.196529,0.402499 -0.178091,0.433749 -0.269019,0.61426 -0.385455,1.091345 -0.0802,0.328599 -0.111753,0.668527 -0.20315,0.994188 -0.113353,0.403894 -0.240231,0.806207 -0.409815,1.1899 -0.03206,0.07254 -0.726524,1.261826 -0.84881,1.471802 -0.07348,0.15088 -0.138877,0.305978 -0.220454,0.452641 -0.08648,0.155486 -0.200619,0.294859 -0.28303,0.452542 -0.756482,1.447435 0.03575,0.135155 -0.814777,1.820281 -0.968203,1.918285 -0.05369,-0.322011 -0.866858,1.819875 -0.43833,1.08084 -0.305583,0.889299 -0.850825,1.786288 -0.109401,0.179978 -0.208949,0.368738 -0.345806,0.528835 -0.09991,0.116877 -0.247885,0.183894 -0.356499,0.292731 -0.138476,0.138761 -0.241706,0.308754 -0.366333,0.460075 -0.0099,0.08343 -0.03373,0.166388 -0.02958,0.2503 0.0037,0.07585 0.04322,0.296937 0.05291,0.221611 0.01487,-0.115568 -0.152947,-0.339714 -0.0367,-0.347631 1.985428,-0.135219 3.983872,0.07099 5.969814,-0.05645 0.111751,-0.0072 -0.08966,-0.208801 -0.101921,-0.320109 -0.02127,-0.193112 0.0016,-0.388556 0.0025,-0.582834 0.0099,-0.865062 -0.05792,-1.024029 0.199714,-1.824181 0.631748,-1.96207 -0.107775,0.874906 0.411643,-1.014494 0.05912,-0.215062 0.09524,-0.43587 0.149678,-0.652165 0.05589,-0.222056 0.120816,-0.441738 0.181224,-0.662607 0.07842,-0.203811 0.175302,-0.401448 0.235258,-0.611434 0.485555,-1.700597 -0.0332,-0.53453 0.696379,-2.374474 0.171728,-0.433088 0.379649,-0.850934 0.569474,-1.276401 0.197236,-0.454785 0.410369,-0.903002 0.591708,-1.364356 0.191553,-0.487336 0.350887,-0.986728 0.526331,-1.480092 0.424695,-0.870425 0.77347,-1.775801 1.190105,-2.649864 0.161143,-0.338062 0.346723,-0.663965 0.514441,-0.998814 0.149204,-0.297886 0.280096,-0.604957 0.436257,-0.899254 1.500717,-2.828206 -0.649778,1.426543 0.848234,-1.568504 0.284955,-0.929731 0.719399,-1.797138 1.131995,-2.672866 0.181576,-0.385391 0.315499,-0.792788 0.508866,-1.1724 0.08085,-0.158724 0.190549,-0.301019 0.285824,-0.451529 0.405109,-0.71238 -5.3e-4,0.04527 0.34905,-0.762451 0.05888,-0.136055 0.138393,-0.262411 0.199834,-0.397331 0.08572,-0.188242 0.118461,-0.407375 0.292047,-0.544501 0.04467,-0.03529 0.10717,-0.03847 0.160755,-0.0577 0.03044,-0.09985 0.09256,-0.34795 0.16442,-0.453761 0.178809,-0.263268 0.04707,0.100086 0.187895,-0.262052 0.05895,-0.151607 0.09225,-0.311979 0.13925,-0.467707 0.266565,-0.248473 0.210376,-0.627293 0.344928,-0.936459 0.02757,-0.06335 0.08311,-0.110385 0.124517,-0.165693 0.105517,-0.140958 0.04093,-0.132717 0.163401,-0.103204 0.695265,-2.044903 0.192228,-0.409726 -5.974878,-0.188703 -0.08702,0.0031 0.0548,0.166161 0.06793,0.25224 0.02249,0.147402 0.03157,0.296716 0.03857,0.44566 0.04996,1.063439 -0.08216,-0.166773 0.108221,1.26309 0.278417,1.51355 0.168761,3.046904 -0.146997,4.54539 -0.102169,0.484864 -0.268404,0.954225 -0.384639,1.435911 -0.738194,3.05914 -0.04425,0.787795 -1.027458,3.70738 -0.237875,1.011342 -0.772502,1.932168 -1.031698,2.93688 -0.142993,0.554276 -0.234108,1.121647 -0.310849,1.688904 -0.108951,0.805347 -0.114467,1.623625 -0.245783,2.425629 -0.306033,1.869079 -0.421959,1.954383 -1.043711,3.473694 -0.652286,1.479692 -0.14524,0.156241 -0.571586,1.942978 -0.08959,0.375448 -0.259459,0.730996 -0.325362,1.111317 -0.119426,0.689211 -0.09685,1.398999 -0.228662,2.08595 -0.385395,2.00859 -0.646397,2.374414 -1.411954,4.169555 -0.245782,0.305033 -0.51393,0.593323 -0.737347,0.915097 -0.14642,0.21088 -0.236298,0.456199 -0.367855,0.676658 -0.284208,0.47627 -0.643521,0.92042 -0.841541,1.446234 -0.04126,0.109562 -0.05421,0.227786 -0.08132,0.341679 -0.02335,0.08971 -0.12174,0.145703 -0.150364,0.233842 -0.01413,0.04351 -0.0081,0.09128 -0.01652,0.136241 -0.04188,0.223721 -0.03741,0.495522 -0.0458,0.720429 -0.02004,0.146604 -0.01979,0.297448 -0.06012,0.439811 -0.0247,0.08719 -0.08789,0.158493 -0.13184,0.237739 1.993153,0.02959 3.988154,0.179528 5.97946,0.08878 0.12018,-0.0055 -0.02423,-0.240819 -0.01363,-0.360656 0.0817,-0.923975 0.145803,-0.905231 0.469575,-1.861172 1.078387,-1.719117 -0.0075,-0.06307 0.905627,-1.29288 0.09338,-0.125774 0.160247,-0.270007 0.255011,-0.394743 0.08773,-0.115479 0.213565,-0.200873 0.290757,-0.323646 0.119474,-0.190021 0.190527,-0.406611 0.293715,-0.605945 0.125181,-0.241818 0.260799,-0.478088 0.391199,-0.717132 0.257389,-0.744563 0.70842,-1.399802 1.011039,-2.122771 0.224057,-0.535281 0.388218,-1.093823 0.595182,-1.635943 0.234446,-0.614107 0.492167,-1.219128 0.728904,-1.832356 0.266911,-0.691387 0.473776,-1.407308 0.781968,-2.081307 0.249331,-0.545272 0.590407,-1.043729 0.885611,-1.565594 0.753431,-2.09229 1.545457,-4.191138 2.725439,-6.088838 0.256143,-0.411941 0.603185,-0.761289 0.871773,-1.165225 0.533104,-0.801749 0.610384,-1.100791 0.967661,-1.963899 0.307862,-1.349592 0.246026,-1.331238 0.769148,-2.615967 0.145345,-0.35695 0.342779,-0.691399 0.484628,-1.049753 0.12573,-0.317633 0.212272,-0.649415 0.316709,-0.974672 0.334078,-1.040453 0.229776,-0.708101 0.533367,-1.787183 0.252821,-1.422034 0.739111,-2.785179 1.158277,-4.162458 0.158815,-0.521827 0.267431,-1.060308 0.462896,-1.569542 0.221029,-0.575834 0.933072,-1.846256 1.246384,-2.421861 0.5396,-0.647175 0.401304,-0.542239 0.901705,-0.980672 0.06304,-0.05524 0.147931,-0.08929 0.195205,-0.158505 0.08612,-0.126089 0.240229,-0.685356 0.299214,-0.852103 0.774962,-2.1389655 0.296771,-0.543301 -5.862358,-0.236478 -0.08703,0.0043 0.07988,0.159768 0.0866,0.246644 0.01247,0.160944 -0.01513,0.322611 -0.03007,0.483344 -0.07373,0.793497 -0.06983,0.654046 -0.244035,1.462411 -0.102682,1.120853 -0.06406,1.215337 -0.378552,2.352801 -0.0944,0.341417 -0.234698,0.668498 -0.345296,1.005016 -0.08377,0.254896 -0.164822,0.510806 -0.237747,0.769015 -0.303504,1.07462 -0.24283,0.964464 -0.44828,2.234133 -0.295244,1.132684 -0.587852,2.2665 -0.902316,3.394074 -0.08431,0.302321 -0.211227,0.594802 -0.260905,0.904703 -0.06864,0.428198 -0.05718,0.865474 -0.09215,1.297726 -0.04179,0.516501 -0.09208,1.032279 -0.138112,1.548419 -0.09646,0.569547 -0.192924,1.139095 -0.289386,1.708643 -0.114272,0.577616 -0.239763,1.153126 -0.342816,1.732849 -0.14361,0.807886 -0.182567,1.6374 -0.397072,2.429417 -0.55941,2.065507 -0.761031,1.509407 -1.428809,3.228515 -0.165666,0.426485 -0.249433,0.880409 -0.374149,1.320613 -0.730761,1.753413 -0.921598,3.667788 -1.588281,5.442544 -0.224923,0.598759 -0.38847,0.835343 -0.684587,1.327364 -0.328294,0.368043 -0.416804,0.862306 -0.602926,1.303496 -0.168185,0.398671 -0.204794,0.421854 -0.431672,0.764805 -0.293512,0.394461 -0.107011,0.08419 -0.268137,0.53216 -0.04707,0.130853 -0.07319,0.114494 -0.126007,0.237023 -0.106752,0.247664 -3.97e-4,0.117236 -0.144662,0.262493 -0.809245,2.012756 -0.209817,0.379339 5.948656,0.162748 0.07442,-0.0026 -0.06076,-0.13836 -0.06946,-0.212312 -0.03662,-0.311216 -0.08312,-0.624892 -0.06586,-0.93778 0.04487,-0.813613 0.293657,-1.714899 0.478914,-2.501755 0.297088,-1.24951 0.290746,-2.551995 0.566903,-3.803852 0.058,-0.262946 1.405014,-4.616803 1.433116,-4.711838 1.300644,-4.398396 0.252716,-1.251899 1.721192,-5.426987 1.359569,-3.694034 0.387576,-0.935762 1.619619,-4.766261 0.249632,-0.776121 0.473665,-1.56183 0.767855,-2.322181 0.212264,-0.548609 0.504566,-1.06284 0.748892,-1.597941 0.154418,-0.338193 0.347948,-0.663463 0.447247,-1.021735 0.128643,-0.464144 0.154169,-0.950867 0.231253,-1.4263 0.274588,-0.866024 0.742896,-2.375489 1.052052,-3.213666 0.181814,-0.492931 0.358014,-0.990328 0.591592,-1.460943 0.153803,-0.309885 0.354027,-0.59647 0.565457,-0.870298 0.09002,-0.116589 0.478865,-0.282803 0.331842,-0.291811 -1.98729,-0.121764 -3.981871,-0.03588 -5.972807,-0.05382 -0.457698,2.065565 -0.106836,0.324459 6.020009,0.01819 0.07273,-0.0036 -0.0036,-0.146943 0.01158,-0.218163 0.0174,-0.08155 0.158856,-0.500106 0.225637,-0.572701 0.0248,-0.02696 0.0728,0.0082 0.109202,0.01225 -2.007874,-0.0031 -4.020028,-0.140304 -6.023622,-0.0092 -0.13403,0.0088 0.03789,0.266204 0.04675,0.400228 0.01109,0.167624 -0.0098,0.337374 0.01303,0.503801 0.04928,0.358874 0.16342,0.707542 0.202768,1.06764 0.116015,1.061711 0.04946,1.094987 -0.109505,2.067602 -0.15134,0.567662 -0.279933,0.963917 -0.344707,1.550703 -0.03617,0.327659 -0.01745,0.659947 -0.05558,0.987384 -0.03668,0.315027 -0.139004,0.620651 -0.16843,0.936438 -0.335417,3.599649 0.31563,-0.984786 -0.259692,2.738129 -0.07698,0.24251 -0.685948,2.169873 -0.78546,2.449053 -0.106534,0.298881 -0.232882,0.590344 -0.353068,0.884002 -0.08285,0.202424 -0.153236,0.411088 -0.255998,0.604166 -0.305675,0.574329 -0.165025,-0.04908 -0.253799,0.589517 0.03424,0.991932 -0.271751,1.958019 -0.542232,2.900123 -0.275778,0.960553 -0.130525,0.507016 -0.387893,1.263914 -0.03348,0.12364 -0.08108,0.244299 -0.100446,0.37092 -0.166179,1.086712 0.08403,0.194395 -0.166959,1.367804 -0.08875,0.414941 -0.262731,0.798962 -0.383868,1.20325 0.0646,0.599472 -0.05082,1.17095 -0.135841,1.758546 -0.137811,0.952425 -0.11908,1.245678 -0.373348,2.265693 -0.09887,0.396643 -0.246554,0.779499 -0.369831,1.169249 -0.261424,0.747441 -0.233745,0.761207 -0.538958,1.367776 -0.0423,0.08407 -0.111514,0.155258 -0.140914,0.244661 -0.06832,0.207773 0.107703,0.484373 -0.0088,0.246064 -0.109989,0.893684 0.04397,-0.299001 -0.118771,0.747322 -0.02517,0.161801 -0.02594,0.327622 -0.06239,0.487261 -0.0316,0.13841 -0.114318,0.262515 -0.140633,0.402027 -0.03628,0.192354 -0.107264,1.457169 -0.111933,1.532279 -0.07747,0.975737 -0.02226,1.203825 -0.352226,2.093241 -0.04572,0.123235 -0.31033,0.671512 -0.505205,0.810003 -0.0747,0.05309 -0.118013,-0.03001 -0.14594,-0.06789 0.0031,0.120698 -0.0085,0.242694 0.0094,0.362095 0.0063,0.04175 0.01938,0.111587 0.06159,0.110664 1.990714,-0.04349 3.990358,-0.01612 5.968646,-0.242413 0.145014,-0.01659 -0.0699,-0.286555 -0.06837,-0.432506 0.0029,-0.281393 0.103699,-0.364169 0.249644,-0.578769 0.07585,-0.08376 0.163147,-0.158441 0.227561,-0.25129 0.174364,-0.251336 0.363112,-0.695051 0.469688,-0.96051 0.341099,-0.849611 0.517446,-1.434688 0.898693,-2.305113 0.172968,-0.394903 0.376624,-0.775641 0.564936,-1.163462 0.943818,-1.899489 0.09904,-0.29222 1.1194,-2.000698 0.203761,-0.341173 0.365765,-0.707517 0.586915,-1.037684 0.181468,-0.270924 0.426181,-0.494736 0.616751,-0.759337 0.443018,-0.615116 0.653318,-1.093402 1.006604,-1.778368 0.575604,-1.502102 1.378602,-2.938841 2.527133,-4.08297 -0.03547,-0.859814 0.654839,-0.280223 0.916341,-0.512916 0.108679,-0.09671 0.130062,-0.260263 0.195094,-0.390394 0.473255,-1.127399 1.039904,-2.217529 1.633398,-3.285871 0.509361,-0.916897 0.657779,-1.249687 1.343554,-1.971699 0.135015,-0.14215 0.301875,-0.250226 0.452813,-0.37534 -0.02791,-0.424711 0.221655,-0.06488 0.304009,-0.140179 0.117519,-0.107455 0.222678,-0.690602 0.262826,-0.815512 0.04397,-0.136795 0.106668,-0.266846 0.160002,-0.400269 1.385529,-2.397662 2.284555,-1.46234 -5.356998,-0.8564 -0.135395,0.01074 0.03262,0.270115 0.03556,0.405903 0.0031,0.14188 -0.01168,0.283587 -0.01752,0.42538 -0.0034,0.139675 -0.0069,0.279349 -0.01032,0.419024 0.0099,0.160356 0.02994,0.32041 0.02959,0.481069 -1.65e-4,0.07624 -0.07176,1.10417 -0.07491,1.125136 -0.0262,0.174921 -0.08955,0.342386 -0.125348,0.515599 -0.04289,0.207539 -0.07372,0.417389 -0.110584,0.626084 -0.04153,0.26598 -0.08524,0.531628 -0.124579,0.79794 -0.05271,0.356819 -0.06585,0.72105 -0.151583,1.071405 -0.144219,0.589399 -0.474365,1.243607 -0.737776,1.788312 -0.125604,0.259735 -0.272773,0.509494 -0.383804,0.775784 -0.142096,0.340791 -0.249566,0.695009 -0.37435,1.042513 -1.735323,4.310192 0.783621,-1.909392 -1.085688,2.579282 -0.197924,0.475265 -0.339905,0.974809 -0.568966,1.435875 -0.326395,0.656987 -0.729398,1.047859 -1.087816,1.658761 -0.09821,0.167396 -0.166375,0.350698 -0.249562,0.526046 -0.278914,0.613772 -0.178355,0.429195 -0.526286,1.037794 -0.09078,0.158797 -0.173113,0.323267 -0.278057,0.473083 -0.199782,0.285203 -0.423966,0.419445 -0.566114,0.749136 -0.08451,0.196003 -0.114461,0.41126 -0.171691,0.61689 -0.195399,0.368578 -0.393725,0.785091 -0.655418,1.115458 -0.09254,0.116823 -0.228718,0.194203 -0.320973,0.311252 -0.217976,0.276559 -0.33756,0.650767 -0.476489,0.970565 0.07376,0.264121 -0.222342,0.05742 -0.251703,0.150702 -0.04472,0.142086 0.01732,0.302847 -0.02284,0.446292 -0.03919,0.140011 -0.215983,0.124435 -0.306338,0.175076 -0.04991,0.02797 -0.08554,0.07599 -0.128315,0.113982 -0.03751,0.13912 -0.09991,0.760225 -0.177377,0.84757 -0.02412,0.02719 -0.07062,-0.01722 -0.10593,-0.02582 -1.693894,1.241404 -0.08601,0.0407 5.957572,0.141479 0.0053,8.8e-5 -0.0098,0.01711 -0.01049,0.01187 -0.0094,-0.0741 -0.01238,-0.148892 -0.01631,-0.223479 -0.02899,-0.549947 0.02659,-0.07957 -0.109561,-0.86356 0.0099,-0.25074 -0.01589,-0.505475 0.02978,-0.75222 0.06733,-0.363768 0.381901,-1.070205 0.543924,-1.405459 0.100038,-0.206996 0.241738,-0.394737 0.320438,-0.610749 1.031953,-2.832469 -0.427565,0.381388 0.965957,-2.511887 0.216214,-0.352649 0.424224,-0.710461 0.648641,-1.057947 0.21498,-0.332872 0.424758,-0.670641 0.669171,-0.982542 0.210309,-0.268378 0.461283,-0.50224 0.69146,-0.753785 0.115614,-0.126348 1.14269,-1.247089 1.258551,-1.394426 0.21722,-0.276233 0.403776,-0.575259 0.605664,-0.862888 0.561662,-0.826584 0.667038,-1.056563 1.319613,-1.756294 0.259304,-0.278042 0.576217,-0.498831 0.832454,-0.779702 0.08741,-0.09581 0.153693,-0.209119 0.236357,-0.30905 0.06958,-0.08411 0.146653,-0.161739 0.21998,-0.242608 0.110753,0.03598 0.212808,-0.256677 0.345809,-0.223093 0.04058,0.01025 0.11409,0.274699 0.211664,0.08642 0.174612,-0.336938 -0.04274,-0.275432 0.138033,-0.3107 0.01384,-0.06584 -0.02506,-0.187852 0.04152,-0.197527 0.06657,-0.0097 0.02864,0.177998 0.0959,0.177558 0.08817,-5.77e-4 0.128734,-0.120552 0.194349,-0.179458 0.07705,-0.06918 0.163769,-0.128321 0.233625,-0.204763 0.230172,-0.251871 0.41571,-0.541171 0.621578,-0.813267 0.470568,-0.586222 0.880689,-1.209668 1.434924,-1.724842 0.154638,-0.143739 0.341887,-0.249639 0.495727,-0.394232 0.136491,-0.128287 0.245841,-0.282729 0.371922,-0.421262 0.106019,-0.116489 0.216187,-0.229131 0.324281,-0.343697 0.206841,-0.109629 0.388754,-0.195259 0.576567,-0.336225 0.09192,-0.06899 0.168094,-0.157617 0.26087,-0.225453 0.67715,-0.495122 -0.140127,0.145767 0.509732,-0.252862 0.08936,-0.05481 0.160171,-0.1353 0.240256,-0.20295 0.332071,-0.195584 0.595272,-0.489276 0.855299,-0.770101 0.03727,-0.04025 0.05651,-0.115041 0.110983,-0.121507 0.04554,-0.0054 0.06522,0.06448 0.09783,0.09672 -1.981177,-0.03773 -3.962354,-0.07546 -5.94353,-0.11319 0.0045,0.02302 0.01543,0.04567 0.01364,0.06906 -0.0031,0.04059 -0.02328,0.07845 -0.028,0.118887 -0.008,0.06843 8.52e-4,0.138388 -0.0099,0.206426 -0.01026,0.06471 -0.03842,0.125398 -0.05282,0.189309 -0.02146,0.09526 -0.03644,0.191871 -0.05466,0.287806 -0.03493,0.164811 -0.04927,0.33537 -0.104782,0.494434 -0.129902,0.372225 -0.336285,0.630708 -0.495294,0.985686 -0.260871,0.582382 -0.10641,0.379455 -0.322355,0.983925 -0.04612,0.129103 -0.112567,0.250016 -0.16885,0.375024 -0.04558,0.10735 -0.08575,0.217163 -0.136745,0.32205 -0.192007,0.394939 -0.09861,0.07962 -0.246049,0.530082 -0.07836,0.239429 -0.160764,0.615421 -0.251421,0.837793 -0.06219,0.152543 -0.150398,0.293133 -0.225597,0.4397 -0.07278,0.106234 -0.130607,0.224438 -0.21834,0.318701 -0.04939,0.05307 -0.140847,0.05696 -0.184892,0.114544 -0.04802,0.06278 -0.04626,0.151301 -0.07481,0.225004 -0.01227,0.03167 -0.038,0.05759 -0.0473,0.09025 -0.01458,0.05119 -0.0032,0.10871 -0.02339,0.157951 -0.0068,0.01656 -0.03315,0.0135 -0.04972,0.02026 -0.128182,0.19145 -0.144738,0.437782 -0.246613,0.638631 -0.02811,0.05541 -0.0823,0.09381 -0.115246,0.146494 -0.108833,0.174042 -0.153393,0.310722 -0.230184,0.501675 -0.03359,0.04823 -0.06718,0.09646 -0.100765,0.144688 -0.03503,0.01427 -0.07879,0.01564 -0.105102,0.04282 -0.03747,0.03871 -0.04602,0.09775 -0.07497,0.143182 -0.01808,0.02839 -0.04354,0.05134 -0.06531,0.077 0,0 5.996894,0.36915 5.996894,0.36915 v 0 c 0.107483,-0.174074 0.225582,-0.339749 0.265162,-0.54719 0.175816,-0.419864 -0.06144,0.112946 0.242486,-0.421333 0.149153,-0.262196 0.210284,-0.574934 0.429384,-0.797003 0.114445,-0.322025 0.193452,-0.65462 0.3236,-0.971606 0.06731,-0.154315 0.128013,-0.311687 0.20194,-0.462945 0.08363,-0.1711 0.18512,-0.333011 0.270328,-0.503328 0.196318,-0.392408 0.357467,-0.801507 0.461509,-1.228206 0.23225,-1.01845 0.649201,-2.000487 1.189437,-2.89273 0.0513,-0.181716 0.115262,-0.359747 0.164843,-0.541939 0.03465,-0.127319 0.04694,-0.26322 0.0559,-0.394113 0.157062,-2.293751 -0.769839,-0.330272 -6.022113,-0.646844 -0.204729,0.415248 -0.531636,0.685719 -0.930784,0.919639 -0.266695,0.147014 -0.486655,0.312609 -0.726721,0.498819 -0.102433,0.07945 -0.435137,0.315903 -0.525527,0.403424 -0.08631,0.08357 -0.156157,0.182601 -0.234236,0.273902 -0.668427,0.879245 0.20034,-0.248262 -0.593822,0.726443 -0.113664,0.139503 -0.212152,0.291111 -0.328511,0.428374 -0.527671,0.622471 -0.584045,0.615914 -1.147969,1.227599 -0.143158,0.155283 -0.276681,0.319178 -0.415022,0.478767 -0.397974,0.338172 -0.478917,0.43265 -0.869002,0.689742 -0.07703,0.05077 -0.154853,0.101772 -0.239064,0.139446 -0.09157,0.04097 -0.208871,0.03047 -0.285486,0.09522 -0.27627,0.233506 -0.06241,0.354895 -0.199648,0.267379 -0.0216,0.04063 -0.01932,0.128865 -0.0648,0.121888 -0.04579,-0.007 0.0045,-0.10308 -0.028,-0.136121 -0.02374,-0.02416 -0.07657,-0.0186 -0.101537,0.0043 -0.08944,0.08201 -0.215173,0.446173 -0.324953,0.515006 -0.10275,0.142612 -0.296876,0.407024 -0.389739,0.556132 -0.543518,0.87272 -0.859461,1.873251 -1.662654,2.575514 -1.037538,1.179987 -0.403538,0.445735 -1.305697,1.517109 -0.207325,0.246212 -0.430611,0.479667 -0.623546,0.73731 -0.192914,0.257616 -0.356065,0.53624 -0.531972,0.805756 -0.863206,1.322567 -0.514008,0.700689 -1.167748,2.113612 -1.476536,2.921216 0.272507,-0.390597 -1.494951,2.489853 -0.221884,0.361608 -0.407101,0.964836 -0.5363,1.360994 -0.308295,0.945308 -0.228025,0.696476 -0.476968,1.657255 -0.05208,0.268779 -0.08846,0.540516 -0.143591,0.808688 -0.01432,0.06968 -0.04316,0.135784 -0.05846,0.205259 -0.01746,0.0793 -0.120686,0.234752 -0.03968,0.24035 5.95573,0.41157 5.100341,1.950506 6.093697,0.104932 0.06314,-0.226116 0.136778,-0.428026 0.222002,-0.646558 0.02789,-0.07152 0.02223,-0.156579 0.0633,-0.221441 0.01673,-0.02643 -0.0074,0.06213 -0.01104,0.0932 0.08559,-0.105364 0.152804,-0.182721 0.22116,-0.315708 0.05144,-0.100078 0.07201,-0.214486 0.12624,-0.31308 0.02184,-0.0397 0.07252,-0.05679 0.09786,-0.09435 0.0902,-0.133647 0.118995,-0.263538 0.167102,-0.414865 0.104312,-0.311346 0.210809,-0.530839 0.361181,-0.822203 0.274259,-0.53141 0.499654,-1.08865 0.854712,-1.575792 0.301632,-0.541567 0.212918,-0.402837 0.507268,-0.86473 0.09539,-0.149686 0.204472,-0.2912 0.28867,-0.447456 0.07869,-0.146037 0.123657,-0.30831 0.198378,-0.456418 0.194444,-0.385415 0.447374,-0.740005 0.609727,-1.142547 0.103871,-0.619129 0.05699,-0.431107 0.261751,-1.14849 0.09723,-0.340657 0.172927,-0.689081 0.302179,-1.018924 0.190405,-0.485899 0.435214,-0.948683 0.654434,-1.42228 0.779733,-1.684516 0.406844,-0.942603 1.307928,-2.566562 0.193172,-0.344235 0.401898,-0.680192 0.579514,-1.032705 0.216707,-0.430093 0.511681,-1.224325 0.656957,-1.673758 0.10696,-0.330897 0.187688,-0.669847 0.292895,-1.001306 0.114082,-0.359421 0.247518,-0.712452 0.364816,-1.070836 0.08608,-0.263012 0.163513,-0.528778 0.245269,-0.793167 0.06358,-0.216468 0.141639,-0.429198 0.190735,-0.649402 0.04122,-0.184901 0.05297,-0.375162 0.07952,-0.562734 0.09654,-0.682143 0.236686,-1.360229 0.200082,-2.053286 0.0094,-0.13658 0.0065,-0.27456 0.02815,-0.409741 0.02169,-0.135523 0.237366,-0.380934 0.101323,-0.399082 -7.896897,-1.053453 -5.341896,-2.262958 -5.96177,-0.196225 -0.02848,0.09494 -0.04711,0.194166 -0.0907,0.283188 -0.07855,0.160434 -0.182377,0.307205 -0.273566,0.460807 -0.06031,0.111272 -0.311725,0.588931 -0.411979,0.73147 -0.150975,0.214654 -0.383155,0.221232 -0.297879,0.535095 -0.02923,0.138578 -0.03852,0.282912 -0.08768,0.415732 -0.245078,0.662155 -0.691656,1.428919 -1.021712,2.021621 -0.226402,0.406563 -0.433458,0.825309 -0.689381,1.213966 -0.682056,1.0358 -0.832385,1.109282 -1.649905,1.91754 -0.129365,0.0968 -0.291051,0.161215 -0.388097,0.290396 -0.03749,0.0499 0.04385,0.12349 0.03125,0.184621 -0.03851,0.186854 -0.111763,0.365204 -0.181178,0.542908 -0.137281,0.351445 -0.255974,0.713313 -0.438512,1.043523 -0.637303,1.152876 -1.339821,1.997977 -2.134225,3.0453 -0.415571,0.583595 -0.832815,1.129715 -1.184184,1.753054 -0.14407,0.255584 -0.244316,0.534697 -0.393619,0.787259 -0.21315,0.360565 -0.47972,0.687786 -0.691861,1.048945 -0.291947,0.497024 -0.769728,1.569138 -1.00039,2.068868 -0.133861,0.378884 -0.225066,0.775662 -0.401584,1.13665 -0.528763,1.081344 -0.852828,1.340186 -1.535734,2.250111 -0.123033,0.163933 -0.228466,0.340523 -0.350033,0.505545 -0.539332,0.732118 -0.07468,0.01752 -0.508249,0.711287 -0.06537,0.147882 -0.152596,0.287923 -0.196101,0.443645 -0.03718,0.133079 -0.02313,0.275551 -0.04302,0.412286 -0.01974,0.135644 -0.212094,0.389955 -0.07576,0.404177 1.971591,0.205676 3.960943,0.207082 5.943232,0.207917 0.02472,1.1e-5 0.04565,-0.6867 0.01364,0.0792 -0.0077,-0.08276 -0.0014,-0.166867 -0.01473,-0.248897 -0.014,-0.08597 -0.05894,-0.166883 -0.06159,-0.253945 -0.0063,-0.20602 0.01494,-0.41222 0.03501,-0.617356 0.10925,-1.116706 0.111861,-0.931734 0.404286,-2.100645 0.926814,-3.033868 -0.194514,0.65355 0.432781,-1.448644 0.04898,-0.164147 0.108801,-0.325131 0.152235,-0.490833 0.03581,-0.136631 0.04428,-0.2799 0.08523,-0.415082 0.08889,-0.293454 0.167823,-0.411942 0.305309,-0.661111 0.03112,-0.135957 0.07729,-0.269326 0.09337,-0.40787 0.03222,-0.277656 -0.142039,0.222235 -0.206811,-0.211917 -0.05074,-0.340095 0.02303,-1.093379 0.04026,-1.361622 0.07185,-0.382478 0.09871,-0.776222 0.215564,-1.147434 0.146457,-0.465269 0.388475,-0.89501 0.569886,-1.347796 0.126738,-0.316328 0.253214,-0.633526 0.354326,-0.958954 0.175315,-0.56425 0.20716,-1.165543 0.392608,-1.727575 0.02279,-0.11421 0.0639,-0.226254 0.06836,-0.34263 0.03977,-1.039024 -0.243298,0.702403 0.01565,-0.9009 0.227874,-1.410887 0.02652,0.0184 0.417486,-1.369661 0.03574,-0.126885 0.02032,-0.26286 0.03047,-0.39429 -0.03828,-0.438872 -0.08653,-0.721587 0.0055,-1.185704 0.129674,-0.653625 0.415094,-1.275001 0.676319,-1.881229 0.105114,-0.243941 0.231392,-0.479047 0.324375,-0.727865 0.04705,-0.125893 0.06276,-0.261364 0.09414,-0.392046 0.0013,-0.377106 -0.02444,-0.721376 0.01526,-1.104409 0.12123,-1.169543 0.46433,-2.252236 0.756309,-3.387269 0.0922,-0.47095 0.184394,-0.9419 0.276591,-1.412849 0.111192,-0.44125 0.239731,-0.878487 0.333576,-1.323749 0.0663,-0.314569 0.08794,-0.637142 0.146338,-0.953273 0.0601,-0.325348 0.148741,-0.644986 0.209004,-0.970304 0.03102,-0.167456 0.210158,-1.466213 0.228744,-1.59944 -0.0047,-0.481157 -0.02784,-1.667688 0.02161,-2.104313 0.03999,-0.353188 0.153759,-0.69424 0.217286,-1.043961 0.02902,-0.159734 0.02873,-0.324036 0.06014,-0.483317 0.02613,-0.132473 0.245843,-0.371879 0.111946,-0.389298 -1.983023,-0.257972 -3.991641,-0.250033 -5.987462,-0.37505 0.01705,0.03655 0.05243,0.06933 0.05113,0.109634 -0.006,0.185149 -0.163499,0.481529 -0.223588,0.624144 -0.04591,0.108954 -0.250886,0.319001 -0.133061,0.328788 12.207738,1.014067 7.998839,0.433269 6.009015,0.158391 -1.975599,-0.08521 -3.949366,-0.259847 -5.926797,-0.255627 -0.104147,2.23e-4 0.156929,0.163856 0.160724,0.267934 0.01105,0.303056 -0.04922,0.606739 -0.118067,0.902078 -0.379591,1.628389 -1.110074,3.142004 -1.683314,4.704035 -0.194344,0.485147 -0.468566,0.945506 -0.583032,1.455443 -0.07248,0.322907 0.05282,0.661876 0.03359,0.99226 -0.03135,0.538748 -0.07285,1.080486 -0.184902,1.608383 -0.516341,2.432512 -1.677013,4.648252 -2.156193,7.090411 -0.247802,0.868368 -0.460371,1.747573 -0.743407,2.605103 -1.047475,3.173591 -0.950188,2.30533 -2.037491,5.305977 -0.268123,0.739942 -0.474261,1.50099 -0.725133,2.246957 -0.426751,1.268943 -0.903458,2.520768 -1.312538,3.795819 -0.242205,1.132385 -0.255365,1.405192 -0.680425,2.507285 -0.134194,0.347938 -0.325317,0.671675 -0.466882,1.01668 -0.04725,0.115158 -0.222196,0.3502 -0.09813,0.360302 5.892281,0.479771 5.150848,1.923695 6.077366,0.04028 0.07064,-0.165577 0.173348,-0.357199 0.224106,-0.528906 0.05559,-0.188045 -0.02156,-0.366742 0.134899,-0.537473 0.266179,-0.62397 0.04299,-0.117808 0.381338,-0.828045 0.06551,-0.137524 0.120233,-0.280364 0.192365,-0.414534 0.04308,-0.08012 0.393143,-0.613266 0.425707,-0.721493 0.02407,-0.07998 -0.0094,-0.166781 -0.01407,-0.250171 -0.01507,-0.153934 -0.0447,-0.307133 -0.04521,-0.461803 -0.0044,-1.332653 0.37838,-2.505093 0.817386,-3.751184 0.162821,-0.462159 0.367593,-0.909273 0.519797,-1.375037 0.127056,-0.388804 0.211295,-0.790318 0.316943,-1.185477 0.117617,-0.434452 0.26278,-0.86237 0.352853,-1.303356 0.309347,-1.51453 0.04993,-1.583338 0.572979,-3.267954 0.260657,-0.839512 0.709271,-1.612431 0.97415,-2.450621 0.356446,-1.127945 0.309901,-2.359917 0.786131,-3.460611 0.875083,-4.03061 -0.18765,0.698457 0.696038,-2.790626 0.07601,-0.300096 0.12309,-0.606786 0.185783,-0.909943 0.07022,-0.339547 0.15688,-0.675996 0.212949,-1.018164 0.05857,-0.357417 0.0653,-0.722428 0.130647,-1.078669 0.07942,-0.432996 0.201999,-0.856955 0.302999,-1.285432 0.172287,-0.436213 0.343558,-0.872829 0.516862,-1.30864 0.127438,-0.320473 0.300856,-0.625834 0.385361,-0.960203 0.06104,-0.241537 0.02041,-0.498159 0.04585,-0.745989 0.03405,-0.331752 0.05317,-0.667751 0.13251,-0.991672 0.196755,-0.80331 0.57802,-1.553419 0.768425,-2.359173 0.387852,-1.418346 0.02531,-0.139346 0.443874,-1.490959 0.05607,-0.181075 0.105396,-0.364174 0.158937,-0.546014 0.04477,-0.152071 0.293938,-0.442 0.136007,-0.455713 -1.990242,-0.172816 -3.996047,-0.110014 -5.99296,-0.05286 -0.0773,0.0022 -0.03519,0.150601 -0.05278,0.225902 -0.08645,0.180514 -0.161502,0.36672 -0.256292,0.542999 -0.108909,0.202537 -0.131421,0.139335 -0.188758,0.385839 -0.02671,0.114829 -0.02076,0.235983 -0.05055,0.350051 -0.06366,0.243779 -0.152651,0.480231 -0.228977,0.720347 -0.510059,1.348778 -1.023714,2.693824 -1.46856,4.066163 -0.158066,0.487627 -0.27044,0.990495 -0.451701,1.469985 -0.343127,0.907674 -0.857929,1.745036 -1.137909,2.679487 -0.106324,0.312999 -0.226681,0.621578 -0.318974,0.938998 -0.147104,0.505932 -0.282461,1.292168 -0.413688,1.79541 -0.328925,1.261392 -0.749188,2.506103 -1.353546,3.664202 -0.09945,0.303023 -0.184793,0.611046 -0.29835,0.90907 -0.131218,0.344377 -0.324478,0.664818 -0.435273,1.016297 -0.122427,0.388378 -0.130882,0.807609 -0.261275,1.193385 -0.731707,2.164801 -2.001224,4.069011 -3.030191,6.092378 -0.162,0.528658 -0.28015,1.072799 -0.485998,1.585975 -0.283878,0.707702 -0.650445,1.37937 -0.979413,2.067272 -0.288837,0.603984 -0.554292,1.220125 -0.873987,1.808359 -0.296818,0.546138 -0.648481,1.060634 -0.973294,1.590601 -0.868161,1.416498 -0.459265,0.783696 -1.336096,2.072496 -0.174339,0.23738 -0.344237,0.478087 -0.523015,0.712142 -0.07322,0.09586 -0.663293,0.811128 -0.754354,0.964781 -0.321154,0.541903 -0.236824,1.249379 -0.645875,1.757143 -0.59551,1.166015 -0.420255,0.864516 -1.024199,1.903339 -0.07932,0.136429 -0.400434,0.38929 -0.243512,0.406002 6.664296,0.709734 5.6378,2.050228 6.052162,-0.523739 0.103237,-0.271135 0.229737,-0.545161 0.315635,-0.823436 0.0019,-0.0061 -0.01188,0.01991 -0.01329,0.0137 -0.01291,-0.0571 0.0032,-0.305147 0.0032,-0.306547 0.0071,-0.138607 0.01517,-0.44689 0.0588,-0.565445 0.474167,-1.288416 0.05039,0.317628 0.537709,-1.110107 0.233712,-0.68472 0.159095,-0.874446 0.156599,-1.644371 0.436165,-1.64821 0.62798,-2.558176 1.291384,-4.195718 2.785303,-6.875218 -0.06717,0.933618 1.298466,-3.180861 0.531825,-1.602317 0.413851,-0.587655 0.444554,-2.001664 -0.115054,-1.546973 -0.219667,-1.693399 0.202944,-3.468882 0.850922,-3.574911 0.578951,-1.158688 1.377608,-4.073991 0.264168,-0.964283 0.172812,-2.010479 0.651474,-2.927838 1.586069,-5.830701 -0.795257,2.610692 1.304823,-3.729069 0.158827,-0.479468 0.229974,-0.984262 0.315519,-1.482054 0.09051,-0.526705 0.134936,-1.060362 0.212269,-1.589163 0.251607,-1.720488 0.215442,-1.432135 0.554179,-3.025905 0.38989,-2.782255 -0.07105,0.66315 0.132928,-1.24242 0.25965,-2.425599 2.814941,-3.033493 -5.907028,-0.966518 -0.168399,0.462662 -0.172019,0.985595 -0.493785,1.391818 -0.102236,0.171602 -0.213521,0.342324 -0.304755,0.520615 -0.06499,0.126998 -0.112293,0.263188 -0.185019,0.385917 -0.01609,0.02716 -0.04404,0.04525 -0.06605,0.06788 -0.111869,0.217759 -0.15402,0.275469 -0.223758,0.524178 -0.02546,0.09078 -0.02312,0.188655 -0.05459,0.277529 -0.207397,0.58567 -0.171876,0.2504 -0.418044,0.840537 -0.04297,0.103003 -0.05689,0.215838 -0.08534,0.323757 -0.05088,0.156635 -0.08986,0.317645 -0.152626,0.469905 -0.116942,0.283669 -0.483953,0.946082 -0.556637,1.255954 -0.04474,0.190745 0.0099,0.395066 -0.0292,0.587042 -0.19248,0.944344 -0.376037,1.092936 -0.870389,1.973306 -0.15634,0.276309 -0.327381,0.544802 -0.469019,0.828927 -0.07271,0.145854 -0.68593,1.626057 -0.712321,1.703016 -0.112309,0.327494 -0.169328,0.672148 -0.280068,1.000175 -0.230439,0.682597 -0.797231,2.027849 -1.062149,2.671928 -0.892859,2.262787 -0.209221,0.635653 -1.229873,2.807746 -0.256201,0.545233 -0.912672,2.037186 -1.190245,2.574257 -0.192558,0.372576 -0.43997,0.71562 -0.624729,1.092125 -0.102541,0.20896 -0.15603,0.438601 -0.234045,0.657902 -0.06105,0.21604 -0.112254,0.435112 -0.183164,0.648122 -0.102498,0.3079 -0.353076,0.841803 -0.410997,1.182695 -0.07891,0.464439 0.06329,0.952352 -0.107032,1.409228 -0.06069,0.327812 -0.167863,0.645288 -0.251794,0.967932 -0.07591,0.244056 -0.170265,0.483123 -0.22774,0.732167 -0.03094,0.134064 -0.172777,0.395166 -0.03612,0.411181 1.787177,0.209451 6.330382,2.321267 6.0594,-0.108874 -0.0077,-0.06948 -0.07512,0.277946 -0.08186,0.193107 0.051,-0.309541 0.252075,-0.501562 0.383475,-0.786366 0.356038,-0.7717 0.319043,-1.661642 0.871591,-2.360329 0.154257,-0.316757 0.316313,-0.629834 0.46277,-0.950271 0.457341,-1.000631 0.251483,-0.8047 0.93775,-1.806089 0.282616,-0.412389 0.752646,-0.870105 0.983359,-1.341451 0.07194,-0.146971 0.09144,-0.314231 0.13716,-0.471347 0.0723,-0.611858 0.06424,-0.810095 0.33005,-1.460697 0.259307,-0.634686 0.799682,-1.553318 1.116563,-2.185487 0.09192,-0.183379 0.161555,-0.377333 0.252574,-0.561161 0.0835,-0.168641 0.180394,-0.330311 0.270591,-0.495466 0.0522,-0.135682 0.114191,-0.267991 0.156586,-0.407047 0.148948,-0.488561 0.07205,-0.570034 0.289002,-1.107107 0.135645,-0.335791 0.316332,-0.651581 0.475992,-0.976641 0.717142,-1.460065 0.340861,-0.785795 1.271761,-2.215315 0.246177,-0.271737 0.494398,-0.541638 0.738531,-0.815213 0.127784,-0.143195 0.265378,-0.279025 0.377161,-0.435032 0.115612,-0.16135 0.203212,-0.341052 0.3022,-0.513103 0.159359,-0.276984 0.321038,-0.552748 0.472815,-0.833958 0.640466,-1.186645 0.447703,-0.716068 0.740141,-1.945955 0.143199,-0.438617 0.252091,-0.889962 0.429596,-1.315853 0.515349,-1.236487 0.677396,-1.278657 1.248529,-2.328482 0.15447,-0.283937 0.416498,-0.891059 0.544443,-1.192836 0.08222,-0.193941 0.160938,-0.389351 0.241407,-0.584027 0.104709,-0.204388 0.195497,-0.41653 0.314128,-0.613164 0.543976,-0.901657 0.314235,-0.307509 0.728304,-1.17132 0.307268,-0.641006 0.209839,-0.512562 0.417259,-1.157937 0.05867,-0.182562 0.126437,-0.362077 0.189656,-0.543115 0.0433,-0.130562 0.08087,-0.26317 0.129911,-0.391687 0.0219,-0.0574 0.143794,-0.161332 0.08246,-0.16484 -1.988022,-0.113692 -3.981023,-0.110217 -5.971338,-0.171936 -0.03471,-0.0011 0.08789,-0.04093 0.103704,-0.01002 0.09165,0.179166 0.0173,0.814763 0.01314,0.891329 -0.04172,0.294348 -0.0701,0.590898 -0.125155,0.883045 -0.181678,0.964041 -0.515088,1.879169 -0.750602,2.828637 -0.059,0.237837 -0.100871,0.479606 -0.153804,0.718866 -0.04503,0.203532 -0.09338,0.406314 -0.140072,0.60947 -0.08239,0.480468 -0.210649,0.942092 -0.339927,1.412263 -0.09445,0.343507 -0.180019,0.689542 -0.281858,1.030932 -0.03935,0.131922 -0.08881,0.260617 -0.13322,0.390926 -0.135293,0.389342 -0.185459,0.808696 -0.350373,1.188051 -0.115015,0.264571 -0.274244,0.507776 -0.402164,0.766354 -0.380665,0.769477 -0.55453,1.213761 -0.905046,2.03487 -1.259019,2.757186 -0.147643,0.214952 -1.221926,2.99263 -0.225,0.581764 -0.48811,1.148409 -0.709373,1.731604 -0.18356,0.483816 -0.337913,0.978218 -0.504592,1.468106 -0.67056,1.97084 -0.403963,1.107074 -0.942996,3.141576 -0.21682,0.60903 -0.4074,1.228049 -0.650459,1.82709 -0.228027,0.561993 -0.519151,1.096491 -0.761378,1.652511 -0.154988,0.355765 -0.30527,0.714396 -0.429861,1.081911 -0.266794,0.786979 -0.358783,1.627885 -0.482252,2.444195 -0.0771,0.617934 -0.156723,1.235653 -0.233403,1.853518 -0.02036,0.164079 -0.217428,0.478235 -0.05277,0.493196 5.96658,0.542136 5.401744,1.941197 6.135554,-0.168245 0.03569,-0.264606 0.0721,-0.534584 0.128751,-0.795524 0.01757,-0.08094 0.04871,-0.158713 0.06367,-0.240174 0.01112,-0.06057 0.0095,-0.122802 0.01426,-0.184204 0.06697,-0.406538 0.110304,-0.834234 0.236296,-1.227621 0.291749,-0.910927 0.136433,-0.185644 0.521298,-1.111508 0.05228,-0.125771 0.06603,-0.264284 0.09904,-0.396427 0.02503,-0.101441 0.03884,-0.206332 0.0751,-0.304323 0.03409,-0.09213 0.08398,-0.177979 0.13454,-0.262201 0.01371,-0.02284 0.04745,-0.03134 0.05669,-0.05633 0.07868,-0.212816 0.01539,-0.418661 0.0122,-0.637858 -0.0038,-0.145844 -0.0352,-0.293603 -0.01135,-0.437532 0.03552,-0.214324 0.124208,-0.416366 0.187334,-0.624241 0.174656,-0.575148 0.409034,-1.123141 0.615303,-1.68694 0.07556,-0.324088 0.138925,-0.611546 0.305505,-0.905189 0.05994,-0.105659 0.173354,-0.18619 0.199856,-0.30474 0.0062,-0.02795 -0.01,-0.0564 -0.01498,-0.0846 0.0798,-0.427711 0.108472,-0.878993 0.222152,-1.298271 0.177034,-0.652942 0.536342,-1.25578 0.564807,-1.944778 0.06443,-0.712959 0.03891,-0.943228 0.357203,-1.676235 0.469848,-1.082025 1.283761,-1.959759 1.76225,-3.031628 0.223877,-0.729406 0.447582,-1.464389 0.78199,-2.152216 0.2553,-0.454536 0.479046,-0.925177 0.700112,-1.396877 0.03145,-0.06709 0.07252,-0.129614 0.101039,-0.198007 0.02767,-0.06637 0.04467,-0.136709 0.06701,-0.205063 0.09446,-0.30121 0.137129,-0.465426 0.282533,-0.771753 0.1659,-0.349505 0.388987,-0.670029 0.5531,-1.020376 0.04663,-0.09955 0.07143,-0.207949 0.108149,-0.311573 0.03633,-0.102545 0.074,-0.204615 0.110995,-0.306923 0.252987,-0.808938 0.717651,-1.533589 0.954255,-2.349853 0,0 -5.8254,-0.09968 -5.8254,-0.09968 z" />
  <path
     style="fill:#ffffff;stroke-width:0.106277"
     d="m 27.573095,41.887998 c -0.86337,-0.145349 -2.177851,-0.673373 -2.964906,-1.191003 -1.362718,-0.896223 -2.272503,-1.881138 -3.036813,-3.287578 -1.881796,-3.462778 -0.825371,-8.076836 2.48948,-10.873086 2.430902,-2.050594 5.68214,-3.128161 10.383915,-3.441575 l 1.878946,-0.125249 v -0.916402 c 0,-2.015552 -0.748643,-3.513288 -2.088549,-4.178355 -0.445768,-0.221258 -0.653754,-0.250408 -1.775199,-0.248798 -1.217278,0.0017 -1.296771,0.01581 -1.90541,0.337169 -1.138681,0.601214 -2.065644,1.620805 -2.585992,2.844399 -0.176352,0.414692 -0.229439,0.459526 -0.499367,0.421742 -0.16612,-0.02325 -1.671487,-0.223666 -3.34526,-0.445362 -1.673773,-0.221695 -3.070739,-0.430817 -3.104369,-0.464715 -0.152799,-0.154017 0.529635,-2.248402 1.121526,-3.441953 0.714371,-1.440533 1.391619,-2.354727 2.323536,-3.136456 1.34574,-1.12886 2.512309,-1.637069 4.717868,-2.055313 1.679736,-0.318531 5.453888,-0.349418 7.03536,-0.05758 3.776942,0.696991 6.009836,1.969963 6.647719,3.789865 0.257407,0.734392 0.34299,3.370077 0.328024,10.102148 -0.0102,4.590622 0.02352,6.974046 0.106349,7.516721 0.162845,1.066894 0.70661,2.022685 2.257213,3.967576 0.24521,0.30757 0.289687,0.433981 0.207191,0.588892 -0.170572,0.320309 -3.41586,3.4849 -3.955195,3.856831 -0.272483,0.187914 -0.61241,0.341669 -0.755393,0.341669 -0.454021,0 -1.763182,-0.976028 -3.266754,-2.435487 l -0.600895,-0.58325 -0.563522,0.374286 c -3.201918,2.126734 -6.59425,3.154197 -9.049503,2.740864 z m 4.279289,-6.018829 c 0.888574,-0.211174 1.768478,-0.673312 2.439079,-1.281047 1.22946,-1.114194 2.394132,-4.564895 2.090804,-6.194654 l -0.07336,-0.394134 -1.448118,0.07557 c -4.38955,0.229048 -7.037003,1.388007 -7.595683,3.325115 -0.152877,0.530068 -0.16082,0.720998 -0.05425,1.303991 0.142672,0.780475 0.624724,1.84332 1.099174,2.423498 0.686944,0.84002 1.984938,1.111788 3.542349,0.741671 z"
     id="path582" />
  <path
     style="fill:#ffffff;stroke-width:0.107008"
     d="m 28.831943,50.192176 c -3.164235,-0.234332 -5.219736,-0.638036 -7.668576,-1.506143 -4.135528,-1.466035 -8.780701,-4.429207 -10.453438,-6.668295 -0.5079,-0.679863 -0.577856,-0.97079 -0.289482,-1.20388 0.213147,-0.172276 0.260057,-0.173778 0.752092,-0.02402 0.288621,0.08783 1.322905,0.564774 2.298409,1.059866 3.232972,1.640802 4.613349,2.191661 7.871211,3.141111 6.228895,1.815302 12.411547,2.548677 15.868363,1.882259 1.044696,-0.201397 3.420809,-0.910398 6.28444,-1.875192 2.525097,-0.850735 4.411151,-1.412629 4.741657,-1.412629 0.30384,0 0.769361,0.359669 0.853624,0.65953 0.194113,0.690768 -0.508732,1.621686 -1.785158,2.36444 -2.076862,1.208538 -7.000892,2.695816 -10.717028,3.237035 -2.447454,0.35644 -5.67216,0.500268 -7.756114,0.34594 z"
     id="path584" />
  <path
     style="fill:#ffffff;stroke-width:0.124635"
     d="m 50.438826,47.922043 c -0.27983,-0.18878 -0.185575,-0.81826 0.277943,-1.85622 0.237088,-0.53092 0.633209,-1.41856 0.880268,-1.97254 0.24706,-0.55398 0.484689,-1.26616 0.528065,-1.58263 0.07205,-0.52565 0.04599,-0.60827 -0.301505,-0.95576 -0.353383,-0.35338 -0.443818,-0.38037 -1.274562,-0.38037 -0.541365,0 -1.573216,0.151 -2.61509,0.38268 -2.004821,0.44582 -2.46897,0.44235 -2.727425,-0.0204 -0.09928,-0.17776 -0.143636,-0.41931 -0.09856,-0.53678 0.09837,-0.25635 2.250861,-1.29412 3.623471,-1.74696 1.719285,-0.56722 3.363451,-0.84654 5.039581,-0.85617 1.199141,-0.007 1.563719,0.0303 1.659178,0.16921 0.214275,0.31181 0.03202,3.90581 -0.257084,5.0696 -0.303317,1.22101 -0.845982,2.34516 -1.460379,3.02522 -0.767888,0.84996 -2.751017,1.61386 -3.273902,1.26111 z"
     id="path586" />
</svg>
