<?xml version="1.0" encoding="UTF-8" standalone="no"?>
<svg
   width="64"
   height="64"
   viewBox="0 0 64 64"
   version="1.1"
   id="svg70"
   sodipodi:docname="github.svg"
   inkscape:version="1.2 (dc2aedaf03, 2022-05-15)"
   xmlns:inkscape="http://www.inkscape.org/namespaces/inkscape"
   xmlns:sodipodi="http://sodipodi.sourceforge.net/DTD/sodipodi-0.dtd"
   xmlns="http://www.w3.org/2000/svg"
   xmlns:svg="http://www.w3.org/2000/svg">
  <defs
     id="defs74" />
  <sodipodi:namedview
     id="namedview72"
     pagecolor="#505050"
     bordercolor="#eeeeee"
     borderopacity="1"
     inkscape:showpageshadow="0"
     inkscape:pageopacity="0"
     inkscape:pagecheckerboard="0"
     inkscape:deskcolor="#505050"
     showgrid="false"
     inkscape:zoom="4"
     inkscape:cx="91.25"
     inkscape:cy="37.375"
     inkscape:window-width="3440"
     inkscape:window-height="1376"
     inkscape:window-x="0"
     inkscape:window-y="32"
     inkscape:window-maximized="1"
     inkscape:current-layer="svg70" />
  <path
     style="fill:#000000;stroke-width:0.00390625"
     d=""
     id="path11130" />
  <path
     style="fill:#000000;stroke-width:0.00390625"
     d=""
     id="path11134" />
  <path
     style="fill:#000000;stroke-width:0.00390625"
     d=""
     id="path11150" />
  <path
     style="fill:#000000;stroke-width:0.00390625"
     d=""
     id="path11160" />
  <path
     style="fill:#000000;stroke-width:0.00390625"
     d=""
     id="path11168" />
  <path
     style="fill:#000000;stroke-width:0.00390625"
     d=""
     id="path11192" />
  <path
     style="fill:#000000;stroke-width:0.00390625"
     d=""
     id="path11196" />
  <path
     style="fill:#000000;stroke-width:0.00390625"
     d=""
     id="path11208" />
  <path
     style="fill:#000000;stroke-width:0.00390625"
     d=""
     id="path11214" />
  <path
     style="fill:#000000;stroke-width:0.00390625"
     d=""
     id="path11224" />
  <path
     style="fill:#000000;stroke-width:0.00390625"
     d=""
     id="path11228" />
  <path
     style="fill:#000000;stroke-width:0.00390625"
     d=""
     id="path11232" />
  <path
     style="fill:#000000;stroke-width:0.00390625"
     d=""
     id="path11244" />
  <path
     style="fill:#000000;stroke-width:0.00390625"
     d=""
     id="path11270" />
  <path
     style="fill:#000000;stroke-width:0.00390625"
     d=""
     id="path11276" />
  <path
     style="fill:#000000;stroke-width:0.00390625"
     d=""
     id="path11278" />
  <path
     style="fill:#000000;stroke-width:0.00390625"
     d=""
     id="path11330" />
  <path
     style="fill:#000000;stroke-width:0.00390625"
     d=""
     id="path11368" />
  <path
     style="fill:#000000;stroke-width:0.00390625"
     d=""
     id="path11390" />
  <path
     style="fill:#000000;stroke-width:0.00390625"
     d=""
     id="path11396" />
  <path
     style="fill:#000000;stroke-width:0.00390625"
     d=""
     id="path11400" />
  <path
     style="fill:#000000;stroke-width:0.00390625"
     d=""
     id="path11402" />
  <path
     style="fill:#000000;stroke-width:0.00390625"
     d=""
     id="path11412" />
  <path
     style="fill:#000000;stroke-width:0.00390625"
     d=""
     id="path11424" />
  <path
     style="fill:#000000;stroke-width:0.00390625"
     d=""
     id="path11428" />
  <path
     style="fill:#000000;stroke-width:0.00390625"
     d=""
     id="path11430" />
  <path
     style="fill:#000000;stroke-width:0.00390625"
     d=""
     id="path12164" />
  <path
     style="fill:#000000;stroke-width:0.00390625"
     d=""
     id="path12176" />
  <path
     style="fill:#000000;stroke-width:0.00390625"
     d=""
     id="path12194" />
  <path
     style="fill:#000000;stroke-width:0.00390625"
     d=""
     id="path12220" />
  <path
     style="fill:#000000;fill-opacity:1;stroke-width:0.0623174"
     d="m 30.423644,61.797563 c -3.53167,-0.217139 -6.62114,-0.900741 -9.70942,-2.14838 C 11.021614,55.733442 4.0859651,47.084875 2.3555631,36.756421 c -0.301049,-1.796912 -0.347135,-2.446366 -0.347135,-4.891918 0,-2.445552 0.04609,-3.095006 0.347135,-4.891918 0.787775,-4.702084 2.685769,-9.170134 5.507396,-12.964908 1.751964,-2.356202 4.0583149,-4.6467375 6.3739849,-6.3302965 5.63532,-4.097038 12.59229,-6.155694 19.36488,-5.730316 6.39183,0.401463 12.18271,2.62937 17.10615,6.581199 6.41427,5.1484465 10.4457,12.8010845 11.09191,21.0551235 0.0818,1.044915 0.0806,3.523959 -0.002,4.589984 -0.43397,5.585925 -2.48252,11.056582 -5.82211,15.547957 -1.68503,2.266171 -3.84404,4.434423 -6.10888,6.135037 -4.08903,3.070347 -9.06311,5.084766 -14.14607,5.728923 -1.70838,0.216501 -3.83932,0.301899 -5.29698,0.212275 z m 0.12939,-16.974959 c 2.02481,-0.197034 3.74009,-0.780832 4.9472,-1.683791 0.57927,-0.433309 1.38738,-1.264698 1.74421,-1.794465 0.94384,-1.401264 1.21745,-3.075071 0.78056,-4.775076 -0.29669,-1.154438 -1.06527,-2.128237 -2.90284,-3.67791 -1.3519,-1.140106 -1.67613,-1.565591 -1.67613,-2.19959 0,-0.392614 0.0895,-0.645848 0.38154,-1.079221 0.25539,-0.379009 0.34865,-0.479428 1.23644,-1.3313 0.98634,-0.946444 1.48116,-1.715906 1.76236,-2.740585 0.17806,-0.648872 0.22714,-2.425589 0.0811,-2.935016 -0.22529,-0.785684 -0.48209,-1.201437 -1.14222,-1.849229 l -0.61915,-0.607595 h 1.04936 1.04937 l 0.84259,-1.119978 c 0.46343,-0.615988 0.84259,-1.134781 0.84259,-1.152872 0,-0.06161 -7.75125,-0.03269 -8.31938,0.03105 -1.49273,0.167456 -2.24335,0.355412 -3.08735,0.773075 -1.85093,0.915952 -3.14092,2.424004 -3.68739,4.310714 -0.12465,0.43037 -0.14231,0.6286 -0.14101,1.582553 0.001,1.072873 0.005,1.100399 0.21027,1.697746 0.46602,1.355337 1.51527,2.613165 2.686,3.219926 0.91807,0.475812 1.70738,0.640865 3.04369,0.636468 0.81846,-0.0027 0.89028,0.006 0.85256,0.10364 -0.25467,0.659057 -0.29474,0.869946 -0.26551,1.397502 0.0253,0.456228 0.0655,0.617641 0.25134,1.008988 0.12168,0.256231 0.33663,0.635784 0.47765,0.843451 l 0.25641,0.377576 -0.32949,3.8e-5 c -0.51274,6e-5 -2.50822,0.241766 -3.15921,0.382666 -1.64295,0.355597 -3.37359,1.208205 -4.31309,2.124871 -0.51303,0.500557 -0.77192,0.878105 -1.05812,1.543058 -0.35814,0.832108 -0.45108,1.309129 -0.41542,2.132296 0.0496,1.146461 0.39545,1.892156 1.29415,2.790744 0.93986,0.939733 1.88632,1.445299 3.33388,1.780831 1.0855,0.251608 2.69317,0.335932 3.99308,0.209439 z m 13.41018,-11.446903 0.0167,-1.511198 h 1.49451 1.49451 v -1.028238 -1.028237 h -1.49449 -1.49449 l -0.0167,-1.480039 -0.0167,-1.480039 h -1.02824 -1.02823 l -0.0167,1.480039 -0.0167,1.480039 h -1.49449 -1.49449 v 1.028237 1.028238 h 1.49561 1.49562 v 1.485232 c 0,0.816878 0.0194,1.504596 0.043,1.528264 0.0237,0.02367 0.49339,0.03535 1.04382,0.02597 l 1.00079,-0.01707 z"
     id="path9126" />
  <path
     style="fill:#000000;stroke-width:0.125"
     d="m 26.9375,44.619364 c -1.945023,-0.364239 -3.724948,-1.530004 -4.494294,-2.943548 -0.715404,-1.314432 -0.536529,-3.135355 0.449334,-4.574162 0.683036,-0.996849 2.065968,-1.905143 3.763605,-2.47189 0.981121,-0.327543 3.090465,-0.685784 4.062605,-0.689974 0.292187,-0.0013 0.53125,-0.02638 0.53125,-0.05583 0,-0.02945 -0.207676,-0.402169 -0.461503,-0.828269 -0.383502,-0.643788 -0.461995,-0.893542 -0.464413,-1.477709 -0.0016,-0.38664 0.04436,-0.885794 0.102128,-1.109231 L 30.53125,30.0625 h -0.989363 c -2.463951,0 -4.285419,-1.112169 -5.322725,-3.25 -0.33903,-0.698721 -0.401453,-0.981536 -0.44577,-2.019594 -0.04268,-0.999629 -0.0048,-1.347463 0.220252,-2.023805 0.842758,-2.53249 3.070995,-4.292634 5.952797,-4.702275 0.617942,-0.08784 2.464077,-0.126937 4.90363,-0.103851 L 38.762644,18 37.993269,19.03125 37.223895,20.0625 h -1.049448 c -0.577196,0 -1.049447,0.0443 -1.049447,0.09845 0,0.05415 0.278149,0.372416 0.618109,0.707264 0.33996,0.334848 0.739355,0.890657 0.887543,1.235132 0.236799,0.550452 0.263503,0.801671 0.22046,2.073986 -0.06431,1.901025 -0.310364,2.428525 -1.931842,4.141576 -2.103477,2.222272 -2.078899,2.64914 0.272415,4.731229 1.688544,1.495207 2.37191,2.355839 2.695083,3.394195 0.310256,0.996856 0.310831,2.362635 0.0014,3.356799 -0.681053,2.188225 -2.791836,3.964585 -5.51318,4.639697 -1.419855,0.352238 -4.048966,0.438563 -5.4375,0.178537 z"
     id="path28811" />
  <path
     style="fill:#000000;stroke-width:0.125"
     d="m 41.953786,34.53125 c -0.04145,-0.154688 -0.07614,-0.829687 -0.07708,-1.5 L 41.875,31.8125 h -1.5 -1.5 v -1 -1 h 1.5 1.5 l 8.87e-4,-0.59375 c 4.88e-4,-0.326563 0.03675,-0.973438 0.08058,-1.4375 l 0.07969,-0.84375 H 42.955576 43.875 v 1.4375 1.4375 h 1.5 1.5 v 1 1 h -1.5 -1.5 v 1.5 1.5 h -0.922921 c -0.851438,0 -0.928759,-0.02178 -0.998293,-0.28125 z"
     id="path28813" />
  <path
     style="fill:#000000"
     id="path28815"
     d="m 28.775045,11.857162 c -0.183379,0.377066 -0.363264,0.753058 -0.520159,1.142285 -0.38021,0.961112 -0.692649,1.946782 -1.022569,2.925756 -0.391134,1.149233 -0.797547,2.293172 -1.206413,3.436189 -0.355426,0.974714 -0.685256,1.958528 -0.994932,2.94866 -0.299728,0.947859 -0.530376,1.915204 -0.746974,2.884797 -0.198697,0.877789 -0.356743,1.763755 -0.503647,2.651428 -0.13708,0.791906 -0.230612,1.589739 -0.315852,2.388533 -0.08209,0.808843 -0.148457,1.619126 -0.228826,2.428143 -0.06981,0.812545 -0.185836,1.61865 -0.322889,2.422189 -0.167854,0.975743 -0.370714,1.944768 -0.584523,2.911309 -0.204724,0.903833 -0.428544,1.803183 -0.64705,2.703745 -0.172573,0.733743 -0.349381,1.466464 -0.530506,2.198138 -0.123189,0.477353 -0.20977,0.96275 -0.309449,1.445219 -0.58467,2.8267 -4.238876,-1.436052 7.018243,3.793796 0.07178,0.03335 0.03259,-0.154908 0.04829,-0.232483 0.01909,-0.09429 0.0374,-0.188747 0.0561,-0.283121 0.176448,-0.96887 0.359578,-1.936273 0.517659,-2.908364 0.199147,-1.267385 0.324246,-2.544647 0.453721,-3.820553 0.157849,-1.498585 0.348583,-2.99334 0.530492,-4.489108 0.151101,-1.271574 0.313466,-2.541769 0.467179,-3.813023 0.120779,-0.992122 0.231057,-1.985486 0.334135,-2.979591 0.08226,-0.795588 0.156525,-1.59198 0.228511,-2.388555 0.05544,-0.645783 0.107406,-1.291836 0.166758,-1.937277 0.05443,-0.577933 0.126516,-1.153759 0.216654,-1.727152 0.06235,-0.380502 0.134448,-0.759301 0.203031,-1.138706 0.02538,-0.166353 0.05145,-0.332427 0.08156,-0.497986 0.848993,-2.797575 2.044415,0.442694 -7.162979,-3.537072 -0.0033,-0.0014 -0.07677,0.38469 -0.07957,0.400985 -0.0814,0.652949 -0.133599,1.309173 -0.178121,1.965525 -0.06167,1.08393 -0.124341,2.167752 -0.195337,3.251119 -0.07547,1.175468 -0.164446,2.349982 -0.225456,3.526329 -0.05755,1.127979 -0.03621,2.257081 -0.0093,3.385471 0.02848,1.080905 0.07589,2.161171 0.111624,3.241831 0.02328,0.938734 0.05491,1.877178 0.08978,2.815542 0.01964,0.683033 0.04456,1.367881 0.216707,2.031721 1.03004,2.697037 4.597003,5.304097 7.39739,4.427294 0.211512,-0.06622 0.318363,-0.123001 0.520354,-0.215471 0.691691,-0.372586 1.270189,-0.908635 1.799463,-1.481502 0.776021,-0.889019 1.358213,-1.917235 1.901564,-2.958246 0.572095,-1.147828 1.097029,-2.318438 1.604936,-3.495828 0.454404,-1.063094 0.890181,-2.134136 1.320211,-3.207296 0.337252,-0.856334 0.672611,-1.713475 1.001652,-2.573 0.272067,-0.721837 0.534109,-1.447363 0.794942,-2.173315 0.215602,-0.599886 0.42487,-1.202052 0.631795,-1.804982 0.170648,-0.503093 0.339053,-1.007018 0.517289,-1.507488 0.155966,-0.433301 0.332236,-0.85869 0.506943,-1.284628 0.156961,-0.387446 0.334063,-0.766273 0.51059,-1.145066 0.157249,-0.325534 0.316324,-0.650154 0.486514,-0.969141 0.178288,-0.324388 0.360978,-0.646275 0.545226,-0.967307 0.189227,-0.323352 0.392809,-0.638164 0.599735,-0.950409 0.201891,-0.309293 0.406655,-0.61681 0.618265,-0.919545 0.183757,-0.274563 0.379972,-0.540911 0.556278,-0.82035 1.598412,-2.966575 -5.552218,-4.224875 -6.714264,-4.889294 -0.43386,0.0769 -0.880965,0.08834 -1.321565,0.110138 -0.47875,0.0094 -0.951026,0.05806 -1.413026,0.184757 -0.395547,0.127916 -0.753491,0.334192 -1.098537,0.561651 -0.332276,0.223233 -0.590864,0.517624 -0.82726,0.836195 -0.302608,0.409341 -0.504339,0.873679 -0.677136,1.348993 -0.196122,0.600847 -0.346489,1.215548 -0.493201,1.829966 -0.147433,0.625587 -0.272332,1.255928 -0.376298,1.890095 -0.124296,0.814156 -0.253208,1.627581 -0.383848,2.440738 -0.117669,0.732122 -0.230673,1.464991 -0.348164,2.197139 -0.122808,0.758958 -0.248703,1.517412 -0.353012,2.279172 -0.113857,0.878401 -0.204438,1.759515 -0.298736,2.640151 -0.09857,0.856223 -0.170656,1.715009 -0.236331,2.574265 -0.06217,0.836576 -0.118215,1.673586 -0.172546,2.510701 -0.05271,0.737147 -0.06961,1.476074 -0.09182,2.21457 -0.01887,0.656623 -0.03454,1.313325 -0.0558,1.969877 -0.01697,0.622607 -0.05377,1.244476 -0.09714,1.865733 -0.04118,0.586253 -0.07989,1.17258 -0.128393,1.758291 -0.03959,0.510323 -0.08824,1.019816 -0.138275,1.529195 -0.04021,0.456661 -0.09131,0.912053 -0.149883,1.366681 -0.04302,0.31631 -0.0872,0.634439 -0.182454,0.939939 -0.131988,0.307453 -0.122928,0.205809 -0.01864,-0.07269 1.094218,-2.571394 0.02301,-0.214013 6.796809,3.811686 0.02121,0.01261 -0.04638,-0.01777 -0.06731,-0.03084 -0.08085,-0.05048 -0.110116,-0.121902 -0.144393,-0.206521 -0.08414,-0.262169 -0.191716,-0.514981 -0.29459,-0.769931 -0.116801,-0.33381 -0.193387,-0.679925 -0.268519,-1.024979 -0.08671,-0.320591 -0.113324,-0.645602 -0.10011,-0.975987 0.02893,-0.403827 0.104467,-0.801943 0.187038,-1.197622 0.07776,-0.366797 0.172003,-0.729626 0.27816,-1.089134 0.09226,-0.315314 0.198591,-0.625979 0.329327,-0.927406 0.131478,-0.316186 0.362022,-0.572847 0.592859,-0.820101 0.325689,-0.347916 0.685604,-0.661095 1.034864,-0.984666 0.479295,-0.424695 0.950282,-0.858555 1.425218,-1.288082 0.54449,-0.504691 1.061667,-1.037482 1.575484,-1.573011 0.516642,-0.540759 0.996007,-1.113669 1.453846,-1.704492 0.441881,-0.567861 0.871369,-1.145259 1.292246,-1.728818 0.288746,-0.326 0.552347,-0.919236 0.908878,-1.164463 0.01084,0.01016 0.03601,0.01604 0.03253,0.03049 -0.01773,0.07346 -0.02414,0.244945 -0.09009,0.208044 -2.297754,-1.285642 -4.514982,-2.71025 -6.780319,-4.052187 -0.01573,-0.0093 0.02401,0.0313 0.02347,0.04958 -0.0018,0.06196 -0.06716,0.252623 -0.0813,0.297565 -0.207092,0.567781 -0.452344,1.120638 -0.691429,1.6754 -0.421188,0.949535 -0.921547,1.860432 -1.428517,2.766046 -0.480577,0.856641 -1.003793,1.688026 -1.554484,2.501037 -0.530595,0.809681 -1.133729,1.567377 -1.744712,2.316941 -0.540531,0.662063 -1.107925,1.300786 -1.698187,1.918698 -0.478569,0.513537 -0.988783,0.994908 -1.497999,1.477383 -0.383326,0.362436 -0.777328,0.713885 -1.20213,1.027126 -0.255967,0.170624 -0.514308,0.370654 -0.826269,0.414549 -0.03409,-0.0085 -0.130354,-0.02205 -0.1501,-0.06617 -0.01646,-0.03677 -0.04316,-0.14059 -0.0082,-0.120587 2.264264,1.29512 4.498664,2.641799 6.742277,3.972374 0.0193,0.01145 -0.04844,8.71e-4 -0.06606,-0.01304 -0.01752,-0.01384 -0.01846,-0.04067 -0.02769,-0.061 0.01303,-0.279023 0.12012,-0.550786 0.220536,-0.809397 0.14053,-0.376823 0.378002,-0.695216 0.625214,-1.007394 0.3727,-0.469991 0.760423,-0.927694 1.145794,-1.387261 0.420615,-0.513243 0.843758,-1.024314 1.271574,-1.531576 0.476198,-0.550384 0.935833,-1.114557 1.398254,-1.676452 0.464868,-0.569815 0.92163,-1.146315 1.375441,-1.724969 0.499689,-0.644623 0.998417,-1.290049 1.505126,-1.929178 0.524657,-0.667401 1.069753,-1.318347 1.612909,-1.970674 0.516194,-0.620698 1.042648,-1.232811 1.5752,-1.839504 0.490311,-0.564387 0.979136,-1.130087 1.474012,-1.690482 0.445791,-0.514543 0.902966,-1.018975 1.356423,-1.526712 0.343151,-0.380344 0.678795,-0.76719 1.032529,-1.137838 0.187373,-0.164517 0.35421,-0.420305 0.605856,-0.490363 0.02009,-0.0019 0.04011,-0.005 0.06028,-0.0056 0.152264,-0.0043 0.06699,0.248979 0.05058,0.239481 -2.255142,-1.304695 -4.470498,-2.676979 -6.705748,-4.015469 0.113843,0.180712 0.09619,0.395861 0.09961,0.600768 -0.004,0.361236 -0.03708,0.721173 -0.06887,1.080768 -0.04922,0.512313 -0.118918,1.022285 -0.187364,1.532284 -0.06889,0.511029 -0.128959,1.023171 -0.186305,1.535605 -0.03701,0.377545 -0.08964,0.754668 -0.09191,1.134521 -0.09386,2.995178 -6.071173,-2.430608 7.085234,3.953991 0.05906,0.02866 0.312899,-0.468487 0.33457,-0.510343 0.221389,-0.469213 0.407841,-0.954034 0.600765,-1.435416 0.175803,-0.445905 0.360661,-0.888153 0.543896,-1.331032 0,0 -6.9011,-3.858421 -6.9011,-3.858421 v 0 c -0.177636,0.446066 -0.35773,0.891142 -0.537046,1.336534 -0.183114,0.449907 -0.372393,0.898576 -0.595202,1.3305 -0.01394,0.02311 -0.06894,0.127102 -0.105655,0.155968 -0.01021,0.008 -0.04817,0.0064 -0.03682,0.01276 2.295348,1.280446 4.616528,2.514698 6.900163,3.815917 0.03152,0.01796 -0.05064,0.05816 -0.08585,0.06689 -0.01951,0.0048 -0.03359,-0.02207 -0.05039,-0.0331 -0.130096,-0.311546 -0.0664,-0.643019 -0.04415,-0.971043 0.04938,-0.507475 0.102036,-1.014681 0.167677,-1.520352 0.0677,-0.513446 0.144685,-1.02562 0.207877,-1.539658 0.05026,-0.370563 0.09251,-0.742429 0.125905,-1.114849 0.02521,-0.285094 0.03499,-0.573962 0.0244,-0.859723 -5.759376,-3.626891 -4.757683,-5.81813 -7.304099,-3.913389 -0.246406,0.210947 -0.470737,0.445267 -0.682645,0.690747 -0.340789,0.38668 -0.674238,0.779733 -1.013359,1.167873 -0.445001,0.512826 -0.889605,1.025989 -1.33306,1.540155 -0.495356,0.562675 -0.992749,1.123568 -1.47614,1.696646 -0.528969,0.617087 -1.053112,1.238301 -1.577102,1.859616 -0.542045,0.658936 -1.081467,1.320047 -1.61262,1.987814 -0.510885,0.637932 -1.019152,1.277861 -1.524642,1.920078 -0.456549,0.570391 -0.906878,1.145772 -1.369102,1.711594 -0.46056,0.5593 -0.924453,1.115681 -1.399048,1.663183 -0.43063,0.506444 -0.859379,1.014399 -1.284293,1.525653 -0.393303,0.463428 -0.781673,0.931019 -1.167988,1.400281 -0.295442,0.369545 -0.597517,0.737538 -0.771367,1.183423 -0.141403,0.333165 -0.252048,0.677829 -0.352769,1.025309 -0.005,0.02146 -0.09953,0.410502 -0.08187,0.421947 5.801643,3.759318 4.549495,5.37334 7.25909,3.968071 0.328347,-0.18331 0.639085,-0.395764 0.928593,-0.636165 0.420825,-0.352582 0.825762,-0.723313 1.216338,-1.109206 0.510344,-0.497191 1.011573,-1.003357 1.493148,-1.528693 0.590673,-0.641908 1.166168,-1.297851 1.707473,-1.982268 0.615004,-0.774107 1.228276,-1.551788 1.775867,-2.375796 0.55864,-0.834261 1.090309,-1.686479 1.574403,-2.566492 0.509983,-0.923064 1.009955,-1.851629 1.482932,-2.79431 0.286774,-0.556645 0.555222,-1.122541 0.802837,-1.697787 0.01815,-0.04491 0.249504,-0.590221 0.231398,-0.602289 -6.560798,-4.372683 -5.094069,-6.259536 -7.067644,-3.916936 -0.315605,0.422706 -0.600233,0.86725 -0.907265,1.296109 -0.408009,0.577531 -0.824712,1.149179 -1.260077,1.706472 -0.448912,0.564932 -0.917796,1.113414 -1.416995,1.634843 -0.502006,0.522183 -1.008366,1.040813 -1.551385,1.520962 -0.478989,0.429798 -0.964552,0.852058 -1.44828,1.276487 -0.375945,0.33319 -0.753267,0.666178 -1.093197,1.036979 -0.282867,0.31595 -0.565598,0.643843 -0.739129,1.035034 -0.146362,0.331237 -0.270056,0.670801 -0.371397,1.018618 -0.11143,0.378249 -0.219564,0.757496 -0.299402,1.143985 -0.09525,0.425442 -0.176095,0.853783 -0.235824,1.285755 -0.04952,0.391974 -0.08828,0.787105 -0.01151,1.178917 0.07271,0.365038 0.151051,0.728859 0.234744,1.091544 0.06221,0.272247 0.158033,0.528238 0.260288,0.787685 0.01524,0.05035 0.09796,0.47604 0.100655,0.477712 6.824202,4.235789 4.78587,5.82838 7.001993,4.00517 0.22146,-0.225553 0.419327,-0.466423 0.518213,-0.771996 0.121727,-0.353494 0.178244,-0.722539 0.225763,-1.092549 0.05665,-0.463492 0.120158,-0.926402 0.156326,-1.392101 0.04515,-0.515254 0.09759,-1.029882 0.129777,-1.546182 0.04398,-0.58901 0.0892,-1.177869 0.126143,-1.767381 0.04395,-0.63021 0.08091,-1.260898 0.104387,-1.892246 0.02567,-0.661043 0.03524,-1.322308 0.04654,-1.983738 0.01507,-0.732441 0.03227,-1.465081 0.06994,-2.196746 0.04317,-0.836089 0.08888,-1.672106 0.149425,-2.507147 0.06417,-0.851708 0.139533,-1.702493 0.23015,-2.551827 0.08995,-0.871645 0.166118,-1.745061 0.288997,-2.612952 0.111133,-0.753524 0.241091,-1.503955 0.363074,-2.255766 0.121531,-0.735022 0.228742,-1.47233 0.338362,-2.2092 0.120813,-0.808807 0.242328,-1.617925 0.391932,-2.421972 0.110859,-0.616228 0.23904,-1.229166 0.369374,-1.841538 0.132346,-0.585056 0.273506,-1.169167 0.458915,-1.740013 0.145364,-0.39837 0.316318,-0.787058 0.581892,-1.122157 0.191192,-0.235497 0.41268,-0.439094 0.679737,-0.587243 0.292085,-0.162741 0.599175,-0.297928 0.934185,-0.341021 0.440382,-0.05551 0.884121,-0.07024 1.327454,-0.08534 0.286027,-0.0074 0.808293,-0.04834 1.070821,0.07206 0.04193,0.01923 0.0724,0.05718 0.108594,0.08578 -2.243782,-1.298604 -4.514959,-2.550985 -6.731347,-3.89581 -0.04898,-0.02972 0.08951,-0.07154 0.134623,-0.106847 0.0526,-0.04116 0.103687,-0.119047 0.169385,-0.107027 0.0364,0.0067 -0.02613,0.138562 -0.0178,0.109587 -0.157627,0.272899 -0.349764,0.524393 -0.520971,0.788745 -0.210053,0.309711 -0.418538,0.620522 -0.621127,0.935185 -0.215573,0.327055 -0.429003,0.655761 -0.62817,0.993146 -0.187076,0.328364 -0.371871,0.658007 -0.558267,0.986752 -0.177606,0.333057 -0.343486,0.672051 -0.504732,1.013307 -0.176639,0.39088 -0.354842,0.781167 -0.518099,1.177905 -0.179969,0.438038 -0.35646,0.877487 -0.516429,1.323311 -0.178984,0.506047 -0.345615,1.016533 -0.512972,1.526479 -0.196234,0.603087 -0.397341,1.204641 -0.602774,1.80465 -0.253543,0.724468 -0.505119,1.449626 -0.76774,2.170881 -0.319263,0.861584 -0.642942,1.72154 -0.964153,2.582403 -0.410339,1.074013 -0.831866,2.143959 -1.274574,3.205072 -0.492467,1.161707 -1.01389,2.310826 -1.58007,3.438698 -0.514721,0.972889 -1.062913,1.940988 -1.839511,2.733228 -0.468392,0.453269 -0.978804,0.934886 -1.633149,1.084568 -0.141003,6.79e-4 -0.220259,0.02432 -0.342639,-0.05917 -0.04627,-0.03157 -0.163101,-0.15095 -0.114644,-0.122855 2.212408,1.282737 4.417793,2.577747 6.612623,3.890334 0.05368,0.0321 -0.125335,-0.01873 -0.18222,-0.04472 -0.05786,-0.02644 -0.104035,-0.07324 -0.156052,-0.109856 -0.04489,-0.05403 -0.09769,-0.102363 -0.134681,-0.162082 -0.280717,-0.453232 -0.21184,-1.107737 -0.276309,-1.61472 -0.04942,-0.941946 -0.101738,-1.883796 -0.130553,-2.826667 -0.03784,-1.080121 -0.07686,-2.160147 -0.122552,-3.239974 -0.03045,-1.112364 -0.0595,-2.225419 -0.01981,-3.338025 0.04601,-1.173212 0.133277,-2.343748 0.210708,-3.515199 0.07346,-1.072265 0.16047,-2.143509 0.244685,-3.214973 0.0562,-0.619598 0.111529,-1.240588 0.232418,-1.851699 0.01908,-0.105439 0.06884,-0.326288 0.06247,-0.329414 -2.021162,-0.991201 -8.695566,-1.238426 -7.075244,-3.669818 0.126937,-0.05504 0.09995,0.135252 0.09994,0.208898 -0.01121,0.381806 -0.09023,0.758081 -0.139425,1.135963 -0.0853,0.588836 -0.174287,1.177351 -0.225291,1.770463 -0.06567,0.650711 -0.11066,1.302984 -0.155851,1.955385 -0.05944,0.798411 -0.121833,1.596608 -0.19334,2.394042 -0.09002,0.9968 -0.185271,1.993119 -0.290136,2.988479 -0.134908,1.279216 -0.276635,2.557672 -0.416613,3.836338 -0.16783,1.497323 -0.347764,2.993247 -0.537833,4.48791 -0.158191,1.253785 -0.278397,2.512737 -0.483811,3.760223 -0.158952,0.945224 -0.333688,1.888704 -0.578803,2.816014 -0.02498,0.09145 -0.0504,0.182786 -0.07495,0.274355 -0.01896,0.07073 -0.118567,0.175168 -0.05559,0.212525 14.901926,8.839399 6.708676,6.373437 6.990036,3.695531 0.04227,-0.476198 0.126256,-0.94898 0.223417,-1.41666 0.163966,-0.738709 0.337474,-1.475303 0.499582,-2.214445 0.207129,-0.909467 0.425926,-1.816242 0.628448,-2.726763 0.212855,-0.974554 0.430845,-1.948168 0.61517,-2.928647 0.155309,-0.817473 0.311692,-1.635902 0.371338,-2.467314 0.07993,-0.808443 0.14262,-1.618409 0.221098,-2.426987 0.08124,-0.786388 0.178943,-1.570903 0.296316,-2.35277 0.131733,-0.877985 0.269776,-1.755412 0.457895,-2.623446 0.203739,-0.95117 0.425032,-1.899134 0.716351,-2.82796 0.296876,-0.985526 0.614918,-1.964613 0.954856,-2.936165 0.393595,-1.150058 0.791134,-2.298794 1.192102,-3.446298 0.338996,-0.948389 0.666754,-1.903138 1.083809,-2.820913 0.169306,-0.354134 0.351183,-0.702419 0.567889,-1.030331 0,0 -6.921208,-3.979617 -6.921208,-3.979617 z" />
  <path
     style="fill:#ffffff;fill-opacity:1;stroke-width:0.0367693"
     d="m 37.024027,41.840595 c -0.47904,-0.103203 -0.86899,-0.33265 -1.31878,-0.775978 -0.48132,-0.474395 -0.85867,-1.075229 -0.95794,-1.525267 -0.0524,-0.237756 -0.056,-2.107829 -0.004,-2.364685 0.0205,-0.102404 0.0954,-0.312945 0.16643,-0.467869 0.48126,-1.050147 1.2154,-1.703756 2.14691,-1.911412 0.86561,-0.192966 1.94774,0.177411 2.56391,0.877546 0.88953,1.010752 1.19681,2.710462 0.73322,4.055895 -0.18383,0.533504 -0.48404,0.971824 -0.97959,1.430217 -0.55293,0.511466 -0.98857,0.697718 -1.68108,0.718729 -0.2861,0.0087 -0.51481,-0.004 -0.66862,-0.03722 z"
     id="path29860-3" />
  <path
     style="fill:#ffffff;fill-opacity:1;stroke-width:0.0830732"
     d="m 25.477969,47.346404 c -3.822435,-0.270496 -6.497959,-1.265057 -8.654392,-3.21706 -1.771731,-1.603773 -2.762393,-3.340064 -3.347104,-5.866333 -0.388348,-1.677874 -0.453553,-2.27293 -0.447513,-4.084045 0.0064,-1.922816 0.129679,-2.672043 0.662633,-4.027543 0.349051,-0.887763 0.61937,-1.360006 1.37734,-2.406184 0.69595,-0.960577 0.653647,-0.776139 0.762118,-3.322686 0.02765,-0.649117 0.108917,-1.516572 0.180595,-1.927679 0.148648,-0.852562 0.721557,-2.88872 1.001948,-3.560983 0.177326,-0.425162 0.205533,-0.451736 0.47949,-0.451736 0.41996,0 1.892304,0.356866 2.810012,0.68109 1.03927,0.36717 2.26364,0.952031 4.297776,2.052974 l 1.666486,0.901958 0.877096,-0.04917 c 0.482404,-0.02705 1.192854,-0.082 1.578776,-0.122132 1.111848,-0.11561 4.588129,-0.09389 5.964262,0.03727 2.113215,0.201409 1.788532,0.279542 4.203533,-1.011537 3.435536,-1.836668 3.428575,-1.83373 5.354625,-2.258706 1.47099,-0.324568 1.487087,-0.322845 1.694264,0.181327 0.816171,1.986117 1.123049,3.497576 1.244208,6.12805 0.08328,1.808313 0.03663,1.655736 0.887237,2.90287 1.054298,1.545835 1.555191,2.770803 1.789986,4.377523 0.37502,2.566322 -0.07635,5.941589 -1.10611,8.271417 -0.870902,1.97039 -2.349309,3.622556 -4.265647,4.766984 -1.732576,1.034684 -3.524827,1.612666 -6.023189,1.942407 -1.044573,0.137866 -1.63588,0.15051 -6.585618,0.14083 -2.990902,-0.0058 -5.872167,-0.04135 -6.402812,-0.07891 z m 11.270702,-2.383951 c 2.086897,-0.250909 3.770264,-0.662526 5.087164,-1.243912 1.096463,-0.484068 2.024818,-1.328335 2.573383,-2.340286 1.112727,-2.052705 1.209152,-4.572888 0.245026,-6.404017 -0.670917,-1.274247 -1.651926,-2.177206 -2.993828,-2.755646 l -0.745533,-0.321368 -9.209522,0.02415 c -5.968878,0.01564 -9.363838,0.05311 -9.64807,0.106475 -1.413314,0.265335 -2.863256,1.341942 -3.585839,2.662548 -0.528548,0.965983 -0.688715,1.653378 -0.687491,2.950528 10e-4,1.143059 0.17596,2.200202 0.514136,3.10789 0.941732,2.527678 3.255761,3.68008 8.583229,4.274504 0.144721,0.01614 2.216864,0.03396 4.604761,0.03961 3.291812,0.0077 4.564321,-0.01652 5.262584,-0.100473 z"
     id="path28817" />
  <path
     style="fill:#ffffff;fill-opacity:1;stroke-width:0.0367693"
     d="m 24.5575,41.764947 c -0.47904,-0.103203 -0.86899,-0.33265 -1.31878,-0.775978 -0.48132,-0.474395 -0.85867,-1.075229 -0.95794,-1.525267 -0.0524,-0.237756 -0.056,-2.107829 -0.004,-2.364685 0.0205,-0.102404 0.0954,-0.312945 0.16643,-0.467869 0.48126,-1.050147 1.2154,-1.703756 2.14691,-1.911412 0.86561,-0.192966 1.94774,0.177411 2.56391,0.877546 0.88953,1.010752 1.19681,2.710462 0.73322,4.055895 -0.18383,0.533504 -0.48404,0.971824 -0.97959,1.430217 -0.55293,0.511466 -0.98857,0.697718 -1.68108,0.718729 -0.2861,0.0087 -0.51481,-0.004 -0.66862,-0.03722 z"
     id="path29860" />
  <path
     style="fill:#000000;fill-opacity:1"
     id="path29868"
     d="m 23.587673,35.58105 c -0.04837,0.0061 -0.09842,0.0108 -0.144389,0.02854 -0.0062,0.0024 -0.01161,0.0063 -0.0175,0.0093 -0.01942,0.0098 -0.01672,0.0081 -0.0386,0.01616 -0.02408,0.0029 -0.04755,0.01029 -0.07146,0.01384 -0.01408,0.0021 -0.02834,0.0026 -0.04247,0.0043 -0.04334,0.0052 -0.03859,0.0051 -0.07998,0.01387 -0.0309,0.0077 -0.06469,0.01168 -0.09352,0.02651 -0.0067,0.0034 -0.01234,0.0086 -0.01883,0.01231 -0.05891,0.03405 0.0044,-0.0072 -0.05869,0.03554 -0.0095,0.0058 -0.01892,0.01188 -0.02863,0.01742 -0.01325,0.0075 -0.02694,0.01429 -0.04038,0.02148 -0.0039,0.0021 -0.04786,0.02532 -0.05281,0.02739 -0.0064,0.0027 -0.01328,0.004 -0.01992,0.0059 -0.03852,-0.0038 -0.07571,0.0088 -0.113732,0.01155 -0.01484,0.0011 -0.02974,0.0011 -0.04461,0.0016 -0.02773,0.005 -0.06143,0.0067 -0.08511,0.02497 -0.0019,0.0015 -0.0029,0.0038 -0.0046,0.0055 -0.0074,0.0075 -0.009,0.0073 -0.01922,0.01331 -0.01426,0.008 -0.02773,0.01884 -0.04317,0.02472 -0.0083,0.0032 -0.0272,0.0075 -0.03695,0.0097 -0.0236,-0.0031 -0.04744,-0.0025 -0.07124,-0.0023 -0.02147,1.67e-4 -0.03359,2.93e-4 -0.05421,3.53e-4 -0.0039,1.1e-5 -0.0077,9e-6 -0.01161,-9e-6 -0.002,-1e-5 -0.0043,-0.0012 -0.0059,-1.27e-4 -0.0016,0.001 -0.0027,0.0026 -0.004,0.0039 -0.01156,0.01309 -0.03193,-2.94e-4 -0.04365,0.0057 -0.0021,0.0023 -0.0045,0.0047 -0.0061,0.0073 -0.01181,0.01846 -0.02099,0.03402 -0.03691,0.04948 -0.0098,0.0081 -0.0046,0.0055 -0.01504,0.0085 0,0 8.21e-4,5.61e-4 8.21e-4,5.61e-4 v 0 c 0.01046,-0.0031 0.0053,-5.11e-4 0.01506,-0.0086 0.01591,-0.01547 0.02511,-0.03104 0.03692,-0.04949 0.0017,-0.0026 0.004,-0.005 0.0061,-0.0073 0.01175,-0.0059 0.03208,0.0074 0.04366,-0.0057 0.0067,-0.0065 0.01085,-0.0037 0.02148,-0.0037 0.02036,-6.4e-5 0.03308,-1.9e-4 0.05421,-3.53e-4 0.02381,-2.55e-4 0.04765,-7.83e-4 0.07126,0.0022 0.0098,-0.0022 0.0286,-0.0065 0.03696,-0.0097 0.01544,-0.0059 0.02891,-0.01668 0.04317,-0.02472 0.01027,-0.006 0.01184,-0.0058 0.01924,-0.01333 0.0017,-0.0017 0.0027,-0.0041 0.0046,-0.0055 0.02366,-0.01824 0.05734,-0.01994 0.08506,-0.02494 0.01488,-5.39e-4 0.02978,-5.23e-4 0.04463,-0.0016 0.03803,-0.0028 0.07522,-0.01527 0.113749,-0.01156 0.0066,-0.002 0.01353,-0.0033 0.01992,-0.006 0.0049,-0.002 0.04898,-0.02534 0.05282,-0.02739 0.01344,-0.0072 0.02713,-0.01394 0.04038,-0.02149 0.0097,-0.0055 0.01909,-0.01161 0.02863,-0.01742 0.06302,-0.04265 -1.57e-4,-0.0015 0.0587,-0.03553 0.0065,-0.0037 0.01216,-0.0089 0.01882,-0.01229 0.02883,-0.01482 0.0626,-0.01879 0.0935,-0.0265 0.0414,-0.0087 0.03661,-0.0086 0.07997,-0.01386 0.01413,-0.0017 0.0284,-0.0023 0.04249,-0.0043 0.02391,-0.0035 0.0474,-0.01096 0.07147,-0.01385 0.0219,-0.0081 0.01917,-0.0063 0.03861,-0.01617 0.0059,-0.003 0.01133,-0.0069 0.01748,-0.0093 0.04595,-0.01774 0.096,-0.02245 0.144364,-0.02853 0,0 -7.81e-4,-5.58e-4 -7.81e-4,-5.58e-4 z" />
</svg>
