<?xml version="1.0" encoding="UTF-8" standalone="no"?>
<!-- Generator: Adobe Illustrator 18.0.0, SVG Export Plug-In . SVG Version: 6.00 Build 0)  -->

<svg
   version="1.1"
   id="Capa_1"
   x="0px"
   y="0px"
   viewBox="0 0 64 64"
   xml:space="preserve"
   sodipodi:docname="google.svg"
   width="64"
   height="64"
   inkscape:version="1.2 (dc2aedaf03, 2022-05-15)"
   xmlns:inkscape="http://www.inkscape.org/namespaces/inkscape"
   xmlns:sodipodi="http://sodipodi.sourceforge.net/DTD/sodipodi-0.dtd"
   xmlns="http://www.w3.org/2000/svg"
   xmlns:svg="http://www.w3.org/2000/svg"><defs
   id="defs37" /><sodipodi:namedview
   id="namedview35"
   pagecolor="#505050"
   bordercolor="#eeeeee"
   borderopacity="1"
   inkscape:showpageshadow="0"
   inkscape:pageopacity="0"
   inkscape:pagecheckerboard="0"
   inkscape:deskcolor="#505050"
   showgrid="false"
   inkscape:zoom="13.832355"
   inkscape:cx="17.892831"
   inkscape:cy="39.7257"
   inkscape:window-width="1499"
   inkscape:window-height="1236"
   inkscape:window-x="432"
   inkscape:window-y="113"
   inkscape:window-maximized="0"
   inkscape:current-layer="Capa_1" />

<g
   id="g4">
</g>
<g
   id="g6">
</g>
<g
   id="g8">
</g>
<g
   id="g10">
</g>
<g
   id="g12">
</g>
<g
   id="g14">
</g>
<g
   id="g16">
</g>
<g
   id="g18">
</g>
<g
   id="g20">
</g>
<g
   id="g22">
</g>
<g
   id="g24">
</g>
<g
   id="g26">
</g>
<g
   id="g28">
</g>
<g
   id="g30">
</g>
<g
   id="g32">
</g>
<path
   style="fill:#000000;fill-opacity:1;stroke-width:0.0623174"
   d="M 30.209074,61.8818 C 26.67741,61.664661 23.587935,60.981059 20.499659,59.73342 10.807045,55.817679 3.8713983,47.169112 2.1409963,36.840658 1.8399473,35.043746 1.7938613,34.394292 1.7938613,31.94874 c 0,-2.445552 0.04609,-3.095006 0.347135,-4.891918 0.787775,-4.702084 2.685769,-9.170134 5.5073958,-12.964907 1.751969,-2.356202 4.0583139,-4.6467381 6.3739859,-6.3302971 5.635323,-4.097038 12.592291,-6.155694 19.36488,-5.730316 6.39182,0.401463 12.1827,2.62937 17.10614,6.581199 6.41427,5.1484471 10.4457,12.8010841 11.09191,21.0551231 0.0818,1.044915 0.0806,3.523959 -0.002,4.589984 -0.43397,5.585925 -2.48252,11.056582 -5.82211,15.547957 -1.68503,2.266171 -3.84404,4.434423 -6.10888,6.135037 -4.08903,3.070347 -9.06311,5.084766 -14.14606,5.728923 -1.70838,0.216501 -3.83932,0.301899 -5.296981,0.212275 z m 0.129391,-16.974959 c 2.024813,-0.197034 3.740093,-0.780832 4.947203,-1.683791 0.57927,-0.433309 1.38737,-1.264698 1.7442,-1.794465 0.94384,-1.401264 1.21745,-3.075071 0.78056,-4.775076 -0.29669,-1.154438 -1.06527,-2.128237 -2.90283,-3.67791 -1.3519,-1.140106 -1.67613,-1.565591 -1.67613,-2.19959 0,-0.392614 0.0895,-0.645848 0.38154,-1.079221 0.25539,-0.379009 0.34865,-0.479428 1.23644,-1.3313 0.98634,-0.946444 1.48115,-1.715906 1.76235,-2.740585 0.17806,-0.648872 0.22714,-2.425589 0.0811,-2.935016 -0.22529,-0.785684 -0.48209,-1.201437 -1.14221,-1.849229 l -0.61915,-0.607595 h 1.04936 1.04936 l 0.84259,-1.119978 c 0.46343,-0.615988 0.84259,-1.134781 0.84259,-1.152872 0,-0.06161 -7.751244,-0.03269 -8.319375,0.03105 -1.492727,0.167456 -2.243348,0.355412 -3.087349,0.773075 -1.850925,0.915952 -3.140914,2.424004 -3.687383,4.310714 -0.124653,0.43037 -0.142316,0.6286 -0.14101,1.582553 0.0015,1.072873 0.0049,1.100399 0.210268,1.697746 0.466015,1.355337 1.515271,2.613165 2.686,3.219926 0.918064,0.475812 1.707378,0.640865 3.043692,0.636468 0.818459,-0.0027 0.890272,0.006 0.852557,0.10364 -0.254672,0.659057 -0.294739,0.869946 -0.265508,1.397502 0.02528,0.456228 0.06549,0.617641 0.251336,1.008988 0.121684,0.256231 0.336626,0.635784 0.47765,0.843451 l 0.256406,0.377576 -0.329488,3.8e-5 c -0.512738,6e-5 -2.508215,0.241766 -3.159209,0.382666 -1.64295,0.355597 -3.373584,1.208205 -4.313088,2.124871 -0.513027,0.500557 -0.771923,0.878105 -1.05812,1.543058 -0.35814,0.832108 -0.451076,1.309129 -0.415424,2.132296 0.04965,1.146461 0.395457,1.892156 1.294158,2.790744 0.939851,0.939733 1.886318,1.445299 3.333879,1.780831 1.085496,0.251608 2.693171,0.335932 3.993072,0.209439 z m 13.410173,-11.446903 0.0167,-1.511198 h 1.49451 1.49451 v -1.028238 -1.028237 h -1.49449 -1.49449 l -0.0167,-1.480039 -0.0167,-1.480039 h -1.02824 -1.02823 l -0.0167,1.480039 -0.0167,1.480039 h -1.49449 -1.49449 v 1.028237 1.028238 h 1.49561 1.49562 v 1.485232 c 0,0.816878 0.0194,1.504596 0.043,1.528264 0.0237,0.02367 0.49339,0.03535 1.04382,0.02597 l 1.00079,-0.01707 z"
   id="path9126" /><path
   style="fill:#000000;fill-opacity:1;fill-rule:nonzero;stroke:none"
   id="path3418"
   d="m 23.271991,13.557092 c 0.116409,1.105502 0.144784,1.172687 0.164488,2.405406 0.0091,0.569689 -0.02786,1.13981 -0.0091,1.709262 0.02932,0.888007 0.115336,1.773382 0.153376,2.661059 0.03687,0.860276 0.04689,1.721492 0.07132,2.582211 0.01937,0.682452 0.04006,1.364866 0.06008,2.047299 -0.0071,1.057509 -0.06911,1.178934 0.121919,2.13498 0.06344,0.317519 0.171138,0.624932 0.238729,0.941594 0.0557,0.260966 0.08611,0.526701 0.130829,0.789772 0.146922,0.864321 0.08695,0.394554 0.160795,1.080984 -0.0063,0.06645 -0.01252,0.132898 -0.01878,0.199346 -0.0013,0.088 0.0028,0.176251 -0.0039,0.264005 -0.0076,0.09976 -0.03462,0.19765 -0.03911,0.297603 -0.0069,0.153571 0.01043,0.307519 0.005,0.46115 -0.02818,0.799753 -0.110985,1.453677 -0.192084,2.27579 -0.165097,0.985459 -0.241302,1.594837 -0.483852,2.53221 -0.233624,0.902876 -0.11477,0.295262 -0.322824,0.916473 -0.05595,0.167067 -0.109382,0.446253 -0.145048,0.615302 0.0261,0.974984 0.171562,1.942841 0.221683,2.915954 0.01966,0.381715 0.04966,0.821379 -0.06272,1.204141 -0.0091,0.03107 -0.04203,0.04928 -0.06305,0.07391 0.05272,0.281243 0.124378,0.559588 0.158167,0.843727 0.05486,0.46132 0.06245,0.927176 0.107407,1.389566 0.109423,1.125508 0.278214,1.980538 0.257371,3.098942 -0.0042,0.22353 -0.325823,0.653691 -0.102441,0.662836 1.946341,0.07968 3.885459,-0.285615 5.828188,-0.428423 -0.12613,-1.436312 0.06597,0.681895 -0.09046,-0.811501 -0.02494,-0.238133 -0.03089,-0.477957 -0.05403,-0.716271 -0.07531,-0.775415 -0.132826,-1.217371 -0.230257,-2.045451 -0.332891,-2.024045 -0.285997,-1.770134 -0.659525,-3.901953 -0.117727,-0.6719 -0.227966,-1.345217 -0.35772,-2.014898 -0.133039,-0.686641 -0.30962,-1.364707 -0.430566,-2.053581 -0.06618,-0.376947 -0.524836,-3.852163 -0.55845,-4.104457 -0.103266,-1.595712 -0.19629,-2.637562 -0.200958,-4.227703 -0.0015,-0.496951 0.03031,-0.993459 0.05005,-1.49002 0.01074,-0.270163 0.06261,-0.540533 0.04136,-0.810073 -0.02242,-0.284469 -0.279828,-0.925147 -0.372068,-1.175988 -0.30437,-0.948389 -0.287533,-1.940355 -0.271188,-2.92358 0.0092,-0.552817 0.0253,-1.116571 0.09038,-1.667389 0.01402,-0.118665 0.04263,-0.235149 0.06394,-0.352723 0.0099,-0.06404 0.02797,-0.127338 0.02985,-0.192119 0.0025,-0.08539 -0.01217,-0.170424 -0.01687,-0.25572 -0.01184,-0.214788 -0.02679,-0.511131 -0.01927,-0.72423 0.0099,-0.280404 -0.03206,-0.213117 0.07799,-0.330077 -2.018836,0.04427 -4.046024,-0.05591 -6.056507,0.132815 -0.144269,0.01354 0.04081,0.287045 0.06852,0.429275 0.08614,0.442244 0.193239,0.88037 0.272933,1.32382 0.138059,0.768219 0.27058,1.537715 0.380202,2.310504 0.505046,3.56036 0.398713,3.022537 0.605931,6.619208 -0.147099,3.6517 -0.106188,1.301132 -0.05323,4.526175 0.01145,0.697093 -0.03471,1.413015 0.08325,2.106846 0.481475,2.832016 0.125046,-0.403929 0.388912,2.409269 -0.01036,0.332939 0.003,0.667462 -0.03107,0.998817 -0.01276,0.124154 -0.306035,1.453783 -0.321593,1.521418 -0.06464,0.281028 -0.135463,0.560599 -0.202722,0.841012 -0.05816,0.242477 -0.1084,0.48696 -0.173531,0.727659 -0.04689,0.173293 -0.108215,0.342355 -0.162323,0.513532 -0.189334,0.558468 -0.0659,0.151159 -0.198425,0.708941 -0.0939,0.395214 -0.114506,0.397795 -0.190144,0.82261 -0.07235,0.406325 -0.08513,0.594625 -0.127458,0.998355 -0.06537,0.326522 -0.01948,0.229434 -0.132672,0.453715 -0.01612,0.03194 -0.01523,0.09198 -0.05093,0.0945 -0.03336,0.0024 -0.0247,-0.06469 -0.04921,-0.08744 -0.0087,-0.0081 -0.04592,0.0097 -0.03408,0.01015 2.027164,0.08184 4.05463,0.156 6.081945,0.234 0.0033,-0.07875 0.01,-0.157434 0.0098,-0.236252 -0.0046,-1.958065 -0.03651,0.803773 0.01952,-1.601585 0.0089,-0.381168 0.0032,-0.762652 0.01634,-1.143697 0.01398,-0.405039 0.05996,-0.808852 0.06501,-1.2141 0.0065,-0.518943 -0.02032,-1.037768 -0.03047,-1.556652 -0.0085,-1.514642 -0.01357,-3.02967 -0.0038,-4.544331 0.0028,-0.429832 0.01697,-0.859553 0.01832,-1.289392 0.0065,-2.080128 -0.04873,-0.562899 0.04604,-2.434612 0.01931,-0.693843 0.06565,-1.014996 -0.06291,-1.701124 -0.07674,-0.40957 -0.195943,-0.810047 -0.298192,-1.214003 -0.120518,-0.476133 -0.250654,-0.949805 -0.370097,-1.426208 -0.675739,-2.695221 0.0046,-0.163753 -0.821951,-3.152206 -0.183955,-1.144645 -0.277892,-1.433979 -0.303578,-2.494482 -0.0076,-0.315085 0.04477,-1.253829 0.07813,-1.561889 0.08002,-0.739023 0.137701,-0.897667 0.3015,-1.623847 0.24899,-0.460496 0.340074,-0.981476 0.54268,-1.45926 0.09038,-0.213142 0.203088,-0.416948 0.324472,-0.614088 0.02001,-0.03251 0.255789,-0.484965 0.463643,-0.401612 0.06102,0.02447 0.07124,0.110523 0.106865,0.165785 0.02838,-0.01974 0.06631,-0.03024 0.08515,-0.05923 0.03489,-0.0537 0.133694,-0.177292 0.06967,-0.179052 -1.995453,-0.05488 -3.992879,-0.02778 -5.9886,0.01628 -0.04941,0.0011 0.075,0.06863 0.09502,0.113812 0.09037,0.203904 0.166654,0.414264 0.23335,0.627092 0.149277,0.476351 0.276113,0.959448 0.41417,1.439172 0.498109,2.344663 0.588112,2.593107 0.950259,5.127565 0.146993,1.028725 0.242517,2.064265 0.38257,3.093958 0.168037,1.235429 0.405265,2.461666 0.541642,3.70099 0.1266,1.150486 0.159972,2.30934 0.246747,3.463513 0.07737,1.029006 0.163778,2.057311 0.245667,3.085966 0.119442,0.985089 0.252191,1.968656 0.358327,2.955267 0.191934,1.784173 0.204557,2.265424 0.308227,3.897407 0.02276,0.358274 0.04955,0.716303 0.06951,1.074743 0.01534,0.27546 -0.0038,0.553919 0.03642,0.826859 0.05542,0.376139 0.166271,0.741999 0.249406,1.112999 0.102644,0.444846 0.211835,0.888233 0.307933,1.334539 0.09283,0.431115 0.385997,1.848847 0.416677,2.361735 0.0089,0.148601 -0.215572,0.433885 -0.0669,0.441559 6.238548,0.322011 6.361405,1.775226 5.870828,-0.640812 -0.0067,-0.188754 -0.01793,-0.377402 -0.02011,-0.566262 -0.0026,-0.227232 0.0051,-0.454472 0.0057,-0.681718 0.0044,-1.471303 -0.01563,-1.700012 0.04232,-3.409319 0.03094,-0.912571 0.0867,-1.824146 0.123438,-2.736502 0.04181,-1.038515 0.0748,-2.077367 0.112205,-3.116051 0.04343,-4.624838 -0.02971,-1.85873 0.178212,-6.101658 0.04281,-0.873601 0.06115,-1.748511 0.118837,-2.621256 0.05032,-0.761355 0.132029,-1.520333 0.205115,-2.279841 0.190114,-1.97565 0.192812,-1.904231 0.418976,-3.727938 0.108362,-1.079559 0.191112,-1.379965 0.08937,-2.46811 -0.05632,-0.602335 -0.17503,-1.197286 -0.249957,-1.79759 -0.137047,-1.098007 -0.307997,-2.541036 -0.3212,-3.668979 -0.0041,-0.348867 0.0445,-0.696361 0.06675,-1.044541 0.101076,-0.3225 0.04784,-0.394589 0.250439,-0.557292 0.01735,-0.01393 0.05295,-0.0065 0.06094,-0.02725 0.04277,-0.111182 0.0078,-0.30877 0.006,-0.414786 -6.73e-4,-0.04121 0.0059,-0.08222 0.0089,-0.123324 -2.022308,0.03367 -4.055279,-0.109095 -6.066923,0.101021 -0.175991,0.01838 0.06702,0.347783 0.08834,0.523443 0.03236,0.26669 0.06044,0.534293 0.07258,0.802666 0.03723,0.822894 -0.01142,1.548598 -0.0276,2.380698 -0.01218,0.626036 -0.01702,1.252193 -0.02552,1.87829 -0.01923,4.778144 0.03051,0.945562 -0.145378,6.183363 -0.04173,1.242749 -0.05443,2.486429 -0.103243,3.72892 -0.11027,2.806693 -0.194225,3.262316 -0.320314,5.881323 -0.03211,0.666958 -0.0488,1.334569 -0.0732,2.001854 0.177225,2.820919 0.193496,1.890744 0.09181,4.534643 -0.02255,0.586321 -0.04108,1.173166 -0.08727,1.7581 -0.02709,0.343107 -0.08515,0.683084 -0.132411,1.023999 -0.02285,0.164848 -0.0709,0.326882 -0.0779,0.493159 -0.0054,0.128 0.02736,0.254761 0.04105,0.382142 0.02841,0.126349 0.0628,0.2515 0.08522,0.379047 0.01841,0.104702 0.01723,0.212326 0.03712,0.316757 0.173947,0.913235 0.08122,0.135589 0.210494,1.029424 0.01368,0.09456 -0.06847,0.279709 0.02691,0.285375 2.020647,0.120043 4.048094,0.05131 6.072142,0.07696 0.0753,-1.309427 -0.0097,-0.269947 0.226315,-1.919114 0.56216,-3.928319 0.03046,-0.923613 0.962898,-5.402303 0.943033,-4.529585 0.336692,-1.892089 1.297944,-5.863159 0.09964,-0.617541 0.55186,-3.290432 0.591116,-4.005442 0.06383,-1.162619 -0.06541,-4.816191 -0.09063,-5.787613 -0.100095,-3.854908 -0.119346,-2.200914 9.36e-4,-5.331101 0.0178,-0.415668 0.05571,-0.830962 0.05339,-1.247004 -0.0024,-0.42685 -0.07285,-0.851968 -0.06748,-1.278791 0.0112,-0.889522 0.09224,-1.331734 0.401847,-2.150145 0.09599,-0.253731 0.211034,-0.502068 0.352529,-0.733525 0.0715,-0.11695 0.186669,-0.200774 0.280003,-0.301162 0.03655,-0.02119 0.103375,-0.02178 0.109648,-0.06356 -0.04567,-1.108593 0.02066,-0.547928 -0.05102,-0.384194 -0.004,0.0091 -0.02788,0.0051 -0.02933,-0.0047 -0.33057,-2.229032 7.447998,-0.782527 -6.052873,0.220404 0.09797,0.749953 0.144096,0.983707 0.141945,1.897216 -0.0018,0.76156 -0.03417,1.522985 -0.0749,2.283457 -0.125888,2.350374 -0.271654,4.409468 -0.654846,6.739219 -0.141978,0.863206 -0.370802,1.709864 -0.556203,2.564796 -0.101477,0.709909 -0.250795,1.41461 -0.304432,2.129725 -0.08198,1.092971 0.01346,3.268577 0.07095,4.353474 0.109518,2.066632 0.274228,2.600506 0.07302,4.586329 -0.04169,0.411419 -0.166122,0.810197 -0.249184,1.215296 -0.233376,0.476299 -0.377031,0.919388 -0.278523,1.448349 0.02994,0.160741 0.07332,0.318683 0.109985,0.478025 0.05992,0.268252 0.129905,0.534452 0.179758,0.804755 0.122264,0.662926 0.179988,1.044509 0.162079,1.698831 -0.0035,0.127609 -0.178541,0.377801 -0.0509,0.379573 6.229846,0.0865 5.709859,1.635079 6.156385,-1.093048 0.263522,-1.133063 0.240625,-1.160619 0.620055,-2.275301 0.307562,-0.903552 0.501038,-1.161653 0.664158,-2.113486 0.121275,-0.707667 0.17698,-1.425037 0.271419,-2.136783 0.123275,-0.929073 0.254476,-1.857076 0.381714,-2.785614 0.09372,-1.007735 0.206111,-2.013908 0.281173,-3.023204 0.06686,-0.899 0.125403,-1.799305 0.14451,-2.700585 0.01944,-0.916841 -0.06472,-3.679512 -0.12421,-4.646031 -0.451682,-7.338527 0.0238,2.125855 -0.26893,-3.965859 0.07407,-0.779798 0.05306,-1.576123 0.225056,-2.345148 0.06728,-0.300834 0.152047,-0.429938 0.209554,-0.722795 0.02463,-0.125413 0.03246,-0.253546 0.04869,-0.38032 0.07495,-0.21764 0.0569,-0.231892 0.169079,-0.385255 0.0097,-0.01324 0.03497,-0.01725 0.03594,-0.03362 0.0053,-0.08862 -0.0024,-0.178338 -0.01814,-0.2657 -0.0017,-0.0097 -0.01894,0.0052 -0.02841,0.0078 -1.26e-4,-0.01944 -2.51e-4,-0.03888 -3.77e-4,-0.05831 -2.025264,0.04665 -4.054865,-4.75e-4 -6.075793,0.139965 -0.09423,0.0065 0.04005,0.184906 0.0512,0.278701 0.03239,0.272547 0.06051,0.586364 -0.05474,0.844261 -0.0068,0.180676 -0.02322,0.361243 -0.02055,0.542029 0.02431,1.646366 0.131556,1.39147 -0.03001,3.240277 -0.228934,2.61971 -0.790253,5.202124 -1.299195,7.776728 -0.725315,2.648309 -0.43943,1.076771 -0.606741,3.943519 -0.03549,0.608128 -0.09009,1.215014 -0.128713,1.822951 -0.0308,0.484721 -0.03602,0.971177 -0.07954,1.454922 -0.04811,0.534808 -0.08886,0.649302 -0.197834,1.063582 -0.007,0.03779 -0.02365,0.07502 -0.0211,0.113373 0.006,0.09096 0.03518,0.179047 0.04653,0.269501 0.02709,0.215999 0.05355,0.432286 0.06872,0.649447 0.01963,0.280959 0.02075,0.562931 0.03566,0.844181 0.06888,1.299038 0.05385,0.419302 0.05699,1.486337 0.01807,0.256494 -0.02393,0.511044 -0.02695,0.766776 -0.0017,0.145741 0.0083,0.291414 0.0089,0.437164 6.76e-4,0.162745 -0.01199,0.325615 -0.005,0.488212 0.0083,0.195134 0.03688,0.388914 0.05086,0.583725 0.01197,0.166764 0.018,0.333902 0.027,0.500853 -0.01029,0.08007 -0.09953,0.665859 -0.01918,0.666484 2.025875,0.01576 6.063537,1.662882 6.066956,-0.363052 0.0034,-2.022134 -4.044707,-0.08911 -6.066274,-0.04109 -0.0639,0.0015 0.03892,0.121858 0.05429,0.183897 0.01255,0.05068 0.01959,0.102578 0.02939,0.153867 0.07147,0.06245 -0.03376,0.11075 -0.01905,0.167532 0.07648,0.295297 0.199823,0.567779 0.315273,0.848592 0.680255,2.025914 0.06916,0.319817 6.115941,-0.09588 0.07307,-0.005 0.02089,-0.145062 0.03508,-0.21692 0.03719,-0.188296 0.07141,-0.377428 0.119023,-0.563363 0.325937,-1.272921 0.356743,-1.242549 0.852474,-2.619905 0.31632,-0.765588 0.736272,-1.484847 1.059997,-2.247165 0.135639,-0.319406 0.283471,-0.637188 0.36863,-0.97359 0.1393,-0.550271 0.214278,-1.115082 0.302077,-1.67588 0.411534,-2.628565 0.293839,-2.103159 0.412842,-5.117268 0.06019,-1.002151 0.122843,-2.004156 0.18056,-3.006452 0.04912,-0.852949 0.150889,-1.704971 0.139939,-2.559263 -0.01129,-0.880903 -0.132242,-1.757007 -0.206518,-2.634847 -0.06784,-0.801772 -0.140882,-1.603125 -0.219818,-2.403881 -0.0789,-0.800418 -0.189778,-1.597766 -0.253688,-2.39952 -0.05579,-0.699926 -0.07019,-1.402537 -0.105284,-2.103805 -0.08045,-1.215415 -0.116527,-2.462192 0.21753,-3.648126 0.02946,-0.104579 0.08422,-0.200317 0.126805,-0.30027 0.02212,-0.05191 0.05895,-0.09951 0.06732,-0.155313 0.01313,-0.08751 -0.0028,-0.176962 -0.0042,-0.265443 -0.01365,-0.192104 -0.03149,-0.395166 -0.03212,-0.588175 -2.3e-4,-0.07058 -0.0041,-0.142193 0.009,-0.211547 0.0036,-0.01918 0.05864,-0.044 0.03914,-0.04354 -2.017018,0.047 -4.043582,-0.02903 -6.04991,0.18361 -0.151023,0.01601 0.04695,0.300088 0.07042,0.450132 0.216659,1.477832 0.216422,1.227776 0.269082,2.996068 0.02548,0.855756 0.05532,1.712361 0.03273,2.568199 -0.02321,0.879492 -0.104932,1.756526 -0.170039,2.633912 -0.0622,0.838245 -0.161771,1.673677 -0.21187,2.512732 -0.05525,0.925288 -0.06939,1.852573 -0.104089,2.77886 0.06807,1.322767 0.199195,2.643793 0.204203,3.968301 0.004,1.06087 -0.148839,2.117198 -0.177183,3.177697 -0.02699,1.009721 0.0134,2.020145 0.01126,3.030225 -0.0053,2.50006 -0.05503,2.809332 1.07e-4,5.235168 0.01671,0.734959 0.05527,1.469259 0.08291,2.203888 0.01594,0.511691 0.04468,1.023144 0.04782,1.535074 0.0014,0.227669 -0.01349,0.455435 -0.03421,0.682163 -0.0092,0.101169 -0.157071,0.302976 -0.05553,0.29967 2.01326,-0.06555 6.244753,1.508101 6.022758,-0.493956 -0.222763,-2.008983 -4.045013,0.01039 -6.06234,0.136984 -0.08096,0.0051 0.01912,0.161106 0.02868,0.241659 0.02546,2.510526 0.693673,0.922598 6.124343,0.216178 0.162018,-0.02107 0.05568,-0.322241 0.09437,-0.480978 0.04391,-0.180186 0.104673,-0.355873 0.153206,-0.534869 0.05362,-0.197757 0.102148,-0.396859 0.153221,-0.595288 0.04313,-0.264428 0.110916,-0.525999 0.129381,-0.793283 0.03626,-0.524825 0.01937,-1.051992 0.03442,-1.577852 0.03336,-1.16558 0.140409,-4.403094 0.227089,-5.384858 0.20965,-2.37457 0.317932,-2.57889 0.790225,-4.647273 0.113466,-0.524603 0.208854,-1.053446 0.340399,-1.573811 0.09403,-0.371966 0.251613,-0.726614 0.335765,-1.10094 0.170156,-0.756897 0.174572,-1.554039 0.257401,-2.319862 0.196457,-1.816395 0.118689,-1.29407 0.560768,-2.916065 0.120729,-0.310572 0.234173,-0.624075 0.362186,-0.931715 0.09635,-0.231537 0.199843,-0.460241 0.310643,-0.685219 0.07575,-0.153802 0.162965,-0.301734 0.248579,-0.45027 0.141498,-0.245491 0.197921,-0.282931 0.288041,-0.534002 0.02842,-0.07918 0.04393,-0.16241 0.06589,-0.243615 0.01996,-0.07513 0.02869,-0.154195 0.05989,-0.225397 0.01061,-0.0242 0.0407,-0.03371 0.06105,-0.05057 -2.017623,0.0039 -4.041135,-0.142325 -6.05287,0.01176 -0.151044,0.01157 0.06022,0.296957 0.09385,0.444665 0.394669,1.733485 0.212803,0.646814 0.43923,2.643318 0.134428,2.422077 0.454177,4.827879 0.52485,7.254546 0.02343,0.804547 0.01273,1.610118 -0.01171,2.414635 -0.01853,0.610143 -0.08457,1.217967 -0.11715,1.827522 -0.02468,0.461742 -0.03641,0.924085 -0.05461,1.386127 0.164477,1.887334 0.463781,3.763228 0.527535,5.659218 0.01473,0.438054 0.0013,0.877233 -0.02676,1.314633 -0.01186,0.184532 -0.275361,0.517268 -0.09284,0.546913 1.972989,0.320459 3.988348,0.273138 5.982522,0.409707 -1.999297,-0.09319 -3.998595,-0.186371 -5.997892,-0.279556 -0.0062,-0.02201 -0.04138,-0.0655 -0.01852,-0.06604 2.027575,-0.04763 4.068277,0.148284 6.083922,-0.07644 0.199844,-0.02228 0.0054,-0.402148 0.01145,-0.603138 0.03624,-1.199553 0.04323,-1.181028 0.111394,-2.420711 -0.01342,-1.771335 0.01972,-1.181434 -0.133068,-3.142714 -0.07583,-0.973453 -0.222492,-1.943006 -0.241685,-2.919219 -0.01696,-0.862604 0.08024,-1.723741 0.133473,-2.584867 0.07612,-1.231362 0.183096,-2.460621 0.274243,-3.690961 0.02024,-0.129322 0.209134,-1.260448 0.218578,-1.538912 0.0075,-0.222173 -0.0108,-0.444671 -0.02775,-0.666325 -0.02853,-0.373043 -0.101369,-0.743064 -0.108668,-1.117125 -0.02075,-1.063319 0.07299,-1.320038 0.254045,-2.318956 0.146248,-0.412343 0.194066,-0.642752 0.407819,-0.987607 0.07836,-0.126416 0.17064,-0.154177 0.219754,-0.300374 0.04501,-0.133974 0.05854,-0.276662 0.09483,-0.413256 0.04189,-0.157682 0.09307,-0.312752 0.139599,-0.469129 0.04399,-0.109029 0.07626,-0.223555 0.131973,-0.327088 0.01579,-0.02933 0.05186,-0.04182 0.07779,-0.06273 -2.026379,0.01391 -4.056408,-0.08062 -6.079137,0.04173 -0.108705,0.0066 -0.0079,0.217678 -0.0095,0.32657 -0.0078,0.549366 -0.0084,0.357456 0.05653,0.96682 0.207625,0.903251 0.286918,1.826294 0.374598,2.746549 0.06681,0.701196 0.160282,1.40049 0.197191,2.103894 0.0915,1.743755 0.02352,2.805748 -0.03115,4.527989 -0.06364,1.082995 -0.089,1.931684 -0.226724,2.98241 -0.0296,0.225813 -0.08639,0.447252 -0.125208,0.671664 -0.02284,0.132029 -0.06473,0.263609 -0.05975,0.397507 0.01047,0.281171 0.25112,0.985214 0.309385,1.176309 0.109294,0.530608 0.210631,0.879943 0.225226,1.407094 -0.01153,0.09496 -0.02306,0.189913 -0.03459,0.28487 -0.02083,0.0085 -0.05211,0.0055 -0.06248,0.02549 -0.04601,0.08857 0.03691,0.292717 0.05053,0.343571 0.08892,0.183589 0.162784,0.319767 0.223277,0.518758 0.763785,2.512445 -6.69038,0.671721 6.093291,0.512299 -0.0022,-0.399079 -0.0053,-0.208477 0.02724,-0.804085 0.01828,-0.334032 0.02277,-0.669233 0.05776,-1.001929 0.03771,-0.358563 0.108574,-0.712868 0.160107,-1.069707 0.05971,-0.413439 0.125443,-0.826159 0.173613,-1.241101 0.06806,-0.586316 0.116682,-1.174727 0.175023,-1.76209 0.710584,-5.617649 -0.216396,1.960062 0.463166,-4.574112 0.07575,-0.728365 0.160589,-1.456681 0.285309,-2.178276 0.07356,-0.425606 0.193016,-0.842305 0.308696,-1.258442 0.29612,-1.065241 0.131441,-0.145899 0.246907,-0.877361 -0.102788,-0.772074 -0.100611,-1.554926 0.189821,-2.29004 0.14028,-0.355064 0.08805,-0.332976 0.288298,-0.25575 -2.015759,-0.03215 -4.031518,-0.0643 -6.047277,-0.09644 0.0094,0.03504 0.02334,0.06917 0.02817,0.10512 0.110999,0.826884 -0.168051,-0.765379 0.09562,0.677988 0.136072,0.744875 0.09428,0.355226 0.134524,0.991189 0.05527,0.106349 -0.05647,0.195418 -0.05123,0.295128 0.01592,0.30299 0.204089,0.904987 0.234627,1.084932 0.154301,0.909203 0.118092,1.060133 0.115307,1.946837 -0.301759,0.0447 0.112481,0.790232 -0.16529,0.955563 -0.05973,0.03555 -0.05005,-0.129707 -0.07507,-0.19456 0,0 6.073072,0.452205 6.073072,0.452205 v 0 c -0.08313,-0.407591 -0.182379,-0.80556 -0.169704,-1.228351 -0.04851,-0.864388 -0.07925,-1.088529 -0.04997,-1.980166 4.46e-4,-0.0136 0.102411,-0.977143 0.06094,-1.196557 -0.01432,-0.07576 -0.0476,-0.146666 -0.07139,-0.219999 -0.03128,-0.137402 -0.07347,-0.272769 -0.09385,-0.412207 -0.05709,-0.390703 -0.05071,-0.570128 -0.03186,-0.94306 0.0041,-0.08091 0.01211,-0.161572 0.01929,-0.242263 0.0063,-0.07075 0.09202,-0.207225 0.02116,-0.212031 -2.018985,-0.136903 -4.045091,-0.131979 -6.067636,-0.197969 -0.0066,0.136521 -0.01942,0.43314 -0.03418,0.53531 -0.03254,0.225305 -0.08273,0.447717 -0.12184,0.671975 -0.04651,0.266631 -0.08657,0.53438 -0.13502,0.800664 -0.04336,0.238291 -0.113196,0.472248 -0.140382,0.712921 -0.01011,0.08947 0.01968,0.179003 0.02952,0.268504 0.07736,0.253802 0.175946,0.559594 0.212173,0.808828 0.06028,0.414716 0.127161,0.831621 0.127943,1.250693 0.0013,0.722944 -0.03885,1.447229 -0.121566,2.165427 -0.130333,1.131655 -0.583302,3.360263 -0.81397,4.545821 -0.140981,0.585504 -0.290151,1.169095 -0.422943,1.75651 -0.09319,0.412243 -0.169941,0.828032 -0.254912,1.242047 -0.06699,0.358707 -0.122758,0.719693 -0.200975,1.076121 -0.192974,0.87937 -0.21107,0.844555 -0.44635,1.571234 -0.02628,0.08117 -0.04985,0.16318 -0.07478,0.244771 2.014404,0.02739 4.028809,0.05477 6.043214,0.08216 -0.01537,-0.02953 -0.04105,-0.05568 -0.0461,-0.08859 -0.01547,-0.100909 -0.002,-0.204595 -0.01439,-0.305928 -0.03594,-0.293735 -0.149491,-0.565129 -0.202402,-0.854821 -0.08547,-0.04521 -0.03779,-0.123747 -0.06669,-0.230731 -0.02912,-0.107792 -0.0783,-0.209319 -0.110171,-0.31633 -0.209564,-0.703703 -0.16259,-0.603501 -0.285105,-1.412756 -0.02189,-0.242642 -0.03224,-0.486604 -0.06567,-0.727927 -0.01618,-0.11681 -0.05904,-0.228444 -0.08281,-0.343948 -0.02698,-0.131061 -0.04388,-0.264029 -0.06937,-0.395387 -0.04328,-0.222987 -0.105428,-0.442592 -0.13692,-0.667546 -0.152567,-1.08985 -0.158455,-1.835217 -0.215816,-2.976944 -0.02604,-1.869757 -0.0722,-2.627207 0.05419,-4.5305 0.04705,-0.70846 0.156641,-1.411587 0.213877,-2.119298 0.07478,-0.924683 0.08255,-1.849932 -0.02711,-2.771789 -0.0078,-0.407911 -0.03045,-0.468372 0.03635,-0.850001 0.01699,-0.09704 0.169544,-0.276991 0.07152,-0.28676 -1.996104,-0.198914 -4.006823,-0.203361 -6.010235,-0.305041 0.01785,0.01221 0.05361,0.01499 0.05356,0.03662 -2.18e-4,0.101876 -0.03619,0.200513 -0.05429,0.300769 -0.06149,0.151898 -0.115042,0.307255 -0.184465,0.455694 -0.02093,0.04475 -0.246951,0.426138 -0.280498,0.530135 -0.0231,0.0716 -0.02834,0.147871 -0.03813,0.222469 -0.05836,0.444611 -0.05348,0.57859 -0.08137,1.08545 -0.197814,2.251771 0.02022,-0.146204 -0.236931,2.394334 -0.04143,0.409353 -0.148758,1.305709 -0.114991,1.795583 0.03543,0.514015 0.24523,1.007745 0.263577,1.523063 0.0925,1.44068 0.15217,2.177259 0.188518,3.683647 0.02082,0.862779 0.07215,1.727089 0.02718,2.588947 -0.05127,0.982623 -0.237185,1.954135 -0.315394,2.934982 -0.006,0.07491 -0.09063,2.800968 -0.0997,3.090349 -0.121155,1.205418 -0.05965,1.209522 -0.406717,2.34216 -0.06594,0.215201 -0.472146,0.596708 -0.249193,0.62757 1.996277,0.276331 4.028199,0.154931 6.043416,0.174486 0.03916,3.8e-4 0.02057,-0.112287 -0.01841,-0.116021 -2.015134,-0.193032 -4.036791,-0.310516 -6.055187,-0.465775 1.9559,0.138101 3.90715,0.443566 5.867702,0.414301 0.189841,-0.0028 -0.220754,-0.316382 -0.27689,-0.497756 -0.131145,-0.423727 -0.220455,-0.861353 -0.279808,-1.300922 -0.08751,-0.648086 -0.123008,-1.302449 -0.159871,-1.955376 -0.05455,-0.966205 -0.07502,-2.675921 -0.09204,-3.685391 -0.05312,-0.45716 -0.113856,-0.913499 -0.159352,-1.371481 -0.232367,-2.339109 -0.39837,-4.690787 -0.384996,-7.042699 0.0049,-0.857705 0.0623,-1.714311 0.09043,-2.571569 0.02086,-0.635841 0.0377,-1.271808 0.05655,-1.907711 -0.0052,-1.502588 -0.03869,-1.293544 0.06884,-2.643502 0.01068,-0.134155 0.182513,-0.386673 0.04868,-0.400793 -2.006307,-0.211662 -4.031915,-0.154742 -6.047872,-0.232113 0.0023,0.03364 0.01236,0.06765 0.0069,0.100932 -0.01191,0.07288 -0.0389,0.142487 -0.05836,0.213731 -0.299862,0.952607 -0.583223,1.913625 -0.752666,2.899549 -0.49659,3.235604 0.169908,-0.847434 -0.607938,2.967529 -0.08258,0.40501 -0.125352,0.817169 -0.180853,1.226768 -0.17019,1.255988 -0.234037,2.522527 -0.450127,3.772995 0.0029,0.623835 0.04112,1.248499 0.0088,1.871506 -0.109267,2.108939 -0.360252,3.715049 -0.721069,5.807757 -0.134792,0.781786 -0.282071,1.561762 -0.452911,2.336469 -0.147603,0.669338 -0.412934,1.575394 -0.615449,2.283616 -0.07138,0.226245 -0.259489,0.851365 -0.365724,1.081399 -0.06739,0.145913 -0.402597,0.406202 -0.242232,0.416904 1.9823,0.132292 3.975112,-0.11982 5.960023,-0.03532 0.09751,0.0042 -0.0012,0.208881 -0.06044,0.286475 -0.03971,0.05206 -0.0056,-0.130826 -0.0084,-0.196239 0.301046,-2.186296 0.08988,-0.188912 -6.020337,-0.250552 0.07111,-2.021414 4.037242,-0.289524 6.059723,-0.316668 0.10101,-0.0014 -0.103375,0.293351 -0.18779,0.237862 -0.198221,-0.130298 -0.294175,-0.382408 -0.372653,-0.606262 -0.169864,-0.484533 -0.243032,-0.997717 -0.364549,-1.496575 -0.223663,-2.283127 -0.249057,-2.274009 -0.367563,-4.659223 -0.391879,-7.887478 0.188918,2.69792 -0.186303,-5.7771 -0.0468,-1.057122 -0.217749,-2.110634 -0.194171,-3.168529 0.02944,-1.320823 0.235184,-2.631815 0.352776,-3.947722 0.07568,-0.923929 0.160517,-1.847153 0.227033,-2.771786 0.145,-2.015636 0.15436,-3.128227 0.355175,-5.155478 0.08533,-0.861365 0.211028,-1.718252 0.315022,-2.577562 0.291539,-2.408992 0.11745,-1.127547 0.387806,-3.017044 0.02164,-0.151013 0.21672,-0.437833 0.06492,-0.45304 -2.008365,-0.201201 -4.035409,-0.109091 -6.053473,-0.146903 -0.01833,-3.43e-4 0.03823,0.01659 0.04301,0.03429 0.01868,0.06924 0.01879,0.142283 0.02392,0.213816 0.01803,0.251799 0.01085,0.295327 0.0041,0.544169 -0.02927,0.269043 -0.0063,0.438793 0.02699,0.717652 0.148028,1.239901 0.413641,2.461975 0.460299,3.714734 0.0822,0.704419 0.168955,1.408322 0.246613,2.113256 0.0882,0.800618 0.155554,1.603526 0.250947,2.403318 0.09493,0.795917 0.241136,1.58562 0.319964,2.383293 0.0852,0.862192 0.130216,1.728097 0.171856,2.593488 0.142209,2.9555 0.08557,2.373908 -0.120191,5.522756 -0.284742,1.656694 -0.517714,3.400433 -1.007944,5.022519 -0.214662,0.710279 -0.725481,1.817057 -0.988562,2.586895 -0.10767,0.31507 -0.177842,0.642177 -0.286437,0.956931 -0.14899,0.431836 -0.323889,0.854293 -0.485834,1.28144 -0.873891,1.761527 -0.532828,1.106343 -1.339142,2.626623 -0.103011,0.194224 -0.207275,0.38778 -0.310768,0.581748 -0.03151,0.05906 -0.161177,0.175965 -0.09425,0.177337 2.006665,0.04114 4.014,-0.03722 6.020999,-0.05583 -0.02618,-7.02e-4 -0.05237,-0.0014 -0.07855,-0.0021 -0.0428,-0.02438 -0.0993,-0.03341 -0.128414,-0.07315 -1.69e-4,-2.31e-4 -0.113035,-0.254343 -0.119726,-0.324787 -0.003,-0.03176 0.0094,-0.06342 0.0088,-0.09532 -7.5e-4,-0.03805 -0.03223,-0.221156 -0.03547,-0.24111 -0.0086,-0.05636 -0.01961,-0.112409 -0.02576,-0.169089 -0.0044,-0.04027 0.03468,-0.119571 -0.0058,-0.121379 -2.023971,-0.09042 -5.815278,1.858815 -6.076111,-0.150314 -0.258708,-1.992757 4.013904,-0.307513 6.022825,-0.260133 0.06846,0.0016 -0.09955,0.841675 -0.136681,0.15336 -0.05232,-0.45325 -0.07697,-0.551006 -0.07411,-1.017782 9.97e-4,-0.162901 0.01605,-0.325413 0.02407,-0.488119 0.01189,-0.152895 0.03328,-0.305348 0.03566,-0.458686 0.0046,-0.297071 -0.04689,-0.522899 -0.09456,-0.818369 -0.03822,-0.199286 -0.09108,-0.396315 -0.114648,-0.597859 -0.07759,-0.663584 -0.06153,-1.002511 0.0025,-1.667883 0.0211,-0.219289 0.05955,-0.43656 0.08956,-0.65481 0.01674,-0.121772 0.05167,-0.24234 0.05068,-0.365254 -3.18e-4,-0.03932 -0.03632,-0.06976 -0.05448,-0.104644 -0.05075,-0.08068 -0.119803,-0.152428 -0.152262,-0.24205 -0.283891,-0.783843 -0.274539,-1.268184 -0.300098,-2.17404 -0.01697,-0.601502 -0.02718,-1.204326 0.0048,-1.805218 0.39096,-7.34871 0.06444,2.810134 0.251666,-3.885245 0.191796,-0.922914 0.367603,-1.849295 0.575387,-2.768741 0.725486,-3.21028 0.574122,-2.043992 1.173397,-5.046639 0.123576,-0.619172 0.19967,-1.247338 0.328209,-1.865499 0.232966,-1.120368 0.227318,-1.042544 0.534941,-1.827809 0.01329,-0.0747 0.03836,-0.148243 0.03988,-0.224103 10e-4,-0.05068 -0.02661,-0.09822 -0.03239,-0.148582 -0.01076,-0.09381 -0.01656,-0.188345 -0.0171,-0.282773 -0.01466,-2.542346 2.868961,-0.793924 -6.014768,-0.58599 0.0072,0.0064 0.02006,0.0097 0.02148,0.0192 0.0088,0.05866 -0.01951,0.230288 0.008,0.177762 0.03321,-0.0633 -6.32e-4,-0.143647 0.01105,-0.214172 0.0015,-0.0092 0.02073,0.0089 0.02142,0.01821 0.0095,0.12954 -0.0477,0.380407 -0.06417,0.474004 -0.08903,0.467388 -0.05327,0.234207 -0.106538,0.681678 -0.01854,0.15575 -0.04744,0.310604 -0.05577,0.467233 -0.04436,0.834419 0.07056,1.655432 0.333034,2.449911 0.0997,0.580007 0.226705,1.155978 0.299111,1.74002 0.04641,0.374323 0.338238,4.043306 0.365568,4.41208 0.116529,1.572376 0.281247,3.483466 0.181242,5.051865 -0.0638,1.000536 -0.250924,1.989373 -0.376387,2.984059 -0.22575,0.917302 -0.40472,1.847398 -0.677251,2.751905 -0.217333,0.721307 -0.548943,1.403716 -0.789912,2.117475 -0.114458,0.339031 -0.17458,0.694226 -0.275258,1.037602 -0.103377,0.352584 -0.224516,0.699716 -0.336705,1.049597 -0.492483,1.535897 -0.224665,0.770116 -0.795291,2.276303 -1.119577,2.520959 -0.809961,1.150497 5.471697,1.192106 0.127417,8.44e-4 -0.110819,-0.232089 -0.137441,-0.356697 -0.05458,-0.255482 -0.07709,-0.516933 -0.104708,-0.776715 -0.09578,-0.900786 -0.07744,-0.894585 -0.09039,-1.753395 -0.0018,-0.222951 0.006,-0.446076 -0.0025,-0.668869 -0.01513,-0.393794 -0.08085,-0.788743 -0.191023,-1.16624 -0.05599,-0.411456 -0.135711,-0.820375 -0.167972,-1.234368 -0.140735,-1.806046 -0.07563,-2.747122 -0.108656,-4.603616 -0.01288,-0.723779 -0.05968,-1.446784 -0.06735,-2.170637 -0.01761,-1.66361 0.04013,-2.567654 0.107297,-4.228374 0.04827,-0.857145 0.05453,-1.717691 0.144818,-2.571433 0.121449,-1.148427 0.287725,-2.292682 0.489815,-3.429694 0.362838,-2.041416 0.806205,-3.634126 1.250136,-5.609852 0.09881,-0.43974 0.176892,-0.883923 0.272654,-1.324336 0.04637,-0.213238 0.102451,-0.424247 0.153676,-0.63637 -2.018709,0.06726 -4.036305,0.20717 -6.056127,0.201782 -0.07277,-1.94e-4 -0.031,-0.160072 0.01317,-0.2179 0.01692,-0.02216 0.04518,0.519636 0.0664,0.417786 0.08221,-0.394519 -0.07219,-0.686821 0.04842,-0.435886 -0.185793,0.880304 0.05605,-0.224949 -0.302055,1.174888 -0.09478,0.370498 -0.216655,0.736704 -0.266822,1.115828 -0.05269,0.398171 -0.04042,0.802613 -0.04018,1.204255 9.12e-4,1.554644 -0.02613,1.081602 0.389141,2.547972 0.150239,0.689585 0.381182,1.366427 0.450717,2.068754 0.196048,1.980145 0.04241,4.426456 -0.139842,6.398868 -0.0789,0.853964 -0.231587,1.699814 -0.319111,2.552937 -0.102103,0.995221 -0.195473,3.013864 -0.246263,3.973994 -0.09267,0.856298 -0.124051,1.721469 -0.278015,2.568895 -0.360178,1.982444 -1.071449,4.364104 -1.735583,6.271723 -0.277408,0.796809 -0.608494,1.573907 -0.915614,2.359742 -0.150606,0.38536 -0.283587,0.778429 -0.457556,1.153822 -0.07149,0.154253 -0.183964,0.285962 -0.275946,0.428943 1.981482,0.06676 3.961847,0.195052 5.944446,0.200266 0.07819,2.06e-4 -0.117658,-0.111461 -0.144186,-0.185009 -0.120993,-0.335453 -0.09742,-0.654616 -0.133805,-1.002018 -0.01272,-0.121503 -0.03411,-0.242006 -0.05592,-0.362211 -0.02219,-0.122333 -0.05069,-0.243437 -0.07604,-0.365155 -0.0318,-0.109567 -0.0585,-0.220745 -0.0954,-0.328701 -0.214211,-0.626737 -0.305299,-0.613107 -0.395753,-1.45624 -0.06279,-0.585293 -0.04832,-1.176314 -0.07436,-1.76439 -0.13273,-2.996918 -0.115012,-1.312785 -0.04177,-4.546223 -0.120433,-1.219088 -0.350996,-3.410663 -0.395488,-4.551542 -0.117789,-3.020429 -0.02662,-3.914843 0.257921,-7.011142 0.307637,-3.347577 0.311466,-3.035043 0.834857,-6.176776 0.08776,-0.623754 0.174469,-1.247658 0.263288,-1.871263 0.06569,-0.461255 0.142953,-0.920939 0.200255,-1.383312 0.04302,-0.347151 0.06792,-0.696309 0.100635,-1.044582 0.02493,-0.265388 0.03641,-0.532263 0.07228,-0.796394 0.02122,-0.156253 0.255705,-0.448032 0.0987,-0.46265 -2.006748,-0.186843 -4.030397,-0.0607 -6.045595,-0.09105 0.01026,0.01618 0.02874,0.02949 0.03079,0.04854 0.02938,0.273099 -0.0068,0.03312 -0.03418,0.144229 -0.01229,0.04992 -0.02415,0.100883 -0.02437,0.152294 -0.0012,0.277626 0.08017,0.461071 0.157807,0.744819 0.249618,1.131769 0.344051,1.437993 0.475103,2.72688 0.06679,0.65692 0.108774,1.316738 0.12847,1.976751 0.01767,0.592243 -0.01889,1.184943 -0.01644,1.777445 0.0047,1.130811 0.03434,1.295709 0.11209,2.420877 -2.17e-4,0.548999 0.01674,1.098273 -6.5e-4,1.646997 -0.211162,6.662117 -0.04833,-2.794244 -0.163852,4.37984 -0.05279,3.277998 -0.04881,2.059366 0.04419,5.435035 -0.0059,1.091325 -0.07358,2.181441 -0.110371,3.272162 -0.22651,2.436022 -0.268882,3.467012 -0.683248,5.823083 -0.127124,0.722824 -0.308838,1.434976 -0.462473,2.152632 -0.09168,0.428251 -0.199602,0.853407 -0.273466,1.285087 -0.07836,0.457983 -0.07135,0.828794 -0.08039,1.283749 -0.456707,2.411268 -0.353708,0.978008 5.878356,0.528961 0.167039,-0.01204 -0.176908,-0.287836 -0.230047,-0.446654 -0.11549,-0.345164 -0.190765,-0.702676 -0.273136,-1.057206 -0.303088,-1.304508 -0.272704,-1.290862 -0.467127,-2.620989 -0.06898,-0.601463 -0.132447,-1.342193 -0.274563,-1.942835 -0.210102,-0.887976 -0.539926,-1.744295 -0.760317,-2.629773 -0.598895,-2.406225 -0.552805,-2.6205 -0.924957,-5.251075 -0.392425,-2.831323 -0.536387,-3.614452 -0.78776,-6.545567 -0.105722,-1.232774 -0.158477,-2.469586 -0.253642,-3.703219 -0.07978,-1.034167 -0.190478,-2.065785 -0.271162,-3.099881 -0.20527,-2.630876 -0.18756,-2.702527 -0.287447,-5.154378 -0.02292,-1.176362 -0.0042,-1.221045 -0.06811,-2.140579 -0.0084,-0.121212 0.08913,-0.353497 -0.03199,-0.363108 -2.027063,-0.160856 -4.066039,-0.08228 -6.099058,-0.123414 -0.0506,-0.09904 -0.01197,-0.07324 -0.10104,-0.096 -0.149179,0.284275 -0.23056,0.532038 -0.346051,0.836305 -0.08314,0.219042 -0.166162,0.438147 -0.252423,0.655979 -0.106515,0.268978 -0.229245,0.531712 -0.325885,0.804394 -0.08528,0.240627 -0.146176,0.489212 -0.219264,0.733818 -0.159815,0.723148 -0.235349,0.97261 -0.316991,1.70868 -0.03138,0.282937 -0.06508,0.5672 -0.06091,0.851841 0.0042,0.283815 0.02992,0.568912 0.0858,0.847203 0.170719,0.85026 0.58109,1.643117 0.642743,2.521045 0.11431,0.56951 0.220819,1.140641 0.342931,1.70853 0.26477,1.23134 0.414447,1.601754 0.593566,2.840526 0.05669,0.392094 0.07241,0.789052 0.11401,1.183034 0.01175,0.111265 0.184623,1.54001 0.196173,1.6357 0.104321,2.469574 0.0028,-0.353546 0.03945,2.441926 0.0056,0.430992 0.02869,0.861581 0.04187,1.292408 0.04608,1.50601 0.120817,3.013023 0.06446,4.519951 -0.01138,0.140104 -0.197419,2.450353 -0.227345,2.751195 -0.02696,0.271041 -0.182333,1.651405 -0.260498,2.004851 -0.05267,0.238175 -0.181871,0.586135 -0.278498,0.8523 2.01153,0.136242 4.022028,0.288688 6.034591,0.408724 0.01773,0.0011 0.01967,-0.03024 0.02444,-0.04734 0.07748,-0.277732 0.07685,-0.573363 0.06707,-0.858631 0.0075,-0.140799 0.0032,-0.282724 0.02249,-0.422396 0.09509,-0.688523 0.421888,-1.327029 0.453599,-2.026895 0.04454,-0.33841 0.117482,-0.925098 0.179711,-1.235338 0.05657,-0.282049 0.129756,-0.560546 0.199968,-0.839512 0.0742,-0.294806 0.18774,-0.581095 0.233232,-0.881672 0.06988,-0.461745 -0.02095,-1.414458 -0.04701,-1.825538 -0.03868,-0.412415 -0.0779,-0.824779 -0.116028,-1.237245 -0.03769,-0.407738 -0.04332,-0.819592 -0.111427,-1.223365 -0.09778,-0.579725 -0.50498,-1.524466 -0.614365,-2.047285 -0.201399,-0.962605 -0.480422,-3.672841 -0.574803,-4.507543 -0.199831,-3.83899 -0.220856,-2.800841 -0.122408,-6.625516 0.0198,-0.769109 0.04248,-1.538518 0.09319,-2.306208 0.02865,-0.433699 0.09094,-0.864573 0.14477,-1.29587 0.01784,-0.142979 0.213655,-0.413041 0.0702,-0.426526 -2.009903,-0.188947 -4.036511,-0.09071 -6.054766,-0.13607 0.112316,0.110066 0.06927,0.04558 0.07485,0.324125 0.0047,0.236766 -0.0177,0.492741 -0.03297,0.729012 -0.006,0.09213 -0.02232,0.18424 -0.01733,0.276429 0.0036,0.06644 0.02858,0.129965 0.04286,0.194948 0.0303,0.113877 0.07057,0.225558 0.09089,0.341632 0.09552,0.545826 0.124158,1.087299 0.120081,1.642514 -0.0028,0.380033 -0.04362,0.759054 -0.04958,1.13905 -0.0157,1.00029 0.01192,1.019722 0.105219,1.972051 0.05658,0.218402 0.0866,0.445471 0.169738,0.655206 0.378675,0.955315 0.237788,-0.181003 0.5504,1.187534 0.43003,1.882567 0.245618,3.836429 0.488492,5.740254 0.0591,0.733985 0.08805,1.471021 0.177291,2.201953 0.126256,1.03414 0.538023,2.992416 0.734756,3.996561 0.130037,0.663726 0.285635,1.323124 0.38598,1.991983 0.102773,0.685039 0.177058,1.374942 0.222839,2.066132 0.0393,0.593335 0.02144,1.189077 0.03215,1.783616 -0.02044,0.410118 -0.02939,0.82097 -0.06131,1.230355 -0.03833,0.491551 -0.13456,0.794788 -0.107098,1.258027 0.0067,0.11256 0.03859,0.222208 0.05535,0.333712 0.01908,0.126886 0.03914,0.253736 0.05215,0.381386 0.01326,0.130058 0.01774,0.260862 0.02661,0.391293 1.960028,0.108498 3.920347,0.439141 5.880083,0.325494 0.231811,-0.01344 -0.194789,-0.425477 -0.244416,-0.652311 -0.09953,-0.454929 -0.162115,-0.918483 -0.200779,-1.382564 -0.109328,-1.312244 -0.06867,-2.62808 0.288897,-3.901344 -0.223317,-0.460625 -0.298885,-0.757593 -0.357192,-1.311945 -0.09684,-0.920683 -0.06093,-1.844541 0.15304,-2.746502 0.08257,-0.342264 0.158815,-0.635673 0.146843,-0.992736 -0.0066,-0.197089 -0.04679,-0.392886 -0.04285,-0.590047 0.02062,-1.031622 0.135473,-1.43739 0.315516,-2.510997 0.135558,-0.476922 0.270114,-0.95413 0.406676,-1.430765 0.08733,-0.304788 0.19099,-0.605201 0.264988,-0.913496 0.02306,-0.09607 0.0766,-0.615285 0.09164,-0.748759 0.01417,-0.125718 0.04933,-0.250661 0.04351,-0.377042 -0.0043,-0.09371 -0.04894,-0.181129 -0.0734,-0.271693 -0.05286,-0.13715 -0.113353,-0.271601 -0.158595,-0.411451 -0.110624,-0.341958 -0.31179,-1.132581 -0.386955,-1.44984 -0.07397,-0.312206 -0.125148,-0.629911 -0.209571,-0.939453 -0.07921,-0.290438 -0.18888,-0.571707 -0.280761,-0.858389 -0.127306,-0.39721 -0.251194,-0.795507 -0.37679,-1.193261 -0.273497,-1.784089 -0.48588,-2.684481 -0.421539,-4.570546 0.03027,-0.887363 0.199223,-1.764581 0.289549,-2.647853 0.142454,-1.393011 0.211985,-2.793312 0.406838,-4.180619 0,0 -5.849999,0.04032 -5.849999,0.04032 z" /><path
   style="fill:#ffffff;stroke-width:0.0722943"
   d="m 29.986608,44.274411 c -4.007649,-0.7277 -7.485142,-3.487063 -9.069609,-7.196663 -1.021514,-2.3916 -1.201406,-5.374155 -0.472192,-7.828782 0.801359,-2.697477 2.550811,-5.072774 4.905225,-6.660006 0.628674,-0.423822 2.22081,-1.184193 3.029538,-1.446844 1.29187,-0.41956 2.14073,-0.544236 3.705472,-0.544236 1.179053,0 1.543817,0.02695 2.229106,0.164676 1.600553,0.321676 3.113123,0.934162 4.478383,1.813436 l 0.598624,0.385534 -0.200308,0.262733 c -0.110169,0.144504 -0.724077,0.933933 -1.364239,1.754288 l -1.163932,1.491555 -0.391093,-0.252082 c -0.513095,-0.330721 -1.275631,-0.682119 -2.026345,-0.933799 -0.588995,-0.197463 -0.64916,-0.203133 -2.160196,-0.203601 l -1.554327,-4.85e-4 -0.686796,0.231866 c -2.580584,0.871222 -4.328904,2.649553 -5.107069,5.194737 -0.184329,0.602893 -0.196589,0.727741 -0.194532,1.980891 0.0026,1.60528 0.101987,2.066474 0.709155,3.291947 2.061645,4.161109 7.359421,5.502248 11.220341,2.840445 0.747297,-0.515202 1.434775,-1.214585 1.939385,-1.972967 0.387003,-0.58163 0.900371,-1.621541 0.902387,-1.827935 6.94e-4,-0.0711 -0.769786,-0.09037 -3.613831,-0.09037 h -3.614713 v -2.241122 -2.241122 h 6.071079 6.07108 l -0.0377,1.391664 c -0.07321,2.702418 -0.264954,3.808972 -0.93515,5.396752 -0.620661,1.470424 -1.422867,2.634384 -2.67066,3.874988 -0.986246,0.980565 -1.888375,1.62993 -3.112726,2.240584 -1.796753,0.896144 -3.09613,1.200878 -5.277482,1.237693 -1.187249,0.02004 -1.582009,-2.9e-4 -2.206875,-0.113777 z"
   id="path3491" /></svg>
