<?xml version="1.0" encoding="UTF-8" standalone="no"?>
<svg
   width="64"
   height="64"
   viewBox="0 0 64 64"
   version="1.1"
   id="svg8275"
   sodipodi:docname="google.svg"
   inkscape:version="1.2 (dc2aedaf03, 2022-05-15)"
   xmlns:inkscape="http://www.inkscape.org/namespaces/inkscape"
   xmlns:sodipodi="http://sodipodi.sourceforge.net/DTD/sodipodi-0.dtd"
   xmlns="http://www.w3.org/2000/svg"
   xmlns:svg="http://www.w3.org/2000/svg">
  <defs
     id="defs8279" />
  <sodipodi:namedview
     id="namedview8277"
     pagecolor="#505050"
     bordercolor="#eeeeee"
     borderopacity="1"
     inkscape:showpageshadow="0"
     inkscape:pageopacity="0"
     inkscape:pagecheckerboard="0"
     inkscape:deskcolor="#505050"
     showgrid="false"
     inkscape:zoom="11.313709"
     inkscape:cx="38.360543"
     inkscape:cy="33.631766"
     inkscape:window-width="3440"
     inkscape:window-height="1376"
     inkscape:window-x="0"
     inkscape:window-y="32"
     inkscape:window-maximized="1"
     inkscape:current-layer="svg8275" />
  <path
     style="fill:none;stroke-width:0.0623174"
     d="M 30.504382,61.93306 C 26.972718,61.715921 23.883243,61.032319 20.794967,59.78468 11.102353,55.868939 4.166706,47.220372 2.4363049,36.891918 2.135255,35.095006 2.0891691,34.445552 2.0891691,32 c 0,-2.445552 0.046086,-3.095006 0.3471358,-4.891918 C 3.2240792,22.405998 5.1220735,17.937948 7.9437006,14.143175 9.6956697,11.786973 12.002014,9.4964365 14.317686,7.8128775 19.953009,3.7158396 26.909977,1.6571842 33.682571,2.0825623 40.07439,2.4840244 45.865262,4.7119314 50.788705,8.6637604 57.202973,13.812208 61.234407,21.464845 61.880612,29.718884 c 0.08181,1.044915 0.08062,3.523959 -0.0022,4.589984 -0.43397,5.585925 -2.48252,11.056582 -5.822109,15.547957 -1.685025,2.266171 -3.844033,4.434423 -6.10888,6.135037 -4.089031,3.070347 -9.063105,5.084766 -14.146056,5.728923 -1.708383,0.216501 -3.83932,0.301899 -5.296982,0.212275 z m 0.129391,-16.974959 c 2.024815,-0.197034 3.740091,-0.780832 4.947205,-1.683791 0.579265,-0.433309 1.387366,-1.264698 1.744198,-1.794465 0.943844,-1.401264 1.217454,-3.075071 0.78056,-4.775076 -0.296686,-1.154438 -1.065266,-2.128237 -2.902825,-3.67791 -1.351906,-1.140106 -1.676134,-1.565591 -1.676134,-2.19959 0,-0.392614 0.08953,-0.645848 0.381543,-1.079221 0.255385,-0.379009 0.348648,-0.479428 1.236434,-1.3313 0.986346,-0.946444 1.481153,-1.715906 1.762351,-2.740585 0.178066,-0.648872 0.227138,-2.425589 0.08106,-2.935016 -0.22529,-0.785684 -0.482087,-1.201437 -1.142205,-1.849229 l -0.619157,-0.607595 h 1.049362 1.049361 l 0.842591,-1.119978 c 0.463425,-0.615988 0.842591,-1.134781 0.842591,-1.152872 0,-0.06161 -7.751246,-0.03269 -8.319377,0.03105 -1.492727,0.167456 -2.243348,0.355412 -3.087349,0.773075 -1.850925,0.915952 -3.140914,2.424004 -3.687383,4.310714 -0.124653,0.43037 -0.142316,0.6286 -0.14101,1.582553 0.0015,1.072873 0.0049,1.100399 0.210268,1.697746 0.466015,1.355337 1.515271,2.613165 2.686,3.219926 0.918064,0.475812 1.707378,0.640865 3.043692,0.636468 0.818459,-0.0027 0.890272,0.006 0.852557,0.10364 -0.254672,0.659057 -0.294739,0.869946 -0.265508,1.397502 0.02528,0.456228 0.06549,0.617641 0.251336,1.008988 0.121684,0.256231 0.336626,0.635784 0.47765,0.843451 l 0.256406,0.377576 -0.329488,3.8e-5 c -0.512738,6e-5 -2.508215,0.241766 -3.159209,0.382666 -1.64295,0.355597 -3.373584,1.208205 -4.313088,2.124871 -0.513027,0.500557 -0.771923,0.878105 -1.05812,1.543058 -0.35814,0.832108 -0.451076,1.309129 -0.415424,2.132296 0.04965,1.146461 0.395457,1.892156 1.294158,2.790744 0.939851,0.939733 1.886318,1.445299 3.333879,1.780831 1.085496,0.251608 2.693171,0.335932 3.993072,0.209439 z M 44.043951,33.511198 44.060639,32 h 1.49451 1.49451 v -1.028238 -1.028237 h -1.49449 -1.494491 l -0.01671,-1.480039 -0.01671,-1.480039 H 42.99902 41.970783 l -0.01671,1.480039 -0.01671,1.480039 h -1.49449 -1.494491 V 30.971762 32 h 1.495619 1.495618 v 1.485232 c 0,0.816878 0.01937,1.504596 0.04303,1.528264 0.02367,0.02367 0.493386,0.03535 1.043817,0.02597 l 1.000786,-0.01707 z"
     id="path9124" />
  <path
     style="fill:#000000;fill-opacity:1;stroke-width:0.0623174"
     d="M 30.49568,61.918883 C 26.964016,61.701744 23.874541,61.018142 20.786265,59.770503 11.093651,55.854762 4.1580038,47.206195 2.4276018,36.877741 c -0.301049,-1.796912 -0.347135,-2.446366 -0.347135,-4.891918 0,-2.445552 0.04609,-3.095006 0.347135,-4.891918 0.787775,-4.702084 2.685769,-9.170134 5.507396,-12.964907 1.751969,-2.356202 4.0583142,-4.6467377 6.3739862,-6.3302967 5.635323,-4.097038 12.592291,-6.155694 19.36488,-5.730316 6.39182,0.401463 12.1827,2.62937 17.10614,6.581199 6.41427,5.1484467 10.4457,12.8010837 11.09191,21.0551227 0.0818,1.044915 0.0806,3.523959 -0.002,4.589984 -0.43397,5.585925 -2.48252,11.056582 -5.82211,15.547957 -1.68503,2.266171 -3.84404,4.434423 -6.10888,6.135037 -4.08903,3.070347 -9.06311,5.084766 -14.14606,5.728923 -1.70838,0.216501 -3.83932,0.301899 -5.296981,0.212275 z m 0.129391,-16.974959 c 2.024813,-0.197034 3.740093,-0.780832 4.947203,-1.683791 0.57927,-0.433309 1.38737,-1.264698 1.7442,-1.794465 0.94384,-1.401264 1.21745,-3.075071 0.78056,-4.775076 -0.29669,-1.154438 -1.06527,-2.128237 -2.90283,-3.67791 -1.3519,-1.140106 -1.67613,-1.565591 -1.67613,-2.19959 0,-0.392614 0.0895,-0.645848 0.38154,-1.079221 0.25539,-0.379009 0.34865,-0.479428 1.23644,-1.3313 0.98634,-0.946444 1.48115,-1.715906 1.76235,-2.740585 0.17806,-0.648872 0.22714,-2.425589 0.0811,-2.935016 -0.22529,-0.785684 -0.48209,-1.201437 -1.14221,-1.849229 l -0.61915,-0.607595 h 1.04936 1.04936 l 0.84259,-1.119978 c 0.46343,-0.615988 0.84259,-1.134781 0.84259,-1.152872 0,-0.06161 -7.751244,-0.03269 -8.319375,0.03105 -1.492727,0.167456 -2.243348,0.355412 -3.087349,0.773075 -1.850925,0.915952 -3.140914,2.424004 -3.687383,4.310714 -0.124653,0.43037 -0.142316,0.6286 -0.14101,1.582553 0.0015,1.072873 0.0049,1.100399 0.210268,1.697746 0.466015,1.355337 1.515271,2.613165 2.686,3.219926 0.918064,0.475812 1.707378,0.640865 3.043692,0.636468 0.818459,-0.0027 0.890272,0.006 0.852557,0.10364 -0.254672,0.659057 -0.294739,0.869946 -0.265508,1.397502 0.02528,0.456228 0.06549,0.617641 0.251336,1.008988 0.121684,0.256231 0.336626,0.635784 0.47765,0.843451 l 0.256406,0.377576 -0.329488,3.8e-5 c -0.512738,6e-5 -2.508215,0.241766 -3.159209,0.382666 -1.64295,0.355597 -3.373584,1.208205 -4.313088,2.124871 -0.513027,0.500557 -0.771923,0.878105 -1.05812,1.543058 -0.35814,0.832108 -0.451076,1.309129 -0.415424,2.132296 0.04965,1.146461 0.395457,1.892156 1.294158,2.790744 0.939851,0.939733 1.886318,1.445299 3.333879,1.780831 1.085496,0.251608 2.693171,0.335932 3.993072,0.209439 z m 13.410173,-11.446903 0.0167,-1.511198 h 1.49451 1.49451 v -1.028238 -1.028237 h -1.49449 -1.49449 l -0.0167,-1.480039 -0.0167,-1.480039 h -1.02824 -1.02823 l -0.0167,1.480039 -0.0167,1.480039 h -1.49449 -1.49449 v 1.028237 1.028238 h 1.49561 1.49562 v 1.485232 c 0,0.816878 0.0194,1.504596 0.043,1.528264 0.0237,0.02367 0.49339,0.03535 1.04382,0.02597 l 1.00079,-0.01707 z"
     id="path9126" />
  <path
     style="fill:#000000;fill-opacity:1;stroke-width:0.0623174"
     d="M 29.454591,42.157438 C 28.803977,42.02033 28.156055,41.72504 27.63778,41.329426 c -0.446283,-0.34066 -0.668303,-0.611867 -0.892536,-1.090272 -0.149308,-0.31855 -0.16686,-0.428247 -0.16686,-1.042801 0,-0.646813 0.01162,-0.710404 0.199548,-1.092142 0.486973,-0.989183 1.470027,-1.548499 3.22791,-1.836541 0.308472,-0.05055 0.829934,-0.09201 1.158806,-0.09215 l 0.597948,-2.5e-4 0.669983,0.50442 c 1.009476,0.76002 1.555338,1.304997 1.79526,1.792349 0.191371,0.388729 0.202541,0.449295 0.202541,1.09822 0,0.616144 -0.01733,0.723784 -0.168446,1.046265 -0.359558,0.767293 -1.207434,1.36022 -2.243727,1.569056 -0.661755,0.133358 -1.859657,0.120209 -2.563616,-0.02814 z"
     id="path9130" />
  <path
     style="fill:#000000;fill-opacity:1;stroke-width:0.00390625"
     d="m 60.207031,42.09031 c 0,-8.18e-4 0.0063,-0.01884 0.01396,-0.04004 0.0077,-0.0212 0.04003,-0.113259 0.07189,-0.204568 0.741277,-2.124475 1.243686,-4.325086 1.492005,-6.535156 0.01965,-0.174866 0.05618,-0.533355 0.0612,-0.600586 l 0.0027,-0.03613 h 0.01535 0.01535 l -0.0023,0.02051 c -0.0013,0.01128 -0.0084,0.08555 -0.01594,0.165039 -0.168204,1.785284 -0.515965,3.626652 -1.014017,5.369141 -0.177994,0.62273 -0.407163,1.337387 -0.594055,1.852539 -0.0036,0.0099 -0.0055,0.01074 -0.025,0.01074 -0.01161,0 -0.0211,-6.69e-4 -0.0211,-0.0015 z"
     id="path9132" />
  <path
     style="fill:#000000;fill-opacity:1;stroke-width:0.00390625"
     d="m 56.059462,49.856445 c 0.0053,-0.007 0.04403,-0.05953 0.0861,-0.116763 1.18834,-1.616737 2.201992,-3.338325 3.057688,-5.193181 0.285646,-0.619184 0.568736,-1.294709 0.810966,-1.935173 0.02885,-0.07627 0.05436,-0.143506 0.0567,-0.149414 0.0039,-0.0099 0.006,-0.01074 0.02526,-0.01074 0.01156,0 0.02101,8.28e-4 0.02101,0.0018 0,0.0023 -0.04773,0.129916 -0.08989,0.240348 -0.440777,1.154319 -0.954347,2.284654 -1.5361,3.38086 -0.674007,1.270041 -1.4439,2.495963 -2.308985,3.676659 l -0.08651,0.118065 -0.02292,9.8e-5 -0.02292,9.7e-5 0.0096,-0.0127 z"
     id="path9134" />
  <path
     style="fill:#000000;fill-opacity:1;stroke-width:0.00390625"
     d="m 61.927237,33.266602 c 0.01301,-0.37194 0.01768,-1.830798 0.0073,-2.280274 -0.01583,-0.684949 -0.03076,-1.016072 -0.06351,-1.408203 -0.0856,-1.024825 -0.219798,-2.022173 -0.408406,-3.035156 -0.0231,-0.124068 -0.114405,-0.586423 -0.120917,-0.612305 -0.0026,-0.01053 -0.0024,-0.01074 0.01488,-0.01074 0.01128,0 0.01832,0.0019 0.01964,0.0053 0.0034,0.0089 0.0747,0.369257 0.105954,0.535666 0.269797,1.436484 0.435536,2.902226 0.492275,4.353516 0.01655,0.423364 0.02189,0.712387 0.02189,1.185547 0,0.472404 -0.0056,0.777716 -0.02184,1.181641 -0.0031,0.07842 -0.0057,0.145654 -0.0057,0.149414 -1.2e-5,0.0057 -0.0037,0.0068 -0.02202,0.0068 h -0.022 z"
     id="path9136" />
  <path
     style="fill:#000000;fill-opacity:1;stroke-width:0.00390625"
     d="m 61.851564,34.665039 c 10e-7,-0.0048 0.0069,-0.09228 0.01539,-0.194336 0.02353,-0.283582 0.03364,-0.448071 0.04501,-0.732422 0.0059,-0.148169 0.01375,-0.369314 0.01379,-0.389648 1.9e-5,-0.01043 6.48e-4,-0.01074 0.0218,-0.01074 h 0.02178 l -0.0023,0.03418 c -0.0013,0.0188 -0.005,0.08867 -0.0082,0.155274 -0.01445,0.294995 -0.03778,0.642602 -0.06632,0.988281 -0.01413,0.171121 -0.01187,0.158203 -0.0277,0.158203 -0.01111,0 -0.01322,-0.0014 -0.01322,-0.0088 z"
     id="path9138" />
  <path
     style="fill:#000000;fill-opacity:1;stroke-width:0.00390625"
     d="m 60.078588,42.44043 c 0.01067,-0.02745 0.07331,-0.198246 0.09778,-0.266602 0.015,-0.04189 0.02866,-0.07759 0.03036,-0.07932 0.0017,-0.0017 0.01194,-0.0026 0.02275,-0.002 l 0.01966,0.0012 -0.05631,0.154297 c -0.03097,0.08486 -0.06022,0.165283 -0.06499,0.178711 l -0.0087,0.02441 h -0.02238 -0.02238 z"
     id="path9140" />
  <path
     style="fill:#000000;fill-opacity:1;stroke-width:0.0078125"
     d="m 36.875,61.583358 c 0,-0.01323 0.0084,-0.01692 0.05664,-0.02483 0.370189,-0.06071 0.966154,-0.175278 1.384765,-0.266215 4.368326,-0.948953 8.512878,-2.873466 11.984375,-5.564918 1.639171,-1.270849 3.257531,-2.825277 4.629456,-4.44657 0.355407,-0.420007 0.788418,-0.962769 1.057762,-1.32586 0.04829,-0.06509 0.06632,-0.08387 0.08054,-0.08387 0.02289,0 0.03262,-0.01522 -0.122292,0.191406 -1.106616,1.476048 -2.454168,2.947698 -3.85263,4.207422 -2.329785,2.098655 -4.944878,3.806105 -7.788929,5.08556 -2.30733,1.037999 -4.748838,1.78288 -7.246093,2.210716 -0.07734,0.01325 -0.150293,0.02603 -0.16211,0.0284 -0.01768,0.0035 -0.02148,0.0016 -0.02148,-0.01124 z"
     id="path9142" />
  <path
     style="fill:#000000;fill-opacity:1;stroke-width:0.00390625"
     d="m 31.488281,61.994121 c -1.730235,-0.03287 -3.388611,-0.202556 -5.054687,-0.517209 -0.152098,-0.02873 -0.412483,-0.07972 -0.422852,-0.08282 -0.0052,-0.0016 -0.0068,-0.0063 -0.0068,-0.01962 0,-0.01491 0.001,-0.01727 0.0068,-0.01554 0.01228,0.0037 0.307714,0.0607 0.477539,0.09221 1.251486,0.232197 2.601966,0.39589 3.962891,0.480347 1.553367,0.0964 3.72133,0.0063 5.501953,-0.228619 0.273759,-0.03612 0.661344,-0.09339 0.871625,-0.128788 0.06681,-0.01125 0.06555,-0.01115 0.05632,-0.0044 -0.0052,0.0038 -0.0066,0.0086 -0.0053,0.01758 9.97e-4,0.0068 0.0014,0.01235 8.59e-4,0.01235 -5.25e-4,0 -0.04988,0.0078 -0.109675,0.01742 -1.359958,0.217958 -2.641349,0.335422 -4.073565,0.373419 -0.199048,0.0053 -0.992962,0.0077 -1.205078,0.0037 z"
     id="path9144" />
  <path
     id="path9146"
     style="fill:#000000;fill-opacity:1;stroke-width:0.00552427"
     d="M 5.4960938 46.029297 C 5.4903889 46.0352 5.5065357 46.064929 5.5722656 46.1875 C 6.7538804 48.390922 8.225704 50.459928 9.9296875 52.3125 C 10.265391 52.677477 10.7019 53.12559 11.046875 53.460938 C 11.212147 53.621597 11.348409 53.753906 11.349609 53.753906 C 11.350802 53.753906 11.351617 53.744242 11.351562 53.732422 C 11.35148 53.714526 11.311204 53.673093 11.115234 53.484375 C 10.884874 53.262537 10.46729 52.838246 10.210938 52.566406 C 8.4100604 50.656728 6.8776205 48.53433 5.6269531 46.21875 C 5.5453498 46.067659 5.5220775 46.031397 5.5078125 46.029297 C 5.5020723 46.028441 5.4979954 46.027329 5.4960938 46.029297 z M 11.355469 53.712891 L 11.353516 53.734375 C 11.351926 53.755875 11.353501 53.759388 11.400391 53.804688 C 11.50781 53.90844 11.74618 54.128551 11.935547 54.298828 C 13.368147 55.587011 14.902827 56.721417 16.552734 57.712891 C 19.352421 59.395296 22.422182 60.615356 25.607422 61.308594 C 25.725917 61.334384 25.857851 61.361994 25.900391 61.371094 C 26.00059 61.392434 26.001953 61.392327 26.001953 61.373047 C 26.001953 61.357827 26.003304 61.357237 25.927734 61.341797 C 23.432767 60.831992 20.952865 59.972314 18.611328 58.802734 C 15.997786 57.497289 13.56591 55.799954 11.464844 53.816406 L 11.355469 53.712891 z " />
  <path
     style="fill:#000000;fill-opacity:1;stroke-width:0.0078125"
     d="M 5.479622,46.013672 C 5.4498903,45.965915 5.1409212,45.356457 5.0228985,45.112761 3.9753727,42.949805 3.211198,40.748123 2.6992252,38.417969 2.4118901,37.110213 2.2022714,35.703989 2.1018008,34.410156 c -0.00884,-0.113867 -0.017081,-0.218457 -0.018307,-0.232422 -0.00189,-0.02153 3.456e-4,-0.02539 0.014729,-0.02539 0.016288,0 0.017167,0.0041 0.022197,0.103515 0.0412,0.814413 0.1122922,1.427268 0.2906845,2.50586 0.3581027,2.165152 0.9047449,4.159742 1.6904088,6.167968 0.381815,0.975953 0.8666897,2.039089 1.3513149,2.962891 0.065272,0.124423 0.06934,0.134766 0.053002,0.134766 -0.00973,0 -0.021526,-0.0062 -0.026207,-0.01367 z"
     id="path9151" />
  <path
     style="fill:#000000;fill-opacity:1;stroke-width:0.0078125"
     d="M 2.0753126,34.072266 C 2.0221907,33.240398 2.0074303,32.789846 2.0074242,32 c -5.3e-6,-0.681545 0.010483,-1.082629 0.043821,-1.675781 0.1592483,-2.833374 0.7158939,-5.616786 1.6592656,-8.296875 0.1174998,-0.333814 0.1342958,-0.375 0.1529267,-0.375 0.016933,0 0.016532,0.0022 -0.017652,0.0957 -0.5768085,1.578181 -1.0372796,3.27694 -1.341022,4.947265 -0.163492,0.899068 -0.2892509,1.781043 -0.3403173,2.386719 -0.062196,0.737683 -0.074182,1.20701 -0.074322,2.910156 -1.049e-4,1.281065 0.00658,1.863126 0.024065,2.095704 l 0.00485,0.06445 h -0.019305 c -0.018943,0 -0.0194,-0.0015 -0.024418,-0.08008 z"
     id="path9153" />
  <path
     style="fill:#000000;fill-opacity:1;stroke-width:0.0078125"
     d="m 3.84375,21.656281 c 0,-0.0082 0.2126419,-0.56083 0.30063,-0.781281 0.7726948,-1.935959 1.7435528,-3.781892 2.9049719,-5.523345 0.5283906,-0.792279 1.0561102,-1.507922 1.6750753,-2.271577 0.1312526,-0.161934 0.1461924,-0.177734 0.168058,-0.177734 0.022156,0 0.02309,0.0011 0.012165,0.01367 -0.0348,0.0402 -0.2476587,0.30184 -0.3702378,0.455078 -1.1320604,1.415201 -2.1538925,2.978799 -3.0301573,4.636718 -0.1494249,0.282717 -0.508619,1.005739 -0.6442815,1.296875 -0.3223543,0.691784 -0.6256452,1.410511 -0.8856821,2.098858 -0.085633,0.22668 -0.097271,0.252769 -0.113003,0.253325 -0.00965,3.42e-4 -0.017539,7.6e-5 -0.017539,-5.89e-4 z"
     id="path9155" />
  <path
     style="fill:#000000;fill-opacity:1;stroke-width:0.0078125"
     d="m 8.8796106,12.893133 c 0.00342,-0.0057 0.05025,-0.06306 0.1040662,-0.127508 1.1643192,-1.394454 2.4958502,-2.719278 3.8993162,-3.8796779 2.739011,-2.2646407 5.864628,-4.0285823 9.210757,-5.1980895 0.412927,-0.1443224 0.469732,-0.1615527 0.52404,-0.1589535 l 0.04902,0.00235 -0.272856,0.092698 c -3.460361,1.1755958 -6.760328,3.0134011 -9.483793,5.2816778 -0.724334,0.6032718 -1.337853,1.1657511 -2.070875,1.8985951 -0.681439,0.681274 -1.1946387,1.237002 -1.7683709,1.914916 -0.1266582,0.149657 -0.1555298,0.179715 -0.1746322,0.181808 -0.017287,0.0019 -0.021365,0 -0.016667,-0.0078 z"
     id="path9157" />
  <path
     style="fill:#000000;fill-opacity:1;stroke-width:0.00390625"
     d="m 22.591797,3.5156982 c 2.260979,-0.7455424 4.574835,-1.2163557 6.939453,-1.4120095 0.582126,-0.048166 1.122198,-0.076714 1.791016,-0.094672 0.241015,-0.00647 1.114969,-0.00647 1.357421,5.3e-6 0.803674,0.021457 1.438009,0.05916 2.183594,0.129786 0.168093,0.015923 0.152344,0.012361 0.152344,0.03445 V 2.191532 L 34.852539,2.1753035 C 33.407648,2.0315294 32.034644,1.9921897 30.646484,2.0547903 28.404307,2.1559038 26.170287,2.5175031 23.970703,3.1353349 23.5785,3.2454992 23.122218,3.3840195 22.777226,3.4976568 l -0.103633,0.034136 -0.03458,-0.00332 c -0.02599,-0.00249 -0.04319,-0.00183 -0.06922,0.00266 -0.01905,0.00329 -0.03596,0.0058 -0.03757,0.00558 -0.0016,-2.206e-4 0.0252,-0.00968 0.05957,-0.02101 z"
     id="path9159" />
  <path
     style="fill:#000000;fill-opacity:1;stroke-width:0.00390625"
     d="M 44.617187,4.8160196 C 44.285942,4.6614259 43.876689,4.4814718 43.508292,4.3284223 40.892769,3.241813 38.118245,2.5339126 35.221411,2.2140824 l -0.205388,-0.022676 7.78e-4,-0.018823 7.77e-4,-0.018823 0.02148,0.00229 c 0.01182,0.00126 0.07949,0.00846 0.150391,0.015993 3.21807,0.3419844 6.399411,1.2182527 9.341623,2.5730557 0.06992,0.032196 0.137235,0.063017 0.149588,0.06849 0.02171,0.00962 0.02246,0.010452 0.02246,0.024937 0,0.00824 -0.0013,0.014958 -0.0029,0.014924 -0.0016,-3.51e-5 -0.03896,-0.016879 -0.08301,-0.037434 z"
     id="path9161" />
  <path
     style="fill:#000000;fill-opacity:1;stroke-width:0.00390625"
     d="M 50.739698,8.6218133 C 49.941109,7.9817928 49.060146,7.3476537 48.195312,6.7903033 47.103284,6.0865347 45.951673,5.4456895 44.80957,4.906216 L 44.703125,4.855937 V 4.841055 c 0,-0.00819 8.97e-4,-0.014882 0.002,-0.014882 0.0011,0 0.04988,0.022642 0.108399,0.050315 0.405944,0.1919583 0.849919,0.4142653 1.230738,0.6162547 1.555149,0.8248637 3.014947,1.7703983 4.401056,2.8506343 0.139995,0.1091018 0.417969,0.3303525 0.417969,0.3326778 0,9.243e-4 -0.01211,0.00168 -0.0269,0.00168 h -0.0269 z"
     id="path9163" />
  <path
     style="fill:#000000;fill-opacity:1;stroke-width:0.00390625"
     d="M 55.161571,12.991265 C 54.748173,12.485499 54.265343,11.936353 53.797162,11.439453 53.541404,11.168008 53.039661,10.660436 52.798772,10.429466 52.163591,9.8204393 51.553207,9.2803193 50.920691,8.7675781 l -0.108422,-0.087891 0.02591,-0.00116 c 0.01776,-7.981e-4 0.02854,6.093e-4 0.0343,0.00447 0.02498,0.016793 0.3684,0.3016217 0.563077,0.4670153 0.798767,0.6786161 1.597813,1.4356236 2.334235,2.2114266 0.481941,0.507714 1.023011,1.121799 1.445455,1.640513 0.04435,0.05446 0.04306,0.05078 0.01785,0.05078 h -0.02128 z"
     id="path9165" />
  <path
     style="fill:#000000;fill-opacity:1;stroke-width:0.00390625"
     d="m 57.994687,17.106445 c -0.003,-0.0048 -0.02972,-0.05098 -0.05932,-0.102539 -0.747879,-1.302564 -1.671168,-2.649106 -2.628907,-3.834044 -0.05039,-0.06234 -0.09161,-0.114199 -0.09161,-0.115238 0,-0.001 0.0094,-0.0019 0.02093,-0.0019 h 0.02093 l 0.02323,0.02832 c 0.04232,0.05159 0.25671,0.320069 0.314269,0.393554 0.884421,1.129144 1.66065,2.275838 2.370057,3.501198 0.04329,0.07478 0.07872,0.136743 0.07872,0.137695 0,9.53e-4 -0.0096,0.0017 -0.02139,0.0017 -0.01795,0 -0.02228,-0.0014 -0.02689,-0.0088 z"
     id="path9167" />
  <path
     style="fill:#000000;fill-opacity:1;stroke-width:0.00390625"
     d="m 60.588129,23.041992 c -0.0058,-0.02441 -0.119661,-0.375653 -0.179459,-0.553711 -0.544895,-1.622509 -1.220406,-3.183153 -2.028942,-4.6875 -0.109708,-0.204121 -0.249105,-0.45622 -0.345589,-0.625 -0.0172,-0.03008 -0.03201,-0.05601 -0.03293,-0.05762 -9.17e-4,-0.0016 0.0085,-0.0029 0.02102,-0.0029 l 0.02269,3.6e-5 0.01505,0.02633 c 0.366761,0.64157 0.762088,1.403793 1.091298,2.104112 0.550939,1.171997 1.044435,2.429411 1.426668,3.635109 0.02827,0.08916 0.05212,0.164307 0.05301,0.166993 0.0012,0.0035 -0.0043,0.0049 -0.01932,0.0049 -0.01962,0 -0.0211,-6.78e-4 -0.0235,-0.01074 z"
     id="path9169" />
  <path
     style="fill:#000000;fill-opacity:1;stroke-width:0.00390625"
     d="m 61.337947,25.911133 c -0.0011,-0.0048 -0.01618,-0.07471 -0.03345,-0.155274 -0.186272,-0.868971 -0.405906,-1.709948 -0.671983,-2.573015 -0.02132,-0.06916 -0.03877,-0.12673 -0.03877,-0.12793 0,-0.0012 0.0087,-0.0022 0.01936,-0.0022 h 0.01936 l 0.01558,0.0498 c 0.231655,0.740337 0.456312,1.584816 0.633637,2.381836 0.02892,0.129983 0.0933,0.429203 0.0933,0.433624 0,0.0011 -0.0079,0.0019 -0.0175,0.0019 -0.01494,0 -0.0178,-0.0013 -0.01955,-0.0088 z"
     id="path9171" />
  <path
     style="fill:#000000;fill-opacity:1;stroke-width:0.00390625"
     d="m 38.949219,30.972656 v -1.02539 h 1.493829 1.49383 l 0.002,-0.02441 c 0.0011,-0.01343 0.0084,-0.617676 0.01606,-1.342774 0.0077,-0.725098 0.01511,-1.380322 0.01646,-1.456055 l 0.0025,-0.137695 h 1.025823 1.025823 l 0.01479,1.334961 c 0.0081,0.734229 0.01586,1.40044 0.01716,1.480469 l 0.0024,0.145508 h 1.493506 1.493507 v 1.02539 1.025391 H 47.023437 47 v -1 -1 H 45.5 44 v -1.5 -1.5 h -1 -1 v 1.5 1.5 H 40.5 39 v 1 1 h -0.02539 -0.02539 z"
     id="path9173" />
  <path
     style="fill:#000000;fill-opacity:1;stroke-width:0.00390625"
     d="m 42.30446,35.037128 c -0.177277,-0.0048 -0.298031,-0.01381 -0.31669,-0.02375 -0.01102,-0.0059 -0.0187,-0.08341 -0.02668,-0.269241 -0.01456,-0.339047 -0.0196,-0.81334 -0.01965,-1.848633 l -3.9e-5,-0.893555 h 0.0293 H 42 v 1.5 1.5 h 1 1 v -1.5 -1.5 h 0.02993 0.02993 l -0.0024,0.143555 c -0.0013,0.07896 -0.0089,0.757031 -0.01691,1.506836 -0.008,0.749804 -0.01554,1.364426 -0.01679,1.365826 -0.0037,0.0042 -0.945403,0.01943 -1.285477,0.02085 -0.172949,7.22e-4 -0.368169,-1.29e-4 -0.433821,-0.0019 z"
     id="path9175" />
  <path
     style="fill:#000000;fill-opacity:1;stroke-width:0.0078125"
     d="M 37.370605,35.232357 C 37.027805,34.787897 36.6071,34.321859 36.199219,33.934747 35.835327,33.589384 35.88467,33.63177 34.722656,32.666389 34.391818,32.391535 34.307578,32.317435 34.226136,32.229635 34.078385,32.070349 33.882332,31.83886 33.751268,31.668936 33.504315,31.34876 33.427728,30.854768 33.550659,30.375 c 0.04953,-0.193289 0.113037,-0.328879 0.253856,-0.541961 0.276811,-0.41886 0.452973,-0.630832 0.732083,-0.880897 0.204516,-0.183233 0.400947,-0.363192 0.547622,-0.501702 0.06566,-0.062 0.12115,-0.110955 0.12332,-0.108786 0.0022,0.0022 -0.128894,0.132335 -0.291251,0.289257 -0.357654,0.345679 -0.631196,0.62183 -0.725848,0.732769 -0.192811,0.225989 -0.430931,0.58506 -0.528188,0.796476 -0.09475,0.205974 -0.138898,0.41475 -0.138751,0.656202 2.65e-4,0.437469 0.146794,0.74731 0.567056,1.19906 0.237702,0.255512 0.532825,0.524275 1.194598,1.087897 0.535713,0.456258 0.817932,0.713915 1.199934,1.0955 0.435743,0.435269 0.709128,0.750333 0.948049,1.092584 0.0766,0.10973 0.04361,0.07859 -0.06253,-0.05904 z"
     id="path9177" />
  <path
     style="fill:#000000;fill-opacity:1;stroke-width:0.0078125"
     d="M 31.160156,33.798742 C 30.979914,33.531681 30.93069,33.454185 30.82605,33.272741 30.712216,33.075355 30.614562,32.891082 30.546254,32.744764 30.365215,32.356972 30.327491,32.193068 30.303643,31.69066 c -0.02099,-0.442295 0.0286,-0.700555 0.239165,-1.245356 0.04196,-0.108578 0.04411,-0.13176 0.01367,-0.147501 -0.04632,-0.02395 -0.117976,-0.0303 -0.396327,-0.03512 -0.264294,-0.0046 -0.273911,-0.0052 -0.159525,-0.01077 0.140266,-0.0068 0.369048,-0.02477 0.525594,-0.04127 0.05954,-0.0063 0.112909,-0.01141 0.118595,-0.01141 0.0075,0 0.0039,0.01764 -0.01321,0.06445 -0.01295,0.03545 -0.06166,0.173437 -0.108234,0.30664 -0.04658,0.133204 -0.09362,0.265668 -0.104538,0.294367 -0.113776,0.299075 -0.139035,0.842045 -0.05899,1.268133 0.05461,0.290711 0.132075,0.502169 0.280477,0.765625 0.02904,0.05156 0.08026,0.144727 0.113815,0.207032 0.126777,0.23541 0.31825,0.540963 0.479771,0.765625 0.09371,0.13034 0.09061,0.125066 0.07319,0.124717 -0.0096,-1.92e-4 -0.0566,-0.0632 -0.146946,-0.197069 z"
     id="path9179" />
  <path
     style="fill:#000000;fill-opacity:1;stroke-width:0.0078125"
     d="m 24.742187,35.578894 c 0,-0.0048 0.260224,-0.1502 0.419624,-0.234444 0.784344,-0.414534 1.780485,-0.778739 2.628162,-0.960899 0.425447,-0.09143 1.438804,-0.232559 2.303777,-0.320854 0.464042,-0.04737 0.64003,-0.05924 0.925781,-0.06244 0.220374,-0.0025 0.241669,-0.0019 0.125,0.0036 -0.757407,0.03544 -1.628165,0.124063 -2.613281,0.26596 -0.17832,0.02569 -0.420898,0.0661 -0.539063,0.0898 -1.080067,0.216679 -2.126348,0.604369 -3.12205,1.156847 -0.111749,0.06201 -0.12795,0.06991 -0.12795,0.06242 z"
     id="path9181" />
  <path
     style="fill:#000000;fill-opacity:1;stroke-width:0.0078125"
     d="m 28.315186,41.809641 c -0.17079,-0.08486 -0.262372,-0.137123 -0.407355,-0.232461 -0.852336,-0.560478 -1.297259,-1.216112 -1.401655,-2.065461 -0.01543,-0.125567 -0.01277,-0.539454 0.0043,-0.667969 0.03578,-0.269431 0.09783,-0.489664 0.195904,-0.695313 0.16039,-0.336329 0.401526,-0.672749 0.625653,-0.872876 0.205006,-0.183053 0.555351,-0.411919 0.769675,-0.502798 0.488973,-0.207335 0.547254,-0.228388 0.882793,-0.318891 0.510472,-0.137685 1.045513,-0.242795 1.394407,-0.273932 0.446399,-0.03984 0.618983,-0.04616 0.96875,-0.03548 0.411572,0.01257 0.468169,0.02097 0.152344,0.02262 -0.731307,0.0038 -1.190441,0.0399 -1.707031,0.134127 -1.343827,0.245124 -2.215533,0.673171 -2.733634,1.342336 -0.09882,0.127635 -0.201055,0.294725 -0.289799,0.473647 -0.181317,0.365567 -0.191199,0.420683 -0.19133,1.067225 -1.08e-4,0.528124 0.01178,0.662709 0.07446,0.842771 0.0864,0.248229 0.27477,0.589004 0.438411,0.793129 0.297564,0.371181 0.822537,0.754998 1.397206,1.021522 l 0.07813,0.03623 -0.05591,4.19e-4 c -0.05498,4.13e-4 -0.05823,-7.35e-4 -0.195312,-0.06885 z"
     id="path9183" />
  <path
     style="fill:#000000;fill-opacity:1;stroke-width:0.0078125"
     d="m 33.039062,41.830852 c 0.575179,-0.306179 0.997055,-0.72423 1.228712,-1.217571 0.08468,-0.180344 0.121429,-0.293265 0.142518,-0.437974 0.03002,-0.205963 0.02987,-1.021689 -2.25e-4,-1.218276 -0.01651,-0.107878 -0.05894,-0.233264 -0.131402,-0.388308 -0.07305,-0.156318 -0.114026,-0.229317 -0.197934,-0.352655 -0.114336,-0.168065 -0.229943,-0.305565 -0.420449,-0.50007 C 33.331255,37.380063 32.976055,37.084006 32.20137,36.5 c -0.291401,-0.219676 -0.430382,-0.328923 -0.420503,-0.330539 0.03066,-0.005 0.733062,0.514093 1.172258,0.866352 0.443563,0.355763 0.868248,0.745177 1.008918,0.925124 0.289865,0.370802 0.453397,0.752819 0.523389,1.222657 0.0205,0.137594 0.02844,0.468139 0.01506,0.626816 -0.05475,0.649395 -0.328646,1.199614 -0.816903,1.641024 -0.15727,0.14218 -0.363746,0.287186 -0.552648,0.388119 -0.06821,0.03645 -0.07765,0.03934 -0.12769,0.03924 l -0.05404,-1.15e-4 z"
     id="path9187" />
  <path
     style="fill:#000000;fill-opacity:1;stroke-width:0.0078125"
     d="M 30.640273,42.331581 C 29.847931,42.302774 29.152522,42.166038 28.5625,41.923033 l -0.09766,-0.04022 0.05372,-0.0023 c 0.04865,-0.0021 0.06156,9.46e-4 0.136718,0.03239 0.373164,0.156117 0.763635,0.258479 1.180652,0.30951 0.364965,0.04466 0.652651,0.05801 1.130725,0.05249 0.42913,-0.005 0.565898,-0.01345 0.85365,-0.05294 0.341612,-0.04689 0.701193,-0.151348 1.030638,-0.299404 0.08686,-0.03904 0.102436,-0.04357 0.148437,-0.04324 l 0.05139,3.76e-4 -0.04687,0.02425 c -0.240734,0.124537 -0.635099,0.251282 -1.003126,0.322395 -0.417361,0.08065 -0.935409,0.120734 -1.360507,0.105279 z"
     id="path9189" />
  <path
     style="fill:#000000;fill-opacity:1;stroke-width:0.0078125"
     d="M 28.828125,45.00312 C 27.9979,44.97395 27.22752,44.880924 26.597656,44.73379 c -1.236125,-0.288755 -2.125322,-0.724726 -2.935938,-1.439482 -0.0507,-0.04471 -0.09037,-0.0831 -0.08815,-0.08532 0.0022,-0.0022 0.02788,0.01695 0.05703,0.04259 0.09534,0.08387 0.363268,0.300347 0.468493,0.378526 0.51509,0.382699 1.158249,0.698257 1.865895,0.915478 0.87741,0.269332 1.823626,0.411122 3.011578,0.451282 0.581103,0.01964 1.414064,-0.02522 2.128907,-0.114677 1.889583,-0.236457 3.433744,-0.818014 4.612747,-1.737237 0.06146,-0.04792 0.113257,-0.08561 0.115106,-0.08376 0.0044,0.0044 -0.132906,0.116782 -0.251291,0.205654 -0.795283,0.597023 -1.837716,1.065194 -3.039062,1.364885 -0.718168,0.179155 -1.587234,0.311073 -2.347657,0.356358 -0.39121,0.0233 -0.955475,0.0295 -1.367187,0.01504 z"
     id="path9191" />
  <path
     style="fill:#000000;fill-opacity:1;stroke-width:0.0078125"
     d=""
     id="path9195" />
  <path
     style="fill:#000000;fill-opacity:1;stroke-width:0.00390625"
     d=""
     id="path9201" />
  <path
     style="fill:#000000;fill-opacity:1;stroke-width:0.00390625"
     d="m 35.830875,43.06112 c -0.0057,-0.0022 2.69e-4,-0.0087 0.03123,-0.03389 0.270235,-0.219993 0.622849,-0.560341 0.884288,-0.853526 0.787125,-0.882705 1.276842,-1.857256 1.45838,-2.90222 0.09015,-0.518932 0.103948,-1.013315 0.04491,-1.609375 -0.01168,-0.117972 -0.0395,-0.332161 -0.04887,-0.376251 -0.0022,-0.01052 -0.0018,-0.01096 0.01073,-0.0098 l 0.01307,0.0013 0.01064,0.07031 c 0.05289,0.349524 0.07197,0.626055 0.06829,0.989768 -0.0021,0.20457 -0.0042,0.256774 -0.0166,0.40867 -0.07911,0.968237 -0.401982,1.891116 -0.947065,2.707031 -0.264245,0.395539 -0.761647,0.94678 -1.279326,1.4178 -0.0613,0.05578 -0.216405,0.191202 -0.220198,0.192262 -0.0014,3.79e-4 -0.0056,-5.53e-4 -0.0095,-0.0021 z"
     id="path9203" />
  <path
     style="fill:#000000;fill-opacity:1;stroke-width:0.00390625"
     d=""
     id="path9205" />
  <path
     style="fill:#000000;fill-opacity:1;stroke-width:0.00390625"
     d="m 38.199219,37.272298 c 0,-0.0066 -0.02835,-0.162242 -0.04139,-0.22721 -0.108476,-0.540315 -0.288312,-1.025252 -0.533878,-1.439619 -0.04579,-0.07727 -0.09835,-0.159806 -0.136267,-0.214002 -0.02694,-0.0385 -0.03151,-0.04677 -0.02105,-0.03809 0.0031,0.0026 0.0073,0.0037 0.0094,0.0025 0.004,-0.0024 0.09115,0.128226 0.147025,0.220324 0.202113,0.333141 0.349773,0.667365 0.451297,1.021503 0.02575,0.08982 0.06817,0.262919 0.09349,0.38152 0.01853,0.0868 0.05486,0.279479 0.05486,0.290993 0,0.0032 -0.0045,0.0052 -0.01172,0.0052 -0.0064,0 -0.01172,-0.0014 -0.01172,-0.0031 z"
     id="path9207" />
  <path
     style="fill:#000000;fill-opacity:1;stroke-width:0.00390625"
     d="m 35.204571,28.344001 c -0.0034,-0.0037 0.01172,-0.01999 0.06445,-0.06972 0.150331,-0.141768 0.19627,-0.189558 0.344542,-0.358428 0.23959,-0.272874 0.52377,-0.638888 0.684214,-0.881245 0.382794,-0.578225 0.623592,-1.299119 0.725282,-2.171328 0.0106,-0.09088 0.0097,-0.05162 -0.0015,0.06717 -0.02991,0.316405 -0.06747,0.558454 -0.113865,0.733615 -0.09382,0.354241 -0.241306,0.734551 -0.40372,1.041016 -0.24022,0.453279 -0.550309,0.872606 -0.986367,1.333843 -0.08651,0.0915 -0.294743,0.302485 -0.302746,0.306741 -0.0035,0.0018 -0.0077,0.0012 -0.01027,-0.0017 z"
     id="path9209" />
  <path
     style="fill:#000000;fill-opacity:1;stroke-width:0.00390625"
     d="m 31.070312,28.054093 c -0.06015,-0.0031 -0.144871,-0.01058 -0.196636,-0.01739 -0.357915,-0.0471 -0.687134,-0.181512 -0.977707,-0.399163 -0.423411,-0.317151 -0.789839,-0.749665 -1.045183,-1.233681 l -0.04248,-0.08052 0.0011,-0.03927 0.0011,-0.03927 0.03681,0.06901 c 0.07925,0.148573 0.151245,0.270314 0.22735,0.38446 0.372575,0.558805 0.910012,1.021704 1.419821,1.222903 0.105432,0.04161 0.158052,0.05586 0.246823,0.06685 0.319887,0.0396 0.864472,-0.01594 1.166857,-0.119013 0.07184,-0.02449 0.11947,-0.04547 0.24023,-0.105814 0.203631,-0.101761 0.332709,-0.190584 0.453125,-0.311814 0.118888,-0.119688 0.209931,-0.254671 0.306553,-0.454498 0.163459,-0.338057 0.200541,-0.485278 0.22256,-0.883601 0.02058,-0.372255 0.02179,-0.658387 0.004,-0.935547 -0.03676,-0.57167 -0.149974,-1.107662 -0.350253,-1.658203 -0.02616,-0.07192 -0.0908,-0.237208 -0.114266,-0.292191 l -0.0063,-0.01485 0.02248,0.0012 0.02248,0.0012 0.02867,0.07227 c 0.191087,0.481664 0.3267,0.98113 0.397199,1.462891 0.06485,0.44314 0.07697,0.860956 0.03912,1.347656 -0.01187,0.152576 -0.02954,0.317095 -0.03924,0.365235 -0.03124,0.155076 -0.08923,0.335306 -0.157722,0.490234 -0.05089,0.115102 -0.138386,0.276742 -0.209464,0.386955 -0.02079,0.03224 -0.09671,0.108232 -0.175512,0.175672 -0.269608,0.230748 -0.563662,0.3832 -0.903253,0.468293 -0.202164,0.05066 -0.449653,0.0787 -0.618232,0.07005 z"
     id="path9211" />
  <path
     style="fill:#000000;fill-opacity:1;stroke-width:0.00390625"
     d="m 37.029963,23.011719 c -0.0067,-0.04266 -0.03994,-0.184508 -0.06321,-0.269532 -0.03849,-0.140656 -0.149989,-0.436369 -0.257749,-0.683593 -0.03972,-0.09113 -0.106424,-0.229364 -0.143961,-0.298342 -0.01447,-0.02659 -0.02555,-0.04909 -0.02464,-0.05001 9.19e-4,-9.19e-4 0.0136,0.01732 0.02817,0.04053 0.101864,0.16218 0.194878,0.351205 0.275575,0.560026 0.05794,0.149936 0.141344,0.414744 0.161336,0.512254 0.01241,0.06051 0.03046,0.184772 0.02879,0.198121 -8.68e-4,0.0069 -0.0022,0.004 -0.0043,-0.0095 z"
     id="path9213" />
  <path
     style="fill:#000000;fill-opacity:1;stroke-width:0.00390625"
     d=""
     id="path9215" />
  <path
     style="fill:#000000;fill-opacity:1;stroke-width:0.00390625"
     d="m 36.083984,21.159367 c -0.460866,-0.454599 -0.787234,-0.756192 -0.921718,-0.85175 l -0.03436,-0.02441 h 0.04818 0.04818 l 0.09978,0.09904 c 0.05488,0.05447 0.21052,0.20754 0.345872,0.34015 0.247357,0.242348 0.367929,0.364419 0.468584,0.474408 0.05606,0.06125 0.06733,0.07482 0.06191,0.07449 -0.0017,-1.04e-4 -0.05413,-0.05047 -0.116433,-0.111929 z"
     id="path9217" />
  <path
     style="fill:#000000;fill-opacity:1;stroke-width:0.00390625"
     d="m 28.484798,25.59668 c -0.214004,-0.561398 -0.336549,-1.125696 -0.363763,-1.675061 -0.0056,-0.112778 -0.0058,-0.41485 -3.36e-4,-0.495838 0.03421,-0.507817 0.169858,-0.951596 0.419701,-1.373047 0.07708,-0.130021 0.100414,-0.161762 0.192407,-0.261718 0.226165,-0.245745 0.495779,-0.432464 0.792584,-0.548897 0.26913,-0.105577 0.597006,-0.158216 0.85414,-0.137129 0.415395,0.03407 0.768232,0.153325 1.098985,0.371455 0.108098,0.07129 0.201836,0.148806 0.32298,0.267084 0.211948,0.206933 0.388435,0.437 0.546929,0.712971 0.09518,0.165734 0.263679,0.519967 0.357464,0.751508 0.0014,0.0034 -0.0026,0.0049 -0.01309,0.0048 -0.02522,-8.9e-5 -0.03029,-0.0031 -0.03823,-0.02262 -0.06296,-0.154821 -0.228984,-0.499345 -0.314781,-0.653223 -0.251668,-0.451365 -0.584044,-0.826529 -0.939398,-1.060329 -0.215681,-0.141904 -0.432127,-0.23157 -0.650391,-0.269433 -0.168773,-0.02928 -0.413028,-0.04698 -0.648438,-0.04699 -0.121523,-5e-6 -0.154138,0.0012 -0.191406,0.007 -0.125605,0.01957 -0.218602,0.0533 -0.433594,0.157241 -0.267879,0.129514 -0.408781,0.212277 -0.523437,0.307456 -0.129769,0.107724 -0.327843,0.352733 -0.439026,0.543054 -0.292462,0.500633 -0.407157,1.205417 -0.326241,2.004696 0.04482,0.4427 0.15269,0.907838 0.314557,1.356345 0.01801,0.0499 0.03274,0.09164 0.03274,0.09277 0,0.0011 -0.0084,0.0021 -0.01866,0.0021 h -0.01866 z"
     id="path9219" />
  <path
     style="fill:#000000;fill-opacity:1;stroke-width:0.00390625"
     d="M 28.766318,26.236774 C 28.719787,26.144884 28.658476,26.014065 28.610571,25.904461 28.575164,25.823453 28.5,25.639705 28.5,25.634159 c 0,-0.0018 0.0084,-0.0033 0.01861,-0.0033 h 0.01862 l 0.02884,0.07324 c 0.0591,0.150095 0.137816,0.326969 0.206983,0.465079 l 0.03582,0.07153 -0.0011,0.03785 -0.0011,0.03785 z"
     id="path9221" />
  <path
     style="fill:#000000;fill-opacity:1;stroke-width:0.00390625"
     d="m 37.438377,20.074495 c 0.08653,-0.114789 0.471975,-0.626208 0.856545,-1.136485 0.633812,-0.840992 0.71289,-0.943709 0.71289,-0.925999 0,0.0095 -0.142458,0.209477 -0.349104,0.489942 -0.178182,0.241833 -0.340129,0.458353 -0.827571,1.106445 l -0.507533,0.674805 h -0.02128 -0.02128 z"
     id="path9223" />
  <path
     id="path9227"
     style="fill:#000000;fill-opacity:1;stroke-width:0.00390625"
     d="M 36.345703 17.980469 C 35.298499 17.980464 34.108208 17.985156 33.197266 17.994141 C 33.04043 17.995641 34.223439 17.996088 35.826172 17.996094 C 37.428904 17.996094 38.692776 17.995641 38.634766 17.994141 C 38.297029 17.985148 37.392907 17.980473 36.345703 17.980469 z M 31.107422 18.025391 C 31.071169 18.025628 31.016983 18.027497 30.970703 18.029297 C 30.743461 18.038047 30.692934 18.042241 30.371094 18.082031 C 29.276109 18.217418 28.607184 18.377435 27.957031 18.65625 C 27.410751 18.890521 26.850295 19.213813 26.373047 19.574219 C 26.256798 19.662008 26.027344 19.849069 26.027344 19.855469 C 26.032451 19.853241 26.049956 19.840894 26.097656 19.802734 C 26.398994 19.56167 26.729393 19.333693 27.054688 19.138672 C 27.738366 18.728795 28.4747 18.433837 29.15625 18.298828 C 29.841371 18.163112 30.511447 18.071064 31.138672 18.027344 C 31.131428 18.027126 31.122694 18.025291 31.107422 18.025391 z " />
  <path
     style="fill:#000000;fill-opacity:1;stroke-width:0.00390625"
     d="m 23.789414,23.904297 c -6.22e-4,-0.05791 0.01472,-0.233156 0.02942,-0.335938 0.02897,-0.202659 0.09618,-0.455241 0.207364,-0.779297 0.347163,-1.011831 0.941637,-1.93869 1.717236,-2.677384 0.05547,-0.05283 0.102929,-0.09672 0.105469,-0.09753 0.0025,-8.14e-4 -0.02619,0.02995 -0.06385,0.06836 -0.282141,0.287824 -0.520971,0.564228 -0.742142,0.858902 -0.678351,0.903791 -1.086662,1.853934 -1.238011,2.88086 -0.0093,0.06327 -0.01535,0.09516 -0.01549,0.08203 z"
     id="path9232" />
  <path
     style="fill:#000000;fill-opacity:1;stroke-width:0.00390625"
     d="m 22.021998,39.507812 c 0.0096,-0.172856 0.05347,-0.428298 0.109441,-0.636718 0.122487,-0.456107 0.40298,-1.113109 0.641228,-1.501953 0.120608,-0.196845 0.260208,-0.38152 0.439034,-0.580794 0.07809,-0.08702 0.343075,-0.351079 0.426971,-0.42548 0.288563,-0.255905 0.621691,-0.497679 1.005086,-0.729458 0.08027,-0.04853 0.09575,-0.05656 0.100268,-0.05205 0.0045,0.0045 7.13e-4,0.008 -0.02462,0.02226 -0.05811,0.03282 -0.226186,0.138852 -0.334454,0.210993 -0.783674,0.522179 -1.349973,1.107857 -1.705794,1.764167 -0.05971,0.110127 -0.154761,0.307102 -0.224359,0.46492 -0.218444,0.495341 -0.360555,0.967837 -0.419324,1.394194 -0.01484,0.107692 -0.01586,0.112969 -0.01348,0.06992 z"
     id="path9234" />
  <path
     style="fill:#000000;fill-opacity:1;stroke-width:0.00390625"
     d="m 23.510283,43.16098 c -0.145831,-0.135828 -0.366255,-0.36056 -0.48931,-0.498871 -0.540381,-0.607377 -0.823391,-1.16748 -0.943014,-1.866315 -0.01583,-0.09246 -0.01395,-0.09928 0.004,-0.01454 0.110963,0.523817 0.308062,0.984927 0.615821,1.440699 0.216004,0.319888 0.508744,0.651258 0.819944,0.928143 0.03,0.02669 0.05688,0.05062 0.05973,0.05318 0.0042,0.0038 0.0036,0.0051 -0.0034,0.0069 -0.007,0.0018 -0.01893,-0.0074 -0.06378,-0.04918 z"
     id="path9236" />
  <path
     style="fill:#000000;fill-opacity:1;stroke-width:0.0220971"
     d="M 30.629033,27.951032 C 30.215649,27.83986 29.634249,27.40658 29.266312,26.935485 28.761727,26.28943 28.374396,25.346203 28.225845,24.401748 c -0.05433,-0.345418 -0.05442,-1.072083 -1.67e-4,-1.362254 0.102327,-0.547309 0.340903,-1.019022 0.680051,-1.344594 0.119032,-0.114268 0.403412,-0.285108 0.68227,-0.409872 l 0.209923,-0.09392 0.419844,9.8e-5 c 0.491185,1.14e-4 0.65447,0.02929 0.941864,0.168265 0.510211,0.246733 0.973046,0.763734 1.312948,1.466604 0.51371,1.062281 0.707748,2.000117 0.650296,3.143053 -0.02854,0.567663 -0.05365,0.671797 -0.259314,1.075324 -0.16927,0.332113 -0.343115,0.506051 -0.679812,0.680172 -0.258478,0.133671 -0.476648,0.199989 -0.783208,0.238075 -0.259519,0.03224 -0.629015,0.02666 -0.771507,-0.01166 z"
     id="path20103" />
  <path
     style="fill:#ffffff;fill-opacity:1;stroke-width:0.0441942"
     d="m 28.240077,44.937261 c -0.530111,-0.03963 -1.494617,-0.204713 -1.991135,-0.340794 -0.942159,-0.258217 -1.655274,-0.607847 -2.324541,-1.139689 -0.933536,-0.741847 -1.486474,-1.510925 -1.764497,-2.454226 -0.163063,-0.553257 -0.175079,-1.411568 -0.0274,-1.956999 0.144913,-0.535203 0.452046,-1.271733 0.688532,-1.65116 0.370134,-0.593855 1.032227,-1.219674 1.79961,-1.701015 0.410418,-0.257435 1.391346,-0.717965 1.937102,-0.909438 1.066847,-0.374295 2.339438,-0.598569 4.15298,-0.731898 0.325821,-0.02395 0.599168,-0.05032 0.607437,-0.05859 0.0083,-0.0083 -0.09255,-0.178556 -0.224035,-0.378416 -0.572162,-0.869671 -0.746518,-1.340623 -0.746441,-2.016204 4.4e-5,-0.393191 0.01787,-0.493888 0.161557,-0.912852 0.186117,-0.542667 0.18606,-0.542337 0.08621,-0.504021 -0.142315,0.05461 -1.793884,0.02556 -2.222985,-0.03911 -0.78369,-0.118099 -1.630727,-0.455876 -2.248297,-0.896564 -0.955215,-0.681628 -1.777304,-1.821473 -2.175983,-3.017049 -0.133435,-0.400152 -0.140992,-0.460265 -0.161106,-1.281631 -0.01883,-0.768922 -0.01062,-0.91179 0.0762,-1.325825 0.259737,-1.238673 0.77101,-2.219986 1.700707,-3.26425 0.368962,-0.414429 0.490345,-0.516289 1.137973,-0.954943 1.052901,-0.713154 2.103378,-1.083998 3.57104,-1.260663 0.230915,-0.0278 0.552922,-0.06905 0.715572,-0.09167 0.369317,-0.05137 7.959336,-0.05502 7.93912,-0.0038 -0.0081,0.02052 -0.382648,0.526554 -0.832323,1.124517 l -0.817592,1.087206 -1.071709,0.0024 c -0.58944,0.0013 -1.071709,0.01158 -1.071709,0.02276 0,0.01118 0.104409,0.114411 0.23202,0.229404 0.12761,0.114993 0.42352,0.401008 0.657577,0.635588 0.448414,0.449415 0.569639,0.648263 0.861287,1.412779 0.125912,0.330064 0.126442,0.335726 0.126039,1.347922 -4.46e-4,1.118801 -0.04652,1.468877 -0.285998,2.172963 -0.27517,0.809022 -0.833058,1.563803 -1.916686,2.593131 -1.02583,0.974426 -1.330603,1.473629 -1.326292,2.172391 9.01e-4,0.145841 0.03562,0.366955 0.07716,0.491365 0.120912,0.362126 0.611043,0.901096 1.464406,1.610324 1.248547,1.037665 2.162501,1.989809 2.585377,2.693411 0.420599,0.699809 0.633371,1.605004 0.633672,2.695813 3.09e-4,1.195204 -0.288477,2.105311 -1.00273,3.159883 -0.384402,0.567559 -1.340239,1.514006 -1.90696,1.888227 -1.32143,0.872575 -2.841251,1.353007 -4.861359,1.53673 -0.448059,0.04075 -1.763513,0.04899 -2.231806,0.01398 z m 3.292466,-2.622899 c 1.331794,-0.150769 2.31939,-0.726986 2.730571,-1.59316 0.191972,-0.404397 0.252536,-0.686012 0.252536,-1.174261 0,-0.864712 -0.302951,-1.458406 -1.096874,-2.149547 -0.537455,-0.467875 -1.412563,-1.134333 -1.586503,-1.208235 -0.196256,-0.08338 -1.137509,-0.07871 -1.725305,0.0086 -0.623977,0.09265 -1.370375,0.285079 -1.800767,0.464252 -1.239916,0.516178 -1.901099,1.508903 -1.821234,2.734466 0.0621,0.952936 0.585038,1.714421 1.581396,2.302772 0.865451,0.511051 2.236435,0.754359 3.46618,0.615142 z m 0.07208,-14.292615 c 0.16118,-0.03416 0.399828,-0.115718 0.53033,-0.181231 0.682872,-0.34281 0.972462,-0.825939 1.054242,-1.758822 0.09212,-1.050826 -0.117205,-2.143985 -0.619883,-3.237199 -0.525183,-1.142159 -1.336218,-1.756594 -2.309618,-1.749753 -1.299072,0.0091 -2.152203,1.037993 -2.152203,2.595522 0,0.763931 0.134755,1.387392 0.469749,2.173358 0.28232,0.66238 0.525089,1.042535 0.922367,1.444345 0.647387,0.654771 1.315151,0.8812 2.105016,0.71378 z"
     id="path20105" />
  <path
     style="fill:#ffffff;fill-opacity:1;stroke-width:0.0441942"
     d="m 42.028659,33.477087 v -1.502602 h -1.502602 -1.502602 v -0.972272 -0.972272 h 1.502602 1.502602 v -1.502602 -1.502602 h 0.972272 0.972272 v 1.502602 1.502602 h 1.502602 1.502602 v 0.972272 0.972272 h -1.502602 -1.502602 v 1.502602 1.502602 h -0.972272 -0.972272 z"
     id="path20383" />
</svg>
