<?xml version="1.0" encoding="UTF-8" standalone="no"?>
<svg
   viewBox="0 0 64 64"
   width="64"
   height="64"
   version="1.1"
   id="svg5"
   sodipodi:docname="reddit.svg"
   xml:space="preserve"
   inkscape:version="1.2 (dc2aedaf03, 2022-05-15)"
   xmlns:inkscape="http://www.inkscape.org/namespaces/inkscape"
   xmlns:sodipodi="http://sodipodi.sourceforge.net/DTD/sodipodi-0.dtd"
   xmlns="http://www.w3.org/2000/svg"
   xmlns:svg="http://www.w3.org/2000/svg"><defs
     id="defs9" /><sodipodi:namedview
     id="namedview7"
     pagecolor="#505050"
     bordercolor="#ffffff"
     borderopacity="1"
     inkscape:showpageshadow="0"
     inkscape:pageopacity="0"
     inkscape:pagecheckerboard="1"
     inkscape:deskcolor="#505050"
     showgrid="false"
     inkscape:zoom="11.910813"
     inkscape:cx="39.124113"
     inkscape:cy="34.716353"
     inkscape:window-width="3440"
     inkscape:window-height="1376"
     inkscape:window-x="0"
     inkscape:window-y="32"
     inkscape:window-maximized="1"
     inkscape:current-layer="svg5"
     showguides="false" /><path
     style="fill:#000000;fill-opacity:1;stroke-width:0.0623174"
     d="M 30.550628,62.206729 C 27.018964,61.98959 23.929489,61.305988 20.841213,60.058349 11.148599,56.142608 4.2129522,47.494041 2.4825502,37.165587 c -0.301049,-1.796912 -0.347135,-2.446366 -0.347135,-4.891918 0,-2.445552 0.04609,-3.095006 0.347135,-4.891918 0.787775,-4.702084 2.685769,-9.170134 5.5073961,-12.964907 1.751969,-2.356202 4.0583137,-4.6467373 6.3739857,-6.3302963 5.635323,-4.097038 12.592291,-6.155694 19.36488,-5.730316 6.39182,0.401463 12.1827,2.62937 17.10614,6.581199 6.41427,5.1484463 10.4457,12.8010833 11.09191,21.0551223 0.0818,1.044915 0.0806,3.523959 -0.002,4.589984 -0.43397,5.585925 -2.48252,11.056582 -5.82211,15.547957 -1.68503,2.266171 -3.84404,4.434423 -6.10888,6.135037 -4.08903,3.070347 -9.06311,5.084766 -14.14606,5.728923 -1.70838,0.216501 -3.83932,0.301899 -5.296981,0.212275 z M 30.680019,45.23177 c 2.024813,-0.197034 3.740093,-0.780832 4.947203,-1.683791 0.57927,-0.433309 1.38737,-1.264698 1.7442,-1.794465 0.94384,-1.401264 1.21745,-3.075071 0.78056,-4.775076 -0.29669,-1.154438 -1.06527,-2.128237 -2.90283,-3.67791 -1.3519,-1.140106 -1.67613,-1.565591 -1.67613,-2.19959 0,-0.392614 0.0895,-0.645848 0.38154,-1.079221 0.25539,-0.379009 0.34865,-0.479428 1.23644,-1.3313 0.98634,-0.946444 1.48115,-1.715906 1.76235,-2.740585 0.17806,-0.648872 0.22714,-2.425589 0.0811,-2.935016 -0.22529,-0.785684 -0.48209,-1.201437 -1.14221,-1.849229 l -0.61915,-0.607595 h 1.04936 1.04936 l 0.84259,-1.119978 c 0.46343,-0.615988 0.84259,-1.134781 0.84259,-1.152872 0,-0.06161 -7.751244,-0.03269 -8.319375,0.03105 -1.492727,0.167456 -2.243348,0.355412 -3.087349,0.773075 -1.850925,0.915952 -3.140914,2.424004 -3.687383,4.310714 -0.124653,0.43037 -0.142316,0.6286 -0.14101,1.582553 0.0015,1.072873 0.0049,1.100399 0.210268,1.697746 0.466015,1.355337 1.515271,2.613165 2.686,3.219926 0.918064,0.475812 1.707378,0.640865 3.043692,0.636468 0.818459,-0.0027 0.890272,0.006 0.852557,0.10364 -0.254672,0.659057 -0.294739,0.869946 -0.265508,1.397502 0.02528,0.456228 0.06549,0.617641 0.251336,1.008988 0.121684,0.256231 0.336626,0.635784 0.47765,0.843451 l 0.256406,0.377576 -0.329488,3.8e-5 c -0.512738,6e-5 -2.508215,0.241766 -3.159209,0.382666 -1.64295,0.355597 -3.373584,1.208205 -4.313088,2.124871 -0.513027,0.500557 -0.771923,0.878105 -1.05812,1.543058 -0.35814,0.832108 -0.451076,1.309129 -0.415424,2.132296 0.04965,1.146461 0.395457,1.892156 1.294158,2.790744 0.939851,0.939733 1.886318,1.445299 3.333879,1.780831 1.085496,0.251608 2.693171,0.335932 3.993072,0.209439 z m 13.410173,-11.446903 0.0167,-1.511198 h 1.49451 1.49451 v -1.028238 -1.028237 h -1.49449 -1.49449 l -0.0167,-1.480039 -0.0167,-1.480039 h -1.02824 -1.02823 l -0.0167,1.480039 -0.0167,1.480039 h -1.49449 -1.49449 v 1.028237 1.028238 h 1.49561 1.49562 v 1.485232 c 0,0.816878 0.0194,1.504596 0.043,1.528264 0.0237,0.02367 0.49339,0.03535 1.04382,0.02597 l 1.00079,-0.01707 z"
     id="path9126" /><path
     style="fill:#000000;stroke-width:0.0593668;fill-opacity:1"
     d="m 28.05081,45.204425 c -1.535471,-0.158406 -2.789296,-0.559186 -3.717661,-1.188336 -0.494724,-0.335273 -1.405632,-1.241665 -1.676414,-1.668103 -0.117603,-0.185206 -0.286397,-0.54586 -0.375096,-0.801452 -0.146335,-0.421669 -0.161386,-0.544447 -0.162492,-1.325532 -0.0014,-0.973965 0.04753,-1.17285 0.538993,-2.191577 0.228269,-0.473171 0.353039,-0.642995 0.812699,-1.106169 0.298666,-0.300949 0.730034,-0.6672 0.958596,-0.813892 0.959582,-0.615861 2.20801,-1.140926 3.324541,-1.398238 0.583448,-0.13446 2.097661,-0.336361 3.012864,-0.401729 0.318355,-0.02274 0.578827,-0.05021 0.578827,-0.06104 0,-0.01083 -0.121908,-0.208147 -0.270905,-0.438475 -0.510076,-0.788497 -0.642576,-1.144448 -0.669225,-1.797831 -0.01971,-0.483216 -0.0013,-0.649915 0.11007,-0.996248 0.07356,-0.228761 0.116562,-0.433107 0.09557,-0.454102 -0.021,-0.02099 -0.538879,-0.05811 -1.150852,-0.08247 -1.307471,-0.05206 -1.783427,-0.154687 -2.605741,-0.56186 -1.254101,-0.620973 -2.294989,-1.844999 -2.790031,-3.280916 -0.195808,-0.567961 -0.198043,-0.586485 -0.198568,-1.645399 -5.74e-4,-1.157769 0.03601,-1.385697 0.355252,-2.213529 0.318776,-0.826614 0.7388,-1.457318 1.454904,-2.184674 1.269133,-1.289074 2.481985,-1.881211 4.412015,-2.154029 0.697503,-0.09859 1.294551,-0.119546 4.225853,-0.148284 1.877475,-0.01841 3.696721,-0.01383 4.04277,0.01017 l 0.629178,0.04364 -0.80438,1.083444 -0.80438,1.083444 h -1.05666 c -0.581162,0 -1.056659,0.01851 -1.056659,0.04114 0,0.02263 0.263035,0.309813 0.584522,0.638193 0.877902,0.896722 1.167166,1.486359 1.233282,2.513926 0.04722,0.73385 -0.05914,1.898435 -0.221451,2.424808 -0.285637,0.926325 -0.645673,1.445002 -1.890131,2.722967 -1.079296,1.108356 -1.352167,1.508191 -1.409196,2.064877 -0.07414,0.723733 0.197571,1.11632 1.666589,2.407993 1.966852,1.729406 2.568723,2.490141 2.886477,3.648363 0.458285,1.670465 0.104912,3.592978 -0.907913,4.939462 -0.383199,0.509437 -1.423608,1.498953 -1.92377,1.829664 -1.003885,0.663778 -2.338637,1.127965 -3.966301,1.379362 -0.724025,0.111827 -2.536691,0.157596 -3.265173,0.08244 z"
     id="path27384" /><path
     style="fill:#000000;fill-opacity:1;stroke-width:0.0593668"
     d="m 42.071267,35.25398 c -0.02177,-0.02177 -0.03958,-0.703001 -0.03958,-1.513853 v -1.474275 h -1.513853 -1.513853 v -1.009236 -1.009235 h 1.513853 1.513853 v -1.48417 -1.48417 h 1.009236 1.009235 v 1.48417 1.48417 h 1.513854 1.513853 v 1.009235 1.009236 H 45.564014 44.05016 v 1.513853 1.513853 h -0.969657 c -0.533312,0 -0.987468,-0.01781 -1.009236,-0.03958 z"
     id="path27524" /><path
     style="fill:#000000;fill-opacity:1"
     id="path27526"
     d="m 38.760486,16.724542 c -0.218914,0.09431 -0.440365,0.183593 -0.654222,0.289212 -0.14339,0.07082 -0.317897,0.167299 -0.458195,0.243441 -0.514604,0.292424 -1.042767,0.559331 -1.570142,0.827641 -0.101605,0.05064 -0.203908,0.0999 -0.304814,0.151913 -0.122987,0.0634 -0.244113,0.130349 -0.366814,0.194295 -0.197531,0.102943 -0.896262,0.461231 -1.076107,0.550626 -0.378662,0.18822 -0.905568,0.438316 -1.285821,0.620123 -1.196175,0.563384 -2.424505,1.054975 -3.660301,1.523714 -0.810913,0.303514 -1.62839,0.589014 -2.440749,0.888541 -0.789966,0.319618 -1.593803,0.602027 -2.400028,0.877315 -0.892013,0.300104 -1.791613,0.577316 -2.698522,0.828738 -0.233878,0.05807 -0.46613,0.129506 -0.704668,0.167607 -0.03992,0.0064 -0.152345,0.02209 -0.201579,0.006 -0.01885,-0.0062 -0.03192,-0.02354 -0.04788,-0.03531 -0.0053,-0.02314 -0.01453,-0.04572 -0.0158,-0.06942 -0.01091,-0.203763 0.151994,-0.450267 0.254426,-0.613179 0.25669,-0.378545 0.619077,-0.658499 0.981902,-0.928161 0.379865,-0.265715 0.757024,-0.536011 1.150484,-0.781528 0.0989,-0.06171 0.197149,-0.124681 0.299072,-0.181252 0.113947,-0.06324 0.232078,-0.118641 0.348117,-0.177961 0.132546,-0.05908 0.264221,-0.120157 0.397639,-0.177243 0.293681,-0.125658 0.614841,-0.253658 0.917119,-0.353304 0.684778,-0.225738 1.385066,-0.395673 2.085055,-0.5657 1.012844,-0.238337 2.040167,-0.413255 3.075323,-0.518702 0.236421,-0.02408 0.473075,-0.04692 0.710261,-0.06167 0.235735,-0.01466 0.472049,-0.0177 0.708073,-0.02656 0.867505,-0.01177 1.734266,0.0695 2.585505,0.235784 0.467324,0.09129 0.770189,0.172156 1.230569,0.286051 0.193521,0.04999 0.387231,0.09925 0.580563,0.149962 0.354965,0.09311 0.709717,0.187065 1.063831,0.283365 0.277615,0.0755 0.700195,0.192953 0.976856,0.280924 0.159222,0.05063 0.316541,0.107058 0.474811,0.160588 0.621297,0.225381 1.234012,0.482292 1.818057,0.792947 0.337099,0.179304 0.447258,0.256787 0.764956,0.457347 0.371337,0.250284 0.754419,0.494445 1.073368,0.811916 0,0 0.0034,0.0014 0.0034,0.0014 v 0 c -0.318948,-0.317513 -0.702138,-0.561682 -1.07353,-0.812027 -0.318801,-0.200988 -0.433966,-0.281563 -0.770874,-0.460749 -0.584056,-0.310632 -1.196772,-0.56754 -1.818075,-0.792902 -0.158274,-0.05353 -0.315597,-0.109955 -0.474823,-0.160581 -0.276568,-0.08793 -0.699323,-0.205432 -0.976837,-0.280897 -0.354103,-0.09629 -0.708844,-0.190233 -1.063798,-0.283336 -0.193329,-0.05071 -0.387035,-0.09997 -0.580553,-0.14995 -0.460346,-0.113875 -0.763286,-0.194756 -1.230575,-0.286026 -0.851241,-0.166264 -1.718002,-0.247496 -2.585504,-0.235698 -0.236026,0.0089 -0.472343,0.0119 -0.70808,0.02657 -0.237181,0.01476 -0.47383,0.0376 -0.710246,0.06169 -1.035158,0.105477 -2.062477,0.280436 -3.075334,0.518743 -0.700032,0.17002 -1.400382,0.33994 -2.085217,0.565633 -0.302503,0.09969 -0.62332,0.227559 -0.917188,0.353288 -0.133429,0.05709 -0.265117,0.11816 -0.397675,0.17724 -0.116052,0.05932 -0.234197,0.114717 -0.348156,0.177967 -0.101925,0.05657 -0.200178,0.119548 -0.299075,0.18126 -0.393468,0.245527 -0.770629,0.51584 -1.150527,0.781529 -0.362888,0.26967 -0.725334,0.54963 -0.982048,0.92823 -0.102623,0.1632 -0.265302,0.409314 -0.254628,0.613398 0.0012,0.02377 0.01046,0.04644 0.01569,0.06966 0.01811,0.01297 0.03323,0.03179 0.05434,0.0389 0.04806,0.01617 0.163441,-5e-5 0.201584,-0.0062 0.238501,-0.03817 0.470719,-0.109609 0.704566,-0.16771 0.906873,-0.251496 1.806452,-0.528731 2.698458,-0.828806 0.806252,-0.275283 1.610134,-0.557639 2.400123,-0.877261 0.812329,-0.299515 1.629729,-0.585136 2.44061,-0.888638 1.235775,-0.468765 2.464065,-0.960428 3.660236,-1.523792 0.379181,-0.181287 0.908245,-0.432416 1.285876,-0.620096 0.176788,-0.08786 0.881408,-0.449041 1.076243,-0.550543 0.122717,-0.06393 0.243857,-0.130869 0.366854,-0.194259 0.100913,-0.05201 0.203217,-0.101272 0.304826,-0.151908 0.527393,-0.268297 1.05556,-0.535217 1.570184,-0.827625 0.140573,-0.07629 0.31453,-0.172473 0.458201,-0.243411 0.213882,-0.105603 0.435351,-0.194883 0.654308,-0.289133 0,0 -0.0031,-0.0021 -0.0031,-0.0021 z" /><path
     style="fill:#000000;fill-opacity:1"
     id="path27528"
     d="m 22.274171,21.06839 c 0.419317,0.06527 0.832043,0.166786 1.247901,0.250847 0.631522,0.11099 1.259181,0.2404 1.884003,0.384161 0.126745,0.03196 0.253451,0.06407 0.380235,0.09587 0.281406,0.07058 0.535179,0.134885 0.819032,0.198729 0.468238,0.105317 0.939608,0.195831 1.410652,0.287455 0.529389,0.09663 1.059716,0.188482 1.591826,0.26892 0.03556,0.005 0.07112,0.0099 0.106681,0.01487 0,0 -0.003,-0.0022 -0.003,-0.0022 v 0 c -0.03555,-0.005 -0.0711,-0.0099 -0.106658,-0.01486 -0.532049,-0.08038 -1.062314,-0.172189 -1.591637,-0.268796 -0.471049,-0.09162 -0.942418,-0.182139 -1.410655,-0.287475 -0.283741,-0.06383 -0.537751,-0.128197 -0.819055,-0.198754 -0.126791,-0.0318 -0.253503,-0.06392 -0.380255,-0.09588 -0.624842,-0.143767 -1.252519,-0.273185 -1.884059,-0.384192 -0.415903,-0.08408 -0.828674,-0.18562 -1.248036,-0.250914 0,0 0.003,0.0022 0.003,0.0022 z" /><path
     style="fill:#000000;fill-opacity:1"
     id="path27530"
     d="m 26.351994,19.826699 c 0.07296,0.02851 0.143724,0.06217 0.215107,0.09432 0,0 -0.0029,-0.0023 -0.0029,-0.0023 v 0 c -0.07139,-0.03215 -0.142169,-0.0658 -0.215123,-0.09433 0,0 0.0029,0.0023 0.0029,0.0023 z" /><path
     style="fill:#000000;fill-opacity:1"
     id="path27532"
     d="m 17.045525,13.336425 c 0.136772,0.135417 0.286337,0.257172 0.435781,0.37813 0.452099,0.353894 0.916796,0.691364 1.378537,1.032487 0.765998,0.58092 1.551007,1.135388 2.346724,1.674625 0.983328,0.665294 1.997347,1.28293 3.017993,1.888752 0.752863,0.443723 1.517415,0.867753 2.294252,1.268083 0.504991,0.260239 0.686429,0.345768 1.195604,0.594931 1.105966,0.535649 2.227715,1.03788 3.355757,1.52502 1.003718,0.434124 2.019858,0.838335 3.040429,1.230866 0.582227,0.222042 1.168382,0.433535 1.754648,0.644607 0,0 -0.0027,-0.0021 -0.0027,-0.0021 v 0 C 35.276265,23.360731 34.690127,23.149249 34.107918,22.927214 33.087362,22.534692 32.071239,22.130484 31.067535,21.696367 29.939513,21.209232 28.81778,20.707014 27.711833,20.17137 27.202614,19.922183 27.021272,19.8367 26.516236,19.576433 25.741347,19.177099 24.978642,18.754239 24.227668,18.311617 23.20704,17.705807 22.193037,17.088186 21.209726,16.422906 20.41404,15.883692 19.629061,15.329248 18.863106,14.748336 18.40141,14.407234 17.93676,14.069781 17.484698,13.715919 c -0.149414,-0.120933 -0.298951,-0.242662 -0.435692,-0.378054 0,0 -0.0035,-0.0014 -0.0035,-0.0014 z" /><path
     style="fill:#000000;fill-opacity:1"
     id="path27534"
     d="m 21.009988,18.482381 c 0.07947,0.05441 0.141483,0.131368 0.210367,0.198583 0.0374,0.03791 0.05513,0.05715 0.09561,0.09283 0.04232,0.03731 0.138743,0.125424 0.182106,0.150457 2.27384,1.312666 4.552337,2.617248 6.828505,3.925872 0.200952,0.04612 0.395558,0.115759 0.593256,0.173378 0.158455,0.04618 0.318454,0.0869 0.477415,0.131308 0.789894,0.229506 1.587672,0.430103 2.384211,0.634849 1.225668,0.306587 2.443985,0.641175 3.658379,0.989453 1.514286,0.441447 3.019508,0.913305 4.525483,1.38214 1.319181,0.414171 2.635634,0.836964 3.949506,1.267665 0.941351,0.309459 1.881149,0.623716 2.81772,0.947367 0.671724,0.225657 1.326965,0.495376 1.97858,0.772788 0.478966,0.201041 0.954739,0.409933 1.421886,0.63718 2.295195,1.246841 4.914984,2.832604 -6.115973,-3.515044 -0.04501,-0.0259 0.09435,0.04352 0.140412,0.06751 0.104646,0.0545 0.141937,0.08135 0.239403,0.143829 0.139971,0.101377 0.292608,0.194173 0.403915,0.32923 0.01871,0.0227 0.03446,0.04768 0.0517,0.07153 0.09759,0.225884 0.06064,0.465438 0.01831,0.699185 -0.0477,0.266042 -0.146077,0.515451 -0.266917,0.755718 -0.133766,0.243582 -0.324958,0.443899 -0.532146,0.625748 -0.0352,0.02656 -0.067,0.05839 -0.105616,0.07969 -0.02967,0.01637 -0.06367,0.02365 -0.09655,0.03184 -0.113499,0.02826 -0.23272,0.02847 -0.346158,-0.0016 -0.04418,-0.01172 -0.08601,-0.03101 -0.129008,-0.04651 -0.242156,-0.09183 -0.487067,-0.176999 -0.720648,-0.289914 -0.173722,-0.08398 -0.260853,-0.13887 -0.429539,-0.236612 -0.07931,-0.04623 -0.159261,-0.09136 -0.23792,-0.13868 -0.08283,-0.04983 -0.330261,-0.200996 -0.246505,-0.15274 2.056079,1.184604 4.107869,2.37664 6.163596,3.561855 0.101512,0.05853 -0.201646,-0.119458 -0.30089,-0.181752 -0.237675,-0.149184 -0.365357,-0.24023 -0.596816,-0.398987 -0.678803,-0.455418 -1.292259,-0.995592 -1.900119,-1.539432 -0.667188,-0.593355 -1.293072,-1.231606 -1.904805,-1.881423 -0.356047,-0.390929 -0.705608,-0.789036 -1.032718,-1.20475 -0.169058,-0.21485 -0.27697,-0.368947 -0.436325,-0.589604 -0.348184,-0.492638 -0.670528,-1.002777 -0.982634,-1.518809 -0.221694,-0.368567 -0.428133,-0.745894 -0.627152,-1.12708 -0.09011,-0.188496 -0.195334,-0.370778 -0.274344,-0.564539 -0.03947,-0.0968 -0.05512,-0.156203 -0.08528,-0.255345 -0.05697,-0.22224 -0.089,-0.449762 -0.100863,-0.678622 -0.0058,-0.176762 0.0025,-0.353753 0.01681,-0.529927 0.01082,-0.101023 0.01263,-0.203994 0.04065,-0.302191 0.02377,-0.07236 0.03705,-0.06754 0.100029,-0.102422 0.115362,-0.06647 0.238173,-0.117392 0.361096,-0.167786 0.156074,-0.06263 0.315927,-0.116872 0.476499,-0.167016 0.161483,-0.04744 0.322839,-0.0953 0.482876,-0.147484 0.150878,-0.04794 0.303294,-0.09064 0.454656,-0.136923 0.130779,-0.035 0.261541,-0.07014 0.392688,-0.103564 0.09667,-0.02238 0.194317,-0.04429 0.294017,-0.03952 0.01259,-0.0036 0.02616,-0.01671 0.03777,-0.01068 0.0093,0.0048 0.01058,0.0372 0.0019,0.03131 -2.200386,-1.500939 -4.387518,-3.02124 -6.587167,-4.523259 -0.0063,-0.0043 -0.125405,0.0383 -0.127231,0.03899 -0.02454,0.006 -0.0493,0.01114 -0.07361,0.01802 -0.03115,0.0088 -0.0614,0.02071 -0.09269,0.02902 -0.216158,0.05739 -0.442352,0.08225 -0.662461,0.119155 -0.445432,0.05823 -0.09526,0.01604 -0.577329,0.06323 -0.113611,0.01112 -0.226894,0.0256 -0.340621,0.03548 -0.399215,0.03467 -0.800357,0.04968 -1.200255,0.0745 -0.938587,0.04934 -1.877368,0.09434 -2.816277,0.13755 -1.045597,0.04397 -2.091531,0.07999 -3.137426,0.11616 -0.88558,0.02949 -1.771174,0.05856 -2.65686,0.08471 -0.630356,0.01761 -1.260505,0.04042 -1.889422,0.08718 -0.08379,0.0084 -0.167658,0.01608 -0.25137,0.02523 -0.07844,0.0086 -0.157239,0.01497 -0.235067,0.02798 -0.285057,0.04768 -0.554915,0.14947 -0.820046,0.260743 -0.163281,0.07399 -0.318191,0.163969 -0.470454,0.258081 -0.07212,0.04458 -0.186172,0.115191 -0.253871,0.167508 -0.04126,0.03188 -0.07923,0.0678 -0.118852,0.1017 -0.252941,0.225296 -0.377715,0.471945 -0.49484,0.783352 -0.09793,0.279259 -0.138064,0.572623 -0.167603,0.865596 -0.02679,0.333628 -0.01194,0.667681 0.01728,1.000437 0.03519,0.392724 0.107013,0.780147 0.190603,1.165015 0.104204,0.443613 0.232269,0.881347 0.369368,1.31579 0.125834,0.397836 0.274396,0.78823 0.436741,1.172487 0.164888,0.394473 0.375103,0.766952 0.584208,1.139052 0.222951,0.386322 0.459438,0.764493 0.700491,1.139699 0.236012,0.359922 0.476388,0.71695 0.73138,1.063723 0.283924,0.395133 0.588416,0.774682 0.898436,1.149464 0.315324,0.375104 0.656921,0.726736 1.00386,1.072377 0.377815,0.378987 0.786365,0.724261 1.205115,1.056641 0.280414,0.208288 0.561347,0.420164 0.864444,0.595216 6.656755,3.84459 4.432795,2.712318 6.960631,3.993709 0.272137,0.133508 0.546376,0.263391 0.826696,0.378965 0.06417,0.02646 0.12788,0.05425 0.19341,0.07712 0.06433,0.02245 0.130538,0.03914 0.195807,0.0587 0.200944,0.05578 0.406838,0.06624 0.614029,0.05845 0.07019,-0.0026 0.140599,-0.0048 0.210259,-0.01381 0.129681,-0.01672 0.305334,-0.06246 0.43207,-0.09287 0.291961,-0.08895 0.579097,-0.203516 0.83898,-0.365468 0.141532,-0.0882 0.270066,-0.189468 0.40309,-0.289526 0.290167,-0.216193 0.533096,-0.481696 0.772361,-0.750645 0.267843,-0.301073 0.117031,-0.122895 0.376875,-0.442492 0.06204,-0.08132 0.125273,-0.161739 0.18612,-0.243954 0.127148,-0.171801 0.248741,-0.347653 0.374748,-0.520295 0.188373,-0.25809 0.380468,-0.513467 0.569726,-0.770912 0.344654,-0.463548 0.685761,-0.929684 1.030504,-1.393171 0.268458,-0.361166 0.546695,-0.714823 0.828622,-1.06552 0.212592,-0.262334 0.427946,-0.522496 0.648255,-0.778392 0.163976,-0.191379 0.333954,-0.37748 0.499504,-0.56748 0.120346,-0.137152 0.232579,-0.280783 0.306909,-0.448817 0.03942,-0.0891 0.07407,-0.180242 0.111109,-0.270362 -2.295281,-1.318079 -4.56473,-2.682197 -6.885842,-3.954235 -0.04854,-0.0266 -0.07729,0.07957 -0.119941,0.114858 -0.03529,0.0292 -0.07462,0.05322 -0.113142,0.07801 -0.156078,0.100413 -0.320355,0.18475 -0.485934,0.267984 -0.536497,0.268149 0.138168,-0.07127 -0.438697,0.226662 -0.08219,0.04245 -0.166101,0.08151 -0.247997,0.124515 -0.278519,0.146248 -0.550066,0.306077 -0.8263,0.456603 -0.09647,0.05737 -0.19386,0.113212 -0.289397,0.17212 -0.09989,0.06159 -0.197647,0.126592 -0.296819,0.18934 -0.403576,0.255353 -0.806842,0.51095 -1.203964,0.77626 -0.56161,0.360073 -1.114633,0.732703 -1.666428,1.107521 -0.446324,0.300345 -0.891344,0.602648 -1.338266,0.902103 -0.329533,0.22146 -0.657673,0.444899 -0.983814,0.671321 -0.253416,0.168764 -0.491936,0.357341 -0.726473,0.551008 -0.187098,0.156928 -0.363724,0.325186 -0.529189,0.504659 -0.162359,0.190428 -0.292838,0.404352 -0.414674,0.622063 -0.132325,0.227629 -0.249475,0.46324 -0.368022,0.698176 -0.150508,0.323291 -0.33471,0.628788 -0.517402,0.934463 -0.191607,0.319336 -0.39956,0.628435 -0.605164,0.938828 -0.175035,0.259314 -0.349076,0.519254 -0.52104,0.780616 -0.143078,0.219597 -0.286986,0.446307 -0.352864,0.703675 -0.02138,0.08351 -0.02632,0.170389 -0.03947,0.255583 2.30386,1.274569 4.583194,2.594513 6.911579,3.823707 0.05221,0.02756 0.09738,-0.067 0.148479,-0.09658 0.06952,-0.04024 0.273787,-0.136139 0.339576,-0.166646 0.246234,-0.114179 0.210115,-0.09598 0.472959,-0.205712 0.746373,-0.336962 1.510847,-0.630708 2.28147,-0.906863 0.168105,-0.05873 0.33577,-0.118727 0.504316,-0.176178 0.178022,-0.06068 0.357314,-0.117592 0.535359,-0.178208 0.63362,-0.215719 0.529192,-0.192258 1.184158,-0.400327 0.345173,-0.109654 0.952518,-0.289796 1.298058,-0.393201 1.299955,-0.395732 2.609678,-0.75824 3.910946,-1.149492 1.148768,-0.341586 2.289498,-0.708698 3.425851,-1.089296 0.909007,-0.305072 1.812475,-0.625953 2.712867,-0.955466 0.681495,-0.25185 1.358893,-0.51489 2.03259,-0.786896 0.494618,-0.199778 0.983527,-0.413508 1.469966,-0.632363 0.333599,-0.150295 0.667767,-0.299515 0.995166,-0.462992 0.176671,-0.0933 0.362143,-0.17221 0.533194,-0.27577 0.01598,-0.0075 0.06809,-0.03016 0.08227,-0.04392 0.02243,-0.02178 0.08647,-0.05528 0.06007,-0.07203 -2.249693,-1.427338 -4.521495,-2.819757 -6.798447,-4.203196 -0.01767,-0.01074 -0.01986,0.03636 -0.03171,0.05331 -0.01833,0.02622 -0.03911,0.05063 -0.05867,0.07595 -0.03006,0.03788 -0.0582,0.07737 -0.09019,0.11364 -0.115628,0.131145 -0.148715,0.150169 -0.281436,0.272025 -0.194345,0.178438 -0.387615,0.356853 -0.586071,0.530792 -0.47252,0.414005 -0.932601,0.842413 -1.38974,1.273369 -0.451413,0.437018 -0.888398,0.888271 -1.320812,1.343966 -0.371595,0.395815 -0.743154,0.791674 -1.110455,1.191483 -0.280827,0.305149 -0.554342,0.616794 -0.821036,0.93434 -0.203321,0.257128 -0.406361,0.514518 -0.611174,0.770466 -0.160788,0.2036 -0.322548,0.406374 -0.486021,0.607816 -0.122434,0.146212 -0.240052,0.296516 -0.368574,0.437496 -0.01751,0.01143 -0.07592,0.100579 -0.113074,0.07007 -0.0082,-0.0067 -0.01546,-0.01834 -0.01355,-0.02876 0.02302,-0.125009 0.124092,-0.262297 0.180205,-0.358557 2.230053,1.369832 4.471603,2.721121 6.690159,4.109496 0.02523,0.01579 -0.05941,0.03619 -0.08622,0.02325 -0.02923,-0.0141 -0.03565,-0.05531 -0.0448,-0.08644 -0.05542,-0.188546 -0.03163,-0.39747 -0.02192,-0.58947 0.04563,-0.656742 0.142935,-1.309007 0.254669,-1.957352 0.153824,-0.8041 0.346298,-1.600184 0.530841,-2.39764 0.173733,-0.766638 0.356054,-1.531301 0.536655,-2.296343 0.147249,-0.623967 0.296284,-1.247467 0.455406,-1.868523 0.102719,-0.407959 0.222772,-0.811477 0.316457,-1.221675 0.04058,-0.167848 0.05257,-0.339764 0.07116,-0.510704 0.304992,-2.803849 2.056215,1.006132 -6.824124,-4.11032 -0.139928,0.09011 -0.250698,0.194458 -0.36773,0.310991 -0.07515,0.07483 -0.156768,0.150723 -0.221594,0.235046 -0.04495,0.05847 -0.08338,0.121682 -0.125078,0.182523 -0.219884,0.281627 -0.421026,0.576978 -0.632166,0.865009 -0.461116,0.629037 0.0905,-0.139764 -0.383496,0.524784 -0.418587,0.591766 -0.848424,1.175376 -1.267708,1.766653 -0.08035,0.115298 -0.332976,0.475846 -0.410276,0.59457 -0.135136,0.207553 -0.260792,0.421126 -0.391979,0.631197 -0.09084,0.145472 -0.293423,0.466816 -0.385651,0.613251 -0.338423,0.529827 -0.670801,1.063343 -0.992187,1.603675 -0.252851,0.435316 -0.495799,0.876235 -0.735913,1.318664 -0.189543,0.351388 -0.3705,0.707331 -0.546687,1.065575 -0.141782,0.292437 -0.277893,0.587586 -0.410048,0.884485 -0.105001,0.240766 -0.204904,0.483725 -0.302607,0.727531 -0.08066,0.198765 -0.156867,0.399368 -0.227807,0.601805 -0.05755,0.16884 -0.115295,0.337674 -0.167809,0.508161 -0.06769,0.217891 -0.109861,0.441973 -0.15909,0.664376 13.02027,7.513402 4.212235,4.755685 7.435296,3.605604 0.252671,-0.08921 0.501596,-0.186884 0.739681,-0.310078 0.247684,-0.134955 0.500446,-0.260113 0.751121,-0.38932 0.179556,-0.09178 0.356102,-0.190436 0.552881,-0.23954 0.01775,-6.63e-4 0.07811,-0.0084 0.09736,0.0089 0.03442,0.03094 0.02764,0.161241 -0.01255,0.138287 -6.903186,-3.942334 -8.172427,-1.755147 -6.717336,-4.140882 -0.0923,0.02009 0.05142,-0.05964 0.05092,-0.03839 -4.09e-4,0.01724 -0.0413,0.08067 -0.04411,0.08568 -0.08813,0.157535 0.01278,-0.01395 -0.09374,0.163867 -0.140568,0.214918 -0.291282,0.422885 -0.447897,0.626323 -0.157125,0.202636 -0.317792,0.402529 -0.478369,0.602442 -0.139315,0.174582 -0.281639,0.346715 -0.422584,0.519976 -0.112899,0.135962 -0.22273,0.274511 -0.337045,0.409287 -0.08856,0.109063 -0.180317,0.215495 -0.269252,0.324212 -0.07754,0.09368 -0.154315,0.187925 -0.225263,0.286721 -0.08419,0.130634 -0.160789,0.265815 -0.245416,0.396224 -0.09888,0.163636 -0.210076,0.318725 -0.322451,0.473261 -0.108206,0.143608 -0.214306,0.28883 -0.32816,0.428044 -0.09816,0.121449 -0.204143,0.236072 -0.307408,0.353102 -0.08747,0.09861 -0.17358,0.198455 -0.255469,0.301756 -0.07151,0.08638 -0.142688,0.173083 -0.213563,0.259995 -0.06037,0.07576 -0.12217,0.150352 -0.182742,0.225919 -0.05099,0.06665 -0.106962,0.129047 -0.160973,0.193187 -0.0483,0.05902 -0.10021,0.114732 -0.152938,0.169743 -0.04846,0.04377 -0.09878,0.08547 -0.148696,0.127699 -0.04883,0.04925 -0.10886,0.08418 -0.162145,0.127555 -0.05274,0.03837 -0.103786,0.07879 -0.158519,0.11429 -0.05204,0.03831 -0.101214,0.08241 -0.157862,0.114052 -0.0505,0.03808 -0.105367,0.06538 -0.164706,0.08632 -0.03385,0.02794 -0.07653,0.03667 -0.115569,0.05333 -0.03907,0.02021 -0.01971,0.0114 -0.05791,0.02677 -0.05909,0.01964 -0.111803,0.05315 -0.171348,0.07194 -0.02567,0.0187 -0.05738,0.02278 -0.08592,0.0342 -0.03129,0.01252 -0.0572,0.0302 -0.08985,0.03959 -0.06977,0.02559 -0.141659,0.04233 -0.211259,0.06835 -0.08585,0.0207 -0.169355,0.05074 -0.255966,0.06811 -0.0877,0.02832 -0.178558,0.04384 -0.26686,0.07037 -0.09421,0.02201 -0.187925,0.04361 -0.283743,0.05751 -0.10099,0.01296 -0.200274,0.03398 -0.301428,0.04618 -0.104362,0.01214 -0.209211,0.01898 -0.314001,0.0261 -0.115492,0.01198 -0.230726,0.02552 -0.346724,0.03371 -0.115259,0.0121 -0.230317,0.02494 -0.346136,0.03254 -0.121364,0.0027 -0.241358,0.01916 -0.362196,0.0286 -0.130374,0.01167 -0.261629,0.02517 -0.389564,0.05345 -0.149184,0.0256 -0.299977,0.03985 -0.449545,0.06259 -0.150075,0.01606 -0.299458,0.03733 -0.449585,0.05281 -0.148634,0.01773 -0.297276,0.03412 -0.446549,0.04619 -0.140336,0.01394 -0.28043,0.02951 -0.421146,0.04022 -0.133149,0.01694 -0.266565,0.03068 -0.399879,0.04608 -0.1264,0.0093 -0.251984,0.02246 -0.377699,0.03767 -0.109602,0.01179 -0.219641,0.01877 -0.329671,0.02506 -0.110907,0.01886 -0.223541,0.02433 -0.335699,0.0307 -0.11428,0.0185 -0.230118,0.02419 -0.345561,0.03057 -0.112781,0.002 -0.224363,0.01215 -0.336317,0.02387 -0.100943,0.0088 -0.202208,0.01315 -0.303428,0.01734 -0.09109,0.0037 -0.182209,0.0064 -0.273338,0.0088 -0.09223,0.0202 -0.187012,0.01565 -0.279793,0.0306 -0.106024,0.01054 -0.21297,0.02129 -0.31951,0.01523 -0.129141,-0.0052 -0.25824,-0.01911 -0.386681,-0.03446 -0.173441,-0.0096 -0.346268,-0.02646 -0.519562,-0.03862 -0.164258,-0.02046 -0.329581,-0.03495 -0.492845,-0.06255 -0.136733,-0.01593 -0.271862,-0.04879 -0.398208,-0.103601 -0.109561,-0.03848 -0.218666,-0.08022 -0.321968,-0.133503 -0.01496,-0.0083 -0.03064,-0.01543 -0.04487,-0.02494 -0.03938,-0.0263 -0.04125,-0.03434 -0.07297,-0.06897 -0.01127,-0.0123 -0.04873,-0.04476 -0.03426,-0.03647 6.801466,3.893645 9.316064,4.240642 6.695524,3.872193 -0.101014,-0.02309 -0.187677,-0.07956 -0.278517,-0.126239 -0.03183,-0.01923 -0.07296,-0.01704 -0.105002,-0.03541 -0.07111,-0.04078 -0.118233,-0.147842 -0.150924,-0.218452 -0.07629,-0.131906 -0.105579,-0.282042 -0.133531,-0.429856 -0.02526,-0.156608 -0.02992,-0.315024 -0.02529,-0.473239 0.01556,-0.179855 0.05599,-0.357068 0.102683,-0.531151 0.06013,-0.195324 0.145866,-0.381367 0.233303,-0.565639 0.08941,-0.182731 0.191637,-0.358513 0.294021,-0.534131 0.109662,-0.178803 0.227472,-0.352451 0.35174,-0.521381 0.131891,-0.175729 0.265983,-0.349738 0.402288,-0.52206 0.139527,-0.183782 0.2927,-0.356532 0.444051,-0.530517 0.14369,-0.16436 0.28692,-0.329093 0.431656,-0.492576 0.137752,-0.157014 0.277154,-0.312332 0.421283,-0.463528 0.131715,-0.134565 0.267438,-0.265127 0.401078,-0.39777 0.120472,-0.12275 0.245319,-0.241191 0.374318,-0.354932 0.121765,-0.10142 0.245704,-0.200235 0.374427,-0.292694 0.10181,-0.07733 0.209886,-0.145787 0.315157,-0.218189 0.08618,-0.0526 0.171122,-0.10747 0.26132,-0.152952 0.07612,-0.04706 0.15773,-0.08392 0.235922,-0.127049 0.04767,-0.02274 0.02395,-0.01202 0.07112,-0.03223 0,0 -6.646269,-4.344363 -6.646269,-4.344363 v 0 c -0.05267,0.03346 -0.02633,0.0168 -0.07903,0.04997 -0.08403,0.04945 -0.163738,0.106003 -0.245765,0.158662 -0.09382,0.06834 -0.188193,0.135853 -0.278222,0.209222 -0.108743,0.08371 -0.213931,0.17178 -0.317569,0.261722 -0.127704,0.113625 -0.254822,0.227934 -0.379157,0.345253 -0.136504,0.127254 -0.269825,0.257769 -0.397865,0.39358 -0.134869,0.1412 -0.268248,0.283862 -0.397288,0.430435 -0.14275,0.161351 -0.289596,0.319038 -0.427967,0.484197 -0.143659,0.168205 -0.287437,0.336328 -0.428046,0.507102 -0.151862,0.184478 -0.304166,0.368585 -0.459291,0.550339 -0.142915,0.179692 -0.280288,0.363692 -0.416175,0.54874 -0.137657,0.188622 -0.275175,0.377419 -0.394351,0.578577 -0.120163,0.194472 -0.228819,0.396354 -0.329371,0.601618 -0.102286,0.213831 -0.201083,0.429479 -0.285964,0.650922 -0.07976,0.212535 -0.142071,0.429665 -0.186892,0.652399 -0.04234,0.203827 -0.06862,0.410078 -0.063,0.618784 0.0018,0.196823 0.0175,0.393117 0.04218,0.588348 0.02574,0.114575 0.05425,0.231061 0.06878,0.347707 0.004,0.03217 0.0036,0.06486 0.0086,0.09689 0.0041,0.02622 0.01261,0.05157 0.01892,0.07736 0.05127,0.113282 0.121802,0.215727 0.194635,0.316207 1.497109,2.279465 4.401691,3.660245 7.092252,4.013842 0.119084,0.0206 0.237301,0.04415 0.357636,0.05693 0.144997,0.0068 0.290115,0.01418 0.434772,0.02606 0.165196,0.0085 0.329905,0.02515 0.495303,0.03075 0.178314,0.0142 0.356711,0.02631 0.535097,0.03943 0.153591,0.0027 0.306797,0.0017 0.459666,-0.01547 0.115705,-0.01429 0.232272,-0.02154 0.348587,-0.02906 0.09205,0.0015 0.183356,-0.01638 0.2754,-0.0095 0.09207,-0.0072 0.184107,-0.01494 0.275998,-0.02425 0.10158,-0.01008 0.203049,-0.0213 0.304736,-0.03025 0.109551,-0.0069 0.219218,-0.01105 0.328272,-0.02574 0.115788,-0.01218 0.231506,-0.0278 0.34794,-0.0317 0.114068,-0.01246 0.228017,-0.02855 0.342746,-0.03301 0.111833,-0.01381 0.223395,-0.02962 0.33515,-0.04403 0.122659,-0.01332 0.245501,-0.02456 0.367703,-0.04246 0.131344,-0.01439 0.262793,-0.02844 0.394376,-0.04051 0.137906,-0.01784 0.27589,-0.03433 0.414144,-0.04885 0.149865,-0.01975 0.29979,-0.03876 0.44986,-0.05661 0.150928,-0.02056 0.302274,-0.03728 0.452948,-0.0598 0.150894,-0.01602 0.301065,-0.03862 0.452367,-0.05098 0.128809,-0.0015 0.257472,-0.01443 0.385971,-0.02268 0.122445,-0.0112 0.245361,-0.01456 0.367344,-0.03124 0.117067,-0.01352 0.234089,-0.0264 0.351428,-0.03636 0.116782,-0.01481 0.233597,-0.02829 0.350639,-0.03997 0.11697,-0.01708 0.233518,-0.03692 0.348835,-0.06312 0.107419,-0.02384 0.215756,-0.04315 0.321802,-0.07258 0.103466,-0.02902 0.207249,-0.05649 0.310302,-0.08685 0.09493,-0.02264 0.186678,-0.05494 0.28025,-0.0822 0.09201,-0.03422 0.186264,-0.06136 0.276955,-0.09932 0.08798,-0.02801 0.171906,-0.06605 0.255698,-0.104603 0.06175,-0.03234 0.127984,-0.05546 0.189716,-0.08813 0.06158,-0.03487 0.126823,-0.06185 0.187446,-0.09829 0.06421,-0.03772 0.127077,-0.0772 0.190962,-0.11546 0.06982,-0.05011 0.13772,-0.102709 0.207903,-0.152288 0.05779,-0.04679 0.118659,-0.08964 0.177962,-0.134353 0.05456,-0.0465 0.110636,-0.09118 0.164829,-0.138165 0.0652,-0.05196 0.123357,-0.112405 0.186225,-0.167141 0.06462,-0.0621 0.126291,-0.127442 0.184887,-0.195233 0.0583,-0.06705 0.115326,-0.135229 0.171334,-0.204208 0.05653,-0.07024 0.111691,-0.141555 0.16653,-0.213126 0.05808,-0.07643 0.114868,-0.153838 0.173468,-0.229877 0.06658,-0.08861 0.133891,-0.176625 0.201996,-0.264073 0.07677,-0.09768 0.152126,-0.196485 0.229805,-0.293462 0.100369,-0.12795 0.197891,-0.258044 0.29609,-0.387658 0.114712,-0.15258 0.227814,-0.306448 0.335759,-0.463914 0.112853,-0.161226 0.225917,-0.32214 0.344629,-0.479077 0.08442,-0.117866 0.173918,-0.231623 0.26513,-0.344293 0.07096,-0.09052 0.138578,-0.183572 0.208215,-0.275111 0.08432,-0.111944 0.166822,-0.22526 0.24961,-0.338338 0.104345,-0.143998 0.208905,-0.287836 0.313327,-0.431777 0.129284,-0.178775 0.258976,-0.357268 0.392581,-0.532856 0.154551,-0.206115 0.310514,-0.41117 0.464607,-0.617626 0.157957,-0.208223 0.318253,-0.414735 0.488363,-0.613256 0.04839,-0.05374 0.0992,-0.105347 0.145974,-0.160509 0.09863,-0.116323 0.183949,-0.245818 0.251872,-0.382094 1.150195,-2.633787 0.207253,-0.284449 -6.736642,-4.266934 -0.03584,-0.02055 -0.05394,0.06266 -0.08286,0.09216 -0.03882,0.0396 -0.0749,0.06609 -0.118668,0.09886 -0.02041,0.01529 -0.04108,0.03024 -0.06162,0.04536 -0.166977,0.113374 -0.337144,0.221778 -0.514256,0.318816 -0.22853,0.126878 -0.45857,0.253752 -0.704922,0.343224 -0.232976,0.07981 -0.466565,0.159142 -0.706669,0.215168 -0.09705,0.02197 -0.21119,0.05396 -0.311416,0.02573 -0.02343,-0.0066 -0.05041,-0.01539 -0.06363,-0.03584 -0.01618,-0.02503 -0.04235,-0.10246 -0.01634,-0.0879 2.272895,1.272074 4.523238,2.584032 6.784857,3.876048 -0.0351,0.04851 -0.06561,0.100699 -0.105304,0.14553 -0.01674,0.01891 -0.0995,0.07421 -0.127529,0.03711 -0.0096,-0.01272 -0.01483,-0.07327 -0.01634,-0.08552 0.0099,-0.155276 0.05549,-0.304278 0.0955,-0.453945 0.05592,-0.197398 0.115151,-0.393807 0.182633,-0.587615 0.0803,-0.241821 0.163686,-0.482697 0.251477,-0.7219 0.111611,-0.296304 0.224057,-0.592362 0.349272,-0.88327 0.152943,-0.360789 0.311327,-0.719311 0.474702,-1.075497 0.206368,-0.448624 0.418686,-0.894561 0.645215,-1.333423 0.28367,-0.550167 0.577041,-1.095428 0.882611,-1.633762 0.149088,-0.255943 0.206709,-0.359037 0.363837,-0.6118 0.25102,-0.403801 0.524906,-0.792797 0.788765,-1.18818 0.409575,-0.584731 0.827489,-1.165025 1.287948,-1.711168 0.357538,-0.416681 0.7097,-0.845483 1.147617,-1.181907 0.05905,-0.03059 0.248306,-0.145819 0.329063,-0.1252 0.07898,0.02017 0.06871,0.156572 0.06026,0.207436 -2.245975,-1.302518 -4.514359,-2.567141 -6.737926,-3.907554 -0.0397,-0.02393 0.06472,-0.06854 0.105481,-0.09062 0.07347,-0.03981 0.150017,0.02866 0.177777,0.08829 0.01487,0.03195 0.02096,0.06729 0.03143,0.100934 0.0201,0.121061 0.03143,0.161631 0.03147,0.290488 9.5e-5,0.310036 -0.05697,0.6179 -0.09954,0.92368 -0.104747,0.643575 -0.21931,1.285447 -0.341516,1.925942 -0.147191,0.774125 -0.292338,1.548985 -0.472935,2.3162 -0.183595,0.797577 -0.367936,1.595114 -0.569551,2.38834 -0.06333,0.242517 -0.130172,0.484127 -0.191334,0.727201 -0.02726,0.108347 -0.05057,0.217657 -0.07728,0.326141 -0.06877,0.279287 -0.146218,0.556338 -0.216754,0.83517 -0.04776,0.188065 -0.05923,0.244539 -0.115699,0.42521 -0.928732,2.971519 -2.119428,-0.220071 6.54658,4.688577 0.182613,-0.203165 0.361955,-0.409668 0.513703,-0.637492 0.110567,-0.160295 0.222827,-0.319398 0.33428,-0.479078 0.147153,-0.211614 0.294965,-0.42277 0.443711,-0.633268 0.185021,-0.262283 0.369279,-0.525295 0.563758,-0.780695 0.234537,-0.322244 0.472711,-0.641803 0.72191,-0.952941 0.330918,-0.412503 0.668932,-0.819329 1.02292,-1.212363 0.407599,-0.452869 0.825557,-0.896933 1.268981,-1.315143 0.303546,-0.28635 0.611128,-0.568081 0.935864,-0.830533 0.07872,-0.06362 0.159479,-0.124661 0.239321,-0.186859 0.07639,-0.05951 0.152909,-0.118836 0.229363,-0.178254 0.07542,-0.05597 0.149763,-0.113436 0.226272,-0.167914 0.169142,-0.120436 0.257709,-0.174846 0.431328,-0.283055 0.132995,-0.08289 0.219355,-0.140867 0.360353,-0.205159 0.04758,-0.02169 0.09766,-0.0374 0.146493,-0.0561 0.03205,-0.0099 0.06352,-0.02198 0.09616,-0.02971 0.02053,-0.0049 0.08065,0.0033 0.06281,-0.008 -2.246056,-1.420342 -4.521572,-2.793982 -6.759616,-4.226914 -0.02407,-0.01541 0.0353,-0.04509 0.05503,-0.06577 0.0068,-0.0071 0.03265,0.08695 -0.01286,0.0266 -0.119345,0.103827 -0.247838,0.196003 -0.381136,0.28125 -0.28418,0.176014 -0.575948,0.339327 -0.869429,0.499257 -0.442223,0.235902 -0.888522,0.46403 -1.341741,0.678189 -0.623219,0.295486 -1.250051,0.583457 -1.884394,0.854389 -0.841655,0.360799 -1.687267,0.712659 -2.543023,1.038888 -1.08272,0.409663 -2.171687,0.803512 -3.27475,1.155401 -1.280734,0.406538 -2.562623,0.809976 -3.856315,1.173795 -0.315515,0.09 -1.008793,0.288984 -1.326442,0.374758 -1.12629,0.30413 -0.200264,0.04312 -1.294842,0.33293 -0.191775,0.05078 -0.382415,0.105747 -0.573572,0.158801 -0.182793,0.05073 -0.365518,0.101709 -0.548277,0.152563 -0.484939,0.138395 -0.969544,0.278008 -1.455859,0.411519 -0.04585,0.01259 -0.710889,0.192752 -0.781176,0.21026 -0.111559,0.02779 -0.22413,0.05134 -0.336195,0.07701 -0.244948,0.05194 -0.497803,0.115552 -0.751017,0.09859 -0.05223,-0.0035 -0.107202,-0.0063 -0.154329,-0.02912 -0.03587,-0.01735 -0.118056,-0.10514 -0.08323,-0.08579 2.257702,1.254578 4.504167,2.529271 6.756251,3.793906 -0.05933,0.08138 -0.183466,0.265736 -0.269733,0.335683 -0.01111,0.009 -0.03525,0.0085 -0.04275,-0.0037 -0.02691,-0.04369 0.06586,-0.215371 0.07913,-0.251487 0.137134,-0.271467 0.303228,-0.526447 0.457423,-0.788336 0.191689,-0.321905 0.382982,-0.644123 0.58415,-0.960241 0.195607,-0.31018 0.390035,-0.621081 0.596331,-0.924338 0.135152,-0.218809 0.265213,-0.44053 0.39343,-0.663458 0.103771,-0.164974 0.213409,-0.327712 0.348582,-0.468993 0.143294,-0.155721 0.292891,-0.305405 0.449833,-0.447456 0.207683,-0.187407 0.424796,-0.363671 0.643988,-0.537409 0.299505,-0.23929 0.600824,-0.476296 0.901853,-0.713664 0.408254,-0.323033 0.818832,-0.643226 1.235683,-0.955121 0.522663,-0.38543 1.053758,-0.759851 1.592047,-1.1231 0.582664,-0.373981 1.163827,-0.753667 1.79231,-1.048146 0.09509,-0.04746 0.189116,-0.09712 0.285269,-0.142388 0.426083,-0.200611 0.869807,-0.363877 1.317376,-0.50901 0.182247,-0.05414 0.372504,-0.119487 0.565239,-0.122783 0.03815,-6.52e-4 0.0813,-0.0067 0.113654,0.01349 0.02696,0.01685 0.07122,0.100592 0.04363,0.0848 -2.272675,-1.300585 -4.528055,-2.631164 -6.792082,-3.946746 0.01568,-0.02497 0.118726,-0.229851 0.198315,-0.2798 0.0051,-0.0032 0.01385,0.0031 0.01582,0.0088 0.0092,0.0266 -0.0244,0.07804 -0.03135,0.0904 -0.01361,0.02419 -0.02925,0.04718 -0.04388,0.07077 -0.138664,0.204259 -0.293068,0.397171 -0.43725,0.597509 -0.201075,0.277091 -0.401623,0.554624 -0.595046,0.83714 -0.257085,0.375012 -0.509864,0.753004 -0.758897,1.133408 -0.311593,0.477997 -0.627011,0.953508 -0.955359,1.420226 -0.359108,0.500141 -0.718961,1.001408 -1.135255,1.456476 -0.09264,0.09957 -0.273564,0.296594 -0.37198,0.392432 -0.22461,0.218724 -0.474757,0.41159 -0.739887,0.578441 -0.06095,0.03393 -0.120417,0.07065 -0.18284,0.101778 -0.279783,0.139512 -0.587625,0.222533 -0.899764,0.236959 -0.06012,-6.53e-4 -0.1204,0.0025 -0.180356,-0.002 -0.301086,-0.02241 -0.585229,-0.127618 -0.856076,-0.254938 -0.371347,-0.175627 -0.744888,-0.347452 -1.102767,-0.549878 -2.339352,-1.319411 0.425521,0.239108 6.10561,3.527272 0.07479,0.0433 -0.152814,-0.08076 -0.22868,-0.122143 -0.11945,-0.06516 -0.343569,-0.190746 -0.459567,-0.261578 -0.0759,-0.04635 -0.149805,-0.0959 -0.224707,-0.143848 -0.424673,-0.284942 -0.832162,-0.595096 -1.205722,-0.945253 -0.352887,-0.32926 -0.701358,-0.663429 -1.03191,-1.015349 -0.318265,-0.340994 -0.618869,-0.698018 -0.894389,-1.074662 -0.248308,-0.339631 -0.495929,-0.679683 -0.732269,-1.027844 -0.251138,-0.36113 -0.50046,-0.724015 -0.728752,-1.100175 -0.207632,-0.343674 -0.402051,-0.694973 -0.5814,-1.054284 -0.181424,-0.367919 -0.354227,-0.740245 -0.506935,-1.121124 -0.14829,-0.400934 -0.284819,-0.806673 -0.375701,-1.225054 -0.07994,-0.349246 -0.151997,-0.700855 -0.191391,-1.057335 -0.02866,-0.284434 -0.04943,-0.570346 -0.03059,-0.856286 0.01257,-0.227883 0.02745,-0.45838 0.0885,-0.679297 0.01926,-0.06162 0.03213,-0.110814 0.05931,-0.168958 0.04598,-0.09835 0.127094,-0.173544 0.208967,-0.242257 0.202579,-0.145985 0.413601,-0.28216 0.650901,-0.365203 0.123471,-0.04169 0.173169,-0.06167 0.301946,-0.09167 0.258301,-0.06016 0.524755,-0.07983 0.786523,-0.118671 0.574463,-0.06643 1.150343,-0.119526 1.726463,-0.169364 0.830885,-0.07113 1.662009,-0.140208 2.494401,-0.191524 1.038549,-0.05904 2.078049,-0.09826 3.118112,-0.118208 0.973877,-0.0184 1.947545,-0.04488 2.921283,-0.06892 0.426008,-0.0082 0.85197,-0.02273 1.278027,-0.0278 0.133745,-0.0016 0.267527,6.2e-4 0.40126,-0.0018 0.224493,-0.0041 0.448683,-0.02025 0.673334,-0.01856 0.09803,-0.0027 0.196155,-0.0031 0.294103,-0.008 0.2419,-0.01208 0.48822,-0.03854 0.727383,-0.07775 0.03358,-0.0055 0.06666,-0.01371 0.09999,-0.02057 2.620474,-0.411174 -5.932141,-4.331169 -6.311956,-4.592698 -0.01102,-0.0076 -0.01101,0.0249 -0.02007,0.03474 -0.003,0.0033 -0.0089,0.0011 -0.01338,0.0016 -0.09467,0.04486 -0.194199,0.07712 -0.293521,0.110016 -0.129195,0.04179 -0.258737,0.08236 -0.386584,0.128333 -0.150418,0.04816 -0.299253,0.101302 -0.449567,0.149821 -0.163766,0.05263 -0.326711,0.108133 -0.486307,0.172434 -0.178439,0.07078 -0.357692,0.140246 -0.528096,0.229295 -0.170445,0.09047 -0.336212,0.191537 -0.483583,0.3169 -0.142257,0.133568 -0.267183,0.281973 -0.334355,0.468196 -0.0613,0.164152 -0.104313,0.332293 -0.1086,0.508574 -0.0099,0.206554 -0.01728,0.413141 -0.01272,0.620001 0.0066,0.281433 0.02396,0.562207 0.08139,0.838659 0.03123,0.170801 0.06373,0.343068 0.115287,0.509225 0.05589,0.180116 0.137521,0.350823 0.224141,0.517781 0.221477,0.417507 0.46146,0.824787 0.7137,1.224458 0.350081,0.552528 0.717296,1.093834 1.09788,1.625837 0.252497,0.351946 0.197142,0.277675 0.458397,0.630009 0.08005,0.107953 0.158063,0.217467 0.240947,0.323257 0.259366,0.331043 0.54004,0.645545 0.818301,0.960535 0.271809,0.298626 0.322088,0.358272 0.603629,0.649788 0.417846,0.432651 0.852224,0.848985 1.271206,1.280521 0.299609,0.28752 0.603429,0.569794 0.910177,0.849694 0.203989,0.186135 0.363992,0.333311 0.575598,0.509622 0.09293,0.07743 0.188657,0.151446 0.282985,0.227169 0.292468,0.219242 0.269829,0.203943 0.562573,0.41684 0.08892,0.06467 0.172565,0.137492 0.267406,0.193115 2.232228,1.309179 4.473141,2.603502 6.712464,3.900508 0.09094,0.05267 0.184632,0.100502 0.278162,0.148432 0.08926,0.04574 0.180092,0.08837 0.270139,0.13255 0.09048,0.03815 0.179805,0.07916 0.271432,0.114458 0.298984,0.115194 0.6495,0.219699 0.971099,0.23685 0.07731,0.0041 0.154827,-0.0022 0.232241,-0.0033 0.07348,-0.01371 0.148089,-0.02233 0.220428,-0.04114 0.31865,-0.08287 0.591656,-0.276043 0.819585,-0.50781 0.246861,-0.254477 0.475972,-0.528011 0.654834,-0.835425 0.02957,-0.0526 0.06108,-0.104162 0.08871,-0.157806 0.127656,-0.24782 0.219171,-0.514578 0.291408,-0.783075 0.07896,-0.31871 0.160296,-0.641 0.164932,-0.971164 6.27e-4,-0.05658 0.0049,-0.113246 0.0019,-0.169753 -0.01407,-0.263064 -0.1193,-0.50546 -0.285752,-0.707337 -0.101955,-0.114063 -0.118514,-0.137659 -0.232121,-0.243654 -0.04445,-0.04147 -0.0841,-0.09023 -0.136683,-0.120735 -2.389802,-1.386385 -4.5937,-2.999541 -7.122231,-4.035915 C 43.672006,24.831432 43.227889,24.65508 42.781179,24.485331 42.159273,24.252435 41.532061,24.034567 40.894649,23.847447 40.023613,23.582658 39.15087,23.323499 38.277066,23.067996 37.040908,22.708288 35.802939,22.354799 34.568411,21.989512 33.043105,21.529828 31.52315,21.05278 30.001259,20.581955 28.691382,20.178084 27.379212,19.781791 26.064776,19.392996 25.181347,19.126822 24.300518,18.84967 23.4393,18.517376 c -0.35526,-0.14111 -0.242763,-0.09311 -0.56887,-0.234389 -0.183887,-0.07966 -0.370234,-0.159795 -0.542884,-0.262537 -0.04104,-0.02442 -0.07951,-0.05291 -0.119266,-0.07937 2.213587,1.276157 4.428765,2.549557 6.640761,3.828472 0.02056,0.01189 -0.04419,-0.01746 -0.06591,-0.02708 -0.05662,-0.02508 -0.109585,-0.057 -0.164449,-0.08556 -0.01605,-0.0084 -0.03206,-0.01679 -0.04809,-0.02519 -0.02718,-0.01703 -0.05616,-0.0311 -0.08315,-0.04843 -0.04736,-0.0304 -0.01798,-0.01694 -0.05713,-0.05038 -0.03174,-0.02712 -0.01306,9.55e-4 -0.03023,-0.03066 0,0 -7.390092,-3.019872 -7.390092,-3.019872 z" /><path
     style="fill:#000000;fill-opacity:1"
     id="path27536"
     d="m 26.11181,34.231048 c -0.02182,0.271476 -0.0498,0.54301 -0.07119,0.814823 -0.02516,0.396414 -0.05399,0.792514 -0.09701,1.187416 -0.05126,0.479273 -0.155701,0.950616 -0.265846,1.419171 -0.128732,0.536706 -0.290617,1.064383 -0.457282,1.590261 -0.150843,0.468902 -0.311573,0.934539 -0.471495,1.400399 -0.143377,0.397748 -0.273483,0.799814 -0.405844,1.201262 -0.146951,0.447399 -0.303714,0.891451 -0.464206,1.334144 -0.15404,0.436071 -0.320465,0.867565 -0.485505,1.299539 -0.14762,0.382974 -0.296681,0.765434 -0.43911,1.150378 -0.117902,0.324763 -0.234263,0.650056 -0.344836,0.977392 -0.08661,0.262537 -0.173926,0.524832 -0.260335,0.787436 0,0 6.955664,3.822134 6.955664,3.822134 v 0 c 0.0838,-0.264463 0.163255,-0.530359 0.24585,-0.795193 0.09948,-0.323193 0.207257,-0.643572 0.317057,-0.963388 0.133989,-0.384898 0.274463,-0.767559 0.416742,-1.149458 0.161845,-0.43758 0.329967,-0.872847 0.485872,-1.312625 0.15922,-0.447174 0.320049,-0.893749 0.477955,-1.34139 0.140745,-0.40046 0.275942,-0.802938 0.406378,-1.206864 0.153581,-0.474154 0.302699,-0.949751 0.455001,-1.424318 0.169414,-0.540415 0.335279,-1.082034 0.478226,-1.630178 0.133343,-0.492507 0.255789,-0.988189 0.34337,-1.491172 0.05341,-0.399886 0.09564,-0.800992 0.127682,-1.203172 0.02262,-0.243782 0.03658,-0.49389 0.107523,-0.729228 0,0 -7.054666,-3.737369 -7.054666,-3.737369 z" /><path
     style="fill:#ffffff;stroke-width:0.143252"
     d="m 29.245732,46.488292 c -4.064676,-0.734202 -7.649622,-2.843996 -9.462381,-5.568748 -1.00185,-1.505876 -1.39416,-2.637851 -1.575863,-4.547001 l -0.158483,-1.665187 -0.71698,-0.808007 c -0.859225,-0.968316 -1.099897,-1.553364 -1.099897,-2.673746 0,-3.092486 2.986002,-4.889216 5.267296,-3.169422 l 0.454972,0.342989 1.395143,-0.824593 c 2.338886,-1.382391 4.580802,-2.130722 7.209706,-2.406531 l 0.974618,-0.102252 0.2782,-1.385824 c 0.153008,-0.762203 0.547132,-2.782311 0.875829,-4.489128 0.629217,-3.267325 0.803261,-3.935898 1.024602,-3.935898 0.07459,0 1.455894,0.305558 3.06958,0.679015 l 2.933975,0.679016 0.671524,-0.674229 c 0.395833,-0.397426 0.862248,-0.714184 1.136085,-0.771552 1.025857,-0.214915 2.058487,0.332085 2.603216,1.378963 0.619656,1.190872 0.130306,3.026746 -0.960908,3.604999 -0.606993,0.321657 -1.614598,0.320779 -2.223592,-0.0019 -0.50008,-0.265002 -1.257174,-1.28598 -1.260722,-1.700149 -0.0011,-0.133212 -0.05229,-0.330591 -0.113645,-0.43862 -0.06215,-0.109413 -1.247137,-0.454594 -2.675201,-0.779273 l -2.563629,-0.582857 -0.101988,0.400822 c -0.124702,0.490095 -1.456935,7.708682 -1.456935,7.89427 0,0.073 0.289755,0.172816 0.643901,0.22182 1.66292,0.230102 2.753164,0.440552 3.66698,0.707841 1.148768,0.336011 3.316928,1.375884 4.287115,2.056146 l 0.667835,0.468264 0.697425,-0.439544 c 1.365388,-0.860518 2.834951,-0.730491 3.932022,0.347904 0.880627,0.865633 1.208305,1.634087 1.214465,2.848109 0.0065,1.284763 -0.429315,2.280538 -1.323247,3.023291 l -0.637336,0.529549 v 1.014651 c 0,2.459146 -0.878469,4.600588 -2.661671,6.488343 -1.984291,2.100632 -4.710103,3.539332 -7.872576,4.155192 -1.073883,0.209127 -5.204984,0.292102 -6.139433,0.123315 z m 5.761232,-3.445873 c 1.134956,-0.335943 2.740736,-1.241389 3.007312,-1.695724 0.167599,-0.285646 0.191687,-0.481361 0.09663,-0.78507 -0.192984,-0.616515 -0.704828,-0.603755 -1.57196,0.03919 -1.188245,0.881037 -2.598791,1.198497 -4.913284,1.105793 -2.137878,-0.08563 -2.832375,-0.273783 -4.012136,-1.086967 -0.923559,-0.636587 -1.265646,-0.671501 -1.565872,-0.159818 -0.20608,0.351227 -0.205679,0.406359 0.0056,0.766395 0.480034,0.818132 2.126788,1.66528 3.959747,2.037029 0.966944,0.196111 4.045285,0.05999 4.994004,-0.220826 z m -7.295229,-6.585627 c 0.859129,-0.435584 1.331271,-1.327992 1.328372,-2.510795 -0.0028,-1.178836 -0.440596,-1.999922 -1.319372,-2.474984 -1.317905,-0.712453 -2.776104,-0.185867 -3.444668,1.243943 -0.258515,0.552868 -0.258515,1.918128 0,2.470996 0.254465,0.544207 0.870237,1.200319 1.309589,1.395386 0.545544,0.242216 1.51467,0.185444 2.126079,-0.12455 z m 10.98923,-0.0269 c 0.880468,-0.475978 1.321657,-1.303652 1.321657,-2.479442 0,-0.766852 -0.06711,-1.04363 -0.381751,-1.574591 -1.032883,-1.742969 -3.498891,-1.56365 -4.375669,0.318184 -0.315105,0.676307 -0.244227,2.035633 0.144793,2.776927 0.62705,1.194866 2.074398,1.616595 3.29097,0.958922 z"
     id="path502" /></svg>
