<?xml version="1.0" encoding="UTF-8" standalone="no"?>
<svg
   viewBox="0 0 50 50"
   width="50px"
   height="50px"
   version="1.1"
   id="svg5"
   sodipodi:docname="reddit.svg"
   xml:space="preserve"
   inkscape:version="1.2 (dc2aedaf03, 2022-05-15)"
   xmlns:inkscape="http://www.inkscape.org/namespaces/inkscape"
   xmlns:sodipodi="http://sodipodi.sourceforge.net/DTD/sodipodi-0.dtd"
   xmlns="http://www.w3.org/2000/svg"
   xmlns:svg="http://www.w3.org/2000/svg"><defs
     id="defs9" /><sodipodi:namedview
     id="namedview7"
     pagecolor="#505050"
     bordercolor="#ffffff"
     borderopacity="1"
     inkscape:showpageshadow="0"
     inkscape:pageopacity="0"
     inkscape:pagecheckerboard="1"
     inkscape:deskcolor="#505050"
     showgrid="false"
     inkscape:zoom="8.4222168"
     inkscape:cx="26.83379"
     inkscape:cy="22.856215"
     inkscape:window-width="3440"
     inkscape:window-height="1376"
     inkscape:window-x="0"
     inkscape:window-y="32"
     inkscape:window-maximized="1"
     inkscape:current-layer="svg5" /><path
     style="fill:#ffffff;stroke-width:0.0819574"
     d="M 23.089983,45.905285 C 18.831085,45.46614 14.924989,43.854856 11.716031,41.213483 7.6984099,37.906474 5.0351619,33.208507 4.2729629,28.083928 c -0.82915,-5.574767 0.605102,-11.160431 4.050399,-15.774181 0.750935,-1.00561 2.9862521,-3.2409285 3.9918671,-3.9918635 5.733365,-4.28137 12.939638,-5.4172684 19.667168,-3.100063 0.473307,0.163024 1.450652,0.585662 2.17188,0.939196 2.376741,1.165041 3.748293,2.148818 5.657343,4.0578665 1.875426,1.875429 2.951623,3.369382 4.055564,5.629854 0.97143,1.989135 1.617065,4.103433 1.935476,6.338231 0.203327,1.427048 0.20534,4.250733 0.004,5.655086 -0.512116,3.572645 -1.911466,6.945263 -4.094659,9.868696 -0.755279,1.011358 -2.988453,3.244531 -3.999814,3.999806 -2.886212,2.155407 -6.131306,3.52275 -9.605345,4.047279 -1.254533,0.189415 -3.880046,0.268672 -5.016896,0.15145 z m 4.196137,-8.808478 c 4.983079,-0.6461 8.885494,-3.393662 9.778321,-6.884588 0.112968,-0.441679 0.16325,-0.90776 0.16325,-1.513096 v -0.874801 l 0.446315,-0.307389 c 0.706962,-0.486906 1.102273,-1.104513 1.277703,-1.996202 0.253269,-1.287342 -0.460721,-2.66137 -1.697312,-3.26638 -0.354501,-0.17344 -0.614326,-0.233038 -1.135155,-0.260373 -0.787624,-0.04133 -1.296765,0.09474 -1.917531,0.51248 l -0.397208,0.2673 -0.439793,-0.283762 c -0.682872,-0.440594 -2.325029,-1.209655 -3.185381,-1.491791 -1.04756,-0.343522 -2.627158,-0.656431 -3.618711,-0.716839 -0.447073,-0.02722 -0.831312,-0.07938 -0.85387,-0.115881 -0.03722,-0.06023 1.26419,-6.377938 1.330424,-6.458561 0.02818,-0.0343 1.11269,0.180481 3.344058,0.662276 l 1.177168,0.254174 0.05493,0.292781 c 0.195894,1.04422 1.093683,1.774589 2.172141,1.767085 0.845635,-0.0059 1.542278,-0.440586 1.919636,-1.197841 0.704432,-1.413614 -0.313454,-3.109514 -1.878657,-3.130036 -0.707128,-0.0093 -1.180611,0.199345 -1.671511,0.736465 l -0.407395,0.445758 -2.51112,-0.533304 c -1.381117,-0.293317 -2.57814,-0.533305 -2.660054,-0.533305 -0.414457,0 -0.450309,0.113672 -1.240843,3.933972 -0.415088,2.005916 -0.784223,3.680504 -0.820305,3.721314 -0.03607,0.04081 -0.48216,0.106427 -0.991293,0.14583 -1.127684,0.08727 -2.625793,0.382648 -3.671275,0.723857 -0.853762,0.278641 -2.494006,1.04797 -3.185373,1.494046 l -0.439801,0.283762 -0.397208,-0.2673 c -0.620766,-0.417745 -1.129903,-0.553818 -1.917527,-0.51248 -0.519442,0.02726 -0.780846,0.08703 -1.131873,0.258771 -0.613291,0.300055 -1.301361,1.048962 -1.5333,1.668865 -0.24074,0.643431 -0.241215,1.533089 -7.66e-4,2.174684 0.190925,0.510291 0.800627,1.246137 1.27589,1.539862 l 0.28199,0.174284 0.0015,0.833382 c 7.67e-4,0.45836 0.05367,1.07987 0.117518,1.381132 0.754332,3.559201 4.833296,6.456308 10.002841,7.104577 0.964319,0.120926 3.310827,0.103314 4.360051,-0.03274 z m -3.376559,-2.580625 c -1.449572,-0.155257 -2.659526,-0.534665 -3.514155,-1.101936 -0.259924,-0.172528 -0.527937,-0.398159 -0.595583,-0.501401 -0.174126,-0.265747 -0.109432,-0.603633 0.152911,-0.79863 0.261012,-0.194011 0.402453,-0.151745 0.988068,0.295267 0.878183,0.670332 2.26385,1.001195 4.157145,0.99263 1.879117,-0.0085 3.234613,-0.364346 4.12557,-1.083036 0.172991,-0.139546 0.389491,-0.277509 0.481105,-0.306588 0.251337,-0.07977 0.592102,0.211382 0.623868,0.53304 0.02189,0.221722 -0.02864,0.31621 -0.306189,0.572439 -1.124651,1.038274 -3.787202,1.647297 -6.11274,1.398215 z m -4.592756,-5.355789 c -0.49162,-0.228929 -1.036825,-0.818224 -1.170839,-1.265532 -0.574436,-1.917292 1.370429,-3.530923 3.112767,-2.582621 1.199155,0.652662 1.484642,2.250896 0.588978,3.297275 -0.619482,0.723727 -1.6691,0.952188 -2.530906,0.550878 z m 9.587619,-7.67e-4 c -1.589125,-0.739982 -1.666581,-3.011815 -0.131177,-3.847486 1.461716,-0.795568 3.207551,0.222335 3.207551,1.87015 0,1.580683 -1.650284,2.6414 -3.076374,1.977336 z"
     id="path171" /><path
     style="fill:#ff7f00;stroke-width:0.118734"
     d="M 22.016586,45.717147 C 16.253316,44.771783 11.302915,41.719502 7.9512989,37.044879 7.0420547,35.776722 5.675634,33.079298 5.1845699,31.583134 4.5092646,29.525627 4.0952651,27.006982 4.0972829,24.968416 4.101195,21.016009 5.408561,16.799233 7.7155193,13.298162 8.6803458,11.833928 11.83253,8.6733087 13.277707,7.7210892 17.10103,5.201923 21.505517,3.9428573 25.824555,4.1344506 c 3.072864,0.1363129 5.659654,0.7996313 8.370718,2.1464642 1.949592,0.9685405 3.064447,1.7065014 4.468292,2.9577157 3.237009,2.8850715 5.278739,6.0614855 6.410006,9.9723435 0.657097,2.271623 0.753499,3.018607 0.753918,5.841813 3.56e-4,2.287175 -0.03414,2.774621 -0.277157,3.918208 -0.591115,2.781657 -1.66469,5.350287 -3.225652,7.717683 -1.186708,1.799792 -3.795838,4.40903 -5.627046,5.62728 -2.360523,1.570387 -5.050466,2.690588 -7.730253,3.21919 -1.69698,0.334737 -5.424617,0.432342 -6.950795,0.181999 z m 5.989528,-8.679218 c 4.012749,-0.701902 7.25534,-2.785512 8.619632,-5.538768 0.444507,-0.897054 0.511771,-1.147363 0.626786,-2.332462 l 0.128841,-1.327566 0.529214,-0.433651 c 1.021498,-0.837041 1.407346,-2.480881 0.863481,-3.678719 -0.741111,-1.632266 -2.771583,-2.280063 -4.388419,-1.40007 l -0.586691,0.319316 -0.870444,-0.478576 c -1.884919,-1.036341 -3.880399,-1.669274 -6.013116,-1.907259 -0.542846,-0.06058 -1.018087,-0.141231 -1.05609,-0.179234 -0.06909,-0.06909 0.1392,-1.205544 0.824239,-4.497157 0.329609,-1.583776 0.388315,-1.75132 0.61364,-1.75132 0.239921,0 4.133973,0.806056 4.167848,0.862731 0.0091,0.01527 0.109692,0.279074 0.223474,0.586222 0.38417,1.037063 1.198515,1.493823 2.449063,1.373661 1.085327,-0.104286 1.830882,-0.994805 1.818979,-2.17266 -0.0096,-0.947428 -0.480581,-1.636763 -1.373201,-2.009724 -0.885743,-0.370087 -1.652619,-0.202252 -2.406548,0.526686 l -0.474935,0.459191 -2.493405,-0.522035 c -1.371373,-0.287119 -2.589634,-0.523574 -2.707248,-0.525455 -0.330323,-0.0053 -0.4824,0.497743 -1.282272,4.241399 l -0.737962,3.453901 -0.723332,0.0772 c -2.547125,0.271864 -4.151025,0.726049 -6.147373,1.740783 l -1.3871,0.705054 -0.631371,-0.331853 c -0.530629,-0.278903 -0.773463,-0.331415 -1.521874,-0.329102 -1.033002,0.0032 -1.633283,0.256091 -2.235276,0.941723 -0.63444,0.722587 -0.780332,1.109924 -0.785018,2.084181 -0.0037,0.760532 0.04316,0.972416 0.318791,1.442743 0.177693,0.303211 0.556479,0.75694 0.841746,1.008286 l 0.518667,0.456994 0.0619,1.127969 c 0.07526,1.371299 0.36987,2.262386 1.104051,3.339306 1.52443,2.236082 4.396166,3.929375 7.833453,4.618924 1.419387,0.284741 4.781034,0.31116 6.277868,0.04934 z"
     id="path213" /><path
     style="fill:#ff7f00;stroke-width:0.118734"
     d="m 19.29533,29.047546 c -1.023792,-0.549065 -1.42651,-1.641354 -0.978535,-2.654076 0.911396,-2.060362 3.945752,-1.447823 3.945752,0.796521 0,1.52323 -1.656723,2.560381 -2.967217,1.857555 z"
     id="path215" /><path
     style="fill:#ff7f00;stroke-width:0.118734"
     d="m 28.968787,29.102366 c -0.566783,-0.246964 -1.098389,-0.936369 -1.189248,-1.542261 -0.140416,-0.936364 0.295327,-1.7836 1.138582,-2.213797 1.3512,-0.689331 2.961847,0.305998 2.961847,1.830328 0,1.491834 -1.551535,2.518165 -2.911181,1.92573 z"
     id="path217" /><path
     style="fill:#ff7f00;stroke-width:0.118734"
     d="m 22.974949,34.322109 c -1.702197,-0.360887 -3.14644,-1.151685 -3.14644,-1.72284 0,-0.428726 0.347312,-0.585599 0.743109,-0.335647 1.518157,0.958741 2.631751,1.213504 4.941706,1.13054 1.767193,-0.06347 2.794346,-0.32465 3.615168,-0.919251 0.615574,-0.44592 0.939621,-0.462369 1.042388,-0.05291 0.148167,0.590346 -0.921784,1.313933 -2.627027,1.776606 -0.978526,0.265498 -3.568896,0.335521 -4.568904,0.123507 z"
     id="path219" /></svg>
