<?xml version="1.0" encoding="UTF-8" standalone="no"?>
<svg
   width="64"
   height="64"
   viewBox="0 0 64 64"
   version="1.1"
   id="svg4147"
   sodipodi:docname="sans.svg"
   inkscape:version="1.2 (dc2aedaf03, 2022-05-15)"
   xmlns:inkscape="http://www.inkscape.org/namespaces/inkscape"
   xmlns:sodipodi="http://sodipodi.sourceforge.net/DTD/sodipodi-0.dtd"
   xmlns="http://www.w3.org/2000/svg"
   xmlns:svg="http://www.w3.org/2000/svg">
  <defs
     id="defs4151" />
  <sodipodi:namedview
     id="namedview4149"
     pagecolor="#505050"
     bordercolor="#eeeeee"
     borderopacity="1"
     inkscape:showpageshadow="0"
     inkscape:pageopacity="0"
     inkscape:pagecheckerboard="0"
     inkscape:deskcolor="#505050"
     showgrid="false"
     inkscape:zoom="11.313709"
     inkscape:cx="25.10229"
     inkscape:cy="48.922948"
     inkscape:window-width="3440"
     inkscape:window-height="1376"
     inkscape:window-x="0"
     inkscape:window-y="32"
     inkscape:window-maximized="1"
     inkscape:current-layer="svg4147" />
  <path
     style="fill:#000000;fill-opacity:1;stroke-width:0.00390625"
     d=""
     id="path5485" />
  <path
     style="fill:#000000;fill-opacity:1;stroke-width:0.00390625"
     d=""
     id="path5491" />
  <path
     style="fill:#000000;fill-opacity:1;stroke-width:0.00390625"
     d=""
     id="path5495" />
  <path
     style="fill:#000000;fill-opacity:1;stroke-width:0.0110485"
     d=""
     id="path5499" />
  <path
     style="fill:#000000;fill-opacity:1;stroke-width:0.00390625"
     d=""
     id="path6368" />
  <path
     style="fill:#000000;fill-opacity:1;stroke-width:0.00390625"
     d=""
     id="path6598" />
  <path
     style="fill:#000000;fill-opacity:1;stroke-width:0.00390625"
     d=""
     id="path6600" />
  <path
     style="fill:#000000;fill-opacity:1;stroke-width:0.00390625"
     d=""
     id="path6618" />
  <path
     style="fill:#000000;fill-opacity:1;stroke-width:0.0623174"
     d="M 30.560352,61.574904 C 27.028688,61.357765 23.939213,60.674163 20.850937,59.426524 11.158323,55.510783 4.2226763,46.862216 2.4922743,36.533762 2.1912253,34.73685 2.1451393,34.087396 2.1451393,31.641844 c 0,-2.445552 0.04609,-3.095006 0.347135,-4.891918 0.787775,-4.702084 2.685769,-9.170134 5.507396,-12.964907 1.751969,-2.356202 4.0583137,-4.6467372 6.3739857,-6.3302962 5.635323,-4.097038 12.592291,-6.155694 19.36488,-5.730316 6.39182,0.401463 12.1827,2.62937 17.10614,6.581199 6.41427,5.1484462 10.4457,12.8010832 11.09191,21.0551222 0.0818,1.044915 0.0806,3.523959 -0.002,4.589984 -0.43397,5.585925 -2.48252,11.056582 -5.82211,15.547957 -1.68503,2.266171 -3.84404,4.434423 -6.10888,6.135037 -4.08903,3.070347 -9.06311,5.084766 -14.14606,5.728923 -1.70838,0.216501 -3.83932,0.301899 -5.296981,0.212275 z m 0.129391,-16.974959 c 2.024813,-0.197034 3.740093,-0.780832 4.947203,-1.683791 0.57927,-0.433309 1.38737,-1.264698 1.7442,-1.794465 0.94384,-1.401264 1.21745,-3.075071 0.78056,-4.775076 -0.29669,-1.154438 -1.06527,-2.128237 -2.90283,-3.67791 -1.3519,-1.140106 -1.67613,-1.565591 -1.67613,-2.19959 0,-0.392614 0.0895,-0.645848 0.38154,-1.079221 0.25539,-0.379009 0.34865,-0.479428 1.23644,-1.3313 0.98634,-0.946444 1.48115,-1.715906 1.76235,-2.740585 0.17806,-0.648872 0.22714,-2.425589 0.0811,-2.935016 -0.22529,-0.785684 -0.48209,-1.201437 -1.14221,-1.849229 l -0.61915,-0.607595 h 1.04936 1.04936 l 0.84259,-1.119978 c 0.46343,-0.615988 0.84259,-1.134781 0.84259,-1.152872 0,-0.06161 -7.751244,-0.03269 -8.319375,0.03105 -1.492727,0.167456 -2.243348,0.355412 -3.087349,0.773075 -1.850925,0.915952 -3.140914,2.424004 -3.687383,4.310714 -0.124653,0.43037 -0.142316,0.6286 -0.14101,1.582553 0.0015,1.072873 0.0049,1.100399 0.210268,1.697746 0.466015,1.355337 1.515271,2.613165 2.686,3.219926 0.918064,0.475812 1.707378,0.640865 3.043692,0.636468 0.818459,-0.0027 0.890272,0.006 0.852557,0.10364 -0.254672,0.659057 -0.294739,0.869946 -0.265508,1.397502 0.02528,0.456228 0.06549,0.617641 0.251336,1.008988 0.121684,0.256231 0.336626,0.635784 0.47765,0.843451 l 0.256406,0.377576 -0.329488,3.8e-5 c -0.512738,6e-5 -2.508215,0.241766 -3.159209,0.382666 -1.64295,0.355597 -3.373584,1.208205 -4.313088,2.124871 -0.513027,0.500557 -0.771923,0.878105 -1.05812,1.543058 -0.35814,0.832108 -0.451076,1.309129 -0.415424,2.132296 0.04965,1.146461 0.395457,1.892156 1.294158,2.790744 0.939851,0.939733 1.886318,1.445299 3.333879,1.780831 1.085496,0.251608 2.693171,0.335932 3.993072,0.209439 z m 13.410173,-11.446903 0.0167,-1.511198 h 1.49451 1.49451 v -1.028238 -1.028237 h -1.49449 -1.49449 l -0.0167,-1.480039 -0.0167,-1.480039 h -1.02824 -1.02823 l -0.0167,1.480039 -0.0167,1.480039 h -1.49449 -1.49449 v 1.028237 1.028238 h 1.49561 1.49562 v 1.485232 c 0,0.816878 0.0194,1.504596 0.043,1.528264 0.0237,0.02367 0.49339,0.03535 1.04382,0.02597 l 1.00079,-0.01707 z"
     id="path9126" />
  <path
     style="fill:#000000;fill-opacity:1;fill-rule:nonzero;stroke:none"
     id="path4132"
     d="m 38.918424,17.897468 c -0.2741,0.18024 -0.540232,0.373225 -0.8223,0.540721 -0.290585,0.172553 -0.590023,0.330511 -0.893909,0.478389 -0.75716,0.368451 -1.265174,0.609222 -2.077046,0.77035 -0.444754,0.08827 -0.79583,0.058 -1.235152,0.04567 -0.193167,0.0397 -0.389756,0.06538 -0.579502,0.119098 -0.940253,0.266213 -1.293598,0.531904 -2.338876,0.923505 -1.574274,0.589783 -3.205268,0.999069 -4.818637,1.462624 -0.349889,0.09322 -1.873656,0.50475 -2.285468,0.594583 -0.777738,0.169656 -0.840877,0.106684 -1.554824,0.309776 -0.211402,0.06014 -0.414904,0.145237 -0.623273,0.21516 -0.178287,0.05983 -0.357763,0.11605 -0.536645,0.174075 -0.303219,0.07339 -0.626557,0.180903 -0.857481,0.40508 -0.138067,0.134033 -0.214226,0.298776 -0.345296,0.438843 -0.05386,0.05755 -0.121012,0.101033 -0.181517,0.15155 -0.07044,-0.186328 -0.147587,0.28952 -0.206374,0.210717 -0.02735,-0.03666 -4.01e-4,-0.152273 0.04019,-0.13119 1.440744,0.748415 2.828564,1.59502 4.258364,2.364134 0.01932,0.01039 0.0084,-0.04412 0.0201,-0.06267 0.04601,-0.07293 0.101093,-0.139722 0.151639,-0.209583 0.340623,-0.284444 0.621855,-0.637396 0.970164,-0.912776 0.211165,-0.166951 0.44157,-0.309332 0.67529,-0.442893 0.940991,-0.537737 1.979914,-0.833226 3.007652,-1.15045 0.959076,-0.452572 2.030126,-0.357143 3.029671,-0.605065 0.816879,-0.202615 1.604401,-0.509965 2.413521,-0.741632 0.853603,-0.244404 1.73159,-0.405076 2.573771,-0.686329 2.385973,-0.796816 3.186702,-1.304275 5.406623,-2.430799 3.600503,-2.13293 0.368892,-0.159095 2.398303,-1.502821 0.132424,-0.08768 0.259459,-0.193561 0.41104,-0.240967 0.295103,-0.09229 0.176321,0.145792 0.435709,0.15231 0.127152,0.0032 0.245846,-0.06535 0.368769,-0.09803 0.503036,-0.185981 0.889477,-0.566147 1.342973,-0.836095 0.06799,-0.04047 0.149309,-0.136373 0.217209,-0.09575 0.05765,0.03449 0.0061,0.229063 -0.05164,0.194808 -1.445273,-0.856701 -2.822487,-1.823338 -4.23373,-2.735007 -0.08502,0.04723 -0.16694,0.10053 -0.255063,0.141681 -0.09976,0.04659 -0.208065,0.07341 -0.307372,0.12096 -0.126517,0.06058 -0.243187,0.140232 -0.368737,0.202796 -0.122555,0.06107 -0.251964,0.107606 -0.374951,0.167801 -1.632159,0.798852 0.79901,-0.343642 -1.150379,0.563162 -0.232682,0.09608 -0.46959,0.182507 -0.698045,0.288246 -1.016312,0.470398 -0.910533,0.536579 -2.065635,0.920983 -1.290104,0.42933 -1.548655,0.378027 -2.863734,0.710056 -0.520394,0.131389 -1.033216,0.291127 -1.549824,0.436691 -4.628397,1.29046 1.640852,-0.46331 -3.250835,0.92516 -0.485683,0.137857 -0.968417,0.287799 -1.459728,0.404012 -0.391288,0.09256 -0.790615,0.147033 -1.1857,0.221732 -0.427271,0.08078 -0.850086,0.189162 -1.281364,0.244714 -0.445708,0.05741 -0.896613,0.06238 -1.34492,0.09357 -0.365524,0.0043 -0.731129,0.004 -1.09657,0.01284 -0.289871,0.007 -0.579273,0.02898 -0.869169,0.03491 -0.16901,0.0035 -0.338812,-0.02283 -0.50709,-0.0067 -0.07398,0.0071 -0.268003,0.02898 -0.20987,0.07529 3.903756,3.10965 2.564492,3.747689 4.185383,2.913371 -1.381288,-0.994015 -2.756243,-1.99689 -4.143863,-2.982046 -0.02535,-0.01799 -0.115283,-0.04219 -0.09013,-0.02392 1.363328,0.990074 2.698259,2.022688 4.10964,2.942967 0.08064,0.05258 0.184111,-0.05639 0.276655,-0.08292 0.660461,-0.189331 0.206686,-0.03522 0.971212,-0.329232 0.215998,-0.09324 0.433618,-0.182815 0.647995,-0.279726 0.46689,-0.211061 0.69072,-0.357436 1.174414,-0.499295 0.183651,-0.05386 0.374678,-0.07841 0.561257,-0.121041 1.156363,-0.264208 0.0987,-0.05131 1.446185,-0.304944 1.279833,-0.416495 2.586213,-0.758119 3.916471,-0.96991 0.505396,-0.08046 1.108025,-0.171999 1.632276,-0.08049 0.108391,0.01892 0.202764,0.08552 0.304146,0.128278 -1.391072,-0.775742 -2.828604,-1.473484 -4.173216,-2.327226 -0.07748,-0.0492 0.07185,-0.168972 0.111227,-0.251875 0.02941,-0.06192 0.03343,-0.212417 0.09504,-0.182361 1.456067,0.710406 4.376438,3.930953 4.274153,2.314059 -0.267401,-4.226994 -2.961943,-3.147515 -4.578171,-2.550591 -0.14751,0.06493 -0.288723,0.14664 -0.44253,0.194793 -0.466374,0.146009 -0.654009,0.09985 -1.124413,0.220124 -0.171513,0.04385 -0.333723,0.11848 -0.502497,0.171909 -0.603963,0.191197 -0.621952,0.180809 -1.26761,0.329192 -0.796468,0.208499 -0.885737,0.245193 -1.712369,0.40522 -0.268997,0.05208 -0.543111,0.07761 -0.810132,0.139019 -1.122183,0.258067 -0.89036,0.323336 -2.085257,0.536377 -0.306902,0.05472 -0.620004,0.06579 -0.930006,0.09868 -0.564841,-0.0104 -1.117266,0.111123 -1.681628,0.09928 -0.05906,-0.0012 -0.401828,-0.0083 -0.500768,-0.07636 -0.02203,-0.01516 -0.01217,-0.0521 -0.01825,-0.07814 1.39223,0.959694 2.740496,1.986522 4.17669,2.879082 0.08944,0.05558 0.20013,-0.06564 0.30084,-0.09641 0.158218,-0.04833 0.3196,-0.08664 0.475897,-0.140866 0.723713,-0.251078 1.432616,-0.556935 2.146842,-0.833594 1.143768,-0.349868 2.258775,-0.782507 3.402908,-1.131753 0.389361,-0.118852 0.785954,-0.213359 1.174405,-0.335154 0.952746,-0.298724 1.512994,-0.536448 2.467334,-0.906622 0.905168,-0.304437 1.728882,-0.610089 2.656423,-0.823872 0.282935,-0.06521 0.569746,-0.124035 0.85962,-0.14069 0.211252,-0.01214 0.420944,0.04762 0.632417,0.05496 0.701363,0.02434 0.713678,-0.01419 1.425197,-0.127764 0.246832,-0.03513 0.644793,-0.108976 0.916507,-0.09677 0.06333,0.0028 0.135882,0.003 0.185315,0.04272 0.0296,0.02377 0.04081,0.134694 0.0093,0.113515 -3.263485,-2.193605 -2.818295,-1.842465 -4.19877,-2.941713 -0.07419,-0.0056 -0.148705,-0.02559 -0.222566,-0.01668 -0.139621,0.01685 -0.656051,0.182429 -0.752226,0.217833 -0.634519,0.23358 -1.235493,0.566199 -1.839724,0.865182 -0.378572,0.176682 -0.748446,0.373344 -1.135715,0.530048 -0.734967,0.297396 -2.068469,0.696171 -2.799061,0.93479 -0.477986,0.156116 -0.951712,0.325172 -1.430533,0.478709 -1.572307,0.504174 -2.222054,0.680827 -3.835591,1.150416 -3.472398,0.826684 -0.119208,-0.0164 -3.575732,0.987459 -0.45451,0.132 -0.923062,0.213953 -1.374435,0.35631 -0.341827,0.107807 -1.407662,0.540919 -1.788441,0.753281 -0.175022,0.09761 -0.32884,0.229139 -0.49326,0.343709 -0.09491,0.06426 -0.197569,0.118357 -0.284729,0.192795 -0.08541,0.07295 -0.149868,0.167536 -0.229701,0.24655 -0.07998,0.07916 -0.164785,0.153334 -0.249342,0.227584 -0.08197,0.07198 -0.165249,0.142535 -0.250159,0.211032 -0.05725,0.04618 -0.130257,0.07542 -0.176164,0.132889 -0.05456,0.0683 -0.07822,0.156354 -0.117332,0.234531 -0.01072,0.08555 -0.03972,0.170756 -0.03216,0.256639 0.0064,0.0728 0.01047,0.168834 0.07294,0.20677 1.461299,0.887395 2.92217,1.784074 4.454373,2.542507 0.17288,0.08557 0.383866,-0.03935 0.576328,-0.05233 0.638213,-0.04306 1.277472,-0.06902 1.915969,-0.107629 0.435155,-0.01004 0.870337,-0.01899 1.305466,-0.03013 0.95225,-0.02438 3.071377,-0.0897 3.907634,-0.09761 5.44025,-0.05143 -0.547912,0.03979 4.160091,0.05821 0.716508,0.0028 1.432849,-0.02251 2.149274,-0.03377 0.762941,0.0088 2.979234,0.03731 3.785743,0.03622 0.648431,-8.8e-4 1.296783,-0.02149 1.945206,-0.01838 0.543661,0.0026 1.086974,0.03021 1.630615,0.03555 5.690582,0.05588 -2.05601,-0.0654 3.021604,0.01995 -1.429678,-1.058963 1.702267,0.502614 1.331344,0.245593 -0.123775,-0.08576 -2.965639,-3.805919 -4.383512,-2.663321 -0.123092,0.09919 -0.18902,0.21121 -0.281045,0.338858 -1.106446,1.085147 -2.601062,1.643839 -4.041596,2.123257 -1.449742,0.482483 -2.371561,0.667653 -3.896736,1.037424 -3.176364,0.561343 -1.940194,0.405102 -5.240422,0.727993 -0.812199,0.07947 -1.624696,0.156459 -2.438075,0.222772 -0.547461,0.04463 -1.098193,0.04977 -1.644154,0.110047 -0.27202,0.03003 -2.292309,0.400002 -2.520497,0.441222 -0.545091,0.08822 -1.803373,0.294205 -2.373389,0.37779 -0.233073,0.03418 -0.468007,0.05521 -0.700692,0.09193 -0.112912,0.01782 -0.232932,0.02088 -0.335372,0.0716 -0.183849,0.09103 -0.256333,0.421639 -0.309623,0.560192 0.02035,-0.02027 0.03496,-0.07283 0.06106,-0.06082 1.533421,0.705557 2.991361,1.581527 4.565914,2.189783 0.139785,0.054 0.222107,-0.201536 0.339353,-0.294859 0.185444,-0.147604 0.379765,-0.283712 0.568184,-0.427498 0.255603,-0.195056 0.500424,-0.40467 0.763859,-0.58901 0.274985,-0.192423 0.566495,-0.360078 0.849742,-0.540117 2.975459,-2.070523 -0.425751,0.245877 3.088642,-1.964808 0.942089,-0.592609 1.839714,-1.255488 2.794937,-1.826685 1.230075,-0.735552 3.386323,-1.870122 4.821204,-2.43256 0.47896,-0.187741 0.983877,-0.300968 1.475816,-0.451453 0.299395,-0.03208 0.597232,-0.105901 0.898185,-0.09623 0.138298,0.0044 0.50961,0.209955 0.391609,0.137692 -1.375779,-0.842506 -2.792102,-1.617346 -4.172151,-2.452838 -0.04733,-0.02865 -0.0461,-0.117531 -0.09919,-0.133066 -0.111521,-0.03263 -0.232508,0.0074 -0.348581,0.0021 -0.126635,-0.0058 -0.252427,-0.02373 -0.378641,-0.03559 -0.147102,-0.01164 -0.294066,-0.04465 -0.441307,-0.03492 -0.330651,0.02185 -1.64241,0.265391 -1.870117,0.306258 -0.324749,0.05828 -0.65213,0.103825 -0.97389,0.176829 -0.459454,0.104245 -1.573106,0.454471 -1.975735,0.577317 -0.388202,0.132732 -0.777981,0.26094 -1.164606,0.398198 -0.49654,0.176279 -0.984446,0.377068 -1.48475,0.542363 -0.99954,0.330236 -1.657794,0.520296 -2.664213,0.67125 -0.378586,0.05678 -1.089167,0.09105 -1.494488,0.114734 -0.288957,0.201623 -0.574532,-0.153817 -0.854412,-0.0927 -0.09008,0.01967 -0.279861,0.126966 -0.207005,0.18348 1.351758,1.048548 2.741418,2.059411 4.216204,2.926422 0.144932,0.0852 0.318247,-0.108711 0.475479,-0.168233 0.260768,-0.09872 0.518894,-0.204273 0.778341,-0.306409 0.357938,-0.103112 0.710991,-0.225008 1.073814,-0.309336 0.941104,-0.218734 1.819155,-0.323875 2.7801,-0.428551 0.537684,-0.05857 1.075477,-0.119671 1.615211,-0.154636 0.642815,-0.04164 1.287349,-0.05013 1.931028,-0.0751 0.663659,-0.02575 1.327322,-0.05137 1.990983,-0.07706 2.574047,-0.0076 0.680269,-0.03343 2.584826,0.0499 0.279354,0.01222 0.560603,-0.0062 0.838496,0.02487 0.207119,0.02314 0.412128,0.07164 0.610039,0.136944 0.132067,0.04358 0.493561,0.256296 0.372779,0.187357 -1.34455,-0.767429 -2.696364,-1.522062 -4.044545,-2.283093 0.0177,0.05428 0.127842,-0.228299 0.108809,-0.165175 -0.149896,0.497133 -0.495642,0.819479 -0.83999,1.196626 -0.250242,0.196102 -0.486695,0.411205 -0.750725,0.588306 -0.282519,0.189503 -0.590229,0.338445 -0.884746,0.508706 -0.894424,0.517067 -1.281199,0.791426 -2.243431,1.169366 -1.069413,0.420038 -2.000681,0.636747 -3.115413,0.939254 -2.238425,0.304815 -4.413947,0.93368 -6.628419,1.364102 -1.340169,0.260486 -0.986122,0.228445 -1.954956,0.220991 -1.511694,-3.67914 2.866167,3.237051 4.426061,2.553168 0.175435,-0.07691 0.336699,-0.183386 0.498342,-0.28617 0.327252,-0.208091 1.393507,-0.964733 1.665939,-1.118748 0.272493,-0.15405 0.5699,-0.259131 0.85485,-0.388697 0.27525,-0.101485 0.550802,-0.202156 0.82575,-0.304457 0.368924,-0.137266 0.73254,-0.289428 1.105861,-0.414242 1.616496,-0.540451 2.2871,-0.714763 3.980918,-1.086899 0.628246,-0.138027 1.258288,-0.270036 1.892873,-0.375139 0.50215,-0.08317 1.010127,-0.126214 1.515191,-0.189321 0.633866,-0.05085 2.137923,-0.179957 2.806272,-0.202497 0.314944,-0.01062 0.632908,-0.034 0.945343,0.0071 0.122748,0.01614 0.438395,0.228696 0.334612,0.161192 -4.247966,-2.763033 -2.742442,-3.461226 -4.499259,-2.516162 -0.56075,0.44668 -0.990613,1.013441 -1.605033,1.401503 -0.711021,0.449073 -1.680267,0.833497 -2.476258,1.063807 -0.544665,0.157591 -1.104482,0.257095 -1.656723,0.385642 -2.444591,0.343736 -4.919076,0.511861 -7.388424,0.442626 -1.150682,-0.03226 -2.272739,-0.215039 -3.411322,-0.346655 -0.15045,-0.0028 -0.301923,0.0093 -0.45135,-0.0085 -0.08462,-0.01005 -0.163112,-0.04944 -0.244669,-0.07416 1.389488,0.787867 2.763327,1.603992 4.168462,2.3636 0.04208,0.02275 -0.0515,-0.08796 -0.04705,-0.135588 0.0314,-0.336059 0.148001,-0.517445 0.28749,-0.81893 0.0932,-0.136771 0.170304,-0.286018 0.279584,-0.410313 0.1697,-0.193014 0.359663,-0.367974 0.553283,-0.536983 0.996544,-0.869873 2.093108,-1.54432 3.337156,-2.012583 0.706599,-0.265965 1.439643,-0.455522 2.159465,-0.683283 3.811411,-0.659178 2.99932,-0.649776 6.759775,-0.802924 0.933638,-0.03802 1.86853,-0.0594 2.802852,-0.04643 0.873809,0.01213 2.300355,0.100774 3.242908,0.274711 0.161644,0.02983 0.312993,0.100544 0.469489,0.150817 -1.361757,-0.947632 -2.723515,-1.895265 -4.085273,-2.842897 -0.06512,0.008 -0.139322,-0.0101 -0.195353,0.02404 -0.103222,0.06288 -0.187743,0.15596 -0.259625,0.253129 -0.05706,0.07713 -0.290908,0.573991 -0.349231,0.664784 -0.0899,0.139945 -0.197863,0.267422 -0.296795,0.401133 -0.157597,0.145699 -0.297273,0.313571 -0.47279,0.437097 -0.457908,0.322268 -1.192821,0.628788 -1.689028,0.842995 -0.324272,0.139985 -0.649222,0.278664 -0.977828,0.40815 -0.279407,0.1101 -0.570658,0.190027 -0.84578,0.310437 -0.272536,0.119278 -0.529422,0.271525 -0.794132,0.407287 -0.235137,0.129638 -0.467116,0.265177 -0.705411,0.388913 -0.188037,0.09764 -0.378434,0.191267 -0.573083,0.274953 -0.111983,0.04815 -0.230529,0.07931 -0.345449,0.119951 -0.04252,0.01504 -0.165239,0.02339 -0.126851,0.04707 4.2718,2.634365 2.712609,2.897608 4.60258,2.508219 0.141108,-0.04801 0.277993,-0.110932 0.423323,-0.144032 1.207434,-0.275004 2.430935,-0.283314 3.662625,-0.269193 1.464082,0.01678 1.210944,0.01642 2.51857,0.111946 0.424784,-0.003 0.849562,-0.0069 1.274352,-0.0089 0.827537,-0.0039 1.526604,-0.01488 2.34225,0.02152 0.154679,0.0069 0.592292,0.125347 0.462722,0.04058 -4.172556,-2.729688 -3.348779,-3.867228 -4.356279,-2.280554 -0.241594,0.41503 -0.474018,0.649685 -0.877579,0.928676 -0.226417,0.156528 -0.448216,0.325947 -0.698609,0.440264 -0.654555,0.298838 -1.051031,0.303315 -1.746235,0.399236 -0.927341,0.02036 -1.842485,0.182959 -2.770979,0.178297 -0.154781,-7.78e-4 -0.31312,0.0038 -0.463057,-0.03462 -0.04108,-0.01053 -0.109317,-0.12732 -0.07447,-0.103151 1.380187,0.957267 2.744198,1.937647 4.116297,2.906471 0.527119,0.01483 0.137995,-0.786308 0.127815,-1.003818 -0.0037,-0.07972 0.01915,-0.158453 0.02873,-0.23768 0.04578,-0.06932 0.07741,-0.150434 0.137341,-0.207957 0.27674,-0.265611 0.67592,-0.199909 1.018713,-0.265249 0.18235,-0.03476 0.358742,-0.0957 0.538952,-0.14024 0.223102,-0.05514 0.447273,-0.10586 0.670909,-0.15879 1.024667,-0.233678 0.769646,-0.213176 1.890569,-0.298621 0.251364,-0.01916 0.998,-0.07665 1.33275,-0.0093 0.0505,0.01017 0.0837,0.06008 0.125555,0.09012 -1.357359,-1.001274 -2.714719,-2.002549 -4.072078,-3.003823 -0.06444,0.02494 -0.138927,0.0322 -0.193327,0.07481 -0.101936,0.07984 -0.178901,0.187305 -0.264912,0.284089 -0.190699,0.214585 -0.362528,0.446495 -0.565112,0.649898 -0.804599,0.807851 -1.678853,1.578884 -2.697116,2.115038 -0.697927,0.367485 -1.459759,0.598072 -2.189638,0.897108 -3.007793,0.883831 -3.723452,1.201772 -7.020187,1.65966 -1.320244,0.18337 -2.652608,0.277193 -3.983739,0.346201 -1.089411,0.05648 -2.18161,0.03013 -3.272484,0.02997 -2.831663,-4.12e-4 -1.913241,0.06862 -3.962263,-0.20395 1.34635,0.898199 2.641366,1.878573 4.039052,2.694598 0.141756,0.08276 0.327771,-0.02449 0.489855,-0.05044 0.177972,-0.02849 0.368717,-0.02994 0.528846,-0.112668 0.287722,-0.148655 0.372888,-0.403439 0.41506,-0.691896 0.01096,-0.07495 -0.009,-0.151222 -0.01357,-0.226833 0.0027,0.04968 -0.04171,0.147865 0.008,0.149039 0.159645,0.0038 0.303945,-0.09885 0.458758,-0.13802 0.269309,-0.06813 0.541192,-0.125789 0.812885,-0.18369 0.534113,-0.113828 1.069352,-0.222319 1.604439,-0.331477 4.188772,-0.854513 2.140235,-0.473871 7.011716,-1.226432 6.01909,-0.707435 2.661572,-0.346903 8.328878,-0.888153 1.908317,-0.182252 4.436155,-0.461083 6.387036,-0.542593 1.797839,-0.07512 2.768685,4.61e-4 4.530668,0.07513 0.946006,0.07788 1.758416,0.106871 2.669407,0.284164 0.08626,0.01679 0.319456,0.141633 0.247214,0.09159 -2.574208,-1.78303 -2.804852,-3.541927 -4.690319,-2.717099 -0.145788,0.06378 -0.281755,0.147989 -0.422632,0.221984 -0.114956,0.08497 -0.235279,0.163114 -0.344868,0.254899 -0.117139,0.09811 -0.21455,0.218698 -0.334145,0.313798 -0.660172,0.524965 -1.515132,0.935419 -2.325091,1.157564 -0.351285,0.09635 -0.715859,0.135206 -1.073789,0.202809 -2.573555,0.43231 -0.225509,0.05862 -3.313206,0.473268 -0.761888,0.102315 -1.519009,0.241067 -2.283051,0.325815 -0.543331,0.06027 -3.131518,0.232415 -3.772065,0.244427 -0.39919,0.0075 -0.79812,-0.02525 -1.19718,-0.03787 -0.757053,-0.06111 -1.516756,-0.09796 -2.271786,-0.183204 -0.07625,-0.0086 -0.291124,-0.07791 -0.227539,-0.03496 4.199768,2.837397 2.696836,3.419083 4.53789,2.566242 0.768578,-0.267493 1.530107,-0.579836 2.319742,-0.781948 0.451471,-0.115556 0.912788,-0.188508 1.369393,-0.281734 2.830197,-0.577844 1.45516,-0.337164 4.411067,-0.753126 0.520343,-0.01765 1.040859,-0.07512 1.561029,-0.05294 0.188929,0.0081 0.366005,0.09527 0.549007,0.142903 -1.415038,-0.907397 -2.767004,-1.921634 -4.245115,-2.722189 -0.138524,-0.07503 -0.29445,0.114197 -0.433519,0.188208 -0.240446,0.127965 -0.466821,0.280846 -0.702949,0.416615 -0.373682,0.214861 -0.750919,0.423478 -1.126379,0.635217 -1.326441,0.556597 -1.722828,0.79055 -3.174898,1.104863 -0.51666,0.111836 -1.044122,0.171877 -1.570571,0.219791 -0.836546,0.07614 -1.234552,7.7e-4 -2.031729,0.02388 -0.24369,0.0071 -0.486384,0.0342 -0.729575,0.05129 -0.900504,0.172662 -1.8289,0.270422 -2.744636,0.163254 -0.105991,-0.0124 -0.208149,-0.04718 -0.312224,-0.07077 1.388695,0.909346 2.777391,1.818692 4.166087,2.728037 0.153978,-0.09723 0.250381,-0.288639 0.41686,-0.36805 0.105631,-0.05039 0.221857,-0.07584 0.335839,-0.102393 0.843851,-0.19658 0.838087,-0.148623 1.850361,-0.222011 0.511657,-0.0404 1.022668,-0.09005 1.534971,-0.121191 0.660296,-0.04014 1.321673,-0.05997 1.98238,-0.09263 1.599382,-0.07906 3.197346,-0.196634 4.799287,-0.112424 0.225811,0.01187 0.450367,0.04119 0.67555,0.06178 0.107378,0.04614 0.422142,0.19888 0.322133,0.138409 -1.377174,-0.832715 -2.755058,-1.665154 -4.156276,-2.456742 -0.04407,-0.0249 -0.105237,2.86e-4 -0.149927,0.02405 -0.142397,0.07572 -0.259268,0.194106 -0.401903,0.269371 -0.494104,0.260726 -1.223466,0.373617 -1.701853,0.489614 -2.328643,0.359286 -1.378809,0.278732 -3.693276,0.379 -0.567316,0.02458 -1.136485,0.01557 -1.702402,0.06236 -0.495577,0.04097 -0.98792,0.117852 -1.478255,0.200594 -0.914417,0.154303 -0.746828,0.111857 -1.3607,0.399181 -0.05057,0.137376 -0.272332,0.329193 -0.151704,0.412126 1.393128,0.957793 2.905675,1.732841 4.405738,2.512574 0.06355,0.03303 0.129536,-0.07456 0.16635,-0.136002 0.08362,-0.139557 0.318883,-0.358069 0.185624,-0.451402 -3.790748,-2.654979 -2.764764,-2.81778 -4.568814,-2.46237 -0.04931,0.009 -0.112484,0.06252 -0.147928,0.02707 -0.03639,-0.03639 -0.02073,-0.181145 0.02222,-0.152793 1.389391,0.917104 2.708373,1.937444 4.08955,2.866873 0.04164,0.02802 0.101392,-0.0012 0.149901,-0.01404 0.167794,-0.0445 0.327704,-0.116567 0.496436,-0.157362 0.385496,-0.0932 0.77632,-0.162799 1.16448,-0.244199 1.670196,-0.155139 1.542503,-0.186099 3.244542,-0.167989 0.513524,0.0055 1.026149,0.05672 1.539698,0.05446 0.629781,-0.0028 1.258421,-0.05689 1.88808,-0.06955 1.349891,-0.02716 1.155154,-0.02599 2.133856,0.05169 -1.409164,-0.930421 -2.740633,-1.99084 -4.227493,-2.791261 -0.184809,-0.09949 -0.400189,0.126759 -0.599418,0.192792 -0.234626,0.07777 -0.468684,0.15727 -0.702103,0.238589 -0.271548,0.0946 -0.53578,0.211888 -0.812759,0.289157 -0.944924,0.263607 -1.525918,0.308701 -2.520463,0.449871 -1.609997,0.08264 -3.68663,0.199375 -5.201106,0.212163 -1.19862,0.01012 -2.397592,-0.0162 -3.595517,-0.05826 -0.858309,-0.03013 -1.715852,-0.08603 -2.571647,-0.15825 -1.351328,-0.114035 -0.774748,-0.366077 -1.448321,0.03017 -0.34418,2.065044 -0.48616,0.535958 4.415608,2.295973 0.08556,0.03072 -0.102236,-0.150611 -0.146736,-0.229882 -0.142472,-0.253792 -0.113548,-0.207893 -0.164675,-0.469692 0.0086,-0.04077 0.0047,-0.08644 0.02594,-0.122319 0.170399,-0.288102 0.553587,-0.629606 0.777921,-0.798959 0.647698,-0.488958 0.944456,-0.57583 1.684096,-0.914425 0.37093,-0.169805 0.741995,-0.339315 1.112993,-0.508973 0.448807,-0.152354 3.195862,-1.086384 3.381423,-1.141611 1.026927,-0.305634 2.785768,-0.733816 3.882281,-0.918715 0.902103,-0.152116 1.701608,-0.183429 2.607734,-0.242932 -1.222761,-0.938857 1.768525,0.440989 1.384773,0.177721 -1.36855,-0.938875 -2.724032,-1.909684 -4.184209,-2.698543 -0.143624,-0.07759 -0.301575,0.125425 -0.449043,0.195436 -0.42809,0.203235 -0.839664,0.442409 -1.277312,0.62415 -0.602991,0.250403 -1.226934,0.447025 -1.840401,0.670537 -2.576605,0.592579 -2.959126,0.784388 -5.697205,0.960134 -1.023376,0.06569 -2.050695,0.05172 -3.076141,0.04319 -2.851655,-0.02373 -5.694543,-0.228857 -8.537345,-0.431693 -0.413493,-0.06479 -0.826985,-0.129584 -1.240478,-0.194376 -0.07916,-0.0614 -0.319985,-0.241023 -0.23747,-0.184211 1.42256,0.979435 2.783296,2.053303 4.257984,2.95234 0.147002,0.08962 0.641183,-0.236141 0.711263,-0.33898 0.08515,-0.124955 0.09607,-0.286758 0.1441,-0.430136 0.06379,-0.163183 0.0955,-0.342886 0.191356,-0.489548 0.491034,-0.75133 1.214563,-1.372099 2.008923,-1.780424 0.236111,-0.121368 0.486661,-0.212314 0.730515,-0.317261 0.356284,-0.153335 0.713261,-0.305055 1.069891,-0.457583 0.991193,-0.392987 2.246726,-0.908557 3.226994,-1.194618 0.85507,-0.249526 1.724259,-0.450602 2.595933,-0.633887 1.947142,-0.40942 3.207956,-0.605971 5.196467,-0.614167 0.68977,-0.0028 1.376666,0.08918 2.064999,0.133773 0.416718,0.08206 0.836779,0.148674 1.250155,0.246184 1.565634,0.369313 4.869114,2.503878 -3.49879,-2.158382 -0.01896,-0.01056 -0.04484,0.01169 -0.05855,0.02852 -0.08671,0.106474 -0.155241,0.226686 -0.238335,0.33601 -0.104991,0.138132 -0.217119,0.270692 -0.325678,0.406038 -1.09001,1.099684 -2.543414,1.690308 -3.970053,2.216574 -1.736384,0.640525 -2.001329,0.698748 -3.821224,1.272276 -1.314402,0.313256 -2.550883,0.86595 -3.838003,1.262238 -0.479011,0.147481 -0.97145,0.247174 -1.456936,0.371693 -0.308509,0.07913 -0.615468,0.164409 -0.925046,0.239245 -0.592841,0.14331 -0.39152,0.180073 -0.732348,0.06336 1.414681,0.877302 2.780995,1.837884 4.244045,2.631905 0.08824,0.04789 0.140884,-0.143089 0.21288,-0.213058 0.08564,-0.08323 0.169757,-0.168264 0.259988,-0.246494 0.555892,-0.481955 0.96615,-0.516922 1.692169,-0.702543 1.420014,-0.344883 2.876398,-0.493593 4.326681,-0.642719 0.546271,-0.05617 1.091797,-0.123009 1.639775,-0.158873 0.492384,-0.03223 0.986577,-0.02555 1.47962,-0.04528 0.462481,-0.01851 0.924545,-0.04627 1.386818,-0.06941 0.257818,-0.02182 1.393745,-0.126394 1.765026,-0.132689 1.629205,-0.02762 5.672578,2.622018 -3.835029,-2.653228 -0.103241,-0.05728 -0.196679,0.130744 -0.293017,0.199001 -0.218228,0.154616 -0.433733,0.313041 -0.6506,0.469561 -0.475312,0.256596 -2.370611,1.284905 -2.65166,1.408239 -1.740599,0.763838 -3.632534,1.248982 -5.521691,1.44542 -0.448125,0.0466 -0.90042,0.03453 -1.350629,0.05179 0.811758,0.589776 -1.553845,-0.470861 -1.199605,-0.265356 1.307608,0.758581 2.644622,1.465304 3.967541,2.196856 0.04221,0.02334 -0.08071,-0.05401 -0.125378,-0.07221 -0.134398,-0.05475 -0.05066,0.03603 -0.123794,-0.06536 0.05485,-0.215556 -0.03811,-0.528722 0.157002,-0.693301 0.07737,-0.06527 0.184289,-0.08492 0.270604,-0.13779 1.267769,-0.776579 -0.197252,0.01556 1.448093,-0.829536 0.269623,-0.110996 0.536548,-0.228787 0.808869,-0.332989 0.213625,-0.08174 0.436024,-0.139646 0.648386,-0.224617 0.454243,-0.181752 0.889056,-0.409101 1.339606,-0.599822 0.210101,-0.08894 0.416273,-0.190483 0.634937,-0.255585 0.143633,-0.04276 0.296493,-0.04391 0.444739,-0.06586 0.102989,0.0042 0.206472,0.02367 0.308967,0.01274 0.127021,-0.01355 0.247221,-0.06664 0.373558,-0.08553 0.177096,-0.02648 0.356802,-0.03109 0.534835,-0.05028 0.164885,-0.01777 0.328884,-0.04326 0.493816,-0.06059 0.08934,-0.0094 0.341935,0.0326 0.268783,-0.01954 -1.357655,-0.967647 -2.780227,-1.84082 -4.17034,-2.76123 -0.100942,0.05588 -0.200869,0.113632 -0.302824,0.16764 -0.154088,0.08162 -0.312891,0.154348 -0.46522,0.23921 -0.710285,0.395698 -0.580555,0.374274 -1.363625,0.799815 -0.317411,0.17249 -0.629613,0.35891 -0.964791,0.493661 -0.439584,0.176724 -0.901477,0.291892 -1.352216,0.437839 -1.540976,0.373396 -1.132144,0.355564 -2.600757,0.427522 -0.344054,0.01686 -0.688823,0.03087 -1.03317,0.02179 -0.230873,-0.0061 -0.462679,-0.02419 -0.689594,-0.0672 -0.09334,-0.01769 -0.341613,-0.164345 -0.261626,-0.11308 1.387797,0.889461 2.79201,1.753043 4.188015,2.629564 0.515001,-0.420047 0.469689,-1.037816 0.587268,-1.632915 0.13169,-0.666523 0.165181,-0.623622 0.475545,-1.291857 0.153497,-0.212538 0.275962,-0.451382 0.460492,-0.637614 0.204278,-0.206162 0.447929,-0.371699 0.693255,-0.526772 0.67411,-0.426111 0.99084,-0.537266 1.716595,-0.772684 1.5247,-0.494578 0.992111,-0.354636 2.50518,-0.569642 0.228738,0.01846 0.880431,0.177617 0.686212,0.05539 -1.323952,-0.833231 -2.798393,-1.407231 -4.132409,-2.224254 -0.08142,-0.04987 0.132205,-0.289742 0.03689,-0.28406 -0.131134,0.0078 -0.187103,0.187158 -0.258725,0.297284 -0.05549,0.08532 -0.461305,0.907733 -0.504469,0.994502 -0.0829,0.143827 -0.153932,0.295182 -0.248699,0.431483 -0.127014,0.182682 -0.268907,0.354976 -0.414865,0.522909 -0.699661,0.804997 -0.951225,1.050514 -1.833511,1.748632 -0.353688,0.27986 -0.732374,0.526642 -1.094652,0.795287 -0.306263,0.227108 -0.60724,0.461258 -0.91086,0.691887 -0.283339,0.244051 -0.582102,0.471264 -0.850017,0.732155 -0.920198,0.89607 -0.798255,0.946322 -1.660224,1.956845 -0.525502,0.616068 -1.628594,1.748753 -2.18127,2.243288 -0.514052,0.459975 -1.064616,0.877439 -1.596924,1.316158 -1.051736,0.730933 -1.829291,1.312495 -2.919423,1.935328 -0.348983,0.199387 -0.715498,0.366388 -1.073786,0.548524 -0.737181,0.374746 -1.089532,0.581376 -1.861495,0.851619 -0.176211,0.06169 -0.361848,0.09213 -0.542772,0.138192 1.46486,0.759649 2.853914,1.687993 4.394581,2.278948 0.191953,0.07363 0.300033,-0.281167 0.451566,-0.420108 0.633761,-0.581097 1.278172,-1.151334 1.873741,-1.772754 0.308914,-0.322322 0.602719,-0.658793 0.904078,-0.98819 0.702945,-0.784244 1.63659,-1.861753 2.404518,-2.55397 0.405774,-0.365768 0.860264,-0.673588 1.292741,-1.007359 0.43435,-0.335217 2.203461,-1.684186 2.611408,-1.981392 0.452356,-0.32956 0.915511,-0.644035 1.373267,-0.966052 1.175641,-0.689111 1.678962,-1.097711 2.971718,-1.453152 0.31469,-0.08652 0.64731,-0.14155 0.972484,-0.113662 0.156395,0.01341 0.54593,0.310145 0.40968,0.232201 -4.129272,-2.362201 -3.621786,-0.85105 -4.129433,-2.395102 -0.03297,0.0086 -0.07334,0.0033 -0.09891,0.02583 -0.128597,0.113219 -0.177446,0.28265 -0.203441,0.444304 -0.01284,0.07985 0.01043,0.163287 -0.0056,0.242555 -0.05446,0.269213 -0.224766,0.5381 -0.3464,0.770614 -0.594245,1.02521 -1.263062,2.005511 -1.91574,2.993841 -0.250227,0.37891 -0.492298,0.763413 -0.752989,1.1352 -0.192514,0.274557 -0.405601,0.534108 -0.606011,0.802955 -0.166569,0.223451 -0.329934,0.449271 -0.494901,0.673906 -0.645426,0.834096 -0.296369,0.4263 -0.996732,1.166686 -0.174709,0.184692 -0.346414,0.372253 -0.523477,0.554689 -0.169257,0.174393 -0.348601,0.338922 -0.515375,0.515691 -0.348522,0.369409 -0.677167,0.757081 -1.017162,1.134352 -0.370998,0.386793 -0.540317,0.620512 -0.975346,0.89511 -0.06594,0.04162 -0.146474,0.05356 -0.219712,0.08035 1.431313,0.758272 2.8334,1.574486 4.293938,2.274815 0.05868,0.02814 0.06592,-0.112238 0.09776,-0.168997 0.10875,-0.193889 0.215993,-0.388618 0.323989,-0.582927 0.175538,-0.260095 0.349663,-0.521149 0.526613,-0.780286 0.671531,-0.983433 0.699963,-1.05221 1.528909,-2.030832 0.33145,-0.391296 0.685739,-0.762756 1.020642,-1.1511 0.62039,-0.719387 1.185604,-1.488199 1.84509,-2.171923 0.704726,-0.730628 1.493276,-1.375481 2.239914,-2.063222 1.395753,-1.053522 1.68843,-1.477622 3.153167,-2.023187 0.23077,-0.08595 0.478096,-0.138819 0.724257,-0.145739 0.155698,-0.0044 0.588277,0.190712 0.453503,0.112629 -3.916026,-2.268807 -5.355568,-1.439219 -3.927859,-2.228819 0.07258,-0.08701 -0.02273,0.0236 -0.08054,0.218452 -0.266086,0.896827 0.09525,-0.08967 -0.247502,1.011814 -0.205298,0.659762 -0.399158,1.042365 -0.68672,1.697576 -0.439916,0.641117 -0.584991,0.850292 -1.036954,1.519191 -0.203628,0.301366 -0.39254,0.613062 -0.608705,0.905565 -0.266099,0.360072 -0.559447,0.699194 -0.836915,1.050579 -0.406453,0.51473 -0.792632,1.045858 -1.214836,1.547748 -0.482185,0.573191 -0.997977,1.117247 -1.496966,1.67587 -1.095363,1.066766 -1.686079,1.687144 -2.855561,2.653861 -0.414833,0.342909 -0.83583,0.680861 -1.283501,0.97963 -0.508999,0.339699 -1.248195,0.660467 -1.84176,0.87536 -0.04797,0.0026 -0.184945,-0.01713 -0.143911,0.0079 1.409541,0.858198 2.806861,1.742229 4.270456,2.504593 0.0754,0.03927 0.114406,-0.126086 0.16577,-0.193833 0.380069,-0.5013 0.703532,-1.039567 1.029739,-1.576266 0.601527,-0.811033 1.095527,-1.693718 1.666192,-2.525163 0.583708,-0.850449 1.630788,-2.248424 2.315291,-3.006406 0.336519,-0.372644 0.732144,-0.6878 1.082428,-1.047537 0.339325,-0.348482 0.65697,-0.717436 0.985456,-1.076154 0.402147,-0.375017 2.024165,-1.896703 2.313157,-2.119582 0.364617,-0.281204 0.765222,-0.516324 1.174975,-0.72638 0.200667,-0.102871 0.420087,-0.230406 0.644288,-0.20625 0.09347,0.01007 0.118898,0.325397 0.03678,0.279628 -1.43828,-0.801634 -2.800076,-1.733392 -4.200113,-2.600088 -0.05552,0.06527 -0.123072,0.121983 -0.166558,0.19582 -0.134031,0.22758 -0.253577,0.592339 -0.344857,0.834844 -0.15075,0.4005 -0.326542,0.887577 -0.544719,1.245148 -0.174553,0.286075 -0.396067,0.540705 -0.5941,0.811057 -0.235285,0.265947 -0.471168,0.531367 -0.705856,0.797841 -0.789852,0.896829 -0.767447,0.895708 -1.613178,1.785367 -0.400613,0.485515 -0.896623,0.875963 -1.330498,1.328098 -0.17001,0.177166 -0.324855,0.368284 -0.487283,0.552426 -0.359996,0.439132 -0.777168,0.823516 -1.174607,1.227191 -0.02863,0.02908 -0.207923,0.250036 -0.302526,0.250954 -0.123366,0.06867 -0.128122,0.24419 -0.227102,0.339495 -0.01644,0.01583 -0.04792,0.0016 -0.06697,0.01419 -0.03182,0.02099 -0.112359,0.06326 -0.07936,0.08234 1.427249,0.825302 2.890824,1.586123 4.336236,2.379185 0.03629,-0.104432 0.06709,-0.210941 0.108879,-0.313297 0.15855,-0.388307 0.340594,-0.76662 0.515038,-1.148052 0.366536,-0.801454 0.628332,-1.401194 1.157455,-2.159718 0.314519,-0.450878 0.694114,-0.852678 1.041171,-1.279018 0.476876,-0.470859 0.924252,-0.973597 1.430627,-1.412577 0.590797,-0.512167 1.215152,-0.986286 1.854963,-1.435728 1.582857,-1.111893 2.580278,-1.698753 4.373002,-2.404266 1.267185,-0.498692 2.158142,-0.632577 3.467789,-0.908368 0.429122,8.23e-4 0.861701,-0.05191 1.287364,0.0025 0.21329,0.02725 0.781186,0.353294 0.599339,0.238549 -1.357209,-0.856392 -2.761529,-1.635863 -4.133419,-2.468535 -0.04548,-0.0276 -0.06218,-0.111139 -0.115373,-0.11028 -0.264428,0.0043 -0.345004,0.25728 -0.457137,0.433053 -0.157836,0.663493 -0.131906,0.64202 -0.372387,1.29188 -0.138917,0.375405 -0.261624,0.758513 -0.435091,1.119256 -0.186212,0.387246 -0.408709,0.756909 -0.640929,1.118445 -0.554245,0.862884 -0.77574,1.06449 -1.426408,1.807995 -0.209957,0.188884 -0.421957,0.375522 -0.629871,0.566652 -1.249221,1.148371 -1.426997,1.37561 -2.906194,2.578401 -1.274831,1.036613 -2.802327,2.165292 -4.180828,3.055757 -0.691155,0.446464 -1.412026,0.845153 -2.11804,1.267729 -1.032594,0.598463 -2.134981,1.060331 -3.188929,1.616673 -0.338867,0.178876 -0.662137,0.385932 -0.996487,0.573116 -0.190519,0.106661 -0.384063,0.207878 -0.577935,0.308315 -0.08803,0.0456 -0.170689,0.108992 -0.267635,0.129737 -0.03124,0.0067 -0.05195,-0.03719 -0.07793,-0.05579 1.421357,0.823483 2.792285,1.740911 4.264072,2.470447 0.09564,0.04741 0.09657,-0.191357 0.158702,-0.278163 0.09627,-0.134502 0.211393,-0.254482 0.314899,-0.3835 1.334853,-1.663873 -0.536317,0.668153 1.309334,-1.805302 0.374143,-0.501409 0.776682,-0.980989 1.165023,-1.471484 1.693699,-1.662417 3.127121,-3.565373 4.769612,-5.274885 0.58867,-0.612691 1.202581,-1.202109 1.838955,-1.765094 1.745453,-1.544162 2.026839,-1.63854 3.929811,-2.900999 0.530435,-0.27544 1.039858,-0.595809 1.591304,-0.826318 0.221201,-0.09246 1.279774,-0.438425 1.695138,-0.28954 0.09759,0.03498 0.254015,0.315645 0.163962,0.264282 -4.315466,-2.461419 -2.952059,-3.639511 -4.285647,-2.405566 -0.159857,0.190782 -0.314631,0.362171 -0.446068,0.575672 -0.696171,1.130841 0.321599,-0.33595 -0.732832,1.259499 -0.617423,0.934217 -0.902253,1.245566 -1.626289,2.15313 -0.386407,0.500472 -0.753622,1.016366 -1.15922,1.501415 -0.356818,0.426715 -0.752231,0.819623 -1.126056,1.231521 -0.393601,0.433686 -1.735834,1.942874 -2.188199,2.392542 -0.388877,0.386559 -0.791291,0.760158 -1.208235,1.116262 -0.351161,0.29992 -0.729334,0.566689 -1.094001,0.850033 -0.310113,0.221241 -0.606564,0.463004 -0.930339,0.663722 -0.239689,0.14859 -0.492192,0.279641 -0.755266,0.381236 -0.116427,0.04496 -0.476078,-0.01313 -0.370571,0.05355 1.374193,0.868379 2.822518,1.613814 4.24738,2.396284 0.0222,0.01219 0.05311,-0.0074 0.072,-0.02427 0.09574,-0.08546 0.177648,-0.185242 0.266472,-0.277863 0.28279,-0.357 0.498428,-0.760571 0.766704,-1.127411 0.154296,-0.210984 0.328558,-0.406621 0.491324,-0.611141 0.742307,-0.932725 1.100638,-1.426707 1.976584,-2.382862 0.484647,-0.529026 1.001782,-1.027344 1.502672,-1.541016 1.358681,-1.156941 2.767894,-2.28889 4.382702,-3.073787 0.276773,-0.134529 0.563873,-0.259624 0.865206,-0.32207 0.161501,-0.03347 0.634961,0.124759 0.493129,0.04058 -1.324544,-0.786151 -2.71994,-1.446283 -4.07991,-2.169424 0.02781,-0.02124 0.0716,-0.09667 0.08344,-0.06373 0.01872,0.05205 -0.0355,0.10489 -0.04938,0.158438 -0.02855,0.110143 -0.0666,0.219129 -0.07785,0.332355 -0.03699,0.372363 0.02507,0.694596 0.03392,1.068663 0.0045,0.19131 -0.0066,0.38267 -0.01,0.574005 -0.02607,0.193465 -0.03573,0.389858 -0.0782,0.580396 -0.151027,0.677628 -0.467685,1.294211 -0.824303,1.88282 -0.771625,1.273591 -0.731508,1.165683 -1.676844,2.529244 -0.375516,0.40292 -0.723794,0.833065 -1.126548,1.20876 -0.251415,0.234523 -0.535488,0.434458 -0.828265,0.614717 -0.123276,0.0759 -0.532593,0.07196 -0.408716,0.146877 1.426334,0.731237 2.852667,1.462473 4.279,2.19371 -0.02272,0.06112 -0.112102,0.13517 -0.06817,0.183347 0.03913,0.0429 0.08123,-0.08299 0.121848,-0.124483 0.07692,-0.123075 0.193269,-0.216437 0.273863,-0.336525 0.08612,-0.128322 0.159168,-0.264956 0.240135,-0.39659 0.226069,-0.367536 0.801957,-1.297294 1.009809,-1.583063 0.269781,-0.370912 0.570035,-0.718673 0.855053,-1.078009 0.313185,-0.39525 0.608041,-0.805744 0.939556,-1.18575 0.313291,-0.359116 0.670433,-0.677798 0.992575,-1.028995 3.850958,-4.198281 -1.590525,1.602658 2.106122,-2.311978 0.394405,-0.417664 0.759373,-0.864892 1.180835,-1.255236 0.290934,-0.269454 0.632674,-0.47824 0.949011,-0.71736 1.958289,-0.419102 1.170198,-0.151461 -3.817106,-2.396161 -0.107901,-0.04857 -0.114138,0.207323 -0.173005,0.309968 -0.09323,0.162565 -0.188612,0.32389 -0.283271,0.485629 -0.51326,0.87698 -0.236446,0.342174 -0.747136,1.558648 -0.699626,1.400277 -1.596128,2.694883 -2.725101,3.785958 -0.591981,0.572108 -1.810949,1.508708 -2.421597,1.992533 -1.787662,1.264801 -1.716465,1.272912 -3.725836,2.429341 -1.405404,0.808836 -2.242418,1.248801 -3.698753,1.848439 -0.651617,0.2683 -1.380627,0.49032 -2.056094,0.706773 0.850501,0.566074 -1.304076,-0.0068 -1.009181,0.164047 1.380231,0.799616 2.862673,1.417623 4.223594,2.249677 0.08135,0.04974 -0.03355,0.215087 -0.117133,0.260975 -0.07404,0.04065 0.05936,-0.158556 0.07985,-0.240505 0.03102,-0.124064 0.04958,-0.250913 0.07437,-0.376369 0.02154,-0.120049 0.02537,-0.244667 0.06461,-0.360146 0.05956,-0.175248 0.138431,-0.344503 0.229603,-0.505584 0.622539,-1.099889 0.797188,-1.29741 1.612811,-2.298604 1.222267,-1.500358 0.859424,-1.069541 2.260904,-2.415592 0.420059,-0.34371 0.82909,-0.701357 1.260176,-1.03113 0.370693,-0.283574 1.623832,-1.125952 2.04487,-1.438178 1.548577,-1.148367 0.992097,-0.838281 2.688091,-2.010865 0.437548,-0.302514 0.891492,-0.580599 1.337238,-0.870898 0.346566,-0.178878 0.676432,-0.394706 1.039698,-0.536633 0.197578,-0.07719 0.414181,-0.124701 0.626042,-0.114168 0.09623,0.0048 0.325886,0.205518 0.24245,0.157345 -1.394325,-0.805028 -2.788716,-1.610037 -4.175436,-2.428096 -0.02068,-0.0122 0.127593,-0.143555 -0.04585,0.0279 -0.201147,0.384212 -0.01654,0.833005 -0.177008,1.22649 -0.05932,0.14546 -0.298162,0.425814 -0.366245,0.513048 -0.155622,0.174689 -0.308019,0.352305 -0.466867,0.524067 -0.198557,0.2147 -1.485302,1.560398 -1.5938,1.668603 -0.568042,0.566503 -1.12109,1.150113 -1.724078,1.679268 -0.641385,0.562852 -1.309278,1.097506 -2.004305,1.592597 -0.555623,0.395789 -1.160789,0.71696 -1.741183,1.07544 -0.751355,0.329075 -1.58454,0.899079 -2.460807,0.858529 -0.08285,-0.0038 -0.158939,-0.04809 -0.239992,-0.06568 -0.175348,-0.02244 -0.103072,-0.0067 -0.218884,-0.03671 -1.692161,-0.05283 -0.928235,-0.03504 4.239654,2.563146 0.111028,0.05582 0.134129,-0.20943 0.207507,-0.309723 0.307513,-0.420308 0.640983,-0.820592 0.985503,-1.210551 0.515355,-0.487253 1.009402,-0.998584 1.554077,-1.453981 0.152174,-0.12723 0.300598,-0.260606 0.466124,-0.369902 0.104469,-0.06898 0.225982,-0.1078 0.338973,-0.1617 0.241714,-0.136425 0.130874,-0.0566 0.33356,-0.238031 0,0 -4.191815,-2.618024 -4.191815,-2.618024 v 0 c -0.173746,0.136211 -0.09341,0.06442 -0.242219,0.214031 -0.871527,0.683801 0.359677,-0.29053 -0.763125,0.634911 -0.179368,0.147839 -0.369175,0.282799 -0.547105,0.432366 -0.386908,0.325232 -0.733107,0.695681 -1.074389,1.067127 -1.138299,1.290513 0.356985,-0.406844 -0.749586,0.855995 -1.253235,1.430216 -2.98949,3.096347 3.455783,3.54668 0.158699,-0.02953 0.288921,-0.02654 0.451035,-0.08364 0.783124,-0.275828 1.456692,-0.814903 2.128735,-1.27677 4.969395,-3.684332 -2.353345,1.764581 3.649674,-2.782445 0.677514,-0.513186 1.387152,-0.983892 2.053446,-1.511563 0.345364,-0.273512 0.650413,-0.594405 0.977887,-0.889101 0.257239,-0.231491 0.517482,-0.459623 0.776222,-0.689434 0.188395,-0.170259 0.37679,-0.340518 0.565185,-0.510778 0.210745,-0.233619 0.395144,-0.392298 0.5197,-0.682202 0.131887,-0.306971 0.123191,-0.68487 0.115695,-1.012059 1.234045,-1.687128 -1.157591,-1.457094 -3.976777,-3.090938 -0.08523,-0.04939 -0.192098,0.04849 -0.281569,0.08969 -0.184484,0.08496 -0.365017,0.179812 -0.537279,0.287417 -0.320952,0.200487 -0.62705,0.423827 -0.940576,0.63574 -1.468607,1.053628 -1.198407,0.879599 -2.801036,1.939999 -0.449255,0.297256 -0.914773,0.570282 -1.354848,0.880966 -0.305573,0.215728 -0.588221,0.462247 -0.879746,0.696612 -1.084361,0.871748 -1.173041,0.958821 -2.306373,1.914164 -0.409998,0.394772 -0.834633,0.774886 -1.229994,1.184315 -1.051586,1.089003 -1.117572,1.283779 -2.060278,2.39975 -0.407785,0.482733 -1.028596,1.057902 -1.321184,1.677544 -0.0508,0.107589 -0.04631,0.23341 -0.06946,0.350114 -0.08118,0.387251 -0.0071,0.161022 -0.152591,0.454842 -0.06886,0.139051 -0.330954,0.33403 -0.201526,0.419617 3.69459,2.44313 3.105247,2.923054 5.333981,2.009671 0.266671,-0.118479 0.538227,-0.226523 0.800014,-0.355436 0.351074,-0.172882 0.692864,-0.364036 1.037498,-0.549423 2.332116,-1.254503 0.931449,-0.508194 3.546995,-1.98272 0.722034,-0.40705 1.460505,-0.785371 2.172475,-1.209777 0.603807,-0.35993 1.181893,-0.761353 1.772839,-1.142029 0.475171,-0.345254 0.965772,-0.670214 1.425515,-1.035762 0.383046,-0.304565 0.742003,-0.638645 1.099991,-0.972306 0.625683,-0.583165 1.370538,-1.300866 1.875998,-2.010608 0.06388,-0.0897 1.026519,-1.813407 1.037061,-1.83221 0.365771,-0.640952 0.729089,-1.288049 1.159889,-1.889189 0.110439,-0.154107 0.495969,-0.329373 0.348988,-0.449133 -3.905596,-3.18229 -3.09075,-3.852602 -4.475132,-2.368041 -0.271702,0.279659 -0.539566,0.563098 -0.815106,0.838976 -0.412625,0.413132 -0.844067,0.807497 -1.249257,1.227924 -0.348534,0.361641 -0.67026,0.748242 -1.010952,1.11728 -1.036732,1.122988 -2.13432,2.193908 -3.066708,3.409286 -0.318708,0.353647 -0.647756,0.698244 -0.956125,1.060943 -0.238587,0.280623 -0.452988,0.580979 -0.683858,0.867984 -0.339867,0.422502 -0.696301,0.830329 -1.048499,1.242279 -1.654426,1.740413 1.217829,1.764554 3.9807,2.94668 0.130132,0.05568 0.193329,-0.206815 0.287923,-0.312109 0.225937,-0.251495 0.44872,-0.505807 0.673635,-0.758218 0.374259,-0.420012 0.749256,-0.839366 1.123884,-1.259049 0.37355,-0.457563 0.745396,-0.91652 1.120649,-1.372687 0.286732,-0.348558 0.598623,-0.677324 0.865287,-1.041464 0.149208,-0.20375 0.261761,-0.432381 0.378152,-0.656503 0.324439,-0.624743 0.603096,-1.282107 0.675295,-1.988428 0.05443,-0.930662 0.03222,-0.273835 0.02361,-1.148173 -9.09e-4,-0.09227 -0.01279,-0.47791 0.03518,-0.611134 0.03873,-0.107565 0.11909,-0.196734 0.159166,-0.303804 0.0479,-0.12798 0.06871,-0.264524 0.103063,-0.396786 -1.485919,-0.813793 -2.919553,-1.731347 -4.457756,-2.441377 -0.152989,-0.07062 -0.329126,0.08496 -0.478581,0.162777 -0.255946,0.133272 -0.490506,0.304402 -0.72942,0.466234 -0.407402,0.275961 -0.806007,0.564691 -1.209124,0.846873 -2.167075,1.516952 -1.148615,0.699812 -3.047106,2.423197 -0.520869,0.504794 -1.03584,1.015746 -1.562608,1.51438 -1.010916,0.956927 -1.46409,1.285215 -2.31317,2.226772 -0.353062,0.391517 -0.656873,0.824911 -0.994916,1.229468 -0.110429,0.132157 -0.226954,0.2591 -0.340431,0.38865 -1.836672,1.604509 -0.428629,1.069567 3.628386,3.187888 0.102048,0.05328 0.18461,-0.137675 0.27937,-0.203047 0.234827,-0.161998 0.481774,-0.306835 0.709268,-0.478979 0.301381,-0.228054 0.583748,-0.480202 0.875622,-0.720303 0.341462,-0.305117 0.682485,-0.610727 1.024387,-0.915351 0.423956,-0.377731 0.873366,-0.728519 1.273185,-1.13171 0.356271,-0.359277 0.653826,-0.772497 0.990043,-1.150607 0.381312,-0.428825 0.784551,-0.837943 1.162293,-1.269916 0.365733,-0.418241 0.711695,-0.853368 1.067543,-1.280051 0.423904,-0.476946 0.847808,-0.953892 1.271712,-1.430838 0.8183,-0.929014 1.64541,-1.857313 2.397701,-2.841997 0.350386,-0.458625 0.178983,-0.311788 0.488816,-0.682234 0.0705,-0.08429 0.148557,-0.161974 0.222836,-0.242961 1.384381,-1.522448 0.519769,-0.366539 -3.741853,-3.230626 -0.0747,-0.0502 -0.180176,0.01643 -0.267015,0.04008 -0.173779,0.04733 -0.347262,0.09974 -0.512171,0.172155 -0.329504,0.144702 -0.658886,0.293784 -0.968095,0.477906 -0.495651,0.295142 -0.96123,0.638082 -1.441845,0.957123 -1.560096,1.093318 -2.51028,1.683609 -3.927362,2.995278 -0.621099,0.574898 -1.170834,1.222406 -1.760162,1.82983 -0.667043,0.687524 -1.33084,1.378342 -2.00892,2.054984 -2.987605,2.98127 -0.644316,0.499991 -3.030964,3.076653 -0.437379,0.468815 -0.8788,0.93389 -1.312137,1.406443 -0.314192,0.342625 -0.613027,0.699225 -0.930335,1.038966 -0.704618,0.75443 -0.427307,0.380417 -0.97899,1.006267 -0.102124,0.115854 -0.415427,0.261055 -0.294768,0.357455 1.298838,1.037699 2.779222,1.825138 4.168834,2.737707 0.19118,-0.168148 0.09049,-0.07195 0.297024,-0.293808 0.334192,-0.306654 0.958018,-0.80527 1.282332,-1.011225 0.977294,-0.620627 2.065071,-1.058992 2.97801,-1.787175 1.897645,-1.199314 2.410857,-1.488663 4.275285,-2.815209 0.699667,-0.497814 1.373829,-1.030686 2.069739,-1.533738 0.65804,-0.475675 1.329127,-0.933042 1.991811,-1.402225 0.452367,-0.320279 0.926136,-0.612985 1.353326,-0.966148 0.224834,-0.185873 0.395605,-0.428827 0.593408,-0.643241 0.225821,-0.287919 0.460791,-0.568892 0.677464,-0.863757 0.599044,-0.815228 0.902114,-1.303812 1.413487,-2.184036 0.205907,-0.354426 0.415227,-0.707625 0.597606,-1.074713 0.18184,-0.366004 0.280345,-0.769255 0.457343,-1.137568 0.0096,-0.0217 0.0084,-0.05282 0.02869,-0.0651 0.07676,-0.04647 0.799099,-0.269319 0.64529,-0.398858 -1.405291,-1.183545 -2.712457,-2.939035 -4.572244,-2.787543 -0.405898,0.03306 -0.80878,0.09624 -1.213171,0.144353 -0.554922,0.139682 -1.122424,0.236524 -1.664767,0.419047 -0.569216,0.191566 -1.114963,0.44821 -1.660238,0.699963 -0.746449,0.344634 -1.494471,0.689485 -2.213342,1.088462 -0.761679,0.422737 -1.498194,0.8908 -2.223148,1.373815 -1.932974,1.28788 -1.888249,1.346587 -3.531248,2.81727 -0.711013,0.835771 -1.437335,1.638924 -2.051587,2.551772 -0.17549,0.260797 -0.299308,0.55289 -0.452793,0.827214 -0.267947,0.478902 -0.542526,0.955372 -0.829962,1.422848 2.437643,1.494511 3.220391,3.874703 4.420736,2.432014 0.06949,-0.08353 0.104544,-0.154858 0.192183,-0.214497 0.08648,-0.120384 0.155786,-0.248757 0.243599,-0.369461 0.330632,-0.454474 0.726248,-0.852543 1.089062,-1.280697 0.544982,-0.654274 1.081743,-1.322952 1.660053,-1.948161 0.287609,-0.310934 0.594834,-0.603227 0.885544,-0.911263 0.433252,-0.459072 1.090796,-1.201125 1.515776,-1.676731 0.590511,-0.723455 0.719375,-0.808102 1.145714,-1.578974 0.1949,-0.352403 0.308214,-0.840944 0.531297,-1.165272 0.05898,-0.08575 0.137726,-0.156086 0.206589,-0.234129 -1.309634,-0.997093 -2.571338,-2.060498 -3.928904,-2.991279 -0.06812,-0.0467 -0.104807,0.128722 -0.167097,0.182959 -0.154864,0.134842 -0.321659,0.255337 -0.482658,0.382791 -0.354379,0.280543 -0.706773,0.563617 -1.063475,0.841198 -1.936831,1.507215 -1.004513,0.657343 -2.454703,2.105768 -1.14203,1.271344 -0.823018,0.896078 -1.941685,2.224227 -0.423681,0.503021 -0.857671,0.997716 -1.266418,1.512946 -0.385726,0.486212 -0.73924,0.997187 -1.116129,1.490281 -1.081613,1.415103 -0.907729,1.182432 -1.930953,2.381961 -0.201162,0.268412 -0.60094,0.811095 -0.838886,1.100107 -0.09142,0.111042 -0.186041,0.219621 -0.285153,0.323857 -0.08871,0.0933 -0.379374,0.189082 -0.277859,0.268261 3.858225,3.009334 2.82546,3.729902 4.255593,2.650045 0.208649,-0.143313 0.626261,-0.428166 0.784044,-0.549394 0.573027,-0.440271 1.521588,-1.251485 1.993599,-1.673188 0.473319,-0.422872 0.948065,-0.845007 1.399257,-1.291412 0.474923,-0.469882 0.91833,-0.970584 1.377495,-1.455876 0.478003,-0.496938 2.433425,-2.52463 2.963492,-3.094583 0.318572,-0.342544 0.643364,-0.680507 0.937821,-1.04399 0.227843,-0.281253 0.414146,-0.593802 0.626445,-0.886966 0.874872,-1.208108 0.364834,-0.400296 1.062182,-1.59368 0.388193,-0.723864 0.547384,-0.973739 0.848855,-1.690522 0.60798,-1.445543 -0.06369,0.07904 0.319795,-0.904275 0.03367,-0.08635 0.25582,-0.486733 0.269884,-0.512622 0.103192,-1.989604 0.122502,-0.57441 -4.466351,-2.760045 -0.151899,-0.07235 -0.340861,0.02079 -0.498381,0.07991 -0.217634,0.08168 -0.420925,0.202396 -0.610868,0.336404 -0.908463,0.640936 -1.974613,1.687439 -2.733636,2.382074 -0.765367,0.685215 -1.528704,1.372706 -2.296102,2.055647 -0.738292,0.657036 -1.504171,1.283822 -2.220946,1.964266 -0.375863,0.356811 -0.702165,0.762439 -1.053082,1.14381 -0.333054,0.361959 -0.680532,0.711182 -0.998831,1.086182 -0.451326,0.531724 -0.812503,1.136154 -1.292696,1.645225 -0.147306,0.179159 -0.301811,0.352633 -0.441917,0.537478 -0.07551,0.09962 -0.303894,0.23954 -0.203995,0.314688 5.116821,3.849069 3.063373,3.892199 4.374265,2.514458 0.311693,-0.327589 0.641815,-0.637397 0.943824,-0.974372 0.340996,-0.369603 0.675137,-0.745539 1.019024,-1.112453 0.706448,-0.753755 1.470764,-1.462916 2.050224,-2.325357 0.150444,-0.235019 0.305217,-0.467323 0.451334,-0.705057 0.555458,-0.903733 0.584898,-1.047536 1.236992,-2.001949 0.680285,-0.995674 1.442804,-1.933442 2.182154,-2.884813 0.114687,-0.184369 0.445791,-0.69561 0.533522,-0.913598 0.02911,-0.07234 0.02139,-0.154484 0.03208,-0.231726 -0.0184,-0.0078 -0.04831,-0.0046 -0.0552,-0.02341 -0.03305,-0.09008 0.556173,-0.07837 0.206294,-0.200735 0.07171,-0.113392 0.321222,-0.258072 0.215117,-0.340176 -0.224206,-0.173491 -2.975546,-3.124902 -4.603814,-2.706248 -0.777382,0.199878 -1.539298,0.563755 -2.24092,0.931466 -0.547479,0.286926 -1.073926,0.612308 -1.610889,0.918463 -0.3078,0.2202 -2.48469,1.774961 -2.770484,1.989966 -1.048378,0.788705 -1.495697,1.179307 -2.475352,2.064451 -1.472468,1.330413 -1.271276,1.160142 -2.572908,2.465468 -0.319103,0.306783 -0.627951,0.624602 -0.957307,0.92035 -0.271748,0.244019 -0.568066,0.459393 -0.844737,0.697814 -0.191222,0.164784 -0.368376,0.345374 -0.558501,0.511421 -0.189907,0.165856 -0.386587,0.323801 -0.581279,0.484013 -0.175301,0.144255 -0.685934,0.265627 -0.52868,0.42937 1.10385,1.149404 2.511696,1.962103 3.767544,2.943155 1.353541,-0.745566 -1.010309,0.542204 1.340508,-0.650759 0.313738,-0.159212 0.618014,-0.33671 0.92102,-0.515506 1.421701,-0.838908 0.723679,-0.443239 2.170057,-1.521966 0.535038,-0.399039 1.081157,-0.783001 1.621735,-1.174501 1.140212,-0.869793 2.053758,-1.512716 3.084716,-2.492501 0.740222,-0.703482 1.131848,-1.283293 1.812517,-2.033152 0.262329,-0.288996 0.531732,-0.572265 0.815686,-0.840043 0.268353,-0.253066 0.559692,-0.480591 0.839538,-0.720887 1.227342,-1.048379 0.493933,-0.447635 1.918969,-1.544077 0.813604,-0.625997 1.350051,-1.00487 2.074313,-1.698881 0.186446,-0.178659 0.368301,-0.364737 0.522969,-0.57152 0.10205,-0.136436 0.160983,-0.300335 0.241474,-0.450502 0.05785,-0.105891 0.373106,-0.703718 0.482045,-0.834609 0.0691,-0.08302 0.177373,-0.126675 0.24852,-0.207948 0.15346,-0.175299 0.608488,-0.418439 0.42156,-0.557498 -3.568343,-2.654546 -2.85653,-2.65895 -4.951002,-2.282322 -0.49513,0.103748 -2.277785,0.469039 -2.658059,0.588386 -0.2686,0.0843 -0.51173,0.235178 -0.762657,0.362803 -0.659213,0.335284 -1.270447,0.619332 -1.795144,1.156814 -0.198624,0.203464 -0.327856,0.464657 -0.491784,0.696986 -0.144926,0.255067 -0.316858,0.49658 -0.434778,0.765201 -0.137673,0.313616 -0.211285,0.853928 -0.286979,1.189798 -0.02802,0.124324 -0.05067,0.251269 -0.09831,0.369471 -0.07841,0.194526 -0.227776,0.282911 -0.382137,0.415742 1.332413,0.958078 2.639079,1.953016 3.997238,2.874234 0.05582,0.03786 0.133263,-0.0222 0.200544,-0.02695 0.205178,-0.01448 0.411067,-0.01704 0.616301,-0.03071 0.33619,-0.0224 0.673311,-0.03724 1.007832,-0.07751 1.200343,-0.144521 1.329867,-0.227002 2.570879,-0.549717 0.497037,-0.143449 1.004143,-0.255744 1.49111,-0.430346 0.3563,-0.127752 0.690163,-0.311197 1.031761,-0.474233 0.760715,-0.363071 1.495772,-0.801615 2.315622,-1.023816 -1.330356,-0.944953 -2.631642,-1.932227 -3.991066,-2.83486 -0.05699,-0.03784 -0.130821,0.04145 -0.198206,0.05326 -0.151578,0.02657 -0.304453,0.04586 -0.457526,0.06166 -0.433809,0.04479 -0.876771,0.04001 -1.298163,0.168275 -0.683067,0.264433 -0.20695,0.07293 -1.042079,0.435761 -0.915744,0.397855 -1.84459,0.766521 -2.736757,1.216909 -0.319425,0.142589 -0.642296,0.277696 -0.958276,0.427766 -0.29268,0.139005 -0.849664,0.397105 -1.101596,0.665856 -0.25997,0.277327 -0.199828,0.520966 -0.295149,0.84676 -0.05755,0.2019 -0.185285,0.511052 0.06391,0.656509 0.282871,0.165116 3.118974,2.578353 4.891279,2.560453 0.216465,-0.0022 0.431868,-0.03061 0.647802,-0.04592 0.89426,-0.127246 2.21513,-0.300554 3.03962,-0.497047 0.60136,-0.143317 1.188853,-0.340568 1.776619,-0.532153 0.6713,-0.218813 1.340114,-0.446593 1.999621,-0.698729 0.908448,-0.347309 2.037394,-0.862296 2.953772,-1.271537 0.250883,-0.130477 0.501788,-0.260914 0.75265,-0.391432 0.143451,-0.07463 0.554052,-0.119951 0.430291,-0.224028 -1.253004,-1.05373 -2.652193,-1.923485 -4.031919,-2.804804 -0.0757,-0.04835 -0.174075,0.04484 -0.262277,0.06183 -0.585479,0.112733 -0.938001,0.152991 -1.564898,0.242318 -3.000918,0.182209 -6.006838,0.394261 -8.970671,0.921589 -0.833905,0.190538 -1.044787,0.155887 -1.708151,0.544278 -0.109314,0.064 -0.197143,0.159142 -0.294142,0.240611 -0.08981,0.07543 -0.175135,0.156185 -0.266241,0.23005 -0.08337,0.0676 -0.340247,0.126463 -0.256911,0.194102 1.271363,1.031896 2.668909,1.897794 4.003364,2.846691 0.254139,-0.198662 0.05356,-0.05861 0.59374,-0.283855 0.259822,-0.10834 0.515952,-0.225609 0.777605,-0.329447 0.429276,-0.170361 0.858734,-0.341023 1.294851,-0.493017 1.264637,-0.440749 2.55442,-0.807076 3.814023,-1.263058 0.173735,-0.05115 3.756413,-1.102863 4.008041,-1.188942 0.48082,-0.164482 0.947899,-0.367253 1.415073,-0.56723 0.766544,-0.328125 1.72376,-0.748878 2.432743,-1.228418 0.185609,-0.125542 0.335018,-0.297672 0.502526,-0.446509 0.05759,-0.06243 1.049797,-1.156701 0.990596,-1.204309 -3.315635,-2.666395 -3.087788,-2.597156 -5.780748,-2.724691 -1.747721,0.01 -2.716257,-0.03056 -4.535019,0.211677 -0.873535,0.116343 -1.7331,0.320791 -2.59768,0.491379 -2.108698,0.416064 -4.26086,0.789607 -6.26055,1.608645 -0.653406,0.228702 -1.363608,0.427995 -1.966757,0.790531 -0.498942,0.299901 -0.968389,0.770409 -1.38068,1.16512 -0.270975,0.259419 -0.560298,0.502237 -0.804263,0.787205 -0.148551,0.173519 -0.243848,0.38632 -0.365771,0.579479 0.02314,0.02623 0.08685,0.04835 0.06943,0.07868 -0.100313,0.174686 -0.63739,0.02235 -0.541421,0.11076 1.146489,1.056136 2.414655,1.972026 3.621983,2.958039 0.0204,-0.02934 0.02564,-0.08458 0.06121,-0.08801 0.328339,-0.03168 0.659667,-0.0089 0.989501,-0.01336 2.966946,0.01332 1.42155,-0.01479 4.956159,0.113304 1.118325,0.04053 2.235886,0.115135 3.354917,0.123202 1.030765,0.0074 2.062813,-0.0097 3.091423,-0.07673 2.618293,-0.170612 3.490906,-0.391287 6.031382,-0.835419 1.17056,-0.351691 2.345581,-0.688882 3.511528,-1.055574 0.203545,-0.06402 0.759158,-0.06409 0.604365,-0.210944 -3.366168,-3.193597 -2.561092,-2.954491 -5.113043,-2.831045 -0.405742,0.04354 -0.814269,0.06623 -1.217227,0.130623 -0.983633,0.157196 -2.027508,0.467525 -2.979148,0.718188 -0.252462,0.0665 -4.002481,1.048376 -4.240661,1.115505 -0.507545,0.143046 -1.008126,0.309744 -1.512189,0.464616 -0.759708,0.307933 -1.407569,0.541401 -2.121524,0.931058 -0.295551,0.161303 -0.58098,0.341375 -0.859988,0.529853 -0.352085,0.237844 -0.835135,0.569092 -1.088015,0.948728 -0.05848,0.08779 -0.06706,0.200022 -0.100589,0.300033 0.0051,0.15784 0.01454,0.795544 0.185611,0.877044 5.401086,2.573202 5.908268,0.957574 4.33122,2.313036 -0.300176,-0.03649 -0.571346,-0.05945 0.648732,-0.133613 0.755452,-0.04592 1.512808,-0.06339 2.269653,-0.06334 5.866992,3.49e-4 1.361605,0.0987 7.38077,0.234647 0.669289,0.01512 1.338648,-0.02694 2.007971,-0.04041 1.049446,-0.129732 1.706812,-0.17927 2.718896,-0.417567 0.286167,-0.06738 0.561531,-0.174489 0.843798,-0.256691 0.232381,-0.06767 0.462901,-0.144328 0.700012,-0.192895 0.225363,-0.04616 0.84915,0.06968 0.684151,-0.09062 -1.123634,-1.091605 -2.48394,-1.909625 -3.725909,-2.864438 -0.755561,0.213141 -0.500128,0.170542 -1.755626,0.195478 -0.661063,0.01313 -1.322324,-0.01302 -1.983488,-0.01931 -1.632163,-0.01552 -3.266103,-0.02381 -4.893255,0.133966 -0.502097,0.0543 -1.398346,0.112305 -1.975966,0.265157 -0.097,0.02567 -0.355268,0.05203 -0.277833,0.115845 1.273904,1.049773 2.656941,1.959613 3.985411,2.93942 0.167501,-0.110666 0.08147,-0.09351 0.250466,-0.08084 1.684838,0.569417 -1.28344,-0.424183 -4.019276,-2.401005 -0.120773,-0.08727 0.184905,-0.234532 0.263177,-0.361319 0.0109,-0.01766 -0.01956,-0.0728 -0.0017,-0.06224 4.233429,2.50136 5.358539,1.514445 3.832348,2.679242 0.05967,-0.05718 0.103699,-0.137531 0.179022,-0.171554 0.679478,-0.306919 1.442894,-0.400522 2.17294,-0.472297 0.556604,-0.05472 1.117317,-0.05435 1.67535,-0.09179 1.672345,-0.112192 2.114336,-0.173576 3.833773,-0.349499 0.505018,-0.07736 1.017599,-0.11561 1.515053,-0.23209 0.158341,-0.03708 0.833964,-0.408136 0.974656,-0.512394 0.157231,-0.116514 0.585235,-0.266371 0.436087,-0.393067 -3.311093,-2.812652 -2.54585,-2.751697 -4.454426,-2.766279 -1.709003,0.101242 -3.411391,0.282565 -5.12405,0.332904 -0.702773,0.02066 -1.406215,0.0035 -2.109159,0.01712 -0.542066,0.01051 -1.083709,0.03688 -1.625564,0.05531 -0.869976,0.03338 -1.807131,-0.02544 -2.607932,0.388993 -0.161642,0.08365 -0.271274,0.237016 -0.431257,0.322338 1.3207,0.955692 2.611861,1.953593 3.962099,2.867076 0.06875,0.04651 0.165359,-0.01569 0.248309,-0.01859 0.199531,-0.007 0.399313,-0.0045 0.598858,-0.01103 0.721483,-0.02372 1.437036,-0.08591 2.14899,-0.209409 0.498381,-0.04319 0.998606,-0.06653 1.495808,-0.121662 2.042944,-0.226548 4.054713,-0.735829 5.948451,-1.537257 0.09546,-0.04129 1.684874,-0.736307 2.021643,-0.860661 0.161834,-0.05976 0.621581,-0.03087 0.495688,-0.148821 -1.15417,-1.081366 -2.449379,-2.00757 -3.753047,-2.903066 -0.468743,-0.321982 -1.384041,2.328982 -1.67421,0.327954 -0.770852,0.106218 -1.541045,0.217331 -2.312555,0.318653 -0.78033,0.10248 -1.564387,0.177085 -2.342873,0.29274 -1.040078,0.154518 -1.666227,0.317703 -2.664094,0.56669 -0.288698,0.07204 -0.578978,0.138701 -0.864398,0.222794 -0.162789,0.04796 -0.319227,0.115308 -0.478841,0.172962 -1.961815,0.758586 -0.692466,0.12193 3.49789,3.055895 0.03684,0.02579 0.0882,-0.02061 0.133159,-0.02168 0.164052,-0.0039 0.328228,0.0018 0.492249,0.0068 0.25642,0.0079 0.512473,0.0267 0.768961,0.03188 0.293145,0.0059 0.586409,9.39e-4 0.879614,0.0014 0.469099,-0.04048 2.553326,-0.219729 2.749836,-0.240128 3.375026,-0.350356 0.483767,-0.122076 4.302026,-0.478547 0.680231,-0.06351 1.36341,-0.09324 2.043243,-0.160877 0.507858,-0.05053 1.012545,-0.129005 1.518818,-0.193507 0.376477,-0.08303 0.759117,-0.14187 1.129431,-0.249091 0.878534,-0.254369 1.824378,-0.686834 2.587399,-1.197397 0.114626,-0.0767 0.209917,-0.179244 0.320345,-0.261874 0.09135,-0.06835 0.18954,-0.12705 0.28431,-0.190574 0.121942,-0.04898 0.238748,-0.11347 0.365827,-0.146931 0.144299,-0.038 0.552941,0.03465 0.442764,-0.06598 -1.165745,-1.064746 -2.462716,-1.976969 -3.722048,-2.929191 -0.02565,-0.0194 -0.04737,0.0522 -0.07942,0.05477 -0.546761,0.04383 -2.08665,-0.02612 -2.366375,-0.03434 -0.692294,-0.008 -1.384754,-0.04128 -2.076882,-0.0241 -1.892841,0.04699 -3.155831,0.218212 -5.076828,0.447251 -3.862697,0.460548 -7.711463,1.037863 -11.588866,1.371133 -13.075185,1.359469 3.113651,-0.319197 -7.65401,0.785183 -0.613643,0.06294 -1.228812,0.113556 -1.84032,0.194653 -0.243123,0.03224 -1.283689,0.204656 -1.570066,0.388575 -0.149417,0.09596 -0.223091,0.276343 -0.334636,0.414515 0.03702,0.0208 0.07315,0.04329 0.111068,0.06241 0.03573,0.01802 0.105672,0.0091 0.109659,0.0489 0.0048,0.04814 -0.04814,0.09448 -0.09366,0.110858 -0.15418,0.05546 -0.320244,0.07039 -0.482044,0.09625 -2.218707,0.35453 -1.37162,-0.377034 3.146939,2.876329 2.013951,-0.246602 -0.03981,-0.02273 3.450316,-0.200882 3.750602,-0.191444 7.514958,-0.526163 11.208062,-1.228779 1.12345,-0.213737 2.22597,-0.525688 3.338955,-0.788532 0.78447,-0.297001 1.595949,-0.530649 2.353411,-0.891001 1.008188,-0.479631 2.125286,-1.326284 3.041718,-1.988541 0.238311,-0.172215 0.466667,-0.358733 0.712713,-0.519704 0.03778,-0.02472 0.08636,-0.03428 0.131476,-0.03259 0.04547,0.0017 0.0865,0.02824 0.129748,0.04237 -1.287707,-0.989579 -2.555052,-2.006233 -3.86312,-2.968737 -0.03073,-0.02262 -0.06542,0.04237 -0.102679,0.05062 -0.129709,0.02874 -0.262332,0.04252 -0.394105,0.05944 -0.937101,0.120262 -1.885358,0.154242 -2.808861,0.367743 -0.419298,0.07934 -0.839629,0.153249 -1.258426,0.235191 -0.36041,0.07052 -0.626078,0.101885 -0.946648,0.298759 -0.317038,0.194705 -0.35922,0.333442 -0.548054,0.631242 -0.04261,0.125141 -0.101174,0.245942 -0.127838,0.375422 -0.03141,0.152548 -0.01214,0.303241 0.03984,0.446492 0.06991,0.192685 0.112181,0.178814 0.254102,-0.107745 0.0149,-0.03008 -0.06435,0.01913 -0.09653,0.0287 1.307198,0.983306 2.596027,1.991517 3.921592,2.949917 0.02527,0.01827 0.0337,-0.06026 0.06379,-0.06844 0.123263,-0.0335 0.252704,-0.03789 0.379648,-0.05208 0.92325,-0.103202 1.85099,-0.154421 2.775959,-0.238699 0.296058,-0.06414 0.597217,-0.108102 0.888174,-0.192411 0.777631,-0.225328 1.075906,-0.368108 1.74283,-0.787755 0.201654,-0.126887 0.401037,-0.259792 0.582656,-0.413996 0.16032,-0.136121 0.352244,-0.412879 0.481732,-0.588537 1.127405,-1.53148 0.37316,-0.350494 -3.835444,-3.068402 -0.08897,-0.05745 -0.206581,0.05058 -0.312123,0.05934 -1.192481,0.09895 -2.392411,0.02563 -3.585204,-0.0159 -3.295031,0.01353 2.07793,4.75e-4 -2.439534,-0.03033 -0.953218,-0.0065 -1.834743,0.01629 -2.785342,0.08892 -0.398507,0.03045 -0.797364,0.06423 -1.19266,0.123187 -0.160678,0.02397 -0.314051,0.0833 -0.471076,0.124954 -1.828963,0.757208 -0.505575,0.09775 3.629099,2.94447 0.01659,0.01142 0.0168,-0.03863 0.03295,-0.05067 0.08964,-0.06684 0.185314,-0.125332 0.280899,-0.183347 0.177058,-0.107465 0.357464,-0.20932 0.536795,-0.312948 0.223179,-0.128965 0.447151,-0.256552 0.670727,-0.384828 0.256041,-0.125429 0.50917,-0.256986 0.768124,-0.376287 0.396952,-0.182878 1.428908,-0.608336 1.78822,-0.761785 0.583936,-0.249376 1.331745,-0.546341 1.868023,-0.904965 0.202473,-0.1354 0.367856,-0.319369 0.551784,-0.479053 0.129131,-0.14767 0.268425,-0.287036 0.387393,-0.44301 0.07445,-0.09761 0.128525,-0.209217 0.190788,-0.315019 0.03158,-0.05366 0.04606,-0.119877 0.09069,-0.163286 0.05479,-0.05329 0.405658,-0.08765 0.395378,-0.09594 -1.263743,-1.019408 -2.612857,-1.928194 -3.919286,-2.892292 -0.750841,0.05851 0.123631,-0.0022 -1.342711,0.03063 -0.607482,0.01362 -1.215012,0.02937 -1.821997,0.05746 -0.895938,0.04146 -1.792257,0.08144 -2.68644,0.151152 -1.375976,0.107271 -5.879014,0.588447 -7.038414,0.709618 -0.784481,0.205885 -1.580728,0.371256 -2.353441,0.617656 -1.310939,0.418027 -1.679881,0.626243 -2.728701,1.324845 -0.376863,0.251022 -1.267594,0.88345 -1.619009,1.243961 -0.133327,0.136778 -0.220576,0.311903 -0.330864,0.467854 -0.24941,0.494385 -0.221928,0.404006 -0.407319,0.905637 -0.05228,0.141453 -0.269925,0.338762 -0.148006,0.427519 3.687746,2.684679 2.772678,2.589214 4.942577,2.594177 0.968463,0.0021 1.933658,-0.04766 2.902052,-0.06603 0.875658,-0.01661 1.751796,-0.0068 2.627252,-0.03189 2.486995,-0.07129 2.64768,-0.118229 5.03912,-0.325307 0.586605,-0.126979 1.181483,-0.220433 1.759815,-0.380937 1.238389,-0.34369 2.540799,-0.92978 3.585354,-1.687225 0.147705,-0.107106 0.260401,-0.25673 0.403904,-0.369404 0.129851,-0.101955 0.275731,-0.181649 0.413597,-0.272473 1.825249,-0.924206 0.702074,-0.20651 -3.490986,-3.11979 -0.06942,-0.04823 -0.165686,0.03479 -0.249663,0.04444 -0.707868,0.08134 -1.418483,0.13667 -2.127772,0.204512 -0.501217,0.04794 -1.002457,0.09564 -1.503685,0.143465 -0.473484,0.09478 -0.94883,0.180703 -1.420452,0.284353 -1.322208,0.290587 -2.634218,0.626104 -3.955237,0.922049 -0.707792,0.158564 -1.423131,0.284236 -2.126718,0.460524 -0.952436,0.238639 -1.204253,0.374175 -2.040698,0.722711 -0.275429,0.152304 -0.552345,0.301948 -0.826286,0.456912 -0.827413,0.468054 -0.987446,0.597371 -1.793736,0.983088 -0.166057,0.07944 -0.340217,0.140794 -0.508464,0.215482 -0.17152,0.07614 -0.655307,0.117345 -0.510694,0.236942 1.259,1.041208 2.720294,1.810189 4.08044,2.715283 0.734689,-0.28895 0.465695,-0.202203 1.634571,-0.479628 2.073755,-0.492191 1.49434,-0.318824 3.640693,-0.737052 0.717816,-0.13987 2.28574,-0.480152 3.007574,-0.635193 0.931194,-0.23424 2.380942,-0.565778 3.298012,-0.91891 0.394192,-0.15179 0.761254,-0.366426 1.138775,-0.555912 1.021614,-0.512769 2.04792,-1.031071 2.94467,-1.749827 0.219612,-0.178422 0.452909,-0.341209 0.658836,-0.535266 0.187516,-0.176708 0.308041,-0.443537 0.431304,-0.66588 0.05457,-0.09843 0.130578,-0.186627 0.168511,-0.292591 0.02252,-0.0629 0.0053,-0.133512 0.0079,-0.200268 -1.460057,-0.849597 -2.901072,-1.732797 -4.380172,-2.548792 -0.145752,-0.08041 -0.901192,-0.115704 -0.964641,-0.117752 -0.27649,-0.0089 -0.553524,-0.01464 -0.829898,-0.0027 -0.771402,0.03346 -1.533177,0.21436 -2.310625,0.163199 -0.663666,0.02395 -1.327133,0.05424 -1.990997,0.07186 -0.677515,0.01799 -1.355932,0.0036 -2.032959,0.03499 -0.557052,0.02581 -1.112556,0.08033 -1.667376,0.13643 -1.366775,0.138209 -2.73107,0.342753 -4.063119,0.683423 -0.278379,0.05485 -0.55219,0.143467 -0.835137,0.164556 -0.133301,0.0099 -0.499686,-0.155182 -0.394326,-0.07292 1.252851,0.978196 2.598321,1.832397 3.86969,2.786402 0.02504,0.01879 -0.09003,0.06478 -0.05969,0.07253 0.266698,0.06811 0.564384,-0.122124 0.824791,-0.04017 0.562634,-0.0786 0.842095,-0.101756 1.412941,-0.256482 0.347471,-0.09418 0.686789,-0.216218 1.030772,-0.322433 4.114279,-1.270409 -1.131906,0.353877 3.10859,-0.938275 0.390955,-0.11913 0.779837,-0.244963 1.169756,-0.367445 0.383985,-0.09463 0.76875,-0.186145 1.151957,-0.283877 0.284954,-0.07267 0.565854,-0.161359 0.852437,-0.227317 1.106794,-0.254731 2.240874,-0.370565 3.374508,-0.262232 0.219617,-0.0099 0.665487,-0.0092 0.866788,-0.107813 0.16895,-0.08278 0.589041,-0.230063 0.443432,-0.349207 -1.094832,-0.895832 -2.778404,-3.160633 -4.527479,-2.632649 -0.259498,0.07833 -0.511727,0.178989 -0.76759,0.268483 -0.442272,0.20509 -0.899618,0.380391 -1.326816,0.615268 -1.526048,0.839034 -2.899012,1.942113 -4.495718,2.661529 -1.038479,0.557066 -2.11191,1.046525 -3.160716,1.583897 -0.770088,0.394567 -2.555893,1.365777 -3.374582,1.808798 -0.292294,0.184387 -0.584587,0.368774 -0.876881,0.553161 -0.273032,0.17967 -0.543145,0.363856 -0.819096,0.53901 -0.217002,0.137737 -0.441234,0.26379 -0.659508,0.399502 -0.12791,0.07953 -0.500705,0.157513 -0.378925,0.246141 4.103685,2.986563 3.902681,4.065597 4.154851,2.353741 -0.07388,0.11075 -0.142975,0.224839 -0.221627,0.332249 -0.01184,0.01617 -0.06692,0.04301 -0.0481,0.0361 0.496074,-0.182164 -0.115133,-0.06637 0.781771,-0.263549 0.110866,-0.02437 2.280969,-0.411326 2.316997,-0.41777 0.4501,-0.07161 0.902311,-0.131029 1.350301,-0.214838 1.50928,-0.282354 0.820244,-0.260081 2.523674,-0.507923 2.572923,-0.374351 5.180327,-0.449653 7.733159,-0.970342 2.64551,-0.52956 1.769675,-0.261658 4.024797,-1.015304 1.471941,-0.491912 3.013121,-0.962769 4.341447,-1.791936 0.109228,-0.06818 0.195856,-0.167209 0.293784,-0.250814 0.03484,-0.03542 0.127899,-0.143185 0.191689,-0.177522 0.04225,-0.02274 0.169089,-0.02747 0.131858,-0.05774 -6.008971,-4.885342 -2.089125,-2.938721 -4.065234,-2.906293 -0.283322,0.0046 -0.56672,-8.15e-4 -0.850081,-0.0012 -5.199462,0.08856 3.128608,-0.04462 -2.968478,0.01902 -0.510543,0.0053 -1.02071,0.03372 -1.531272,0.03679 -0.664035,0.004 -1.328034,-0.01573 -1.992081,-0.01559 -0.600818,1.26e-4 -3.131505,0.03318 -3.679478,0.03992 -0.749188,-0.01291 -1.498264,-0.03866 -2.247563,-0.03872 -5.092851,-4.4e-4 2.18844,0.111485 -4.034111,0.03472 -2.145121,-0.02647 -2.210399,-0.07273 -4.165983,-0.08024 -0.443271,-0.0017 -0.886497,0.0096 -1.329745,0.01441 -0.42811,-0.0071 -0.856281,-0.01115 -1.284331,-0.02121 -0.258047,-0.0061 -0.517545,0.0031 -0.773877,-0.02716 -0.193314,-0.02286 -0.732206,-0.237635 -0.568958,-0.131605 8.462088,5.496099 5.255044,1.887407 3.731014,2.414313 -0.11164,-0.01914 -0.06989,0.0013 0.09644,-0.157412 0.238594,-0.227607 0.491362,-0.435854 0.723335,-0.670678 0.07056,-0.07143 0.141447,-0.142521 0.21217,-0.213782 0.129078,-0.105224 0.248211,-0.223988 0.387233,-0.315672 0.44736,-0.295031 1.112197,-0.599481 1.588216,-0.788237 1.543505,-0.612046 3.161854,-1.002603 4.752227,-1.467369 0.681169,-0.186611 1.360738,-0.379166 2.043508,-0.559834 0.65341,-0.172899 1.316126,-0.311172 1.96487,-0.500825 0.474155,-0.138614 0.930559,-0.332518 1.401031,-0.483159 0.508587,-0.162846 1.026446,-0.295631 1.535476,-0.457088 1.204868,-0.382167 1.444679,-0.493389 2.595144,-0.936015 0.305672,-0.114832 0.61317,-0.224918 0.917018,-0.344497 0.169899,-0.06686 0.332159,-0.152768 0.503914,-0.21471 0.486192,-0.175338 0.981373,-0.252351 1.4962,-0.232237 1.801379,-0.679532 0.469078,-0.09253 -3.726994,-3.029511 -0.03239,-0.02267 -0.06047,0.05346 -0.0973,0.06784 -0.05721,0.02234 -0.119709,0.02753 -0.179769,0.04035 -0.109949,0.02347 -0.22012,0.04589 -0.330242,0.06853 -0.161925,0.03329 -0.323933,0.06618 -0.485899,0.09927 -0.240504,0.02142 -0.480305,0.05331 -0.721513,0.06427 -0.545354,0.02476 -0.803927,-0.04681 -1.336509,0.06758 -0.266966,0.05734 -0.524911,0.151281 -0.783808,0.238066 -0.374422,0.12551 -0.743742,0.265758 -1.115613,0.398637 -0.494683,0.16131 -0.989366,0.322619 -1.484049,0.483929 -0.472565,0.154956 -0.946045,0.307149 -1.417695,0.464868 -0.367485,0.122885 -0.730985,0.257642 -1.099654,0.376927 -0.38717,0.12527 -0.779887,0.232867 -1.16754,0.356634 -0.40335,0.128778 -0.800673,0.276196 -1.205287,0.400944 -0.11893,0.03667 -2.076525,0.592061 -2.333184,0.664958 -0.154381,0.05752 -1.29696,0.485794 -1.474606,0.54211 -0.236165,0.07487 -0.476808,0.135115 -0.717238,0.194888 -0.174498,0.04338 -0.351583,0.0756 -0.527142,0.114472 -0.116828,0.02586 -0.439872,7.1e-4 -0.350008,0.07972 1.215865,1.068971 2.555445,1.988418 3.833167,2.982627 0.02202,-0.01551 0.04021,-0.03896 0.06606,-0.04652 0.15521,-0.04541 0.322521,-0.02467 0.483429,-0.04083 0.527296,-0.05294 1.053719,-0.127877 1.575531,-0.21952 1.875349,-0.363457 3.739376,-0.783875 5.609687,-1.172161 0.239883,-0.05338 0.480746,-0.102535 0.71965,-0.16014 0.210788,-0.05082 0.419458,-0.110063 0.629187,-0.165095 0.150304,-0.04491 0.298537,-0.09745 0.450912,-0.134736 0.183349,-0.04486 0.369964,-0.07515 0.555197,-0.111448 0.727803,-0.142641 0.435251,-0.100315 1.046828,-0.162495 0.05246,0.03572 0.211328,0.140572 0.157381,0.107145 -1.358741,-0.841931 -5.666859,-2.638391 -4.071909,-2.532742 1.68443,0.111575 2.878836,1.768881 4.373931,2.552747 0.06815,0.03573 0.09092,-0.124987 0.125637,-0.193659 0.909096,-1.798443 -1.454358,-1.231926 -4.215333,-2.793083 -0.633076,0.03413 -1.147926,0.159128 -1.775691,0.2959 -1.344905,0.293016 -2.684512,0.610575 -4.036686,0.868991 -0.71599,0.114118 -1.446021,0.21521 -2.132406,0.462909 -0.403338,0.145554 -0.747144,0.353075 -1.144397,0.514059 -0.216355,0.08768 -0.440077,0.155947 -0.660115,0.23392 -0.422886,0.10812 -0.591774,0.172637 -1.005486,0.20886 -0.09541,0.0084 -0.361521,-0.06068 -0.28732,-1.31e-4 1.262241,1.030095 2.59001,1.97736 3.898903,2.947486 0.02061,0.01527 0.09711,0.01521 0.07695,-6.57e-4 -1.262783,-0.994168 -2.545284,-1.963032 -3.817926,-2.944549 -0.345146,-1.689075 -0.0298,-0.04598 3.916784,2.83068 0.01305,0.0095 0.02917,-0.01493 0.04507,-0.01778 0.135838,-0.02436 0.271907,-0.04863 0.409091,-0.06365 0.268344,-0.0294 0.537827,-0.04729 0.806857,-0.06955 0.342393,-0.02834 0.684936,-0.05484 1.027404,-0.08226 1.232994,-0.110713 1.507779,-0.09593 2.711522,-0.358582 1.119598,-0.244296 1.346272,-0.408108 2.506762,-0.748864 1.089358,-0.31987 2.200032,-0.563917 3.286515,-0.89442 0.52547,-0.132709 1.049892,-0.269634 1.576408,-0.398127 0.848835,-0.207155 2.116847,-0.476971 2.94772,-0.728752 1.003136,-0.303983 1.954554,-0.743981 2.92673,-1.129162 0.888084,-0.36722 1.776156,-0.738426 2.634683,-1.170925 -1.292435,-0.987866 -2.54164,-2.035012 -3.877304,-2.963596 -0.06033,-0.04194 -0.08642,0.119255 -0.136121,0.17337 -0.04987,0.0543 -0.103817,0.105249 -0.161699,0.150916 -0.369121,0.291223 -0.766141,0.543598 -1.240276,0.614037 -0.195747,-0.01157 -0.435059,-0.04549 -0.628255,0.02147 -0.225415,0.07813 -0.514415,0.350534 -0.643923,0.514419 -0.153392,0.194107 -0.23065,0.447081 -0.406836,0.620762 -0.41804,0.412099 -0.906003,0.746654 -1.359005,1.119981 -0.847549,0.43584 -1.666422,0.932655 -2.542648,1.307521 -1.554246,0.664934 -3.778217,1.311824 -5.451029,1.684284 -0.895732,0.19944 -1.805241,0.331051 -2.706824,0.502102 -1.275956,0.242078 -1.756673,0.353099 -3.076438,0.634414 -0.896144,0.245375 -1.599871,0.39957 -2.443732,0.762544 -0.994884,0.427935 -1.806181,1.155069 -2.652655,1.809709 -0.07651,0.09192 -0.161964,0.177074 -0.229519,0.275759 -0.06368,0.09302 -0.253833,0.230816 -0.162341,0.296671 4.204554,3.026431 3.325634,3.965001 4.520256,2.3538 0.07047,-0.07014 0.14276,-0.138507 0.211416,-0.210428 0.122054,-0.127857 0.180324,-0.214019 0.307178,-0.321945 0.195912,-0.166679 0.446834,-0.246926 0.680079,-0.343596 0.569708,-0.207745 1.140676,-0.398444 1.7269,-0.555402 0.277225,-0.07423 0.55794,-0.135217 0.83438,-0.212315 0.410895,-0.114597 1.846636,-0.558954 2.199542,-0.667375 0.449937,-0.143221 0.902263,-0.279142 1.34981,-0.429665 2.01255,-0.676875 1.062922,-0.442662 3.387873,-1.104699 0.440344,-0.125389 1.917859,-0.524989 2.606618,-0.646616 0.184626,-0.0326 0.37242,-0.04362 0.55863,-0.06543 0.175956,-0.02097 0.353989,-0.02877 0.527869,-0.06292 0.641628,-0.126017 0.926351,-0.265307 1.567465,-0.522605 0.403794,-0.162054 0.813364,-0.311365 1.207704,-0.495234 0.412098,-0.192149 1.39003,-0.768886 1.789572,-0.999926 0,0 -3.986406,-2.577193 -3.986406,-2.577193 z" />
  <text
     xml:space="preserve"
     style="font-size:22.6987px;fill:#ffffff;stroke-width:1.89156"
     x="12.796486"
     y="32.899548"
     id="text6324"
     transform="scale(0.79451423,1.2586307)"><tspan
       sodipodi:role="line"
       id="tspan6322"
       x="12.796486"
       y="32.899548"
       style="font-style:normal;font-variant:normal;font-weight:normal;font-stretch:normal;font-family:'Liberation Mono';-inkscape-font-specification:'Liberation Mono';stroke-width:1.89156">SANS</tspan></text>
  <rect
     style="fill:#ffffff;fill-opacity:1;stroke-width:0.83704"
     id="rect905"
     width="29.349779"
     height="2.0782001"
     x="22.828644"
     y="34.028313" />
</svg>
