<?xml version="1.0" encoding="UTF-8" standalone="no"?>
<svg
   width="64"
   height="64"
   viewBox="0 0 64 64"
   version="1.1"
   id="svg4147"
   sodipodi:docname="sans.svg"
   inkscape:version="1.2 (dc2aedaf03, 2022-05-15)"
   xmlns:inkscape="http://www.inkscape.org/namespaces/inkscape"
   xmlns:sodipodi="http://sodipodi.sourceforge.net/DTD/sodipodi-0.dtd"
   xmlns="http://www.w3.org/2000/svg"
   xmlns:svg="http://www.w3.org/2000/svg">
  <defs
     id="defs4151" />
  <sodipodi:namedview
     id="namedview4149"
     pagecolor="#505050"
     bordercolor="#eeeeee"
     borderopacity="1"
     inkscape:showpageshadow="0"
     inkscape:pageopacity="0"
     inkscape:pagecheckerboard="0"
     inkscape:deskcolor="#505050"
     showgrid="false"
     inkscape:zoom="11.313709"
     inkscape:cx="41.896077"
     inkscape:cy="30.096232"
     inkscape:window-width="3440"
     inkscape:window-height="1376"
     inkscape:window-x="0"
     inkscape:window-y="32"
     inkscape:window-maximized="1"
     inkscape:current-layer="svg4147" />
  <g
     fill="none"
     fill-rule="evenodd"
     id="g4145">
    <circle
       cx="32"
       cy="33"
       r="30"
       fill="#5DAF38"
       id="circle4135" />
    <path
       fill="#F3F3F3"
       d="M33,17.5440027 C33,17.5440027 38.3000057,15 43.6000114,15 C48.9000171,15 54.2000227,17.5440027 54.2000227,17.5440027 L54.2000227,48.9200364 C54.2000227,48.9200364 48.9000171,46.3760337 43.6000114,46.3760337 C38.3000057,46.3760337 33,48.9200364 33,48.9200364 L33,17.5440027 Z"
       id="path4137" />
    <path
       fill="#C9C9C9"
       d="M12,17.5440027 C12,17.5440027 17.3000057,15 22.6000114,15 C27.9000171,15 33.0197269,17.5440027 33.0197269,17.5440027 L33.0197269,48.9200364 C33.0197269,48.9200364 27.9000171,46.3760337 22.6000114,46.3760337 C17.3000057,46.3760337 12,48.9200364 12,48.9200364 L12,17.5440027 Z"
       id="path4139" />
    <path
       fill="#E8E8E8"
       fill-rule="nonzero"
       d="M15.5127003 22.7351954C15.5868038 22.6909439 15.7503735 22.6020763 15.9955469 22.4831713 16.4162603 22.2791326 16.9033823 22.0737512 17.4489351 21.881424 21.214662 20.5538684 25.3087534 20.5610754 29.2945164 22.7846289L30.268895 21.0380362C25.7206513 18.5006892 21.0466333 18.4924614 16.7839739 19.9952038 15.7185812 20.3707934 14.9340692 20.7512683 14.4872997 21.0180601L15.5127003 22.7351954zM15.5127003 27.7351954C15.5868038 27.6909439 15.7503735 27.6020763 15.9955469 27.4831713 16.4162603 27.2791326 16.9033823 27.0737512 17.4489351 26.881424 21.214662 25.5538684 25.3087534 25.5610754 29.2945164 27.7846289L30.268895 26.0380362C25.7206513 23.5006892 21.0466333 23.4924614 16.7839739 24.9952038 15.7185812 25.3707934 14.9340692 25.7512683 14.4872997 26.0180601L15.5127003 27.7351954zM15.5127003 32.7351954C15.5868038 32.6909439 15.7503735 32.6020763 15.9955469 32.4831713 16.4162603 32.2791326 16.9033823 32.0737512 17.4489351 31.881424 21.214662 30.5538684 25.3087534 30.5610754 29.2945164 32.7846289L30.268895 31.0380362C25.7206513 28.5006892 21.0466333 28.4924614 16.7839739 29.9952038 15.7185812 30.3707934 14.9340692 30.7512683 14.4872997 31.0180601L15.5127003 32.7351954zM15.5127003 37.7351954C15.5868038 37.6909439 15.7503735 37.6020763 15.9955469 37.4831713 16.4162603 37.2791326 16.9033823 37.0737512 17.4489351 36.881424 21.214662 35.5538684 25.3087534 35.5610754 29.2945164 37.7846289L30.268895 36.0380362C25.7206513 33.5006892 21.0466333 33.4924614 16.7839739 34.9952038 15.7185812 35.3707934 14.9340692 35.7512683 14.4872997 36.0180601L15.5127003 37.7351954zM15.5127003 42.7351954C15.5868038 42.6909439 15.7503735 42.6020763 15.9955469 42.4831713 16.4162603 42.2791326 16.9033823 42.0737512 17.4489351 41.881424 21.214662 40.5538684 25.3087534 40.5610754 29.2945164 42.7846289L30.268895 41.0380362C25.7206513 38.5006892 21.0466333 38.4924614 16.7839739 39.9952038 15.7185812 40.3707934 14.9340692 40.7512683 14.4872997 41.0180601L15.5127003 42.7351954z"
       id="path4141" />
    <path
       fill="#D8D8D8"
       fill-rule="nonzero"
       d="M36.5127003 22.7351954C36.5868038 22.6909439 36.7503735 22.6020763 36.9955469 22.4831713 37.4162603 22.2791326 37.9033823 22.0737512 38.4489351 21.881424 42.214662 20.5538684 46.3087534 20.5610754 50.2945164 22.7846289L51.268895 21.0380362C46.7206513 18.5006892 42.0466333 18.4924614 37.7839739 19.9952038 36.7185812 20.3707934 35.9340692 20.7512683 35.4872997 21.0180601L36.5127003 22.7351954zM36.5127003 27.7351954C36.5868038 27.6909439 36.7503735 27.6020763 36.9955469 27.4831713 37.4162603 27.2791326 37.9033823 27.0737512 38.4489351 26.881424 42.214662 25.5538684 46.3087534 25.5610754 50.2945164 27.7846289L51.268895 26.0380362C46.7206513 23.5006892 42.0466333 23.4924614 37.7839739 24.9952038 36.7185812 25.3707934 35.9340692 25.7512683 35.4872997 26.0180601L36.5127003 27.7351954zM36.5127003 32.7351954C36.5868038 32.6909439 36.7503735 32.6020763 36.9955469 32.4831713 37.4162603 32.2791326 37.9033823 32.0737512 38.4489351 31.881424 42.214662 30.5538684 46.3087534 30.5610754 50.2945164 32.7846289L51.268895 31.0380362C46.7206513 28.5006892 42.0466333 28.4924614 37.7839739 29.9952038 36.7185812 30.3707934 35.9340692 30.7512683 35.4872997 31.0180601L36.5127003 32.7351954zM36.5127003 37.7351954C36.5868038 37.6909439 36.7503735 37.6020763 36.9955469 37.4831713 37.4162603 37.2791326 37.9033823 37.0737512 38.4489351 36.881424 42.214662 35.5538684 46.3087534 35.5610754 50.2945164 37.7846289L51.268895 36.0380362C46.7206513 33.5006892 42.0466333 33.4924614 37.7839739 34.9952038 36.7185812 35.3707934 35.9340692 35.7512683 35.4872997 36.0180601L36.5127003 37.7351954zM36.5127003 42.7351954C36.5868038 42.6909439 36.7503735 42.6020763 36.9955469 42.4831713 37.4162603 42.2791326 37.9033823 42.0737512 38.4489351 41.881424 42.214662 40.5538684 46.3087534 40.5610754 50.2945164 42.7846289L51.268895 41.0380362C46.7206513 38.5006892 42.0466333 38.4924614 37.7839739 39.9952038 36.7185812 40.3707934 35.9340692 40.7512683 35.4872997 41.0180601L36.5127003 42.7351954z"
       id="path4143" />
  </g>
  <path
     style="fill:none;stroke-width:0.0623174"
     d="M 30.348588,62.929064 C 19.642088,62.315478 10.099931,56.071004 5.2656204,46.514545 3.6365863,43.294272 2.6841011,40.112586 2.2077147,36.299903 2.0762386,35.247654 2.0190408,31.929214 2.1126547,30.78481 2.5863793,24.993656 4.5656247,19.683388 7.9437006,15.140254 14.452671,6.3864161 25.222358,1.8386726 35.978753,3.3018191 c 8.684815,1.1813583 16.359891,6.0283271 21.118761,13.3369349 2.162505,3.321146 3.672646,7.097805 4.373169,10.936709 0.543441,2.978091 0.632133,6.269054 0.249398,9.254138 -0.573754,4.474911 -2.182779,8.810439 -4.683338,12.619279 -1.919314,2.92349 -4.404522,5.553915 -7.213958,7.635487 -4.630638,3.43094 -10.088561,5.428224 -15.911481,5.822681 -0.872373,0.0591 -2.716817,0.07049 -3.562716,0.02202 z M 12.962025,48.545625 c 2.249265,-0.940608 4.965077,-1.676249 7.384616,-2.000296 1.11805,-0.149739 3.376688,-0.15068 4.486855,-0.0019 2.439736,0.327028 4.979411,1.033028 7.335318,2.039129 l 0.854307,0.364836 0.407663,-0.182906 c 0.224215,-0.100598 0.84932,-0.349271 1.389121,-0.552604 3.597465,-1.3551 7.202213,-1.988126 10.017485,-1.759158 3.008799,0.244707 5.973395,1.03428 9.300877,2.477142 0.0622,0.02697 0.0779,-3.136703 0.0779,-15.700971 V 17.494179 l -0.856865,-0.354991 c -2.212971,-0.916814 -4.709121,-1.6148 -7.02629,-1.964724 -1.137126,-0.171722 -3.18648,-0.232532 -4.33257,-0.128559 -2.608751,0.236666 -5.751839,1.062143 -8.439326,2.216441 l -0.537077,0.230679 -0.543177,-0.234374 C 29.765641,16.087064 26.787277,15.284104 24.3038,15.05413 c -1.632284,-0.151151 -3.63094,-0.0479 -5.401064,0.279035 -1.842593,0.340315 -4.171739,1.030713 -5.87839,1.742455 -0.462707,0.192967 -0.890361,0.366173 -0.950341,0.384902 -0.103484,0.03231 -0.109056,0.837835 -0.109056,15.768603 0,12.563759 0.0157,15.727876 0.0779,15.701432 0.04284,-0.01822 0.456475,-0.191434 0.919182,-0.384932 z"
     id="path5134" />
  <path
     style="fill:#000000;stroke-width:0.0623174;fill-opacity:1"
     d="M 30.348588,62.929064 C 19.642088,62.315478 10.099931,56.071004 5.2656204,46.514545 3.6365863,43.294272 2.6841011,40.112586 2.2077147,36.299903 2.0762386,35.247654 2.0190408,31.929214 2.1126547,30.78481 2.5863793,24.993656 4.5656247,19.683388 7.9437006,15.140254 14.452671,6.3864161 25.222358,1.8386726 35.978753,3.3018191 c 8.684815,1.1813583 16.359891,6.0283271 21.118761,13.3369349 2.162505,3.321146 3.672646,7.097805 4.373169,10.936709 0.543441,2.978091 0.632133,6.269054 0.249398,9.254138 -0.573754,4.474911 -2.182779,8.810439 -4.683338,12.619279 -1.919314,2.92349 -4.404522,5.553915 -7.213958,7.635487 -4.630638,3.43094 -10.088561,5.428224 -15.911481,5.822681 -0.872373,0.0591 -2.716817,0.07049 -3.562716,0.02202 z M 12.962025,48.545625 c 2.249265,-0.940608 4.965077,-1.676249 7.384616,-2.000296 1.11805,-0.149739 3.376688,-0.15068 4.486855,-0.0019 2.439736,0.327028 4.979411,1.033028 7.335318,2.039129 l 0.854307,0.364836 0.407663,-0.182906 c 0.224215,-0.100598 0.84932,-0.349271 1.389121,-0.552604 3.597465,-1.3551 7.202213,-1.988126 10.017485,-1.759158 3.008799,0.244707 5.973395,1.03428 9.300877,2.477142 0.0622,0.02697 0.0779,-3.136703 0.0779,-15.700971 V 17.494179 l -0.856865,-0.354991 c -2.212971,-0.916814 -4.709121,-1.6148 -7.02629,-1.964724 -1.137126,-0.171722 -3.18648,-0.232532 -4.33257,-0.128559 -2.608751,0.236666 -5.751839,1.062143 -8.439326,2.216441 l -0.537077,0.230679 -0.543177,-0.234374 C 29.765641,16.087064 26.787277,15.284104 24.3038,15.05413 c -1.632284,-0.151151 -3.63094,-0.0479 -5.401064,0.279035 -1.842593,0.340315 -4.171739,1.030713 -5.87839,1.742455 -0.462707,0.192967 -0.890361,0.366173 -0.950341,0.384902 -0.103484,0.03231 -0.109056,0.837835 -0.109056,15.768603 0,12.563759 0.0157,15.727876 0.0779,15.701432 0.04284,-0.01822 0.456475,-0.191434 0.919182,-0.384932 z"
     id="path5136" />
  <path
     style="fill:#000000;fill-opacity:1;stroke-width:0.00390625"
     d="M 53.797077,12.438132 C 53.521947,12.142233 53.062861,11.679627 52.704992,11.337673 50.262325,9.0036395 47.473974,7.1190239 44.394531,5.7207259 44.099577,5.5867943 43.829631,5.4694802 43.514477,5.3382675 43.362911,5.275164 43.251668,5.2303029 42.869141,5.0780224 l -0.04297,-0.017105 0.04803,-1.851e-4 0.04803,-1.85e-4 0.15119,0.060066 c 0.636222,0.2527628 1.252846,0.5225154 1.889704,0.8266825 0.253766,0.1212003 0.772528,0.3815574 0.984143,0.4939227 0.02148,0.011408 0.06982,0.037018 0.107421,0.056911 2.045869,1.0824842 3.999975,2.431987 5.751954,3.9722905 0.335461,0.294932 0.631633,0.567487 1.0039,0.923851 0.241653,0.231329 0.797611,0.794285 1.046657,1.059831 l 0.0229,0.02441 -0.02305,-3.44e-4 -0.02306,-3.44e-4 -0.03691,-0.03969 z"
     id="path5483" />
  <path
     style="fill:#000000;fill-opacity:1;stroke-width:0.00390625"
     d=""
     id="path5485" />
  <path
     style="fill:#000000;fill-opacity:1;stroke-width:0.00390625"
     d="M 53.758139,12.393525 C 53.451912,12.066385 52.88048,11.49731 52.5,11.140576 50.582115,9.3423844 48.453089,7.8154308 46.142578,6.5809828 45.729632,6.3603561 45.199946,6.0943969 44.777344,5.895488 44.225111,5.6355654 43.707349,5.4109014 43.104006,5.1694036 l -0.257322,-0.1029974 0.03402,-0.00309 c 0.04019,-0.00365 0.01375,-0.01274 0.306796,0.105463 0.792802,0.3197805 1.45655,0.6188454 2.214844,0.9979424 0.421515,0.21073 0.594502,0.3006648 0.949218,0.4934923 1.136614,0.6178754 2.258711,1.3288695 3.328125,2.1087998 1.259711,0.918714 2.471273,1.9563013 3.52933,3.0225343 0.257212,0.2592 0.594083,0.605546 0.648229,0.666461 l 0.01476,0.0166 -0.01901,-3.9e-5 -0.01901,-3.9e-5 -0.07585,-0.08103 z"
     id="path5487" />
  <path
     style="fill:#000000;fill-opacity:1;stroke-width:0.00390625"
     d=""
     id="path5491" />
  <path
     style="fill:#000000;fill-opacity:1;stroke-width:0.00390625"
     d="m 61.730469,29.28162 c 0,-0.0205 -0.06833,-0.529622 -0.09992,-0.744511 -0.323504,-2.200516 -0.909711,-4.379747 -1.751632,-6.511718 -0.03266,-0.08272 -0.06032,-0.152688 -0.06145,-0.155495 -0.0016,-0.0039 0.0028,-0.0048 0.01836,-0.0039 l 0.02042,0.0012 0.0447,0.113282 c 0.905237,2.294134 1.524038,4.685501 1.843032,7.122429 0.01191,0.09097 0.02165,0.168752 0.02165,0.172852 0,0.0062 -0.0029,0.0075 -0.01758,0.0075 -0.0097,0 -0.01758,-7.12e-4 -0.01758,-0.0016 z"
     id="path5493" />
  <path
     style="fill:#000000;fill-opacity:1;stroke-width:0.00390625"
     d=""
     id="path5495" />
  <path
     style="fill:#000000;fill-opacity:1;stroke-width:0.00390625"
     d="M 3.2641048,41.610352 C 3.2125819,41.441016 3.1131742,41.092806 3.0513873,40.865234 2.5079267,38.863575 2.1749356,36.824301 2.052836,34.75 2.0474245,34.658065 2.035862,34.430732 2.0290444,34.282227 l -0.00265,-0.05762 h 0.031722 0.031722 l 1.67e-5,0.03418 c 4.71e-5,0.0955 0.019776,0.626925 0.035276,0.950195 0.026793,0.558812 0.051521,0.866269 0.099747,1.240235 0.2356045,1.826984 0.5884723,3.536425 1.0506968,5.090019 0.016009,0.05381 0.029107,0.09907 0.029107,0.100586 0,0.0015 -0.00692,0.0028 -0.015389,0.0028 h -0.015389 l -0.00981,-0.03223 z"
     id="path5497" />
  <path
     style="fill:#000000;fill-opacity:1;stroke-width:0.0110485"
     d=""
     id="path5499" />
  <path
     style="fill:#000000;fill-opacity:1;stroke-width:0.00390625"
     d="m 58.428059,18.887695 c -1.210144,-2.274888 -2.759596,-4.445757 -4.515288,-6.326172 l -0.0775,-0.08301 0.0228,6.1e-5 0.0228,6.1e-5 0.08427,0.09076 c 1.584738,1.706763 2.941558,3.552606 4.08949,5.563415 0.156025,0.273306 0.464911,0.836378 0.464911,0.84749 0,0.0012 -0.0092,0.0021 -0.02054,0.0021 h -0.02054 z"
     id="path5503" />
  <path
     style="fill:#000000;fill-opacity:1;stroke-width:0.00552427"
     d="m 59.811912,21.852419 c -0.0029,-0.0054 -0.01788,-0.04143 -0.03326,-0.07999 -0.177334,-0.444496 -0.461203,-1.089991 -0.713593,-1.622653 -0.141302,-0.298214 -0.476974,-0.968252 -0.566649,-1.131095 l -0.01901,-0.03453 0.02099,1.6e-5 0.02099,1.6e-5 0.05196,0.09804 c 0.08256,0.155767 0.334537,0.656269 0.426214,0.846578 0.23799,0.494038 0.443142,0.947685 0.642483,1.420709 0.08384,0.198957 0.201929,0.486626 0.206524,0.503119 0.0038,0.01378 -0.02926,0.01358 -0.03664,-2.19e-4 z"
     id="path5507" />
  <path
     style="fill:#000000;fill-opacity:1;stroke-width:0.00552427"
     d="m 61.523814,38.150639 c 0,-0.0015 0.0198,-0.122698 0.044,-0.269308 0.216806,-1.313392 0.327873,-2.472484 0.377033,-3.934681 0.0096,-0.28528 0.0096,-1.506368 2.3e-5,-1.787102 -0.03511,-1.028528 -0.09386,-1.847656 -0.194609,-2.713605 -0.0091,-0.07813 -0.01653,-0.145872 -0.01653,-0.150536 0,-0.0057 0.0053,-0.0085 0.01609,-0.0085 0.01929,0 0.01576,-0.01733 0.04174,0.204398 0.09346,0.797569 0.155223,1.597515 0.18512,2.397534 0.02691,0.720132 0.02589,1.556886 -0.0028,2.28981 -0.04918,1.256776 -0.180224,2.532377 -0.386748,3.764791 -0.03834,0.22876 -0.03385,0.209923 -0.04996,0.209923 -0.0074,0 -0.01337,-0.0012 -0.01337,-0.0027 z"
     id="path5511" />
  <path
     style="fill:#000000;fill-opacity:1;stroke-width:0.00552427"
     d="m 58.723008,46.547988 c 0,-0.0013 0.05659,-0.116233 0.125755,-0.255498 1.208089,-2.432505 2.086599,-5.04057 2.591812,-7.694403 0.0214,-0.112419 0.0484,-0.257846 0.06001,-0.32317 l 0.0211,-0.118772 0.01514,-5.61e-4 c 0.01347,-4.99e-4 0.01481,0.001 0.01219,0.01381 -0.0016,0.0079 -0.01179,0.06409 -0.02259,0.124858 -0.488322,2.745908 -1.397513,5.503443 -2.638777,8.003288 l -0.125492,0.252736 h -0.01957 c -0.01076,0 -0.01957,-10e-4 -0.01957,-0.0023 z"
     id="path5513" />
  <path
     style="fill:#000000;fill-opacity:1;stroke-width:0.00552427"
     d="m 53.056021,54.310295 c 1.547814,-1.528198 2.979013,-3.291398 4.137522,-5.09732 0.542165,-0.845145 1.070536,-1.763668 1.489573,-2.58948 l 0.03713,-0.07317 0.02119,-2.3e-5 0.02118,-2.3e-5 -0.07854,0.153298 c -1.163719,2.271341 -2.654341,4.435643 -4.36689,6.340483 -0.374913,0.417011 -0.643856,0.700209 -1.089894,1.147668 l -0.312507,0.313502 -0.0279,-2.01e-4 -0.02789,-2.01e-4 z"
     id="path5515" />
  <path
     style="fill:#000000;fill-opacity:1;stroke-width:0.00390625"
     d="m 45.052734,59.976376 c 0.254874,-0.12547 0.530419,-0.263261 0.65625,-0.328171 2.605718,-1.344134 4.980419,-3.047079 7.079471,-5.076831 l 0.06775,-0.06551 h 0.02771 0.02771 l -0.01147,0.01217 c -0.01454,0.01542 -0.244653,0.235841 -0.329851,0.315959 -0.03541,0.0333 -0.07934,0.07474 -0.09761,0.09209 -0.06018,0.05714 -0.262296,0.242653 -0.380884,0.349607 -1.828462,1.649082 -3.855561,3.068262 -6.035156,4.225236 -0.236128,0.125341 -0.412988,0.215941 -0.711675,0.364567 l -0.258549,0.128654 -0.03442,-2.31e-4 -0.03442,-2.3e-4 0.03516,-0.01731 z"
     id="path5517" />
  <path
     style="fill:#000000;fill-opacity:1;stroke-width:0.0078125"
     d="m 31.425781,62.991387 c -0.04726,-0.0014 -0.2125,-0.0063 -0.367187,-0.01082 -3.151905,-0.09295 -6.338694,-0.708145 -9.346009,-1.804193 -0.2386,-0.08696 -0.236023,-0.08584 -0.236023,-0.102808 0,-0.01347 0.0049,-0.01276 0.06445,0.0094 2.149554,0.799838 4.347776,1.346156 6.611328,1.643097 0.716269,0.09396 1.520651,0.169236 2.214843,0.207264 0.921454,0.05048 2.733409,0.03498 3.664063,-0.03134 3.784113,-0.269653 7.440783,-1.224505 10.811273,-2.823107 0.123793,-0.05871 0.182863,-0.08276 0.203125,-0.08268 0.0333,1.31e-4 0.02068,0.0066 -0.369867,0.18896 -3.28123,1.532301 -6.838744,2.460539 -10.457031,2.728482 -0.394577,0.02922 -0.777053,0.05006 -1.234375,0.06725 -0.206738,0.0078 -1.381887,0.01568 -1.558594,0.01049 z"
     id="path6350" />
  <path
     style="fill:#000000;fill-opacity:1;stroke-width:0.0078125"
     d="M 21.351562,61.042004 C 19.768574,60.43917 18.237589,59.704835 16.796875,58.857354 13.815354,57.103513 11.149651,54.839185 8.9447225,52.1875 8.8696908,52.097266 8.794538,52.006467 8.7777163,51.985726 l -0.030585,-0.03771 0.023703,0.0026 c 0.020351,0.0022 0.046167,0.02962 0.1825683,0.193961 1.2907884,1.555183 2.7477714,2.986253 4.3278474,4.250876 2.20914,1.768099 4.64837,3.210358 7.265625,4.295994 0.24466,0.101485 0.596599,0.241301 0.796875,0.316577 0.0666,0.02503 0.12406,0.04805 0.127686,0.05114 0.0036,0.0031 0.0054,0.01089 0.0039,0.01731 -0.0021,0.0093 -0.02716,0.0024 -0.12378,-0.03443 z"
     id="path6352" />
  <path
     style="fill:#000000;fill-opacity:1;stroke-width:0.0078125"
     d="M 8.75,51.943871 C 8.7257273,51.936547 8.1788367,51.237264 7.8774063,50.828125 6.8552207,49.440688 6.0165947,48.079479 5.2301497,46.53125 5.0981079,46.271307 4.828125,45.715429 4.828125,45.703506 c 0,-0.0024 0.00831,-0.0043 0.018464,-0.0043 0.015118,0 0.022413,0.0089 0.040248,0.04883 0.1104973,0.247685 0.4846763,0.990938 0.7089379,1.408203 0.8912457,1.658267 1.9198195,3.210721 3.0823964,4.652344 0.05371,0.0666 0.1010632,0.125488 0.1052294,0.130859 0.00779,0.01004 -0.00789,0.01212 -0.033401,0.0044 z"
     id="path6354" />
  <path
     style="fill:#000000;fill-opacity:1;stroke-width:0.00390625"
     d="M 5.9149457,47.723633 C 5.4674565,46.9311 5.0304464,46.066644 4.6476598,45.216797 3.9609036,43.692089 3.4159465,42.142607 3.0059224,40.548828 c -0.020727,-0.08057 -0.038567,-0.14956 -0.039645,-0.15332 -0.00187,-0.0065 0.2141651,-0.0068 4.4976564,-0.0068 H 11.96355 l 0.0026,0.612305 c 0.0014,0.336767 0.0026,0.919043 0.0026,1.293945 9e-5,1.748497 0.01566,5.056841 0.02553,5.424805 l 0.0023,0.08691 H 8.9792273 5.9618145 Z"
     id="path6356" />
  <path
     style="fill:#000000;fill-opacity:1;stroke-width:0.00390625"
     d="m 4.7929404,45.635796 c -0.5722866,-1.229451 -1.084835,-2.568117 -1.4803155,-3.866265 -0.019636,-0.06445 -0.03643,-0.119385 -0.037322,-0.12207 -0.00113,-0.0034 0.0034,-0.0049 0.014858,-0.0048 l 0.016479,4.9e-5 0.030895,0.10249 c 0.1950714,0.647124 0.4427757,1.36408 0.703455,2.036083 0.2272337,0.585784 0.5271395,1.286827 0.7828313,1.829904 0.021703,0.0461 0.03946,0.0851 0.03946,0.08667 0,0.0016 -0.00614,0.0019 -0.013639,6.46e-4 -0.00781,-0.0013 -0.015939,-3.05e-4 -0.01902,0.0023 -0.0044,0.0036 -0.011286,-0.0082 -0.037682,-0.06493 z"
     id="path6358" />
  <path
     style="fill:#000000;fill-opacity:1;stroke-width:0.0441942"
     d="M 30.449786,62.908117 C 27.336295,62.758887 23.911829,62.004912 20.925941,60.811223 16.117989,58.889121 11.87638,55.744334 8.628337,51.693625 5.6592472,47.9908 3.6229127,43.653462 2.679827,39.023455 2.3029823,37.173365 2.1819677,36.153721 2.1167272,34.278893 2.0087602,31.176222 2.2004369,29.043549 2.8362281,26.273436 4.919224,17.197918 11.177693,9.5551073 19.660455,5.7277746 l 0.500012,-0.2256 h 11.838094 11.838095 l 0.404611,0.1780526 c 1.100937,0.484476 2.795198,1.4005104 3.896304,2.1066143 1.896916,1.2164268 3.34218,2.3859605 5.009229,4.0535555 1.864304,1.864918 3.22293,3.602761 4.5437,5.811931 2.303458,3.852843 3.684168,8.069816 4.117757,12.576487 0.156708,1.628807 0.133232,4.418285 -0.05115,6.076699 -0.621852,5.593443 -2.86864,11.002446 -6.397536,15.401669 -1.085249,1.352908 -2.837548,3.147452 -4.116431,4.215669 -5.856116,4.891473 -13.175655,7.35038 -20.793358,6.985265 z M 12.76116,48.655219 c 2.709196,-1.128219 5.875722,-1.955544 8.203774,-2.143417 0.994493,-0.08025 3.321774,-0.0312 4.110499,0.08663 2.469807,0.368996 4.729327,1.014098 7.205465,2.057186 0.425581,0.179278 0.740296,0.287574 0.795496,0.273735 0.05023,-0.01259 0.489081,-0.184776 0.975217,-0.382628 3.156865,-1.284807 6.310385,-2.010827 9.148194,-2.106145 2.758971,-0.09267 6.52047,0.703768 9.943689,2.105417 0.486136,0.19905 0.916393,0.371985 0.956123,0.384299 0.06502,0.02015 0.07521,-0.08952 0.102018,-1.097334 0.01638,-0.615848 0.02365,-7.701168 0.01615,-15.745156 l -0.01363,-14.625433 -0.77597,-0.317429 c -2.496949,-1.021433 -5.406587,-1.809333 -7.576729,-2.051701 -0.883206,-0.09864 -2.489247,-0.14351 -3.354047,-0.09371 -2.727167,0.15705 -6.36001,1.08606 -9.224467,2.358931 l -0.24834,0.110354 -0.502961,-0.217648 c -2.573796,-1.113766 -5.363633,-1.88586 -7.905485,-2.187861 -0.781105,-0.0928 -2.824745,-0.105444 -3.690214,-0.02282 -2.513196,0.239915 -5.071594,0.889574 -7.830985,1.988534 l -1.069277,0.425853 -0.03558,0.288173 c -0.04563,0.369587 -0.04292,30.609349 0.0028,30.947882 0.01886,0.139764 0.04285,0.254116 0.05331,0.254116 0.01046,0 0.332195,-0.130422 0.714976,-0.289828 z"
     id="path6360" />
  <path
     style="fill:#000000;fill-opacity:1;stroke-width:0.0078125"
     d="m 2.0183804,32.077047 c 0.00554,-0.20317 0.023094,-0.601679 0.036602,-0.830953 0.266211,-4.518593 1.5488047,-8.915663 3.7521265,-12.863282 0.2203824,-0.394851 0.5416228,-0.94081 0.5570544,-0.946731 0.00568,-0.0022 0.013587,-0.0028 0.017577,-0.0013 0.00399,0.0015 -0.055854,0.108159 -0.1329881,0.237065 -0.6686535,1.117455 -1.2934757,2.346436 -1.8112001,3.5625 -1.0064871,2.364102 -1.7152594,4.899537 -2.0933235,7.488281 -0.12997,0.889953 -0.231152,1.852734 -0.2582179,2.457031 -0.00824,0.184009 -0.023289,0.822433 -0.023431,0.994141 l -7.93e-5,0.0957 h -0.024684 -0.024684 z"
     id="path6362" />
  <path
     style="fill:#000000;fill-opacity:1;stroke-width:0.0110485"
     d="m 2.0285714,34.15381 c -0.013792,-0.155628 -0.022201,-0.831878 -0.019166,-1.541272 l 0.00143,-0.334218 h 0.025888 0.025887 l 0.00746,0.914267 c 0.00411,0.502846 0.01049,0.940369 0.014188,0.972271 0.00656,0.05655 0.00602,0.058 -0.021424,0.058 -0.026509,0 -0.028504,-0.004 -0.034267,-0.06905 z"
     id="path6364" />
  <path
     style="fill:#000000;fill-opacity:1;stroke-width:0.00390625"
     d=""
     id="path6368" />
  <path
     style="fill:#000000;fill-opacity:1;stroke-width:0.00390625"
     d="m 6.3710937,17.464976 c 0,-0.001 0.00295,-0.008 0.00656,-0.01558 0.0079,-0.01656 0.00487,-0.02084 -0.010615,-0.01499 -0.00636,0.0024 -0.01157,0.0036 -0.01157,0.0028 0,-0.0022 0.1013701,-0.167804 0.1803033,-0.294592 0.9924951,-1.594222 2.138337,-3.098261 3.4133866,-4.480434 0.2942744,-0.318997 0.4803054,-0.512016 0.8435684,-0.875254 0.497446,-0.497412 0.896585,-0.872729 1.390867,-1.307855 l 0.111328,-0.098 0.02916,-8.5e-5 c 0.02468,-7.2e-5 0.02828,7.23e-4 0.02344,0.0052 -0.0031,0.0029 -0.03384,0.02967 -0.06822,0.0595 -0.693513,0.601772 -1.468275,1.349527 -2.136722,2.062238 -1.0032472,1.069682 -1.9088957,2.187844 -2.7525037,3.398389 -0.3271851,0.469498 -0.6992295,1.039291 -0.9736804,1.491211 -0.037973,0.06253 -0.045297,0.07344 -0.045297,0.06752 z"
     id="path6370" />
  <path
     style="fill:#000000;fill-opacity:1;stroke-width:0.0078125"
     d="m 12.317443,10.365061 c 0.0092,-0.0074 0.0767,-0.06537 0.150083,-0.128768 0.630133,-0.5444021 1.4377,-1.1763372 2.145755,-1.6790916 1.805191,-1.2817748 3.712188,-2.3441699 5.75,-3.2033469 0.982768,-0.4143519 2.000631,-0.7796685 3.039063,-1.0907366 0.387547,-0.1160921 0.456632,-0.1342676 0.50809,-0.133675 l 0.0466,5.367e-4 -0.09375,0.02721 C 23.59683,4.2345249 23.377826,4.299438 23.230469,4.3447552 20.989127,5.0340442 18.833358,5.9836641 16.816406,7.1701616 15.29204,8.0668892 13.79458,9.1366312 12.48672,10.263163 c -0.115002,0.09906 -0.138091,0.115718 -0.160156,0.115569 -0.02565,-1.72e-4 -0.0257,-2.4e-4 -0.0091,-0.01367 z"
     id="path6372" />
  <path
     style="fill:#000000;fill-opacity:1;stroke-width:0.00552427"
     d="M 42.478887,4.9296425 C 42.059871,4.7700673 41.367023,4.5338796 40.846465,4.3731596 39.121499,3.8405835 37.337939,3.4607352 35.540402,3.2431169 33.840083,3.0372682 32.122382,2.9800474 30.394543,3.0716959 c -2.117791,0.1123324 -4.290756,0.4662259 -6.327021,1.0304315 -0.08799,0.024379 -0.104069,0.027223 -0.151917,0.026859 l -0.05351,-4.07e-4 0.05524,-0.016229 c 0.178317,-0.052384 0.722778,-0.1947254 1.010942,-0.264296 1.943739,-0.4692707 3.883426,-0.7409632 5.85849,-0.8206006 0.450575,-0.018168 0.654615,-0.021851 1.212578,-0.021886 0.559649,-3.54e-5 0.765934,0.00369 1.218102,0.021992 2.403958,0.097308 4.770652,0.4808185 7.093165,1.1494092 0.70967,0.2042955 1.449292,0.448325 2.171039,0.7163077 0.07861,0.029189 0.08013,0.030067 0.08183,0.047249 0.0012,0.011835 -6.2e-4,0.017339 -0.0055,0.016987 -0.004,-2.867e-4 -0.03957,-0.012828 -0.07907,-0.02787 z"
     id="path6374" />
  <path
     style="fill:#000000;fill-opacity:1;stroke-width:0.00552427"
     d="m 42.687429,5.0087321 -0.122915,-0.047399 v -0.018814 c 0,-0.015706 0.0016,-0.018175 0.0097,-0.014951 0.0053,0.00212 0.07306,0.028166 0.150537,0.057869 0.07748,0.029703 0.149569,0.057859 0.160203,0.062569 l 0.01933,0.00856 -0.04696,-2.193e-4 c -0.0455,-2.124e-4 -0.05076,-0.00169 -0.169871,-0.047618 z"
     id="path6376" />
  <path
     style="fill:#000000;fill-opacity:1;stroke-width:0.0110485"
     d="m 54.213797,17.906927 c -7.73e-4,-0.101785 -0.0045,-0.23944 -0.0083,-0.305899 l -0.0069,-0.120836 -0.381175,-0.158223 c -0.209646,-0.08702 -0.540274,-0.222251 -0.734728,-0.300507 -1.978776,-0.796335 -4.177026,-1.419179 -6.259499,-1.773545 -0.810613,-0.137939 -1.396124,-0.195406 -2.446753,-0.240143 -0.4125,-0.01756 -1.566785,-0.01775 -1.883777,-2.99e-4 -1.790026,0.09854 -4.118759,0.566773 -6.281097,1.262924 -0.999554,0.3218 -1.763009,0.607494 -2.747984,1.028332 l -0.438838,0.187496 -0.489239,-0.209593 C 31.762824,16.945613 31.0723,16.675828 30.435942,16.456345 l -0.07458,-0.02572 V 9.7554199 3.080218 l 0.157442,-0.00729 C 31.092323,3.04639 31.33942,3.0409 31.968925,3.040709 c 0.657772,-2.001e-4 1.048974,0.00899 1.568894,0.036852 4.669686,0.2502558 9.228468,1.5850607 13.280438,3.8884934 4.477458,2.5453103 8.210026,6.1956726 10.868107,10.6287456 0.168825,0.281562 0.285308,0.482055 0.285308,0.491078 0,0.0034 -0.845213,0.0061 -1.878252,0.0061 h -1.878252 z"
     id="path6378" />
  <path
     style="fill:#000000;fill-opacity:1;stroke-width:0.00390625"
     d="m 58.726562,46.547049 c 0,-9.78e-4 0.0569,-0.117433 0.126437,-0.258789 0.316336,-0.643026 0.540548,-1.133525 0.791539,-1.731619 0.487252,-1.161089 0.911276,-2.385222 1.249566,-3.607422 0.09284,-0.335415 0.209958,-0.792201 0.277681,-1.083008 0.0046,-0.01978 0.0052,-0.02051 0.01806,-0.02051 0.0073,0 0.01328,0.0011 0.01328,0.0023 0,0.0046 -0.06367,0.26791 -0.09814,0.405855 -0.402094,1.608898 -0.948144,3.215079 -1.606492,4.725427 -0.205141,0.470622 -0.384842,0.856311 -0.62252,1.336097 l -0.115622,0.233398 h -0.01689 c -0.0093,0 -0.01689,-8e-4 -0.01689,-0.0018 z"
     id="path6584" />
  <path
     style="fill:#000000;fill-opacity:1;stroke-width:0.00390625"
     d="m 58.726562,46.546987 c 0,-0.001 0.05297,-0.109558 0.117721,-0.241211 0.06475,-0.131653 0.14139,-0.288589 0.17032,-0.348745 0.807264,-1.678579 1.458296,-3.434777 1.941859,-5.238281 0.07208,-0.268815 0.161585,-0.622948 0.211535,-0.836914 l 0.0084,-0.03613 h 0.01335 c 0.0073,0 0.01335,0.0011 0.01335,0.0023 0,0.0058 -0.05225,0.22126 -0.09985,0.41172 -0.467467,1.870348 -1.123828,3.719713 -1.932867,5.44605 -0.108302,0.231097 -0.163416,0.345236 -0.292477,0.605707 l -0.117583,0.237305 h -0.01689 c -0.0093,0 -0.01689,-8.28e-4 -0.01689,-0.0018 z"
     id="path6586" />
  <path
     style="fill:#000000;fill-opacity:1;stroke-width:0.00390625"
     d="m 58.726562,46.546925 c 0,-0.0013 0.05034,-0.10465 0.111863,-0.229707 0.129781,-0.263793 0.20088,-0.410886 0.285501,-0.590656 0.869678,-1.847544 1.557948,-3.810352 2.032366,-5.795898 l 0.0203,-0.08496 h 0.01358 c 0.01613,0 0.01855,-0.01774 -0.0189,0.138672 -0.336442,1.405213 -0.793223,2.837391 -1.337439,4.193359 -0.301559,0.751364 -0.606073,1.430425 -0.96781,2.158203 l -0.104845,0.210938 -0.01731,0.0012 c -0.0095,6.54e-4 -0.01731,1.41e-4 -0.01731,-0.0011 z"
     id="path6588" />
  <path
     style="fill:#000000;fill-opacity:1;stroke-width:0.00390625"
     d="m 58.726562,46.546865 c 0,-0.0013 0.04858,-0.101167 0.107952,-0.221894 0.169366,-0.344379 0.26046,-0.534542 0.379282,-0.791768 0.826579,-1.789376 1.48049,-3.674688 1.940505,-5.594726 l 0.02223,-0.09277 h 0.01361 c 0.01612,0 0.01829,-0.01678 -0.01693,0.130859 -0.362509,1.519625 -0.873533,3.088974 -1.481861,4.550782 -0.259973,0.624714 -0.500665,1.152734 -0.818193,1.794922 l -0.111058,0.224609 -0.01777,0.0012 c -0.0098,6.54e-4 -0.01777,1.14e-4 -0.01777,-0.0012 z"
     id="path6590" />
  <path
     style="fill:#000000;fill-opacity:1;stroke-width:0.00390625"
     d="m 58.726562,46.546819 c 0,-0.0013 0.04595,-0.09592 0.102105,-0.210175 0.415627,-0.845621 0.693509,-1.466246 1.003369,-2.240941 0.275737,-0.689384 0.487024,-1.279406 0.744176,-2.078125 0.188192,-0.584527 0.415823,-1.402877 0.576146,-2.071289 l 0.02413,-0.100586 h 0.01332 c 0.0073,0 0.01332,0.0016 0.01332,0.0035 0,0.0019 -0.01152,0.0516 -0.02559,0.110352 -0.475968,1.986949 -1.159547,3.941833 -2.017256,5.768907 C 59.068122,45.92479 59,46.06577 58.875277,46.318327 l -0.112851,0.228516 -0.01793,0.0012 c -0.0099,6.54e-4 -0.01793,9.3e-5 -0.01793,-0.0012 z"
     id="path6592" />
  <path
     style="fill:#000000;fill-opacity:1;stroke-width:0.00390625"
     d="m 58.726562,46.546558 c 0,-0.0012 0.04244,-0.0887 0.0943,-0.194336 0.178277,-0.363089 0.274336,-0.563717 0.396816,-0.828785 0.727001,-1.573357 1.326999,-3.243062 1.77005,-4.925781 0.06679,-0.253669 0.139293,-0.54314 0.186139,-0.743164 0.0016,-0.007 0.0048,-0.0088 0.01566,-0.0088 0.0075,0 0.0136,0.0016 0.0136,0.0036 0,0.0131 -0.119733,0.497354 -0.177535,0.718036 -0.497804,1.900564 -1.184392,3.764433 -2.022785,5.491223 -0.03547,0.07305 -0.104156,0.213232 -0.152646,0.311523 l -0.08816,0.178711 h -0.01772 c -0.0097,0 -0.01772,-0.001 -0.01772,-0.0023 z"
     id="path6594" />
  <path
     style="fill:#000000;fill-opacity:1;stroke-width:0.00390625"
     d="m 58.726562,46.546481 c 0,-0.0013 0.04066,-0.08523 0.09035,-0.186523 0.123661,-0.252076 0.249845,-0.513582 0.320395,-0.66399 0.775076,-1.652432 1.402597,-3.386573 1.864677,-5.152999 0.03861,-0.147595 0.125644,-0.49468 0.152318,-0.607422 0.0099,-0.04189 0.01892,-0.07925 0.02001,-0.08301 0.0023,-0.0078 0.02881,-0.01 0.02881,-0.0024 0,0.01601 -0.138959,0.57301 -0.205007,0.821747 -0.492977,1.85654 -1.168823,3.682498 -1.989462,5.375 -0.03438,0.0709 -0.103892,0.212842 -0.15448,0.31543 l -0.09198,0.186523 h -0.01782 c -0.0098,0 -0.01782,-0.0011 -0.01782,-0.0023 z"
     id="path6596" />
  <path
     style="fill:#000000;fill-opacity:1;stroke-width:0.00390625"
     d=""
     id="path6598" />
  <path
     style="fill:#000000;fill-opacity:1;stroke-width:0.00390625"
     d=""
     id="path6600" />
  <path
     style="fill:#000000;fill-opacity:1;stroke-width:0.00390625"
     d="m 58.726562,46.54641 c 0,-0.0013 0.03629,-0.07648 0.08064,-0.166992 0.334101,-0.681878 0.515458,-1.073321 0.740442,-1.598168 0.667201,-1.556462 1.215892,-3.210081 1.602678,-4.830078 0.01205,-0.05049 0.02283,-0.09487 0.02395,-0.09863 0.0023,-0.0077 0.02885,-0.01004 0.02885,-0.0025 0,0.01526 -0.126629,0.52524 -0.19098,0.769142 -0.436007,1.652528 -1.012596,3.272139 -1.710491,4.804687 -0.138995,0.305226 -0.253522,0.545635 -0.439632,0.922852 l -0.09974,0.202148 h -0.01786 c -0.0098,0 -0.01786,-0.0011 -0.01786,-0.0024 z"
     id="path6602" />
  <path
     style="fill:#000000;fill-opacity:1;stroke-width:0.00390625"
     d="m 58.726562,46.546276 c 0,-0.0014 0.05126,-0.107312 0.113909,-0.235352 0.349272,-0.713816 0.565192,-1.186895 0.81851,-1.793346 0.610731,-1.462107 1.125926,-3.037856 1.485971,-4.544915 0.03365,-0.140869 0.02871,-0.12696 0.04509,-0.12696 h 0.01396 l -0.0027,0.01465 c -0.0047,0.0253 -0.05925,0.249544 -0.105754,0.43457 -0.482979,1.921453 -1.165582,3.821599 -2.006677,5.585937 -0.06692,0.140375 -0.217705,0.44921 -0.284297,0.582289 l -0.04287,0.08568 h -0.01756 c -0.0097,0 -0.01756,-0.0011 -0.01756,-0.0026 z"
     id="path6604" />
  <path
     style="fill:#000000;fill-opacity:1;stroke-width:0.00390625"
     d="m 58.726562,46.546257 c 0,-0.0014 0.0495,-0.103807 0.110003,-0.227539 0.364961,-0.746385 0.582049,-1.223174 0.8453,-1.856524 0.594046,-1.429203 1.097005,-2.969755 1.454902,-4.456335 0.01733,-0.07197 0.03326,-0.137451 0.03541,-0.145507 0.0036,-0.01346 0.005,-0.01465 0.01786,-0.01465 h 0.01396 l -0.0027,0.01465 c -0.0041,0.02233 -0.05269,0.222904 -0.09632,0.39746 -0.445072,1.780665 -1.06253,3.545573 -1.821134,5.205432 -0.131246,0.287172 -0.245208,0.526006 -0.41688,0.87367 l -0.10464,0.211914 h -0.01789 c -0.0098,0 -0.01789,-0.0012 -0.01789,-0.0026 z"
     id="path6606" />
  <path
     style="fill:#000000;fill-opacity:1;stroke-width:0.00390625"
     d="m 58.726562,46.546139 c 0,-0.0015 0.04687,-0.0986 0.104153,-0.21582 0.356744,-0.730015 0.559407,-1.172844 0.809945,-1.769772 0.611702,-1.457428 1.128175,-3.029142 1.494127,-4.546875 0.01839,-0.07627 0.0352,-0.145264 0.03737,-0.15332 0.0036,-0.01346 0.0051,-0.01465 0.01788,-0.01465 h 0.01396 l -0.0026,0.01465 c -0.0042,0.02348 -0.04586,0.195101 -0.09643,0.39746 -0.490732,1.964041 -1.189994,3.904958 -2.056096,5.707032 -0.04027,0.08379 -0.121204,0.249463 -0.179853,0.368164 l -0.106635,0.21582 h -0.01789 c -0.0098,0 -0.01789,-0.0012 -0.01789,-0.0027 z"
     id="path6608" />
  <path
     style="fill:#000000;fill-opacity:1;stroke-width:0.00390625"
     d="m 58.726562,46.546156 c 0,-0.0015 0.04682,-0.09859 0.104056,-0.21582 0.185598,-0.380184 0.287177,-0.593029 0.404625,-0.847846 0.79107,-1.716306 1.440645,-3.582818 1.890094,-5.43106 0.0236,-0.09704 0.04467,-0.183022 0.04682,-0.191078 0.0036,-0.01335 0.0051,-0.01465 0.01744,-0.01465 0.0093,0 0.01352,0.0018 0.01352,0.0057 0,0.0032 -0.01056,0.04984 -0.02346,0.103756 -0.474507,1.982353 -1.158352,3.939194 -2.015523,5.767467 -0.07812,0.166628 -0.178289,0.373821 -0.291296,0.602539 l -0.110494,0.223633 h -0.01789 c -0.0098,0 -0.01789,-0.0012 -0.01789,-0.0027 z"
     id="path6610" />
  <path
     style="fill:#000000;fill-opacity:1;stroke-width:0.00390625"
     d="m 54.193015,47.135746 c 0.0073,-0.37874 0.01675,-2.881735 0.02043,-5.435551 l 0.0027,-1.854492 h 3.475924 c 2.52491,0 3.475924,0.0012 3.475924,0.0043 0,0.01404 -0.125663,0.520724 -0.181554,0.732032 -0.169615,0.641277 -0.336298,1.201361 -0.54517,1.831869 -0.0384,0.115927 -0.06916,0.211438 -0.06835,0.212247 0.0018,0.0018 0.125956,-0.372449 0.185051,-0.557788 0.223584,-0.701234 0.406023,-1.353106 0.586521,-2.095703 0.03422,-0.140804 0.0293,-0.126953 0.04514,-0.126953 0.0091,0 0.01352,0.0018 0.01352,0.0056 0,0.02652 -0.17571,0.720262 -0.264231,1.043243 -0.506125,1.846655 -1.172727,3.610962 -2.004251,5.304688 -0.06118,0.124609 -0.124672,0.254197 -0.1411,0.287973 l -0.02987,0.06141 -0.01855,1.13e-4 c -0.0102,6.3e-5 -0.01855,-6.69e-4 -0.01855,-0.0016 0,-0.0036 0.02939,-0.06495 0.117138,-0.244357 0.504413,-1.0313 0.850144,-1.826184 1.207144,-2.77539 0.128646,-0.34205 0.323846,-0.890284 0.318788,-0.895342 -9.01e-4,-9.01e-4 -0.0065,0.01297 -0.01235,0.03084 -0.04628,0.140247 -0.179604,0.513326 -0.271261,0.759037 -0.486214,1.303425 -1.048946,2.545848 -1.709993,3.775391 l -0.03465,0.06445 -2.07542,9.8e-4 -2.075419,9.8e-4 z"
     id="path6612" />
  <path
     style="fill:#000000;fill-opacity:1;stroke-width:0.00390625"
     d="m 54.193001,47.133793 c 0.0073,-0.379277 0.01671,-2.89025 0.02044,-5.451176 l 0.0027,-1.836914 h 3.476362 3.476363 l -0.0027,0.01465 c -0.0049,0.02662 -0.07192,0.30087 -0.115274,0.471679 -0.09858,0.388365 -0.208514,0.787737 -0.320318,1.163624 -0.02166,0.07281 -0.0387,0.13305 -0.03787,0.133877 0.002,0.002 0.06517,-0.210381 0.129924,-0.436766 0.105229,-0.36787 0.193672,-0.700949 0.286636,-1.079485 0.07355,-0.299486 0.06397,-0.267578 0.08032,-0.267578 0.0098,0 0.01356,0.0017 0.01356,0.0062 0,0.01765 -0.132231,0.54907 -0.201079,0.808109 -0.512864,1.929635 -1.199429,3.770891 -2.059607,5.523533 -0.05905,0.120312 -0.12335,0.251709 -0.142892,0.291992 l -0.03553,0.07324 h -0.01873 c -0.0103,0 -0.01873,-7.33e-4 -0.01873,-0.0016 0,-0.0042 0.02241,-0.05107 0.118724,-0.248037 0.05716,-0.116906 0.103887,-0.213586 0.103831,-0.214844 -5.5e-5,-0.0013 -0.06211,0.121639 -0.137898,0.273104 -0.15893,0.317627 -0.302456,0.59461 -0.437212,0.84375 l -0.03275,0.06055 -2.075379,9.8e-4 -2.075378,9.8e-4 z m 4.806593,-1.153324 c 0,-0.0021 -0.01124,0.01807 -0.02499,0.04492 -0.01374,0.02685 -0.02498,0.05059 -0.02498,0.05273 0,0.0021 0.01124,-0.01807 0.02498,-0.04492 0.01374,-0.02685 0.02499,-0.05059 0.02499,-0.05273 z m 0.04688,-0.09766 c 0,-0.0021 -0.0095,0.01455 -0.02108,0.03711 -0.0116,0.02256 -0.02108,0.04277 -0.02108,0.04492 0,0.0021 0.0095,-0.01455 0.02108,-0.03711 0.0116,-0.02256 0.02108,-0.04277 0.02108,-0.04492 z m 0.03907,-0.08203 c 0,-0.0021 -0.0086,0.01279 -0.01913,0.0332 -0.01052,0.02041 -0.01913,0.03887 -0.01913,0.04102 0,0.0021 0.0086,-0.01279 0.01913,-0.0332 0.01052,-0.02041 0.01913,-0.03887 0.01913,-0.04102 z m 0.03516,-0.07422 c 0,-0.0021 -0.0077,0.01104 -0.01719,0.0293 -0.0095,0.01826 -0.01719,0.03496 -0.01719,0.03711 0,0.0021 0.0077,-0.01103 0.01719,-0.0293 0.0095,-0.01826 0.01719,-0.03496 0.01719,-0.03711 z m 0.108718,-0.232421 c 0.216453,-0.468852 0.425113,-0.955904 0.624213,-1.457032 0.08228,-0.207092 0.178448,-0.457502 0.176465,-0.459485 -8e-4,-8e-4 -0.02216,0.0526 -0.04747,0.118664 -0.244101,0.637217 -0.545194,1.34651 -0.826029,1.945899 -0.01953,0.04168 -0.03535,0.07684 -0.03516,0.07813 5.37e-4,0.0036 0.04158,-0.08235 0.107979,-0.226171 z m 0.833207,-1.997835 c 0.01516,-0.04039 0.0269,-0.0741 0.02609,-0.07491 -8.07e-4,-8.08e-4 -0.01343,0.03061 -0.02806,0.06982 -0.03231,0.08663 -0.03123,0.08351 -0.02812,0.08077 0.0014,-0.0012 0.01493,-0.03528 0.03009,-0.07568 z m 0.0367,-0.09982 c 0.0018,-0.0068 0.0015,-0.008 -10e-4,-0.0039 -0.002,0.0032 -0.0048,0.01025 -0.0062,0.01563 -0.0018,0.0068 -0.0015,0.008 10e-4,0.0039 0.002,-0.0032 0.0048,-0.01025 0.0062,-0.01563 z m 0.03923,-0.105141 c 0.01844,-0.0502 0.03288,-0.09192 0.03208,-0.09272 -7.99e-4,-7.99e-4 -0.01607,0.03856 -0.03394,0.08746 -0.03801,0.104012 -0.03704,0.101223 -0.03402,0.09858 0.0013,-0.0011 0.01744,-0.04312 0.03588,-0.09332 z m 0.06253,-0.171942 c 0.01411,-0.03944 0.02499,-0.07237 0.02418,-0.07318 -8.07e-4,-8.08e-4 -0.01256,0.02977 -0.02611,0.06795 -0.03011,0.0848 -0.02905,0.0816 -0.02612,0.07904 0.0013,-0.0012 0.01394,-0.03437 0.02805,-0.07381 z m 0.03682,-0.102501 c 0.0045,-0.01326 0.0075,-0.0248 0.0066,-0.02564 -8.4e-4,-8.4e-4 -0.0046,0.0078 -0.0084,0.01923 -0.0038,0.01142 -0.0076,0.02296 -0.0086,0.02564 -9.92e-4,0.0027 -8.97e-4,0.0049 2.11e-4,0.0049 0.0011,0 0.0057,-0.01085 0.01016,-0.02412 z m 0.02188,-0.06185 c 0.0054,-0.01575 0.009,-0.02933 0.0082,-0.03018 -8.48e-4,-8.48e-4 -0.0055,0.01044 -0.01033,0.02507 -0.0048,0.01464 -0.0097,0.02925 -0.01079,0.03248 -0.0011,0.0032 -8.37e-4,0.0048 5.88e-4,0.0036 0.0014,-0.0013 0.007,-0.01518 0.01233,-0.03093 z m 0.0254,-0.0723 c 0.0064,-0.01897 0.01097,-0.03517 0.01013,-0.03601 -8.42e-4,-8.41e-4 -0.0064,0.01308 -0.01227,0.03095 -0.0059,0.01786 -0.01164,0.03511 -0.01275,0.03833 -0.0011,0.0032 -8.25e-4,0.0048 6.15e-4,0.0035 0.0014,-0.0013 0.0079,-0.01784 0.01427,-0.03681 z m 0.02734,-0.07813 c 0.0064,-0.01897 0.01097,-0.03517 0.01013,-0.03601 -8.41e-4,-8.41e-4 -0.0064,0.01308 -0.01227,0.03095 -0.0059,0.01786 -0.01164,0.03511 -0.01274,0.03833 -0.0011,0.0032 -8.25e-4,0.0048 6.15e-4,0.0035 0.0014,-0.0013 0.0079,-0.01784 0.01427,-0.03681 z m 0.03713,-0.107482 c 0.0096,-0.02862 0.01678,-0.05272 0.01595,-0.05355 -8.29e-4,-8.29e-4 -0.009,0.02101 -0.01811,0.04854 -0.0091,0.02753 -0.0175,0.05269 -0.01861,0.05591 -0.0011,0.0032 -8.05e-4,0.0048 6.57e-4,0.0035 0.0015,-0.0013 0.01051,-0.02578 0.02011,-0.0544 z m 0.08994,-0.265909 c 0.02893,-0.08673 0.05246,-0.15947 0.05229,-0.161648 -1.68e-4,-0.0022 -0.02391,0.06635 -0.05276,0.152289 -0.06059,0.180472 -0.05805,0.172601 -0.0547,0.169461 0.0014,-0.0013 0.02624,-0.07337 0.05517,-0.160102 z m 0.09917,-0.306132 c -1.64e-4,-0.0022 -0.009,0.02143 -0.01953,0.05253 -0.01058,0.0311 -0.0191,0.05834 -0.01893,0.06055 1.64e-4,0.0022 0.009,-0.02143 0.01953,-0.05253 0.01058,-0.0311 0.0191,-0.05834 0.01893,-0.06055 z m 0.03125,-0.09763 c -1.64e-4,-0.0022 -0.0072,0.01612 -0.01563,0.04076 -0.0084,0.02464 -0.01519,0.04661 -0.01503,0.04883 1.64e-4,0.0022 0.0072,-0.01612 0.01563,-0.04076 0.0084,-0.02464 0.01519,-0.04661 0.01503,-0.04883 z m 0.02344,-0.07417 c -1.6e-4,-0.0022 -0.0054,0.01078 -0.01172,0.02894 -0.0063,0.01817 -0.01129,0.03486 -0.01113,0.03711 1.6e-4,0.0022 0.0054,-0.01078 0.01172,-0.02894 0.0063,-0.01816 0.01129,-0.03486 0.01113,-0.03711 z m 0.01953,-0.06246 c -1.61e-4,-0.0023 -0.0046,0.0081 -0.0098,0.02301 -0.0052,0.01492 -0.0093,0.02898 -0.0092,0.03125 1.6e-4,0.0023 0.0046,-0.0081 0.0098,-0.02301 0.0052,-0.01492 0.0093,-0.02898 0.0092,-0.03125 z m 0.01953,-0.0625 c -1.6e-4,-0.0023 -0.0046,0.0081 -0.0098,0.02301 -0.0052,0.01492 -0.0093,0.02898 -0.0092,0.03125 1.6e-4,0.0023 0.0046,-0.0081 0.0098,-0.02301 0.0052,-0.01492 0.0093,-0.02898 0.0092,-0.03125 z m 0.01531,-0.04904 c 0,-0.0032 -0.0032,0.0029 -0.0072,0.01367 -0.004,0.01074 -0.0072,0.02217 -0.0072,0.02539 0,0.0032 0.0032,-0.0029 0.0072,-0.01367 0.004,-0.01074 0.0072,-0.02217 0.0072,-0.02539 z m 0.01563,-0.05078 c 0,-0.0032 -0.0032,0.0029 -0.0072,0.01367 -0.004,0.01074 -0.0072,0.02217 -0.0072,0.02539 0,0.0032 0.0032,-0.0029 0.0072,-0.01367 0.004,-0.01074 0.0072,-0.02217 0.0072,-0.02539 z m 0.02677,-0.09131 c -0.0012,-0.0037 -0.02641,0.07668 -0.02577,0.08214 2.14e-4,0.0018 0.0063,-0.01514 0.01363,-0.0377 0.0073,-0.02256 0.01275,-0.04256 0.01214,-0.04444 z"
     id="path6614" />
  <path
     style="fill:#000000;fill-opacity:1;stroke-width:0.00390625"
     d="m 54.192968,47.129883 c 0.0072,-0.382969 0.01656,-2.891526 0.02045,-5.498047 l 0.0027,-1.786133 h 3.476373 3.476373 l -0.0027,0.01465 c -0.0051,0.02765 -0.06874,0.288199 -0.115576,0.473199 -0.02578,0.101813 -0.04594,0.186042 -0.04481,0.187175 0.0011,0.0011 0.0021,9.67e-4 0.0021,-3.7e-4 0,-0.0013 0.02192,-0.08908 0.0487,-0.194987 0.02679,-0.105906 0.06366,-0.254276 0.08195,-0.329711 0.01828,-0.07543 0.03435,-0.140034 0.0357,-0.143554 0.0033,-0.0085 0.02896,-0.009 0.02896,-6.14e-4 0,0.01534 -0.111856,0.468757 -0.177648,0.720116 -0.507957,1.940631 -1.205608,3.821602 -2.077138,5.600269 -0.05579,0.113867 -0.120028,0.245264 -0.142744,0.291992 l -0.0413,0.08496 h -0.01913 c -0.01743,0 -0.01891,-7.02e-4 -0.01662,-0.0079 0.0014,-0.0044 0.04896,-0.10305 0.105732,-0.219328 0.05677,-0.116277 0.103204,-0.212472 0.103184,-0.213766 -3.9e-5,-0.0013 -0.06298,0.123331 -0.13992,0.276945 -0.07694,0.153613 -0.172937,0.342578 -0.213335,0.419921 -0.0816,0.156223 -0.230421,0.436538 -0.239015,0.450196 l -0.0055,0.0088 h -2.07461 -2.07461 z m 4.802725,-1.141602 c 0,-0.0021 -0.0095,0.01455 -0.02108,0.03711 -0.0116,0.02256 -0.02108,0.04277 -0.02108,0.04492 0,0.0021 0.0095,-0.01455 0.02108,-0.03711 0.0116,-0.02256 0.02108,-0.04277 0.02108,-0.04492 z m 0.04688,-0.09766 c 0,-0.0021 -0.0077,0.01103 -0.01719,0.0293 -0.0095,0.01826 -0.01719,0.03496 -0.01719,0.03711 0,0.0021 0.0077,-0.01103 0.01719,-0.0293 0.0095,-0.01826 0.01719,-0.03496 0.01719,-0.03711 z m 0.03907,-0.08203 c 0,-0.0021 -0.0069,0.0093 -0.01524,0.02539 -0.0084,0.01611 -0.01524,0.03106 -0.01524,0.0332 0,0.0021 0.0069,-0.0093 0.01524,-0.02539 0.0084,-0.01611 0.01524,-0.03106 0.01524,-0.0332 z m 0.03516,-0.07422 c 0,-0.0021 -0.006,0.0075 -0.01329,0.02148 -0.0073,0.01396 -0.01329,0.02715 -0.01329,0.0293 0,0.0021 0.006,-0.0075 0.01329,-0.02148 0.0073,-0.01396 0.01329,-0.02715 0.01329,-0.0293 z m 0.03126,-0.06641 c 0,-0.0021 -0.0051,0.0058 -0.01135,0.01758 -0.0062,0.01182 -0.01135,0.02324 -0.01135,0.02539 0,0.0021 0.0051,-0.0058 0.01135,-0.01758 0.0062,-0.01182 0.01135,-0.02324 0.01135,-0.02539 z m 0.02733,-0.05859 c 0,-0.0021 -0.006,0.0075 -0.01329,0.02148 -0.0073,0.01396 -0.01329,0.02715 -0.01329,0.0293 0,0.0021 0.006,-0.0075 0.01329,-0.02148 0.0073,-0.01396 0.01329,-0.02715 0.01329,-0.0293 z m 0.02734,-0.05859 c 0,-0.0021 -0.006,0.0075 -0.01329,0.02148 -0.0073,0.01396 -0.01329,0.02715 -0.01329,0.0293 0,0.0021 0.006,-0.0075 0.01329,-0.02148 0.0073,-0.01396 0.01329,-0.02715 0.01329,-0.0293 z m 0.09885,-0.214844 c 0.119388,-0.262932 0.233576,-0.525106 0.348775,-0.800781 0.109343,-0.261664 0.222155,-0.540886 0.219573,-0.543469 -8.26e-4,-8.26e-4 -0.0065,0.01125 -0.01255,0.02684 -0.141769,0.363779 -0.420962,1.016694 -0.615117,1.438501 -0.01978,0.04297 -0.0367,0.08076 -0.0376,0.08398 -0.0034,0.01204 0.04026,-0.0803 0.09692,-0.205079 z m 0.606521,-1.437165 c 0.01845,-0.04696 0.03289,-0.08602 0.0321,-0.08681 -7.9e-4,-7.9e-4 -0.0157,0.03504 -0.03314,0.07963 -0.03673,0.09391 -0.03801,0.09738 -0.03486,0.09462 0.0013,-0.0011 0.01746,-0.04049 0.0359,-0.08744 z m 0.06455,-0.166098 c 0.01518,-0.03938 0.02694,-0.07226 0.02614,-0.07306 -7.99e-4,-7.99e-4 -0.01307,0.02888 -0.02728,0.06595 -0.03142,0.082 -0.03198,0.08357 -0.02891,0.08087 0.0013,-0.0012 0.01487,-0.03438 0.03005,-0.07376 z m 0.04435,-0.117456 c 0.0014,-0.0054 -7.35e-4,-0.0027 -0.0047,0.0059 -0.004,0.0086 -0.0084,0.02003 -0.0098,0.02539 -0.0014,0.0054 7.35e-4,0.0027 0.0047,-0.0059 0.004,-0.0086 0.0084,-0.02003 0.0098,-0.02539 z m 0.01005,-0.02431 c 0.0024,-0.0069 0.0028,-0.01089 8.21e-4,-0.0088 -0.0042,0.0044 -0.0097,0.0214 -0.007,0.0214 0.001,0 0.0038,-0.0057 0.0062,-0.01261 z m 0.01366,-0.03818 c 0.0018,-0.0068 0.0015,-0.008 -0.001,-0.0039 -0.002,0.0032 -0.0048,0.01025 -0.0062,0.01563 -0.0018,0.0068 -0.0015,0.008 0.001,0.0039 0.002,-0.0032 0.0048,-0.01025 0.0062,-0.01563 z m 0.02186,-0.0564 c 0.0087,-0.02323 0.01519,-0.0429 0.01436,-0.04373 -8.26e-4,-8.26e-4 -0.0082,0.01653 -0.01633,0.03857 -0.0194,0.05245 -0.0193,0.05215 -0.0164,0.04959 0.0014,-0.0012 0.0096,-0.02121 0.01836,-0.04443 z m 0.02502,-0.0686 c 0.0018,-0.0068 0.0015,-0.008 -0.001,-0.0039 -0.002,0.0032 -0.0048,0.01025 -0.0062,0.01563 -0.0018,0.0068 -0.0015,0.008 0.001,0.0039 0.002,-0.0032 0.0048,-0.01025 0.0062,-0.01563 z m 0.01172,-0.03125 c 0.0018,-0.0068 0.0015,-0.008 -10e-4,-0.0039 -0.002,0.0032 -0.0048,0.01025 -0.0062,0.01563 -0.0018,0.0068 -0.0015,0.008 10e-4,0.0039 0.002,-0.0032 0.0048,-0.01025 0.0062,-0.01563 z m 0.01384,-0.03711 c 0,-0.0021 -0.0017,-0.0013 -0.0038,0.002 -0.0021,0.0032 -0.0038,0.0076 -0.0038,0.0098 0,0.0021 0.0017,0.0013 0.0038,-0.002 0.0021,-0.0032 0.0038,-0.0076 0.0038,-0.0098 z m 0.0135,-0.03711 c 0.0018,-0.0068 0.0015,-0.008 -0.001,-0.0039 -0.002,0.0032 -0.0048,0.01025 -0.0062,0.01563 -0.0018,0.0068 -0.0015,0.008 0.001,0.0039 0.002,-0.0032 0.0048,-0.01025 0.0062,-0.01563 z m 0.01539,-0.04297 c 0.0019,-0.0078 0.0013,-0.0075 -0.0029,0.002 -0.0029,0.0064 -0.0064,0.01611 -0.0077,0.02148 -0.0019,0.0078 -0.0013,0.0075 0.0029,-0.002 0.0029,-0.0064 0.0064,-0.01611 0.0077,-0.02148 z m 0.01196,-0.03125 c 0.0018,-0.0068 0.0015,-0.008 -10e-4,-0.0039 -0.002,0.0032 -0.0048,0.01025 -0.0062,0.01563 -0.0018,0.0068 -0.0015,0.008 10e-4,0.0039 0.002,-0.0032 0.0048,-0.01025 0.0062,-0.01563 z m 0.01368,-0.03604 c 0.0024,-0.0069 0.0028,-0.01089 8.21e-4,-0.0088 -0.0042,0.0044 -0.0097,0.02139 -0.007,0.02139 0.001,0 0.0038,-0.0057 0.0062,-0.01261 z m 0.01757,-0.04989 c 0.0018,-0.0068 0.0015,-0.008 -10e-4,-0.0039 -0.002,0.0032 -0.0048,0.01025 -0.0062,0.01563 -0.0018,0.0068 -0.0015,0.008 10e-4,0.0039 0.002,-0.0032 0.0048,-0.01025 0.0062,-0.01563 z m 0.01929,-0.05469 c 0.0019,-0.0078 0.0013,-0.0075 -0.0029,0.002 -0.0029,0.0064 -0.0064,0.01611 -0.0077,0.02148 -0.0019,0.0078 -0.0013,0.0075 0.0029,-0.002 0.0029,-0.0064 0.0064,-0.01611 0.0077,-0.02148 z m 0.01586,-0.04297 c 0.0018,-0.0068 0.0015,-0.008 -0.001,-0.0039 -0.002,0.0032 -0.0048,0.01025 -0.0062,0.01563 -0.0018,0.0068 -0.0015,0.008 0.001,0.0039 0.002,-0.0032 0.0048,-0.01025 0.0062,-0.01563 z m 0.01929,-0.05469 c 0.0019,-0.0078 0.0013,-0.0075 -0.0029,0.002 -0.0029,0.0064 -0.0064,0.01611 -0.0077,0.02148 -0.0019,0.0078 -0.0013,0.0075 0.0029,-0.002 0.0029,-0.0064 0.0064,-0.01611 0.0077,-0.02148 z m 0.02162,-0.05927 c 0.0045,-0.01326 0.0075,-0.0248 0.0066,-0.02564 -8.4e-4,-8.4e-4 -0.0046,0.0078 -0.0084,0.01923 -0.0038,0.01142 -0.0076,0.02296 -0.0086,0.02564 -9.91e-4,0.0027 -8.96e-4,0.0049 2.11e-4,0.0049 0.0011,0 0.0057,-0.01085 0.01016,-0.02412 z m 0.02344,-0.06641 c 0.0045,-0.01326 0.0075,-0.0248 0.0066,-0.02564 -8.4e-4,-8.41e-4 -0.0046,0.0078 -0.0084,0.01923 -0.0038,0.01142 -0.0076,0.02296 -0.0086,0.02564 -9.92e-4,0.0027 -8.97e-4,0.0049 2.11e-4,0.0049 0.0011,0 0.0057,-0.01085 0.01016,-0.02412 z m 0.02734,-0.07813 c 0.0045,-0.01326 0.0075,-0.0248 0.0066,-0.02564 -8.4e-4,-8.41e-4 -0.0046,0.0078 -0.0084,0.01923 -0.0038,0.01142 -0.0076,0.02296 -0.0086,0.02564 -9.92e-4,0.0027 -8.97e-4,0.0049 2.11e-4,0.0049 0.0011,0 0.0057,-0.01085 0.01016,-0.02412 z m 0.03753,-0.108785 c 0.0075,-0.02218 0.0129,-0.04102 0.01206,-0.04185 -8.35e-4,-8.36e-4 -0.0072,0.01573 -0.01422,0.03681 -0.007,0.02108 -0.0136,0.04097 -0.0147,0.04419 -0.0011,0.0032 -8.16e-4,0.0048 6.33e-4,0.0035 0.0014,-0.0013 0.0087,-0.02049 0.01622,-0.04267 z m 0.08994,-0.26592 c 0.02249,-0.06739 0.04075,-0.124313 0.04058,-0.1265 -1.68e-4,-0.0022 -0.01864,0.05052 -0.04105,0.117118 -0.04758,0.141418 -0.0463,0.137416 -0.04299,0.134312 0.0014,-0.0013 0.02097,-0.05754 0.04345,-0.12493 z m 0.09528,-0.294389 c -1.64e-4,-0.0022 -0.0063,0.01346 -0.01367,0.03486 -0.0074,0.0214 -0.01324,0.04074 -0.01308,0.04297 1.64e-4,0.0022 0.0063,-0.01346 0.01367,-0.03486 0.0074,-0.0214 0.01324,-0.04074 0.01308,-0.04297 z m 0.03125,-0.09763 c -1.6e-4,-0.0022 -0.0054,0.01078 -0.01172,0.02894 -0.0063,0.01816 -0.01129,0.03486 -0.01113,0.03711 1.6e-4,0.0022 0.0054,-0.01078 0.01172,-0.02894 0.0063,-0.01817 0.01129,-0.03486 0.01113,-0.03711 z m 0.02313,-0.07244 c 0,-0.0032 -0.0032,0.0029 -0.0072,0.01367 -0.004,0.01074 -0.0072,0.02217 -0.0072,0.02539 0,0.0032 0.0032,-0.0029 0.0072,-0.01367 0.004,-0.01074 0.0072,-0.02217 0.0072,-0.02539 z m 0.01954,-0.0625 c 0,-0.0032 -0.0024,2.93e-4 -0.0053,0.0078 -0.0029,0.0075 -0.0053,0.01631 -0.0053,0.01953 0,0.0032 0.0024,-2.93e-4 0.0053,-0.0078 0.0029,-0.0075 0.0053,-0.01631 0.0053,-0.01953 z m 0.01953,-0.0625 c 0,-0.0032 -0.0024,2.93e-4 -0.0053,0.0078 -0.0029,0.0075 -0.0053,0.01631 -0.0053,0.01953 0,0.0032 0.0024,-2.93e-4 0.0053,-0.0078 0.0029,-0.0075 0.0053,-0.01631 0.0053,-0.01953 z m 0.01765,-0.05469 c 0.0019,-0.0078 0.0013,-0.0075 -0.0029,0.002 -0.0029,0.0064 -0.0064,0.01611 -0.0077,0.02148 -0.0019,0.0078 -0.0013,0.0075 0.0029,-0.002 0.0029,-0.0064 0.0064,-0.01611 0.0077,-0.02148 z m 0.01749,-0.05664 c 0,-0.0021 -0.0024,0.0014 -0.0054,0.0078 -0.003,0.0064 -0.0053,0.01436 -0.0052,0.01758 6.7e-5,0.0032 0.0025,-2.93e-4 0.0054,-0.0078 0.0029,-0.0075 0.0053,-0.01543 0.0052,-0.01758 z m 0.01178,-0.04102 c 0,-0.0037 -0.0012,-0.003 -0.0034,0.002 -0.0018,0.0043 -0.0034,0.01045 -0.0034,0.01367 0,0.0037 0.0012,0.003 0.0034,-0.002 0.0018,-0.0043 0.0034,-0.01045 0.0034,-0.01367 z m 0.01556,-0.04883 c 0,-0.0021 -0.0024,0.0014 -0.0054,0.0078 -0.003,0.0064 -0.0053,0.01436 -0.0052,0.01758 6.6e-5,0.0032 0.0025,-2.93e-4 0.0054,-0.0078 0.0029,-0.0075 0.0053,-0.01543 0.0052,-0.01758 z m 0.01178,-0.04102 c 0,-0.0037 -0.0012,-0.003 -0.0034,0.002 -0.0018,0.0043 -0.0034,0.01045 -0.0034,0.01367 0,0.0037 0.0012,0.003 0.0034,-0.002 0.0018,-0.0043 0.0034,-0.01045 0.0034,-0.01367 z m 0.01172,-0.03906 c 0,-0.0037 -0.0012,-0.003 -0.0034,0.002 -0.0018,0.0043 -0.0034,0.01045 -0.0034,0.01367 0,0.0037 0.0012,0.003 0.0034,-0.002 0.0018,-0.0043 0.0034,-0.01045 0.0034,-0.01367 z m 0.01167,-0.03906 c 0,-0.0032 -0.0024,2.93e-4 -0.0053,0.0078 -0.0029,0.0075 -0.0053,0.01631 -0.0053,0.01953 0,0.0032 0.0024,-2.93e-4 0.0053,-0.0078 0.0029,-0.0075 0.0053,-0.01631 0.0053,-0.01953 z m 0.01172,-0.03906 c 0,-0.0032 -0.0024,2.93e-4 -0.0053,0.0078 -0.0029,0.0075 -0.0053,0.01631 -0.0053,0.01953 0,0.0032 0.0024,-2.93e-4 0.0053,-0.0078 0.0029,-0.0075 0.0053,-0.01631 0.0053,-0.01953 z m 0.01972,-0.06836 c -1.99e-4,-0.0021 -0.0046,0.0093 -0.0097,0.02539 -0.0051,0.01611 -0.0092,0.03106 -0.009,0.0332 1.99e-4,0.0021 0.0046,-0.0093 0.0097,-0.02539 0.0051,-0.01611 0.0092,-0.03106 0.009,-0.0332 z m 0.01153,-0.03711 c 0,-0.0032 -0.0024,2.93e-4 -0.0053,0.0078 -0.0029,0.0075 -0.0053,0.01631 -0.0053,0.01953 0,0.0032 0.0024,-2.93e-4 0.0053,-0.0078 0.0029,-0.0075 0.0053,-0.01631 0.0053,-0.01953 z m 0.0079,-0.02734 c 0,-0.0037 -0.0012,-0.003 -0.0034,0.002 -0.0018,0.0043 -0.0034,0.01045 -0.0034,0.01367 0,0.0037 0.0012,0.003 0.0034,-0.002 0.0018,-0.0043 0.0034,-0.01045 0.0034,-0.01367 z m 0.0078,-0.02734 c 0,-0.0037 -0.0012,-0.003 -0.0034,0.002 -0.0018,0.0043 -0.0034,0.01045 -0.0034,0.01367 0,0.0037 0.0012,0.003 0.0034,-0.002 0.0018,-0.0043 0.0034,-0.01045 0.0034,-0.01367 z m 0.01994,-0.06587 c 0.0089,-0.03086 0.01549,-0.05681 0.01463,-0.05767 -0.0014,-0.0014 -0.03402,0.107926 -0.03402,0.114228 0,0.008 0.0047,-0.0057 0.01939,-0.05656 z m 0.02303,-0.08257 c 0,-0.0037 -0.0012,-0.003 -0.0034,0.002 -0.0018,0.0043 -0.0034,0.01045 -0.0034,0.01367 0,0.0037 0.0012,0.003 0.0034,-0.002 0.0018,-0.0043 0.0034,-0.01045 0.0034,-0.01367 z m 0.01996,-0.0677 c 0.009,-0.03187 0.01569,-0.05865 0.01482,-0.05952 -0.0015,-0.0015 -0.03423,0.110652 -0.03423,0.117405 0,0.0084 0.0042,-0.0041 0.01941,-0.05788 z m 0.03312,-0.121749 c 0.0011,-0.0064 -0.0015,-0.0012 -0.0057,0.01172 -0.0042,0.01289 -0.0085,0.02871 -0.0096,0.03516 -0.0011,0.0064 0.0015,0.0012 0.0057,-0.01172 0.0042,-0.01289 0.0085,-0.02871 0.0096,-0.03516 z m 0.01953,-0.07031 c 0.0011,-0.0064 -0.0015,-0.0012 -0.0057,0.01172 -0.0042,0.01289 -0.0085,0.02871 -0.0096,0.03516 -0.0011,0.0064 0.0015,0.0012 0.0057,-0.01172 0.0042,-0.01289 0.0085,-0.02871 0.0096,-0.03516 z m 0.01143,-0.04102 c 0.0017,-0.0094 0.0014,-0.01122 -9.4e-4,-0.0059 -0.0019,0.0043 -0.0045,0.01396 -0.0059,0.02148 -0.0017,0.0094 -0.0014,0.01122 9.4e-4,0.0059 0.0019,-0.0043 0.0045,-0.01396 0.0059,-0.02148 z m 0.01172,-0.04297 c 0.0017,-0.0094 0.0014,-0.01122 -9.4e-4,-0.0059 -0.0019,0.0043 -0.0045,0.01396 -0.0059,0.02148 -0.0017,0.0094 -0.0014,0.01122 9.4e-4,0.0059 0.0019,-0.0043 0.0045,-0.01396 0.0059,-0.02148 z m 0.01172,-0.04297 c 0.0017,-0.0094 0.0014,-0.01122 -9.39e-4,-0.0059 -0.0019,0.0043 -0.0045,0.01396 -0.0059,0.02148 -0.0017,0.0094 -0.0014,0.01122 9.39e-4,0.0059 0.0019,-0.0043 0.0045,-0.01396 0.0059,-0.02148 z m 0.02778,-0.100927 c 0.01219,-0.04584 0.02145,-0.08406 0.02058,-0.08493 -0.0015,-0.0015 -0.04591,0.161751 -0.04591,0.168549 0,0.0092 0.0054,-0.0085 0.02533,-0.08362 z m 0.03313,-0.125111 c 0.0046,-0.01797 0.0076,-0.03342 0.0067,-0.03432 -0.0015,-0.0015 -0.01829,0.06067 -0.01829,0.06751 0,0.0079 0.0041,-0.0039 0.01159,-0.03319 z"
     id="path6616" />
  <path
     style="fill:#000000;fill-opacity:1;stroke-width:0.00390625"
     d=""
     id="path6618" />
</svg>
