<?xml version="1.0" encoding="UTF-8" standalone="no"?>
<svg
   width="64"
   height="64"
   viewBox="0 0 64 64"
   version="1.1"
   id="svg20"
   sodipodi:docname="smashrun.svg"
   inkscape:version="1.2 (dc2aedaf03, 2022-05-15)"
   xmlns:inkscape="http://www.inkscape.org/namespaces/inkscape"
   xmlns:sodipodi="http://sodipodi.sourceforge.net/DTD/sodipodi-0.dtd"
   xmlns:xlink="http://www.w3.org/1999/xlink"
   xmlns="http://www.w3.org/2000/svg"
   xmlns:svg="http://www.w3.org/2000/svg">
  <sodipodi:namedview
     id="namedview22"
     pagecolor="#505050"
     bordercolor="#eeeeee"
     borderopacity="1"
     inkscape:showpageshadow="0"
     inkscape:pageopacity="0"
     inkscape:pagecheckerboard="0"
     inkscape:deskcolor="#505050"
     showgrid="false"
     inkscape:zoom="16.046875"
     inkscape:cx="31.968841"
     inkscape:cy="32"
     inkscape:window-width="3440"
     inkscape:window-height="1376"
     inkscape:window-x="0"
     inkscape:window-y="32"
     inkscape:window-maximized="1"
     inkscape:current-layer="svg20" />
  <defs
     id="defs3">
    <path
       id="running-a"
       d="M40.8886181,48.2046949 L58.8109964,48.2046949 C58.8109964,48.2046949 63.9684388,41.9925643 61.0962255,38.1483359 C58.2240123,34.3041075 40.7142526,35.5193673 35.9635165,15.1836349 C35.9635165,15.1836349 16.7292358,19.3282776 14.5773204,0 C14.5773204,0 0.582856065,14.7382262 0.582856065,15.150453 L1.26193745,20.9012964 L40.8886181,48.2046949 Z" />
  </defs>
  <path
     style="fill:#000000;fill-opacity:1;stroke-width:0.0623174"
     d="M 30.566419,62.40239 C 27.034755,62.185251 23.94528,61.501649 20.857004,60.25401 11.16439,56.338269 4.2287427,47.689702 2.4983408,37.361248 2.1972918,35.564336 2.1512058,34.914882 2.1512058,32.46933 c 0,-2.445552 0.04609,-3.095006 0.347135,-4.891918 0.787775,-4.702084 2.6857689,-9.170134 5.5073959,-12.964907 1.7519689,-2.356201 4.0583143,-4.646737 6.3739863,-6.3302957 5.635323,-4.097038 12.592291,-6.155694 19.36488,-5.730316 6.39182,0.401463 12.1827,2.62937 17.10614,6.581199 6.414268,5.1484457 10.445698,12.8010827 11.091908,21.0551217 0.0818,1.044915 0.0806,3.523959 -0.002,4.589984 -0.43397,5.585925 -2.48252,11.056582 -5.822108,15.547957 -1.68503,2.266171 -3.84404,4.434423 -6.10888,6.135037 -4.08903,3.070347 -9.06311,5.084766 -14.14606,5.728923 -1.70838,0.216501 -3.83932,0.301899 -5.296981,0.212275 z M 30.69581,45.427431 c 2.024813,-0.197034 3.740093,-0.780832 4.947203,-1.683791 0.57927,-0.433309 1.38737,-1.264698 1.7442,-1.794465 0.94384,-1.401264 1.21745,-3.075071 0.78056,-4.775076 -0.29669,-1.154438 -1.06527,-2.128237 -2.90283,-3.67791 -1.3519,-1.140106 -1.67613,-1.565591 -1.67613,-2.19959 0,-0.392614 0.0895,-0.645848 0.38154,-1.079221 0.25539,-0.379009 0.34865,-0.479428 1.23644,-1.3313 0.98634,-0.946444 1.48115,-1.715906 1.76235,-2.740585 0.17806,-0.648872 0.22714,-2.425589 0.0811,-2.935016 -0.22529,-0.785684 -0.48209,-1.201437 -1.14221,-1.849229 l -0.61915,-0.607595 h 1.04936 1.04936 l 0.84259,-1.119978 c 0.46343,-0.615988 0.84259,-1.134781 0.84259,-1.152872 0,-0.06161 -7.751244,-0.03269 -8.319375,0.03105 -1.492727,0.167456 -2.243348,0.355412 -3.087349,0.773075 -1.850925,0.915952 -3.140914,2.424004 -3.687383,4.310714 -0.124653,0.43037 -0.142316,0.6286 -0.14101,1.582553 0.0015,1.072873 0.0049,1.100399 0.210268,1.697746 0.466015,1.355337 1.515271,2.613165 2.686,3.219926 0.918064,0.475812 1.707378,0.640865 3.043692,0.636468 0.818459,-0.0027 0.890272,0.006 0.852557,0.10364 -0.254672,0.659057 -0.294739,0.869946 -0.265508,1.397502 0.02528,0.456228 0.06549,0.617641 0.251336,1.008988 0.121684,0.256231 0.336626,0.635784 0.47765,0.843451 l 0.256406,0.377576 -0.329488,3.8e-5 c -0.512738,6e-5 -2.508215,0.241766 -3.159209,0.382666 -1.64295,0.355597 -3.373584,1.208205 -4.313088,2.124871 -0.513027,0.500557 -0.771923,0.878105 -1.05812,1.543058 -0.35814,0.832108 -0.451076,1.309129 -0.415424,2.132296 0.04965,1.146461 0.395457,1.892156 1.294158,2.790744 0.939851,0.939733 1.886318,1.445299 3.333879,1.780831 1.085496,0.251608 2.693171,0.335932 3.993072,0.209439 z m 13.410173,-11.446903 0.0167,-1.511198 h 1.49451 1.49451 v -1.028238 -1.028237 h -1.49449 -1.49449 l -0.0167,-1.480039 -0.0167,-1.480039 h -1.02824 -1.02823 l -0.0167,1.480039 -0.0167,1.480039 h -1.49449 -1.49449 v 1.028237 1.028238 h 1.49561 1.49562 v 1.485232 c 0,0.816878 0.0194,1.504596 0.043,1.528264 0.0237,0.02367 0.49339,0.03535 1.04382,0.02597 l 1.00079,-0.01707 z"
     id="path9126" />
  <g
     fill="none"
     fill-rule="evenodd"
     id="g18"
     transform="matrix(0.5082077,0,0,0.6508535,67.494995,12.928909)">
    <path
       fill="#ffdd95"
       d="m 13.949197,15.930371 c 0,0 4.23475,-1.313095 6.020601,-2.634073 C 21.755648,11.975319 30.889372,2 30.889372,2 H 64 c 0,0 -9.443564,6.8805327 -17.020561,12.199148 -4.321306,3.033308 -9.82709,7.42674 -11.116501,9.471959 -1.289412,2.045219 -1.674964,6.530925 -1.674964,6.530925 l -15.841338,0.744541 -3.449351,-9.776201"
       id="path5" />
    <g
       transform="translate(0,13.711)"
       id="g14">
      <mask
         id="running-b"
         fill="#ffffff">
        <use
           xlink:href="#running-a"
           id="use7" />
      </mask>
      <use
         fill="#d650c7"
         xlink:href="#running-a"
         id="use10" />
      <polyline
         stroke="#595959"
         stroke-linecap="round"
         stroke-width="2"
         points="-2 7.24 4.729 18.721 42.285 45.011 62 45.011"
         mask="url(#running-b)"
         id="polyline12" />
    </g>
    <path
       stroke="#979797"
       stroke-linecap="round"
       stroke-width="2"
       d="M 41.459583,37.710966 35,39.368699 M 43.459583,41.710966 37,43.368699 M 46.459583,45.710966 40,47.368699"
       id="path16" />
  </g>
  <path
     style="fill:#000000;fill-opacity:1;fill-rule:nonzero;stroke:none"
     id="path3983"
     d="m 33.997784,16.202198 c -0.19305,0.08702 -0.389597,0.166661 -0.57915,0.261054 -0.97336,0.484712 -0.50865,0.321068 -1.54378,0.798655 -0.583483,0.269206 -0.797351,0.316958 -1.370264,0.555821 -0.196788,0.08205 -0.389737,0.173013 -0.584606,0.25952 -0.203672,0.04527 -0.411789,0.07385 -0.611016,0.135818 -0.267172,0.08311 -0.517536,0.21486 -0.784602,0.298306 -0.302194,0.09442 -0.612942,0.158977 -0.92042,0.234437 -0.283018,0.06946 -0.565425,0.142217 -0.850995,0.200297 -0.534077,0.108622 -0.695612,0.112248 -1.206097,0.16105 -0.779011,0.07012 -0.253878,-0.01235 -0.990804,0.19098 -0.159306,0.04396 -0.321283,0.07766 -0.481151,0.119526 -0.08201,0.02147 -0.482039,0.121268 -0.597935,0.192927 -0.04579,0.02831 -0.07368,0.07853 -0.110517,0.117793 -0.02031,0.03383 -0.02194,0.107486 -0.06094,0.10149 -0.0439,-0.0067 -0.01904,-0.09901 -0.05828,-0.119818 -0.0275,-0.01458 -0.06544,0.01903 -0.08138,0.04576 -0.03553,0.05956 -0.01635,0.147596 -0.06402,0.197974 -0.02089,0.02208 -0.03554,-0.04932 -0.05331,-0.07398 -0.02759,0.07148 -0.05518,0.142965 -0.08276,0.214448 -0.02743,0.04241 -0.13195,0.220451 -0.189514,0.252992 -0.02841,0.01606 -0.06723,-0.0085 -0.09786,0.0027 -0.04211,0.01548 -0.07032,0.05821 -0.112137,0.07446 -0.04737,0.01841 -0.106601,9.3e-4 -0.149973,0.02742 -0.07604,0.04644 -0.129826,0.122059 -0.194738,0.183089 -0.03169,0.03621 -0.444322,0.505898 -0.462166,0.533843 -0.10115,0.158407 -0.174275,0.33307 -0.258945,0.500865 -0.26262,0.52044 -0.522068,1.043041 -0.775782,1.56789 -0.123513,0.365762 -0.07244,0.281806 -0.247418,0.579136 -0.03809,0.06472 -0.06939,0.135254 -0.120201,0.190552 -0.02456,0.02673 -0.06442,0.06043 -0.09819,0.04711 -0.03824,-0.01508 -0.03402,-0.07547 -0.05813,-0.108767 -0.02024,-0.02795 -0.04896,-0.04865 -0.07344,-0.07297 -0.04433,0.05516 -0.07988,0.118711 -0.132996,0.165464 -0.03544,0.03119 -0.09511,0.02814 -0.126758,0.06317 -0.09001,0.09961 -0.07792,0.210335 -0.111976,0.328113 -0.0046,0.01587 -0.01874,0.02733 -0.02613,0.04209 -0.01349,0.02695 -0.02426,0.05519 -0.03639,0.08278 -0.01408,0.03219 -0.11117,0.256146 -0.123273,0.274312 -0.02727,0.04093 -0.07002,0.06926 -0.102003,0.106627 -0.03801,0.04442 -0.06835,0.09518 -0.107701,0.138415 -0.05851,0.06428 -0.163414,0.14397 -0.230623,0.197832 -0.115213,0.124003 -0.293088,0.314638 -0.398654,0.432504 -0.07197,0.08036 -0.134642,0.169506 -0.21296,0.243696 -0.04565,0.04324 -0.109894,0.06325 -0.156092,0.1059 -0.06013,0.05552 -0.09698,0.131887 -0.147155,0.196543 -0.02705,0.02596 -0.06253,0.04534 -0.08115,0.07788 -0.02519,0.04403 -0.241323,0.581533 -0.242571,0.584387 -0.04719,0.10787 -0.101763,0.212383 -0.150206,0.319697 -0.161266,0.357247 -0.14533,0.3324 -0.282524,0.696564 -0.09581,0.411744 -0.188247,0.854093 -0.463145,1.191598 -0.175951,0.216023 -0.0932,-0.08635 -0.266937,0.265866 -0.07691,0.155927 -0.120335,0.326242 -0.180502,0.489364 -0.197875,0.426177 -0.344054,0.882547 -0.410675,1.348986 -0.01729,0.121028 -0.01685,0.243934 -0.0262,0.365832 -0.03112,0.405553 -0.01789,0.124517 -0.03025,0.523814 -0.003,0.07574 0.0039,0.152542 -0.0091,0.227228 -0.0071,0.04079 -0.03461,0.07526 -0.05008,0.113667 -0.815322,2.023827 2.718343,0.301035 6.018925,0.115371 0.109755,-0.0062 0.02147,-0.21887 0.03678,-0.327727 0.0175,-0.124493 0.04108,-0.248056 0.06162,-0.372085 0.04281,-0.721084 0.0029,-0.302888 0.09451,-0.953526 0.02007,-0.142588 0.03223,-0.286384 0.0576,-0.428124 0.0728,-0.406637 0.193671,-0.808565 0.306815,-1.205105 0.03814,-0.179494 0.0732,-0.35967 0.11442,-0.538481 0.352856,-1.530609 -0.09294,0.540325 0.311449,-1.362714 0.06268,-0.294965 0.112549,-0.592873 0.186413,-0.885238 0.02534,-0.100319 0.366786,-1.193725 0.411365,-1.337036 0.187085,-0.470257 0.183942,-0.542069 0.451046,-0.939963 0.0732,-0.109037 0.162002,-0.206749 0.241931,-0.310952 0.14392,-0.187627 0.293931,-0.370699 0.432546,-0.562278 0.07875,-0.10884 0.150187,-0.222787 0.225281,-0.334181 0.225672,-0.349508 0.33714,-0.527936 0.572451,-0.869526 0.08201,-0.119047 0.159301,-0.241917 0.251069,-0.353615 0.07261,-0.08838 0.171432,-0.153595 0.240533,-0.24475 0.09013,-0.118895 0.153342,-0.256036 0.234157,-0.381446 0.0736,-0.114214 0.152642,-0.224826 0.228964,-0.337238 0.07059,-0.07742 0.138132,-0.157744 0.211776,-0.232271 0.07839,-0.07933 0.169125,-0.146275 0.243981,-0.228947 0.106439,-0.117555 0.198065,-0.247728 0.298641,-0.370337 0.2049,-0.249786 0.40322,-0.477554 0.646358,-0.688321 0.08444,-0.11598 0.220828,-0.319921 0.33552,-0.412488 0.0936,-0.07554 0.203742,-0.07798 0.299527,-0.146332 0.380443,-0.271501 -0.11568,0.0069 0.258972,-0.191461 0.618313,-0.492361 -0.303934,0.248438 0.394904,-0.337512 0.06742,-0.05653 0.143961,-0.101949 0.209087,-0.161112 0.122366,-0.11116 0.350824,-0.378447 0.456896,-0.493354 0.07835,-0.08488 0.159221,-0.167394 0.238832,-0.251091 0.151603,-0.142921 0.201314,-0.218403 0.390334,-0.297822 0.06239,-0.02621 0.133422,-0.02688 0.19624,-0.05205 0.06029,-0.02416 0.112638,-0.06479 0.17023,-0.09482 0.221556,-0.115538 0.05636,-0.0041 0.271834,-0.168794 0.07724,-0.09587 0.264212,-0.333664 0.351706,-0.418863 0.05836,-0.05683 0.126508,-0.102636 0.189887,-0.153799 0.05749,-0.04641 0.10905,-0.101447 0.17273,-0.138922 0.05861,-0.03449 0.12663,-0.04968 0.189946,-0.07451 0.0622,-0.03894 0.124393,-0.07789 0.186589,-0.116834 0.03713,-0.124665 0.218593,-0.0292 0.278242,-0.108976 0.05676,-0.0759 0.05304,-0.184441 0.10284,-0.265082 0.03212,-0.05201 0.09053,-0.08218 0.136485,-0.122493 0.05394,-0.04733 0.09663,-0.113596 0.163182,-0.140436 0.0492,-0.01984 0.105858,0.0071 0.158788,0.01059 1.728233,-1.285784 2.975125,-0.03061 -5.792595,-0.259287 -0.01592,-4.15e-4 -0.0093,-0.05074 -0.02266,-0.04207 -0.05673,0.03679 -0.158491,0.290274 -0.165999,0.306617 -0.180356,0.315629 -0.299379,0.660656 -0.453037,0.989262 -0.05333,0.114051 -0.118375,0.222739 -0.165877,0.339337 -0.06821,0.167432 -0.120472,0.340927 -0.180708,0.511391 -0.07305,0.193313 -0.153516,0.383983 -0.219148,0.579939 -0.0801,0.239147 -0.137083,0.485647 -0.217782,0.724592 -0.153916,0.455733 -0.406421,1.104105 -0.628889,1.533027 -0.105065,0.202566 -0.243515,0.386232 -0.354992,0.585341 -0.147702,0.263812 -0.281459,0.535194 -0.422189,0.802791 -0.355395,0.645466 -0.863065,1.174549 -1.334012,1.732299 -0.09799,0.116051 -0.201876,0.227609 -0.291397,0.350313 -0.02438,0.03342 -0.33137,0.531229 -0.3795,0.609089 -0.03565,0.104323 -0.06379,0.21152 -0.106944,0.312968 -0.02768,0.06508 -0.07811,0.119003 -0.104682,0.184542 -0.05017,0.123717 -0.128096,0.497134 -0.158117,0.600491 -0.09457,0.3256 -0.07722,0.26373 -0.231485,0.518192 -0.263436,0.44758 0.03426,-0.07552 -0.193831,0.380042 -0.0265,0.05293 -0.06338,0.100251 -0.08959,0.153324 -0.03235,0.06549 -0.05562,0.135109 -0.08574,0.201649 -0.03182,0.07029 -0.117217,0.238823 -0.153931,0.31195 -0.0213,0.06947 -0.037,0.140905 -0.0639,0.208398 -0.02471,0.138065 -0.147494,0.22484 -0.197187,0.348817 -0.07928,0.19779 -0.04647,0.312902 -0.09011,0.522707 -0.01674,0.08047 -0.04979,0.156674 -0.07469,0.235011 -0.01763,0.07775 -0.03063,0.156697 -0.05289,0.233249 -0.01483,0.05099 -0.03987,0.09846 -0.05809,0.148348 -0.05588,0.153041 -0.109674,0.30689 -0.159782,0.461917 -0.295549,0.914383 0.07986,-0.198543 -0.205017,0.637862 -0.117799,0.203456 -0.112653,0.449829 -0.203166,0.662074 -0.02745,0.06438 -0.07814,0.11704 -0.106048,0.181225 -0.04768,0.109641 -0.0781,0.226025 -0.119772,0.338087 -0.03852,0.103606 -0.08052,0.205889 -0.120775,0.308834 -0.01298,0.155667 -0.16111,0.220332 -0.227556,0.339157 -0.02685,0.04801 -0.03697,0.103688 -0.05246,0.156471 -0.01017,0.03465 -0.0048,0.07525 -0.02444,0.105526 -0.0069,0.01059 -0.02368,-0.0088 -0.03553,-0.0132 -0.008,0.04965 -0.01596,0.09929 -0.02394,0.148939 -0.01226,0.01386 -0.02851,0.02503 -0.03679,0.04158 -0.05208,0.104182 -0.04134,0.233296 -0.04484,0.227608 -0.03316,-0.0538 0.0077,-0.13252 -0.02198,-0.188317 -0.01616,-0.03039 -0.05929,0.09946 -0.02488,0.100224 2.013534,0.04484 4.028003,0.02251 6.042004,0.03377 0.03364,-0.08744 0.09838,-0.25739 0.127158,-0.319842 0.04744,-0.102964 0.10214,-0.202427 0.152588,-0.30395 0.08792,-0.176937 0.170602,-0.356532 0.262518,-0.531427 0.292403,-0.556375 0.489908,-0.87909 0.810366,-1.426948 0.133133,-0.237204 0.276742,-0.468826 0.399398,-0.711613 0.149386,-0.295696 0.264046,-0.608235 0.416089,-0.902573 0.439829,-0.851462 0.969206,-1.680798 1.632191,-2.377023 0.127947,-0.134362 0.273919,-0.250326 0.410879,-0.375489 0.138016,-0.244201 0.423739,-0.296379 0.616223,-0.468101 0.122643,-0.109414 0.217171,-0.246782 0.328165,-0.367995 0.200861,-0.25088 0.449471,-0.455627 0.668062,-0.689291 0.07718,-0.0825 0.146401,-0.172103 0.219602,-0.258155 0.177689,-0.231592 0.346256,-0.614185 0.585648,-0.790639 0.14476,-0.106701 0.197058,-0.03847 0.339975,-0.134748 0.06258,-0.04216 0.109014,-0.104371 0.163521,-0.156556 0.05336,-0.08319 0.09801,-0.172665 0.160077,-0.249585 0.28929,-0.358545 0.671884,-0.63055 0.97326,-0.978878 0.09482,-0.109597 0.173771,-0.232016 0.263416,-0.345888 0.07557,-0.096 0.154779,-0.189089 0.232169,-0.283633 0.160166,-0.211611 0.214694,-0.311106 0.40757,-0.476143 0.04436,-0.03796 0.102775,-0.05772 0.145469,-0.09754 0.09986,-0.09314 0.156616,-0.225996 0.255252,-0.320437 0.08189,-0.0784 0.176698,-0.142086 0.265047,-0.213128 0.165864,-0.175907 0.451727,-0.329333 0.590544,-0.534726 0.03887,-0.05751 0.05666,-0.127079 0.09216,-0.186719 0.02858,-0.04801 0.06776,-0.08892 0.09936,-0.135 0.03906,-0.05695 0.07502,-0.115976 0.112523,-0.173965 0.04338,-0.06958 0.09512,-0.134586 0.130136,-0.208725 0.06175,-0.130755 0.09727,-0.272853 0.159024,-0.403603 0.157477,-0.333417 0.369402,-0.688038 0.58201,-0.989344 0.228206,-0.323413 0.161549,-0.257465 0.407673,-0.40776 1.680256,1.2477 0.167021,0.108623 -6.025938,-0.215434 -0.02245,-0.0012 -0.04257,-0.06534 -0.02012,-0.06436 2.042664,0.08945 4.081426,0.262891 6.124889,0.331689 0.04651,0.0016 0.02015,-0.113034 0.06555,-0.123273 0.03449,-0.0078 0.02008,0.0678 0.03012,0.101694 -2.030701,-0.08671 -4.059603,-0.274406 -6.092104,-0.260124 -0.106712,7.5e-4 -0.06224,0.204394 -0.101449,0.303645 -0.05153,0.130428 -0.114613,0.255994 -0.170455,0.384634 -0.064,0.147428 -0.123639,0.296744 -0.189055,0.443548 -0.08247,0.185077 -0.182722,0.362532 -0.254554,0.551992 -0.102629,0.270689 -0.178625,0.550739 -0.267938,0.826108 -0.211988,0.419327 -0.405648,0.847501 -0.611606,1.269733 -0.110108,0.225733 -0.228036,0.447638 -0.335867,0.674468 -0.110191,0.231796 -0.208952,0.468892 -0.318091,0.701185 -0.200999,0.427811 -0.39073,0.794954 -0.603589,1.215044 -0.0984,0.162169 -0.202531,0.320994 -0.295193,0.486507 -0.40012,0.714697 -0.385703,0.817974 -0.874661,1.522492 -0.397029,0.572061 -0.489683,0.594938 -0.91885,1.075735 -0.126543,0.141766 -0.245606,0.290035 -0.368409,0.435053 -0.377609,0.462471 -0.400126,0.497012 -0.79135,0.948287 -0.180342,0.208022 -0.466641,0.448059 -0.523108,0.740914 -0.01074,0.0557 -0.0025,0.113422 -0.0037,0.170133 -0.0048,0.01901 -0.0059,0.03937 -0.01444,0.05703 -0.02751,0.05701 -0.07944,0.09988 -0.107131,0.156805 -0.06902,0.141919 -0.0848,0.250256 -0.137948,0.400737 -0.02181,0.06175 -0.0493,0.121341 -0.07395,0.182011 -0.07945,0.133611 -0.103589,0.29498 -0.18298,0.428448 -0.02992,0.05029 -0.08824,0.07992 -0.116997,0.130894 -0.101911,0.180652 -0.176567,0.52467 -0.233519,0.730948 -0.02963,0.05525 -0.164197,0.301791 -0.181315,0.35303 -0.0339,0.101459 -0.04837,0.208411 -0.0741,0.312244 -0.02669,0.107734 -0.05208,0.215867 -0.08313,0.322427 -0.116701,0.351766 -0.06396,0.177037 -0.159054,0.523937 -0.02316,0.07174 -0.04848,0.142818 -0.06949,0.215218 -0.02643,0.0911 -0.03866,0.186595 -0.07277,0.275103 -0.04261,0.110538 -0.103571,0.213096 -0.156293,0.319183 -0.05927,0.119274 -0.113942,0.241058 -0.179692,0.356889 -0.220155,0.336374 -0.122349,0.171287 -0.297188,0.493006 -0.06764,0.324245 -0.23164,0.610736 -0.386883,0.898786 -0.03493,0.06481 -0.07839,0.125233 -0.108151,0.192568 -0.171268,0.387463 0.01438,0.09409 -0.160492,0.348649 -0.07282,0.05275 -0.01325,0.179016 -0.06807,0.242692 -0.0094,0.0109 -0.02809,-0.0063 -0.04213,-0.0094 -0.01791,0.02241 -0.04073,0.04166 -0.05372,0.06724 -0.0234,0.04608 -0.06834,0.20142 -0.08411,0.253376 -0.06426,-0.03973 -0.06487,0.205643 -0.09245,0.152867 -0.03113,-0.05956 -0.07764,-0.203177 -0.01046,-0.201353 2.032482,0.05519 4.056273,0.308478 6.088679,0.366397 0.06547,0.0019 0.02939,-0.127657 0.04335,-0.191648 0.01716,-0.07869 0.03335,-0.157582 0.05003,-0.236373 0.20472,-0.440654 0.428442,-0.871233 0.633573,-1.312078 0.127667,-0.274368 0.243438,-0.554447 0.380083,-0.824457 0.138837,-0.274343 0.297212,-0.538353 0.445819,-0.80753 0.297666,-0.384408 0.520369,-0.81829 0.795233,-1.217591 0.672182,-0.97649 0.01211,0.101058 0.681764,-0.974604 0.829664,-1.332693 -0.03605,-0.0158 0.852142,-1.342468 0.546412,-0.571423 0.825815,-1.308763 1.221008,-1.979091 0.205285,-0.348206 0.41365,-0.695976 0.651931,-1.02249 0.475591,-0.651697 0.541553,-0.654563 1.08976,-1.086506 0.294832,-0.243164 0.295908,-0.274164 0.585671,-0.42853 0.03896,-0.02076 0.09398,-0.01698 0.122272,-0.05087 0.04892,-0.0586 0.100148,-0.299794 0.123903,-0.367528 0.01944,-0.05543 0.04653,-0.107867 0.0698,-0.161801 0.03642,-0.06267 0.07055,-0.126728 0.10927,-0.187999 0.04437,-0.07021 0.103597,-0.13149 0.13987,-0.206206 0.417393,-0.85975 -0.190533,0.189684 0.305165,-0.728277 0.05463,-0.101171 0.126077,-0.192359 0.186128,-0.29041 0.04298,-0.07018 0.08192,-0.142752 0.122872,-0.214128 0.06894,-0.02354 0.108208,-0.09151 0.17019,-0.124774 0.0072,-0.0039 0.110537,-0.02235 0.117876,-0.03391 0.02067,-0.03256 0.107889,-0.322919 0.115009,-0.345847 0.132134,-0.207722 0.31839,-0.3818 0.441784,-0.595272 0.05083,-0.08794 0.08422,-0.184924 0.129668,-0.275765 0.130135,-0.260109 0.129889,-0.246431 0.281637,-0.483186 0.09226,-0.03516 0.129587,-0.136648 0.207288,-0.18844 0.0493,-0.03286 0.118251,0.03748 0.143014,-0.04917 0.02301,-0.08052 0.02316,-0.16587 0.03475,-0.248804 0.08071,-0.112433 0.120213,-0.252721 0.200906,-0.36457 -0.007,-0.136907 0.108262,-0.04048 0.147315,-0.08057 0.02647,-0.02717 0.02771,-0.07063 0.04156,-0.105948 0.009,-0.01352 0.0233,-0.02475 0.02695,-0.04057 0.07311,-0.317093 -0.04081,-0.08183 0.04261,-0.01139 0.02398,0.02024 0.02168,-0.05897 0.03003,-0.08922 0.04101,-0.148675 -0.0051,-0.08374 0.07041,-0.164729 0.0657,-0.384507 -0.01082,-0.05503 0.07298,-0.264875 0.01344,-0.03367 0.0037,-0.127502 0.03143,-0.104113 0.04128,0.03486 0.0872,0.157956 0.03317,0.158671 -2.007139,0.02656 -4.018794,-0.216527 -6.021421,-0.07942 -0.168042,0.0115 -0.05837,0.331773 -0.08756,0.49766 -0.148432,0.872484 -0.495312,1.683012 -0.827596,2.495741 -0.09628,0.235481 -0.183111,0.475003 -0.287886,0.706828 -0.128051,0.283327 -0.534522,1.057373 -0.680703,1.338954 -0.273733,0.439994 -0.542861,0.88355 -0.795426,1.336159 -0.04929,0.08832 -0.108931,0.172336 -0.143265,0.267471 -0.415542,1.15139 0.250079,-0.387862 -0.207398,0.635066 -0.130693,0.490137 -0.307926,0.965764 -0.551584,1.411087 -0.04934,0.09017 -0.09954,0.180405 -0.159507,0.263883 -0.401432,0.558862 0.07965,-0.278032 -0.379214,0.586328 -0.08591,0.14572 -0.165287,0.295494 -0.257726,0.437162 -0.221936,0.340128 -0.23799,0.280743 -0.4103,0.596799 -0.337223,0.618542 0.136276,-0.179218 -0.211115,0.52486 -0.03367,0.06824 -0.08768,0.124387 -0.131517,0.186581 -0.02944,0.06397 -0.180246,0.395162 -0.218512,0.465236 -0.03289,0.06022 -0.08005,0.112311 -0.109666,0.174211 -0.05317,0.111135 -0.08542,0.231435 -0.137755,0.342964 -0.611386,1.302846 0.259415,-0.678608 -0.324561,0.668536 -0.158712,0.338943 -0.161794,0.389919 -0.37956,0.686905 -0.05902,0.08049 -0.136131,0.146809 -0.193672,0.228364 -0.05204,0.07376 -0.08785,0.157754 -0.133641,0.235554 -0.106846,0.181534 -0.128982,0.209812 -0.241949,0.379051 -0.148218,0.192551 -0.172838,0.418684 -0.234483,0.646802 -0.03361,0.124382 -0.06596,0.249529 -0.110951,0.370264 -0.09283,0.249138 -0.118014,0.264724 -0.250173,0.453449 -0.174027,0.305528 0.01711,-0.05211 -0.125087,0.292017 -0.01953,0.04726 -0.05098,0.08882 -0.07224,0.135328 -0.302402,0.661732 0.136838,-0.258915 -0.171456,0.448385 -0.02876,0.06599 -0.0675,0.127178 -0.101254,0.190767 -0.03269,0.07095 -0.06903,0.140328 -0.09806,0.212853 -0.03092,0.07727 -0.05177,0.15827 -0.08158,0.235972 -0.09271,0.241628 -0.204201,0.476692 -0.301925,0.716242 -0.05315,0.130273 -0.101526,0.262441 -0.152289,0.393662 -0.175196,0.365082 -0.405608,0.697436 -0.616281,1.041875 -0.03508,0.05735 -0.0827,0.108176 -0.107409,0.170698 -0.05641,0.267663 -0.01678,0.148786 -0.106815,0.360439 -0.06882,0.241173 -0.164668,0.475053 -0.293873,0.690425 -0.03227,0.05379 -0.06086,0.111036 -0.103036,0.157476 -0.02791,0.03073 -0.06882,0.04645 -0.103229,0.06967 -0.08479,0.09314 -0.118033,0.112165 -0.162098,0.239229 -0.02347,0.06768 -0.02671,0.141207 -0.0495,0.209115 -0.02685,0.07999 -0.09951,0.160111 -0.123269,0.240818 -0.02252,0.0765 -0.02822,0.156969 -0.04233,0.235454 -0.0233,0.03855 -0.0377,0.08415 -0.06991,0.115638 -0.02305,0.02253 -0.06815,0.01408 -0.08843,0.03913 -0.03178,0.03928 -0.03427,0.09532 -0.0569,0.140491 -0.01047,0.02089 -0.0302,0.03599 -0.04172,0.05632 -0.07132,0.125863 0.0021,0.05281 -0.09335,0.13033 -0.02049,0.03795 -0.03671,0.07854 -0.06147,0.113854 -0.01952,0.02784 -0.05104,0.04591 -0.07023,0.07397 -0.167627,0.245116 0.0362,0.0032 -0.129651,0.273693 -0.236762,0.386184 0.112095,-0.361263 -0.170373,0.291674 -0.03143,0.100871 -0.095,0.321188 -0.144649,0.424819 -0.04122,0.08603 -0.123921,0.188398 -0.177918,0.266066 -0.09412,0.135372 -0.07528,0.109961 -0.153028,0.253032 -0.01987,0.04298 -0.04404,0.08422 -0.05962,0.128931 -0.159462,0.457683 0.09415,-0.145831 -0.128777,0.442471 -0.103866,0.274107 -0.247122,0.533659 -0.362535,0.803105 -0.06347,0.121154 -0.06388,0.263164 -0.114795,0.388089 -0.01966,0.04824 -0.05965,0.08632 -0.07991,0.134326 -0.0079,0.01866 -0.165105,0.505512 -0.171284,0.517587 -0.03241,0.06334 -0.08868,0.111291 -0.133012,0.166937 -0.18121,0.327568 -0.0906,0.148076 -0.242539,0.484231 -0.02693,0.05958 -0.04613,0.123395 -0.08134,0.178488 -0.01459,0.02284 -0.05362,0.02474 -0.06443,0.04959 -0.06877,0.158145 0.03422,0.156686 -0.04637,0.151942 -0.01158,0.01561 -0.02074,0.03336 -0.03475,0.04683 -0.01804,0.01734 -0.05189,0.02108 -0.06037,0.04462 -0.0449,0.124598 -0.0083,0.240599 -0.09177,0.346829 -0.01591,0.02025 -0.04755,0.02157 -0.067,0.03845 -0.02558,0.02219 -0.04412,0.05139 -0.06617,0.07708 -0.02167,0.04221 -0.0513,0.0812 -0.065,0.126623 -0.02064,0.06842 -0.01964,0.141848 -0.03688,0.211203 -0.01151,0.04627 -0.03332,0.08936 -0.04905,0.134378 -0.02345,0.06713 -0.04168,0.136168 -0.06848,0.202033 -0.02428,0.05968 -0.06734,0.111736 -0.08445,0.173848 -0.02446,0.08882 -0.02586,0.182429 -0.03879,0.273644 -0.177073,0.140284 -0.0044,-0.01719 -0.173121,0.245867 -0.0734,0.114426 -0.109311,0.08371 -0.169756,0.202807 -0.02137,0.0421 0.0028,0.145924 -0.04313,0.134897 -0.04972,-0.01194 -0.01683,-0.10088 -0.02524,-0.15132 -0.423344,2.07622 -0.09938,0.318928 6.038813,0.17386 0.07212,-0.0017 -0.01,-0.143954 -0.01267,-0.216042 -0.003,-0.07972 0.0016,-0.159717 -0.0042,-0.239274 -0.0095,-0.129192 -0.0426,-0.256842 -0.04167,-0.386377 0.0014,-0.197955 0.03245,-0.394587 0.04868,-0.59188 0.04649,-0.234376 0.190544,-0.976128 0.251145,-1.223363 0.03655,-0.149108 0.08526,-0.29497 0.127281,-0.442629 0.03443,-0.12097 0.08474,-0.238679 0.102061,-0.363254 0.02223,-0.15992 0.0059,-0.322961 0.01575,-0.484119 0.0088,-0.144411 0.02682,-0.288115 0.04023,-0.432172 0.06153,-0.273139 0.16509,-0.534379 0.235239,-0.804985 0.137344,-0.529817 0.08517,-0.544177 0.286828,-1.009939 0.03988,-0.09211 0.100329,-0.174002 0.145649,-0.263566 0.03873,-0.07653 0.07086,-0.156221 0.106293,-0.234332 0.22137,-0.541267 -0.06564,0.17761 0.164316,-0.465106 0.173533,-0.485008 0.08437,-0.145796 0.254959,-0.674862 0.100537,-0.311802 0.237764,-0.838318 0.317139,-1.132012 0.0359,-0.09887 0.429049,-1.189235 0.478075,-1.293839 0.05612,-0.119736 0.323973,-0.505401 0.411127,-0.650051 0.09652,-0.160187 0.255574,-0.470429 0.335061,-0.621845 0.231808,-0.491981 0.202027,-0.408879 0.406317,-0.9253 0.14943,-0.377741 0.216895,-0.665583 0.465734,-0.98783 0.05771,-0.07474 0.146156,-0.119618 0.218905,-0.179826 0.04831,-0.03998 0.09619,-0.0805 0.144281,-0.120747 0.05632,-0.105747 0.111921,-0.211884 0.16897,-0.317242 0.286893,-0.529835 0.157348,-0.261687 0.441709,-0.864904 0.08747,-0.185555 0.164502,-0.376174 0.258794,-0.558357 0.19876,-0.384025 0.284944,-0.492524 0.509616,-0.821163 0.07128,-0.201962 0.169511,-0.390237 0.242128,-0.591393 0.02646,-0.07329 0.08277,-0.266448 0.137034,-0.336739 0.01768,-0.02291 0.05028,-0.02867 0.07542,-0.043 0.11558,-0.130291 0.146578,-0.308222 0.235512,-0.454157 0.03623,-0.05946 0.123439,-0.121085 0.146304,-0.191785 0.02038,-0.063 0.02002,-0.130902 0.03003,-0.196352 0.05388,-0.0336 0.0095,-0.119072 0.05003,-0.15545 0.01354,-0.01216 0.01367,0.05536 0.02931,0.04606 0.02425,-0.01442 0.0079,-0.100103 0.02772,-0.07998 0.07466,0.07596 -0.01172,0.243317 0.06494,0.05384 0.184115,-2.51529 -1.427274,-0.658207 -6.106747,-0.453078 -0.07242,0.0032 -0.06137,0.131351 -0.09083,0.197578 -0.200599,0.450894 -0.05274,0.160817 -0.319015,0.635197 -0.08055,0.143538 -0.164835,0.285043 -0.241651,0.430613 -0.11376,0.215576 -0.478887,0.971582 -0.581872,1.156875 -0.164948,0.296776 -0.523367,0.856228 -0.726159,1.139912 -0.120208,0.168157 -0.251126,0.328394 -0.376689,0.49259 -0.903363,1.030639 0.100254,-0.100966 -0.693076,0.75834 -0.0856,0.09272 -0.164958,0.191049 -0.249725,0.284533 -0.08198,0.09041 -0.175655,0.170643 -0.250456,0.267083 -0.136093,0.175463 -0.255542,0.363244 -0.380706,0.546664 -0.212085,0.310795 -0.420675,0.623961 -0.631012,0.935942 -0.641942,0.722796 -0.702973,0.817513 -1.342461,1.450619 -0.119584,0.118391 -0.250754,0.224764 -0.369271,0.344223 -0.31976,0.322298 -0.04361,0.06806 -0.270692,0.371489 -0.04215,0.05632 -0.09579,0.103027 -0.143691,0.15454 -0.176941,0.379062 -0.388602,0.738595 -0.63362,1.077332 -0.06347,0.08775 -0.123412,0.178861 -0.196702,0.258598 -0.39667,0.431558 0.0062,-0.119804 -0.304031,0.330329 -0.03028,0.03579 -0.06841,0.06621 -0.09084,0.107379 -0.03673,0.06742 -0.04809,0.146653 -0.08442,0.214287 -0.03283,0.06112 -0.08903,0.107679 -0.121451,0.169011 -0.05953,0.112604 -0.09668,0.235902 -0.153,0.350145 -0.128907,0.261479 -0.314793,0.565984 -0.4617,0.815495 -0.215462,0.389466 -0.556013,0.669416 -0.865641,0.977679 -0.07098,0.07067 -0.128471,0.15576 -0.207385,0.217444 -0.288876,0.225801 -0.03348,-0.08462 -0.19036,0.121794 -0.0026,0.110416 -0.01107,0.220847 -0.0078,0.331246 4.11e-4,0.01411 0.01811,0.05217 0.01861,0.03806 0.0072,-0.204325 -0.02923,-0.316529 -0.144028,-0.06627 -0.03406,0.07425 -0.05566,0.153599 -0.08349,0.230398 -0.01472,0.06759 -0.02944,0.135174 -0.04416,0.202761 -0.01039,0.02372 -0.02401,0.04627 -0.03116,0.07116 -0.0079,0.02739 0.0036,0.107249 -0.0135,0.08442 -0.02607,-0.0349 0.0099,-0.0974 -0.01992,-0.12915 -0.01942,-0.02067 -0.01666,0.05422 -0.025,0.08133 -0.0025,-0.05717 -0.0051,-0.114332 -0.0076,-0.171499 2.027972,0.124423 4.054608,0.272986 6.083917,0.373268 0.03251,0.0016 0.04952,-0.04304 0.06887,-0.06922 0.05243,-0.07091 0.163547,-0.265955 0.206942,-0.341063 0.151213,-0.261718 0.04667,-0.08714 0.211805,-0.356633 0.05067,-0.102915 0.09599,-0.208643 0.152021,-0.308745 0.165574,-0.29583 0.363738,-0.564624 0.545731,-0.850564 0.494259,-0.776561 0.951174,-1.576041 1.410949,-2.373137 1.048797,-2.039489 2.320734,-3.967517 3.821221,-5.705174 1.405524,-1.627685 1.523551,-1.487131 3.004371,-2.90294 0.542187,-0.518383 1.055571,-1.066076 1.583357,-1.599114 2.04972,-1.639433 0.728455,-0.718701 2.348163,-1.654234 0.154829,-0.08943 0.323491,-0.163848 0.453252,-0.286859 0.13305,-0.126127 0.212594,-0.298751 0.320694,-0.446821 0.585831,-0.802438 0.157624,-0.183879 0.736644,-1.044806 0.443553,-0.624628 0.863344,-1.27514 1.377798,-1.846027 0.134549,-0.149309 0.290907,-0.277444 0.433957,-0.41863 0.117344,-0.115815 0.223758,-0.242976 0.347163,-0.352311 0.109992,-0.09745 0.234152,-0.177635 0.351227,-0.266453 0.267022,-0.204587 0.476182,-0.473131 0.753322,-0.66533 0.07468,-0.05179 0.161283,-0.08521 0.234575,-0.138939 0.64477,-0.472689 -0.153511,0.02664 0.502375,-0.366831 0.06556,-0.03371 0.123439,-0.09274 0.196678,-0.101128 0.03795,-0.0043 0.130313,0.07055 0.0922,0.06805 -2.029418,-0.133244 -4.050614,-0.41572 -6.083887,-0.46144 -0.108328,-0.0024 -0.01649,0.216086 -0.02552,0.324064 -0.02669,0.319022 -0.03276,0.362234 -0.06712,0.70011 -0.03448,0.50468 -0.04912,1.017994 -0.150847,1.515484 -0.04597,0.224814 -0.106564,0.446759 -0.174977,0.665789 -0.06893,0.220671 -0.157739,0.43463 -0.236609,0.651945 -0.07754,0.262885 -0.155079,0.525769 -0.232619,0.788653 -0.310205,1.086425 -0.296403,1.155934 -0.737813,2.214989 -0.133991,0.32148 -0.296803,0.630267 -0.436704,0.94922 -0.261355,0.59585 -0.510792,1.279136 -0.801921,1.861446 -0.131663,0.263347 -0.290558,0.512176 -0.435836,0.768264 -0.617636,1.10014 -0.254403,0.436871 -0.847569,1.559081 -0.124526,0.23559 -0.263481,0.464 -0.374971,0.706031 -0.113112,0.245551 -0.18985,0.506536 -0.297774,0.754411 -0.258994,0.594849 -0.268149,0.573053 -0.578464,1.061849 -0.630331,1.202609 0.179235,-0.365153 -0.467131,0.969579 -0.382595,0.790052 -0.139366,0.15538 -0.493344,1.05423 -0.126543,0.321329 -0.221241,0.655747 -0.366573,0.969026 -0.168809,0.363886 -0.382471,0.705233 -0.573707,1.05785 -0.420146,0.685513 -0.579202,1.004153 -1.050694,1.592297 -0.102735,0.128152 -0.232266,0.233311 -0.334092,0.362187 -0.08336,0.1055 -0.139637,0.230249 -0.219478,0.338435 -0.05365,0.07269 -0.201878,0.219181 -0.275688,0.293779 -0.03297,0.04528 -0.06296,0.09289 -0.0989,0.135844 -0.04191,0.05009 -0.09431,0.09105 -0.134204,0.142766 -0.165731,0.214874 -0.211059,0.331108 -0.347235,0.574529 -0.182811,0.326781 -0.145021,0.25748 -0.346562,0.571042 -0.240065,0.487099 -0.584124,0.905347 -0.923411,1.324443 -0.223799,0.276441 -0.108023,0.159894 -0.309155,0.341422 0.04753,0.116274 -0.1025,0.07912 -0.122826,0.13698 -0.01805,0.05139 4.57e-4,0.112066 -0.02125,0.162022 -0.0064,0.01478 -0.01928,-0.03955 -0.0344,-0.03397 -0.03765,0.01389 -0.05969,0.05365 -0.09006,0.07988 -0.03833,0.03311 -0.07734,0.06543 -0.116015,0.09814 -0.07385,0.09699 -0.06087,0.233456 -0.120077,0.336956 -0.03298,0.05765 -0.05667,-0.0056 -0.08511,-0.01169 -0.019,-0.004 -0.0382,0.0071 -0.0573,0.01064 2.005335,0.03799 4.01067,0.07598 6.016005,0.113968 0.258789,-0.524599 0.483162,-1.065326 0.737022,-1.592229 0.122236,-0.25371 0.233421,-0.513809 0.376941,-0.756115 0.161748,-0.273082 0.357828,-0.524313 0.536742,-0.786469 0.204716,-0.298195 0.400625,-0.602632 0.614148,-0.894586 0.221932,-0.303449 0.470619,-0.586756 0.691657,-0.890856 1.037344,-1.427158 0.530915,-0.907792 1.719797,-2.351205 3.264877,-3.963863 -1.385256,1.889472 2.002309,-2.409201 0.0684,-0.08071 1.822083,-2.153617 1.971024,-2.316499 0.232207,-0.253944 0.4936,-0.479817 0.730893,-0.729014 0.22282,-0.233998 0.432639,-0.48004 0.648959,-0.720059 0.219657,-0.248299 0.431022,-0.504185 0.658969,-0.744895 0.194723,-0.205625 0.405459,-0.395472 0.608188,-0.593208 0.200958,-0.2834 0.535401,-0.441169 0.753742,-0.707866 0.103574,-0.126513 0.175674,-0.275812 0.264341,-0.413184 0.247156,-0.382919 0.772301,-1.200493 1.018847,-1.512191 0.194401,-0.245773 0.423271,-0.462198 0.634906,-0.693296 -1.23836,-0.321559 0.927678,-0.354585 0.672039,-0.3741 -2.018726,-0.15411 -6.433792,1.568293 -6.059167,-0.421345 0.376011,-1.997003 4.060709,0.168091 6.091074,0.251889 0.01945,8.03e-4 0.07784,0.0018 0.05837,0.0019 -2.000364,0.0082 -4.000735,0.0149 -6.001102,0.02236 -0.0087,0.0016 -0.02386,-0.0037 -0.02616,0.0049 -0.400835,1.496748 0.280257,-0.772581 -0.251072,0.9364 -0.05456,0.175488 -0.103264,0.352809 -0.160537,0.52743 -0.09972,0.304051 -0.212228,0.603773 -0.315194,0.906742 -0.154921,0.458698 -0.271976,0.82445 -0.457923,1.281557 -0.113782,0.279707 -0.243385,0.552725 -0.362302,0.830288 -0.161554,0.377078 -0.294436,0.767285 -0.479098,1.133602 -0.164058,0.325445 -0.38444,0.61951 -0.564415,0.936431 -0.178472,0.314274 -0.340374,0.637674 -0.51056,0.95651 -0.522136,0.838143 -0.454501,0.7872 -1.017481,1.497509 -0.112964,0.142526 -0.238102,0.275036 -0.353003,0.416005 -0.07438,0.09126 -0.135818,0.193049 -0.214678,0.280468 -0.497633,0.551646 0.284885,-0.467669 -0.344491,0.385826 -0.386345,0.53314 -0.701779,1.113024 -1.070402,1.65782 -0.406218,0.600359 -0.321452,0.399962 -0.677393,0.952573 -0.107124,0.166314 -0.204681,0.338599 -0.307022,0.507899 -0.303528,0.518175 -0.645161,1.010491 -1.065377,1.441199 -0.07349,0.07532 -0.149674,0.149355 -0.235512,0.210224 -0.18986,0.134631 -0.03894,-0.08985 -0.155795,0.123746 -0.153043,0.297086 -0.384287,0.550147 -0.532451,0.849822 -0.118224,0.294387 -0.05276,0.152856 -0.195045,0.425214 -0.137756,0.255512 -0.330398,0.463547 -0.564888,0.634109 -0.2377,0.172896 -0.09525,-1.33e-4 -0.248997,0.23319 7.041812,0.493098 5.299686,2.124608 6.214637,-0.08964 0.02952,-0.07143 0.06769,-0.139058 0.09759,-0.210327 0.251698,-0.599875 -0.06667,0.110551 0.146272,-0.358622 0.02002,-0.03368 0.03845,-0.06836 0.06007,-0.101042 0.133928,-0.202503 0.05136,-0.03849 0.214805,-0.320834 0.251784,-0.434943 0.458867,-0.898798 0.674023,-1.351884 0.27494,-0.497805 0.502117,-1.020059 0.768073,-1.522388 0.14027,-0.264936 0.290803,-0.524337 0.440214,-0.784227 0.135066,-0.234939 0.293213,-0.457172 0.413167,-0.700174 0.156965,-0.317979 0.267541,-0.657079 0.415827,-0.979197 0.166605,-0.361909 0.352315,-0.714713 0.528473,-1.07207 0.535904,-0.819163 0.95395,-1.705751 1.458312,-2.543349 0.165187,-0.274327 0.345707,-0.539138 0.515735,-0.81049 0.204744,-0.326757 0.393146,-0.663979 0.60856,-0.983801 0.214109,-0.317884 0.452689,-0.618581 0.679034,-0.927871 0.279087,-0.551221 0.778746,-0.97067 1.064402,-1.518989 0.17638,-0.338563 0.27333,-0.713677 0.436313,-1.058889 0.270828,-0.573634 0.599452,-1.145013 0.983259,-1.653421 0.113599,-0.150478 0.248687,-0.283456 0.37303,-0.425184 0.03505,-0.03511 0.495302,-0.498878 0.578812,-0.573643 0.0433,-0.03877 0.09151,-0.07179 0.139308,-0.104865 0.0312,-0.02159 0.07161,-0.0311 0.09738,-0.05894 0.03569,-0.03855 0.05232,-0.09124 0.08188,-0.134683 0.02631,-0.03867 0.05698,-0.07419 0.08546,-0.111287 0.155964,-0.148873 0.03166,-0.01238 0.162103,-0.223361 0.07945,-0.128494 0.06496,-0.04021 0.11852,-0.20633 0.06224,-0.193025 -0.0091,-0.107924 0.06653,-0.185937 -2.018716,-0.01025 -4.038736,-0.104021 -6.056147,-0.03074 -0.08383,0.003 -0.003,0.168114 -0.01415,0.251245 -0.01507,0.111963 -0.03905,0.222654 -0.06448,0.332728 -0.02942,0.109518 -0.05885,0.219035 -0.08827,0.328553 -0.04064,0.09343 -0.09476,0.182089 -0.121908,0.280291 -0.06353,0.229808 -0.09931,0.466398 -0.148962,0.699597 -0.30396,1.118778 -0.505446,2.272272 -0.928569,3.356668 -0.121434,0.311216 -0.293497,0.600252 -0.435595,0.902593 -0.708114,1.506651 -0.06814,0.216446 -0.746281,1.559051 -0.101882,0.202148 -0.304064,0.551084 -0.355977,0.802468 -0.01963,0.09507 -0.0093,0.193938 -0.01461,0.29087 -0.0047,0.08621 -0.0075,0.172596 -0.0156,0.258553 -0.0263,0.277888 -0.05802,0.43087 -0.105852,0.715866 -0.0449,0.63827 -0.176731,1.273443 -0.450505,1.855752 -0.12864,0.273613 -0.313135,0.476902 -0.459767,0.736326 -0.05231,0.09254 -0.09124,0.19203 -0.136854,0.288045 -0.128116,0.352177 -0.11208,0.73051 -0.172731,1.093983 -0.05247,0.314455 -0.119101,0.57666 -0.265262,0.855997 -0.03829,0.07317 -0.09454,0.135438 -0.141817,0.203157 -0.01108,0.01449 -0.165438,0.225247 -0.206054,0.25101 -0.01866,0.01183 -0.04868,-0.01311 -0.06628,2.44e-4 -0.0273,0.02072 -0.03171,0.06098 -0.05136,0.08905 -0.01495,0.02135 -0.04153,0.03458 -0.0519,0.05849 -0.01999,0.04612 -0.02455,0.09749 -0.03683,0.146238 -2.043037,-0.257916 1.481995,0.187792 6.081971,0.122424 0.07232,-0.001 0.02501,-0.142764 0.04502,-0.212271 0.0992,-0.34451 0.266149,-0.661889 0.42735,-0.9799 0.05847,-0.105395 0.368272,-0.666275 0.414424,-0.737881 0.08215,-0.127463 0.193751,-0.235368 0.268127,-0.36752 0.187207,-0.332629 0.351494,-0.878372 0.491746,-1.211578 0.106214,-0.252337 0.229623,-0.497086 0.344435,-0.745629 0.587497,-1.126097 0.202367,-0.446886 0.817302,-1.418839 0.180696,-0.285605 0.491318,-0.809969 0.691628,-1.086751 0.119118,-0.164592 0.594921,-0.722902 0.720059,-0.871328 0.500929,-0.566473 0.879773,-1.224007 1.333762,-1.825482 0.123254,-0.163295 0.264244,-0.312566 0.389763,-0.474127 0.03451,-0.04441 0.432446,-0.601724 0.492016,-0.685032 0.214136,-0.206605 0.202994,-0.17262 0.362113,-0.412152 0.04626,-0.06963 0.08031,-0.147157 0.129305,-0.214895 0.04104,-0.05673 0.09988,-0.09929 0.13963,-0.156932 0.403699,-0.585414 -0.165473,0.1328 0.236755,-0.360489 0.04861,-0.09116 0.1034,-0.179286 0.145843,-0.273478 0.06565,-0.14569 0.113352,-0.298983 0.177962,-0.445137 0.132987,-0.300826 0.208618,-0.446844 0.378792,-0.70524 0.02999,-0.04554 0.04403,-0.123314 0.09802,-0.130978 0.03926,-0.0056 0.02856,0.07399 0.04284,0.110983 -2.025947,-0.08192 -4.050526,-0.211579 -6.07784,-0.245769 -0.04821,-8.13e-4 -0.01105,0.09606 -0.02253,0.142891 -0.027,0.110129 -0.06348,0.217735 -0.09272,0.327288 -0.06081,0.227803 -0.09992,0.46205 -0.17744,0.684724 -0.148095,0.425414 -0.411267,0.895603 -0.619172,1.293987 -0.280839,0.621011 -0.440294,1.290555 -0.716111,1.913105 -0.194947,0.440019 -0.408894,0.87308 -0.654735,1.286823 -0.241313,0.406121 -0.544166,0.772568 -0.803537,1.167401 -1.760112,2.67937 0.133048,-0.0541 -1.562254,2.357944 -0.572578,0.935745 -0.805878,1.380333 -1.470653,2.231604 -0.207235,0.265373 -0.446325,0.504322 -0.664036,0.761171 -0.210319,0.248127 -0.41562,0.500491 -0.61992,0.753597 -0.196179,0.243044 -0.377169,0.498522 -0.581463,0.734785 -0.217264,0.251261 -0.454723,0.484323 -0.682085,0.726485 -0.729368,0.774991 -1.360978,1.634682 -2.07169,2.425543 -0.374774,0.417038 -0.763385,0.82229 -1.168057,1.210383 -0.247966,0.237807 -0.527838,0.440002 -0.787463,0.665021 -0.583503,0.505728 -0.211266,0.232385 -0.58206,0.49405 -0.612135,0.359549 -1.122104,0.866088 -1.655483,1.329356 -0.347408,0.365355 -0.745365,0.682631 -1.187133,0.926545 -0.08342,0.04606 -0.165361,0.09754 -0.255713,0.127833 -0.06384,0.0214 -0.13361,0.01673 -0.200414,0.0251 -0.04811,-0.0015 -0.09621,-0.003 -0.144316,-0.0045 1.991211,0.05337 3.982611,0.100101 5.973632,0.160118 0.0067,2.01e-4 -0.0027,0.02654 -0.0024,0.01988 0.005,-0.09915 0.01535,-0.198107 0.01653,-0.297379 0.0047,-0.393199 -0.01181,-0.786365 -0.01745,-1.179552 0.0082,-0.338226 -0.01006,-0.678126 0.02453,-1.014679 0.07863,-0.765052 0.386639,-2.037836 0.526918,-2.748699 0.144721,-0.733376 0.244269,-1.476026 0.414185,-2.203978 0.46454,-1.990177 0.665384,-2.382025 1.334775,-4.213794 0.369507,-0.839211 0.898915,-1.570289 1.445526,-2.296366 0.130481,-0.173321 0.282635,-0.331664 0.395152,-0.517151 0.06891,-0.113594 0.820768,-1.637665 0.858491,-1.713792 0.299256,-0.749639 0.601695,-1.502021 0.957613,-2.227305 0.0491,-0.10005 0.287195,-0.549154 0.392128,-0.690964 0.03176,-0.04292 0.07577,-0.07523 0.113661,-0.11285 0.04538,-0.126603 0.127392,-0.236147 0.178623,-0.359887 0.02589,-0.06253 0.03571,-0.131166 0.0638,-0.192733 0.01573,-0.03447 0.04738,-0.0595 0.06627,-0.09234 0.06208,-0.107894 0.04151,-0.124435 0.04648,-0.266239 -2.032948,0.01239 -4.068224,-0.06088 -6.098844,0.03716 -0.08929,0.0043 -0.04254,0.17366 -0.06416,0.260401 -0.03706,0.148642 -0.06531,0.29981 -0.1119,0.445747 -0.05067,0.158717 -0.127722,0.308131 -0.179328,0.466545 -0.672884,2.065559 0.164948,-0.231169 -0.706791,2.073182 -0.162899,0.418822 -0.333412,0.834763 -0.488699,1.256467 -0.205296,0.557516 -0.385106,1.124245 -0.592915,1.680829 -0.510946,1.368482 -0.887438,2.336031 -1.56582,3.623881 -0.576755,1.094921 -0.848649,1.426705 -1.518707,2.381695 -0.549054,0.624696 -0.466111,0.591285 -1.031774,1.048261 -0.106787,0.08627 -0.215209,0.171532 -0.331953,0.243755 -0.08419,0.05209 -0.191829,0.06458 -0.268226,0.127542 -0.06921,0.05704 -0.366758,0.499323 -0.407232,0.5579 -0.279246,0.599674 -0.63541,1.16224 -1.026332,1.694952 -0.108867,0.148353 -0.23337,0.284745 -0.343182,0.432399 -0.260441,0.350192 -0.256493,0.367448 -0.451909,0.718728 -1.168913,1.841902 -0.337883,0.435399 5.916427,0.08497 0.08863,-0.005 0.0035,-0.177951 0.01621,-0.265802 0.01876,-0.129667 0.05605,-0.256069 0.07797,-0.385238 0.06284,-0.370217 0.110194,-0.81143 0.154151,-1.177858 0.07325,-0.752536 0.09909,-1.252022 0.283782,-2.012002 0.09991,-0.411116 0.233385,-0.813746 0.371192,-1.213756 0.09584,-0.278193 0.653119,-1.627552 0.741702,-1.974153 0.122378,-0.478831 0.184407,-0.971091 0.27661,-1.456636 0.435668,-1.876762 0.89536,-3.74757 1.289353,-5.633792 0.127589,-0.610824 0.239953,-1.224746 0.365485,-1.835996 1.37388,-6.689772 -0.54204,2.767232 0.652619,-3.144804 0.224557,-0.909442 0.305149,-1.548954 0.761015,-2.355079 0.09879,-0.174699 0.27419,-0.294163 0.394891,-0.45451 0.01924,-0.02556 0.289826,-0.515474 0.403018,-0.582867 0.02688,-0.016 0.05231,0.03432 0.07847,0.05148 -2.023851,-0.04169 -4.048156,-0.184867 -6.071554,-0.125074 -0.107813,0.0032 -0.06561,0.205521 -0.100816,0.307473 -0.06378,0.184715 -0.124292,0.370739 -0.196139,0.55247 -0.09118,0.230644 -0.20704,0.451297 -0.292709,0.684046 -0.13195,0.358488 -0.234943,0.727033 -0.359582,1.088128 -0.145637,0.421934 -0.30079,0.840522 -0.451185,1.260783 -0.159081,0.328085 -0.319242,0.655649 -0.477243,0.984256 -0.151502,0.31509 -0.282095,0.640854 -0.451261,0.946823 -1.269378,2.295922 0.289059,-0.838352 -1.107955,1.772869 -0.234843,0.438955 -0.431533,0.89728 -0.6473,1.345921 -0.263972,0.486795 -0.527944,0.973591 -0.791916,1.460386 -0.465407,0.671637 -0.989677,1.439149 -1.476631,2.103478 -0.409486,0.558642 -0.771059,1.046455 -1.253568,1.542217 -0.194691,0.200038 -0.412305,0.37641 -0.617646,0.565498 -0.218009,0.200754 -0.434934,0.402682 -0.652401,0.604022 -0.354129,0.314062 -0.77368,0.541252 -1.142475,0.835496 -0.04912,0.03919 -0.4171,0.373828 -0.484709,0.478058 -0.07251,0.111794 -0.07711,0.216804 -0.09507,0.340075 -0.0052,-0.03007 -0.04612,-0.09003 -0.0156,-0.09022 2.028467,-0.01241 4.057458,0.10558 6.085284,0.05308 0.07639,-0.002 0.05757,-0.141576 0.08516,-0.212831 0.04746,-0.122537 0.103392,-0.242321 0.140013,-0.368524 0.05227,-0.180121 0.08426,-0.365515 0.126041,-0.548354 0.04682,-0.204888 0.09316,-0.409883 0.13974,-0.614825 0.11692,-0.615127 0.153512,-1.244576 0.28012,-1.857968 0.142113,-0.688508 0.678465,-2.595994 0.850461,-3.144914 0.204915,-0.65398 0.460826,-1.2914 0.660882,-1.946882 0.233772,-0.765949 0.42671,-1.543771 0.640064,-2.315657 0.954464,-2.945079 0.477298,-1.362601 1.290824,-4.304345 0.174032,-0.629308 0.33069,-1.263755 0.524487,-1.887259 0.13698,-0.44071 0.30965,-0.86953 0.4672,-1.303311 0.466717,-1.285008 0.294478,-0.837218 0.814709,-2.049052 0.133134,-0.146567 0.210694,-0.379737 0.399403,-0.4397 0.09794,-0.03112 0.267969,0.258313 0.165221,0.26029 -2.018662,0.03883 -4.03846,-0.240641 -6.055323,-0.146993 -0.156647,0.0073 -0.101903,0.298068 -0.175906,0.436324 -0.0615,0.114902 -0.553015,0.797714 -0.60796,0.874928 -0.621387,1.18181 -1.335795,2.310139 -2.17108,3.353618 -0.291894,0.364648 -0.629751,0.690505 -0.927145,1.050682 -0.525206,0.636085 -1.152322,1.527548 -1.631619,2.190726 -0.261004,0.309655 -0.509956,0.629883 -0.783011,0.928964 -0.305034,0.334108 -0.51584,0.601496 -0.937249,0.727529 -0.03311,0.0099 -0.37157,-0.0062 -0.383568,0.0031 -0.08494,0.06616 -0.119395,0.179205 -0.179092,0.268807 -0.07734,0.09059 -0.1516,0.183903 -0.232035,0.271756 -0.08048,0.0879 -0.17044,0.166818 -0.250412,0.255174 -0.183573,0.202818 -0.36678,0.47455 -0.60529,0.62784 -0.04988,0.03205 -0.125297,0.0715 -0.173869,0.0375 -0.05321,-0.03725 -0.02919,-0.126573 -0.04379,-0.18986 -0.01251,0.03135 -0.07117,0.09121 -0.03754,0.09404 2.02146,0.169996 4.044249,0.34615 6.071729,0.413414 0.07307,0.0024 0.04068,-0.140484 0.06373,-0.209864 0.202335,-0.608989 0.429465,-1.20953 0.639103,-1.816061 0.06293,-0.23287 0.135322,-0.463389 0.188798,-0.698611 0.194987,-0.857669 0.09768,-0.82803 0.404089,-1.697372 0.273832,-0.776926 0.349267,-0.771406 0.71987,-1.456769 0.109416,-0.202343 0.208271,-0.410222 0.312406,-0.615333 0.180467,-0.372645 0.381806,-0.763656 0.525122,-1.15378 0.06148,-0.16735 0.09573,-0.343792 0.155637,-0.51171 0.06546,-0.183484 0.168578,-0.329816 0.208168,-0.520494 0.01318,-0.0635 0.0088,-0.129409 0.01319,-0.194113 0,0 -6.062689,0.168503 -6.062689,0.168503 v 0 c 0.01606,-0.02382 0.02904,-0.0929 0.04817,-0.07147 0.03136,0.03514 0.01703,0.09367 0.01357,0.140646 -0.01338,0.181657 -0.101761,0.621003 -0.147139,0.766219 -0.118443,0.379039 -0.312611,0.765103 -0.477932,1.122586 -0.08324,0.18912 -0.510599,1.156821 -0.571156,1.309149 -0.109878,0.276395 -0.556304,1.522015 -0.637113,1.775757 -0.05081,0.159536 -0.336932,1.210878 -0.3969,1.430054 -0.08139,0.196996 -0.412824,1.019346 -0.531023,1.232256 -0.101004,0.181938 -0.233109,0.344796 -0.347195,0.51883 -0.06128,0.09348 -0.289508,0.267912 -0.178849,0.283628 6.068617,0.861875 5.927442,-1.471964 6.030471,0.627372 0.01754,-0.104387 0.02474,-0.235806 0.08933,-0.328677 0.196872,-0.283049 0.350645,-0.37185 0.618488,-0.620482 0.433113,-0.402048 0.03523,-0.08159 0.537895,-0.460808 0.06254,-0.0099 0.128023,-0.0082 0.187621,-0.0296 0.247233,-0.08864 0.365378,-0.354317 0.483722,-0.562975 0.553882,-0.976576 0.123694,-0.288551 0.971845,-1.522342 0.687493,-0.878552 1.021187,-1.289335 1.667866,-2.173605 0.259287,-0.35455 0.500358,-0.722355 0.764704,-1.073149 1.075011,-1.426564 0.959886,-1.204655 2.10371,-2.547004 0.219263,-0.257319 0.431004,-0.520954 0.646507,-0.78143 0.124609,-0.167971 0.258358,-0.329533 0.373829,-0.503912 0.0061,-0.0092 0.585712,-0.994989 0.54761,-1.004342 -1.91456,-0.469985 -3.902069,-0.565297 -5.853103,-0.847946 0.01661,0.09456 0.05734,0.187956 0.04983,0.283663 -0.01377,0.175463 -0.07504,0.343912 -0.112565,0.515869 -0.286585,0.775594 -0.52149,1.310308 -0.669332,2.135428 -0.07732,0.431547 -0.07059,0.874945 -0.140911,1.307688 -0.340482,2.095202 -0.972093,4.125358 -1.550155,6.162564 -0.549511,1.517553 -0.979617,2.755066 -1.580528,4.237099 -0.245462,0.605386 -0.526161,1.196148 -0.769031,1.802578 -0.182813,0.456471 -0.344652,0.921136 -0.507597,1.38507 -0.373706,1.064005 -0.317078,0.912087 -0.556857,1.834215 -0.128924,0.400133 -0.204386,0.685974 -0.381673,1.05934 -0.06069,0.127822 -0.140449,0.245739 -0.206841,0.370696 -0.0539,0.101443 -0.268028,0.294965 -0.153935,0.308329 6.020296,0.705197 5.836118,2.364476 6.009153,0.227627 -0.04119,0.117962 0.02937,-0.03998 0.08282,-0.107 0.332502,-0.416944 0.735837,-0.775542 1.146007,-1.112429 0.232641,-0.209576 0.476021,-0.407814 0.697924,-0.62873 0.197189,-0.196313 0.379995,-0.407003 0.557592,-0.621204 0.946588,-1.141682 1.665109,-2.443355 2.334945,-3.760358 0.669353,-1.105502 1.011179,-1.701113 1.720796,-2.757837 0.223886,-0.333399 0.48075,-0.644421 0.695375,-0.983856 0.175764,-0.277974 0.326462,-0.571399 0.473898,-0.86538 0.496442,-0.989881 0.434478,-0.929746 0.774298,-1.969233 0.182035,-0.4129 0.347144,-0.833686 0.546107,-1.238701 0.177237,-0.360789 0.388179,-0.70402 0.581408,-1.056503 0.126008,-0.22986 0.248615,-0.461589 0.3763,-0.690522 0.104549,-0.187451 0.216235,-0.370868 0.32036,-0.558555 0.0732,-0.131938 0.360626,-0.377049 0.211528,-0.400181 -1.975149,-0.306441 -3.983961,-0.329438 -5.975942,-0.494157 0.02086,0.357926 -0.09919,0.360667 -0.210532,0.725561 -0.05517,0.180819 -0.07858,0.369851 -0.119955,0.554319 -0.73224,3.264827 0.353684,-1.639607 -0.548147,2.44702 -0.229006,2.138838 -0.05804,0.81323 -0.438982,3.135742 -0.09928,0.605259 -0.174173,1.214776 -0.291263,1.816842 -0.369419,1.899527 -0.897124,3.770117 -1.550274,5.590751 -0.195762,0.480923 -0.416537,0.952408 -0.587285,1.442769 -0.101376,0.291135 -0.144657,0.599477 -0.227263,0.896483 -0.100079,0.359827 -0.205027,0.718458 -0.320672,1.073588 -0.354007,1.087109 -0.799805,2.15189 -0.994983,3.285306 -0.06086,0.223528 -0.125164,0.446147 -0.182586,0.670584 -0.03916,0.153041 -0.06412,0.309641 -0.107099,0.461654 -0.04296,0.151928 -0.106123,0.297591 -0.150414,0.449136 -0.03195,0.109329 -0.191321,0.320377 -0.07808,0.332668 6.04989,0.656674 6.095086,2.304534 5.994826,0.208887 0.165348,-0.415566 0.04141,-0.145566 0.33337,-0.637747 0.08759,-0.147658 0.168796,-0.299109 0.258835,-0.445287 0.35427,-0.575161 0.75168,-1.119953 1.201519,-1.624624 0.08377,-0.08561 0.163683,-0.175175 0.251315,-0.256829 0.271726,-0.253187 0.09852,-0.01955 0.402314,-0.360105 0.389296,-0.436409 0.671034,-0.961744 0.936119,-1.47737 0.167343,-0.348894 0.34084,-0.694903 0.502029,-1.046683 0.719188,-1.56956 0.619938,-1.458561 1.376777,-3.160458 1.265017,-2.844629 0.421619,-0.907872 1.706984,-3.55411 0.201279,-0.414382 0.384921,-0.837102 0.577381,-1.255652 0.16848,-0.36688 0.317598,-0.743285 0.50544,-1.100638 1.700537,-3.235129 -0.05096,0.375033 0.786919,-1.447468 0.06572,-0.142955 0.136699,-0.283495 0.209577,-0.422937 0.04698,-0.0899 0.251002,-0.256806 0.149883,-0.264843 -1.996656,-0.158697 -4.003674,-0.133714 -6.005511,-0.200571 0.0046,-0.03223 0.0096,-0.06441 0.01391,-0.09668 0.0016,-0.01232 -0.0027,0.02482 -0.0059,0.03681 -0.04021,0.147248 -0.101195,0.289077 -0.173426,0.423596 -0.03043,0.05667 -0.06556,0.110679 -0.09835,0.166018 -0.189032,0.510454 0.01647,-0.09251 -0.111701,0.452844 -0.03563,0.151584 -0.08062,0.300983 -0.129284,0.448897 -0.07016,0.213232 -0.151685,0.422552 -0.227005,0.634014 -0.416156,1.168379 -0.107474,0.316939 -0.557378,1.545386 -0.635444,1.135476 -0.285522,0.589851 -1.031815,1.616374 -0.222011,0.305376 -0.604767,0.791981 -0.744488,1.149902 -0.09785,0.250663 -0.378377,1.882101 -0.378458,1.882544 -0.480239,1.974947 -0.489512,2.176666 -1.175879,4.231333 -0.247141,0.739828 -0.545305,1.461816 -0.798511,2.199589 -0.174644,0.508863 -0.332415,1.023498 -0.484748,1.539478 -0.367754,1.245651 -0.321418,1.142326 -0.54701,2.309816 -0.0437,0.236788 -0.08855,0.473366 -0.13109,0.710365 -0.02553,0.142209 -0.04423,0.28567 -0.07311,0.427237 -0.01076,0.05276 -0.191426,0.706581 -0.132792,0.713322 5.538863,0.636758 4.357712,1.352401 6.169711,0.205806 0.54817,-0.407007 1.08993,-0.824446 1.585843,-1.294902 0.0824,-0.0788 0.165491,-0.156892 0.247204,-0.236408 0.07951,-0.07737 0.151631,-0.16271 0.236438,-0.23423 0.122737,-0.103507 0.252168,-0.199232 0.384816,-0.28969 0.238277,-0.162489 0.544758,-0.312625 0.766272,-0.50782 0.05623,-0.04955 0.09363,-0.117057 0.140449,-0.175585 -0.01553,-0.231198 -0.02519,-0.111632 0.166464,-0.469599 0.123852,-0.231334 0.231798,-0.47396 0.387186,-0.685406 0.310177,-0.422076 0.643152,-0.829198 1.004518,-1.208372 0.302714,-0.317631 2.093616,-1.962515 2.554907,-2.388147 1.127911,-1.170562 0.392378,-0.344957 1.296347,-1.501873 0.203886,-0.260937 0.429184,-0.505281 0.623413,-0.773484 0.186973,-0.258184 0.348891,-0.533658 0.518615,-0.803495 1.198409,-1.905309 0.06664,-0.183088 1.443932,-2.239447 0.216411,-0.364634 0.422294,-0.735727 0.649234,-1.093904 0.271015,-0.427741 0.56747,-0.838882 0.844101,-1.263013 0.930471,-1.4266 1.828044,-2.882093 2.571943,-4.416038 0.100319,-0.215 0.202394,-0.42919 0.300956,-0.645001 0.105587,-0.231195 0.199353,-0.467878 0.311472,-0.695977 0.597879,-1.216344 0.125206,-0.17759 0.580637,-1.059829 0.02662,-0.05158 0.122182,-0.156287 0.0644,-0.161787 -2.008024,-0.191143 -4.025075,-0.271201 -6.037612,-0.406801 -2.3e-4,0.03543 0.0016,0.222267 -0.0089,0.269105 -0.111486,0.496166 -0.421053,0.909402 -0.732522,1.298812 -0.269762,0.393151 -0.532708,0.790761 -0.797305,1.18739 -0.217357,0.378463 -0.409577,0.78041 -0.654572,1.141826 -0.146536,0.216171 -0.311249,0.419447 -0.466247,0.629633 -0.5878,0.797089 -0.244244,0.384332 -0.958748,1.14762 -0.135059,0.161049 -0.279915,0.314366 -0.405177,0.483148 -0.07031,0.09474 -0.610417,0.963269 -0.643373,1.020292 -0.501074,0.866989 -0.118429,0.272832 -0.605798,1.206491 -0.143643,0.275179 -0.303824,0.541403 -0.455736,0.812105 -0.316726,0.607248 -0.428183,0.838623 -0.763712,1.417069 -0.08695,0.149901 -0.417748,0.681244 -0.522473,0.842112 -0.09712,0.149186 -0.206182,0.290738 -0.296909,0.443897 -0.06441,0.108731 -0.111679,0.226743 -0.167519,0.340115 -0.127715,0.248313 -0.25871,0.49495 -0.384199,0.744396 -0.05196,0.103282 -0.100794,0.208105 -0.151473,0.31202 -0.03329,0.06826 -0.176053,0.197442 -0.100434,0.204516 6.39861,0.598556 7.689664,1.467946 6.005013,0.338619 0.04579,0.03814 0.0072,0.01754 0.07531,-0.05462 0.01387,-0.0147 0.03754,-0.01989 0.0478,-0.0373 0.02108,-0.03577 0.02779,-0.07827 0.04307,-0.116881 0.04393,-0.111024 0.09668,-0.218472 0.134902,-0.331827 0.19363,-0.652517 -0.01843,0.104667 0.151626,-0.671134 0.111831,-0.510159 0.301008,-0.995712 0.421723,-1.502854 0.127131,-0.359702 0.05268,-0.161769 0.229155,-0.591584 0.05663,-0.156634 0.102849,-0.316837 0.154563,-0.475161 0.208535,-0.638442 0.43837,-1.271714 0.593387,-1.926091 0.09152,-0.356834 0.194274,-0.711201 0.217865,-1.080797 0.0043,-0.06746 0.0019,-0.135231 -5.12e-4,-0.202782 -0.0027,-0.07395 -0.02279,-0.147943 -0.01475,-0.221502 0.01661,-0.151828 0.05877,-0.299761 0.08815,-0.449641 0.09129,-0.239281 0.179181,-0.479889 0.273878,-0.717843 0.115692,-0.290709 0.251065,-0.573696 0.357236,-0.868016 0.111787,-0.309889 0.195301,-0.629271 0.296031,-0.942929 0.360161,-1.121485 0.718032,-2.248181 1.206991,-3.322013 0.12332,-0.228792 0.258733,-0.451466 0.369961,-0.686374 0.100941,-0.213182 0.143429,-0.460299 0.204144,-0.685699 0.03164,-0.117466 0.06508,-0.234476 0.101007,-0.350702 0.03198,-0.103429 0.210394,-0.297411 0.102667,-0.308123 -2.00193,-0.199065 -4.019236,-0.187437 -6.028854,-0.281156 -0.0088,0.03425 -0.01445,0.06948 -0.02642,0.102754 -0.0027,0.0075 -0.01164,0.01102 -0.01672,0.01719 -0.01902,0.0231 -0.0385,0.04595 -0.05553,0.07055 -0.01928,0.02785 -0.0323,0.05992 -0.05322,0.08655 -0.0192,0.02444 -0.04418,0.04371 -0.06627,0.06557 -0.02692,0.03594 -0.05384,0.07188 -0.08076,0.107813 -0.03278,0.03801 -0.06282,0.07854 -0.09833,0.114015 -0.115374,0.115283 -0.04677,-0.01581 -0.162934,0.176489 -0.02323,0.03845 -0.03377,0.08351 -0.05571,0.1227 -0.147644,0.263658 -0.241975,0.364029 -0.444621,0.634335 -0.08476,0.16393 -0.178241,0.323638 -0.254284,0.491789 -0.419081,0.926696 -0.170329,0.622692 -0.769064,1.670927 -0.199102,0.348577 -0.445608,0.668317 -0.649991,1.013824 -0.1252,0.21165 -0.225144,0.437257 -0.337717,0.655885 -0.173575,0.277673 -0.347151,0.555346 -0.520726,0.83302 -0.218073,0.314169 -0.431744,0.63144 -0.65422,0.942507 -0.239596,0.335003 -0.499581,0.655413 -0.73187,0.995524 -0.316661,0.463647 -0.727092,1.191786 -0.998161,1.683459 -0.155725,0.282462 -0.31551,0.563017 -0.457955,0.852403 -0.139961,0.28434 -0.259144,0.578443 -0.388716,0.867665 -0.199215,0.358185 -0.39843,0.71637 -0.597644,1.074555 -0.191007,0.318411 -0.391453,0.631347 -0.573019,0.955234 -0.127705,0.227806 -0.231398,0.468357 -0.354224,0.69883 -0.415574,0.779788 -0.856902,1.547861 -1.324546,2.297471 -0.561162,0.847664 -0.191097,0.314323 -0.716572,1.02268 -0.06329,0.08531 -0.123501,0.172872 -0.186787,0.258182 -0.129145,0.174088 -0.204846,0.245934 -0.296907,0.435826 -0.02062,0.04253 -0.02933,0.08986 -0.044,0.134785 -0.05284,0.175839 -0.110851,0.35451 -0.197679,0.517227 -1.087084,2.03723 -3.723876,0.301382 5.774079,0.769432 0.09995,-0.06573 0.01115,-0.0011 0.155192,-0.162206 0.229391,-0.256594 0.476947,-0.49655 0.59291,-0.830357 0.219199,-0.423315 0.02036,-0.04367 0.213564,-0.402149 0.0281,-0.05214 0.05165,-0.106856 0.08305,-0.157075 0.14208,-0.227249 0.317416,-0.432568 0.515294,-0.612836 0.01378,-0.01012 0.03474,-0.01459 0.04133,-0.03036 0.04125,-0.09878 -0.05465,-0.237044 0.09775,-0.305916 0.307488,-0.520973 0.75278,-0.945462 1.022621,-1.490899 0.1258,-0.174838 0.261689,-0.342842 0.377401,-0.524515 0.19238,-0.302045 0.300646,-0.653238 0.523617,-0.938082 0.372763,-0.575564 0.816006,-1.091878 1.298679,-1.577399 0.08687,-0.09139 0.184109,-0.173949 0.260624,-0.274174 0.07992,-0.104689 0.16272,-0.356371 0.213093,-0.46646 0.311949,-0.681755 0.689928,-1.332065 1.059063,-1.983413 0.171798,-0.3183 0.343596,-0.636601 0.515394,-0.954901 0.152593,-0.318893 0.290476,-0.645251 0.45778,-0.956678 0.207948,-0.387081 0.45306,-0.753203 0.66699,-1.137011 0.392828,-0.704766 0.735258,-1.439033 1.070077,-2.172512 0.05023,-0.152608 0.103513,-0.304242 0.150676,-0.457824 0.112133,-0.365159 0.158932,-0.600965 0.288226,-0.965217 0.06273,-0.176734 0.136634,-0.349321 0.207681,-0.522881 0.06071,-0.148304 0.137657,-0.290368 0.18756,-0.442649 0.05777,-0.176278 0.08965,-0.360011 0.134469,-0.540016 -2.027164,-0.03154 -4.054146,-0.110657 -6.081491,-0.09461 -0.05264,4.17e-4 -0.118802,0.138293 -0.0664,0.143277 8.283544,0.787832 7.716904,0.370579 0.01856,-0.103677 -0.2038,-0.01255 0.421168,1.044216 -0.266615,0.551491 -0.178118,0.238417 -0.345699,0.485082 -0.534354,0.715251 -0.714356,0.87155 -1.575041,1.620758 -2.185484,2.57578 -0.7992,0.951897 -0.246821,0.308269 -1.183127,1.355515 -0.219431,0.245431 -0.453354,0.4789 -0.65576,0.73855 -0.187276,0.24024 -0.334732,0.509166 -0.510703,0.757807 -0.861382,1.217102 -0.795984,1.086151 -1.819279,2.316746 -1.91467,2.220477 -0.28936,0.318572 -2.040429,2.411831 -1.141141,1.36414 -2.309425,2.707962 -3.349834,4.152697 -0.200501,0.279229 -0.40931,0.552675 -0.601504,0.837685 -0.537192,0.796622 -0.391306,0.638602 -0.820145,1.376495 -0.100424,0.172798 -0.207767,0.341485 -0.312746,0.511554 -0.09153,0.148276 -0.200668,0.286718 -0.276769,0.443472 -0.05979,0.123157 -0.08533,0.260172 -0.127994,0.390258 2.016479,0.116373 4.031436,0.263057 6.049436,0.349119 0.04633,0.002 0.122083,-0.218405 0.123236,-0.221668 0.026,-0.07359 0.01852,-0.154531 0.09975,-0.182667 0.04779,-0.05249 0.221007,-0.238886 0.251563,-0.29044 0.0344,-0.05803 0.03554,-0.132728 0.07325,-0.188667 0.01549,-0.02297 -0.02584,0.06885 -0.0021,0.08309 0.04291,0.02573 0.01151,-0.169806 0.0671,-0.13425 0.05304,-0.10537 0.127131,-0.257758 0.18817,-0.351812 0.06986,-0.107655 0.149177,-0.20888 0.222546,-0.314177 0.08154,-0.117031 0.159705,-0.23641 0.242177,-0.352789 0.43965,-0.620402 0.144238,-0.167176 0.48245,-0.703275 0.06514,-0.102014 0.132205,-0.202829 0.195433,-0.306041 0.05356,-0.08743 0.09803,-0.180422 0.154855,-0.265765 0.197259,-0.296256 0.476585,-0.518497 0.676391,-0.812451 0.306233,-0.588586 -0.204482,0.403328 0.163033,-0.354695 0.201022,-0.414621 0.157727,-0.237081 0.36434,-0.726075 0.542988,-1.285095 -0.142311,0.07614 0.769187,-1.599935 0.218093,-0.360746 0.432463,-0.723769 0.65428,-1.082238 0.202333,-0.326982 0.421745,-0.643384 0.618093,-0.973994 0.183444,-0.308883 0.367425,-0.723547 0.529957,-1.048452 0.08329,-0.166502 0.169287,-0.331647 0.255865,-0.496465 0.08229,-0.156661 0.167153,-0.311959 0.250729,-0.467939 0.493716,-1.420438 1.117842,-2.793214 1.889885,-4.085059 0.114699,-0.264408 0.225973,-0.530327 0.344096,-0.793222 0.144415,-0.32141 0.304584,-0.635732 0.443463,-0.959571 0.582953,-1.359338 0.959057,-2.803508 1.652123,-4.117121 0.300365,-0.784669 0.281991,-0.706561 0.530281,-1.463263 0.134368,-0.409507 0.304045,-0.923971 0.391385,-1.351767 0.01009,-0.04944 0.105173,-0.810727 0.115709,-0.894328 0.0027,-0.01177 0.134246,-0.595524 0.159245,-0.66247 0.01511,-0.04046 0.115934,-0.101408 0.0731,-0.106988 -1.979914,-0.257949 -3.969042,-0.439423 -5.953562,-0.659135 -0.01388,0.03642 -0.01768,0.07852 -0.04165,0.109256 -0.03646,0.04676 -0.08961,0.07768 -0.134414,0.116526 -0.2523,0.191566 -0.516674,0.366963 -0.752102,0.579689 -0.310012,0.280117 -0.140238,0.141267 -0.4076,0.416745 -0.08331,0.08584 -0.1706,0.167746 -0.2559,0.251619 -0.115507,0.113372 -0.23761,0.220393 -0.34652,0.340115 -0.260794,0.286682 -0.383902,0.502724 -0.618463,0.81964 -0.643853,0.869908 -0.307909,0.390987 -1.00738,1.28206 -0.151879,0.193483 -0.297203,0.392022 -0.445805,0.588034 -0.12628,0.170093 -0.245149,0.345949 -0.378841,0.510281 -0.555339,0.682612 -0.259548,0.267944 -0.772528,0.823428 -0.815231,0.88278 0.572494,-0.527639 -0.640925,0.861816 -0.362935,0.415588 -0.76225,0.797945 -1.143376,1.196918 -1.112317,0.979585 -2.16371,1.828877 -3.134796,2.943295 -0.455004,0.522162 -0.844147,1.098356 -1.276883,1.639115 -0.559657,0.699363 -1.135811,1.385375 -1.700099,2.081006 -1.158662,1.428349 -1.790702,2.225766 -2.898608,3.614724 -0.264868,0.340838 -0.534778,0.677818 -0.794605,1.022514 -1.020934,1.35441 -0.04259,0.12142 -0.961977,1.308605 -0.129684,0.167459 -0.267751,0.328325 -0.396965,0.496147 -0.174702,0.226901 -0.332351,0.466605 -0.510934,0.690643 -0.108844,0.167236 -0.210427,0.341965 -0.325599,0.504962 -0.03892,0.05508 -0.08441,0.105416 -0.12203,0.161396 -1.290418,1.920325 2.791238,0.4578 5.900341,0.725402 0.005,-0.06115 0.0028,-0.123352 0.01514,-0.183459 0.0017,-0.0082 0.02186,6.27e-4 0.02406,-0.0075 0.03485,-0.128683 0.02206,-0.213631 0.0373,-0.335012 0.02676,-0.03407 0.05135,-0.06996 0.08028,-0.102211 0.11359,-0.126687 0.168386,-0.128891 0.206083,-0.303653 0.02337,-0.108321 0.03978,-0.721987 0.0081,0.0081 -0.0053,0.0077 -0.01998,0.03155 -0.01578,0.02319 0.02351,-0.04678 0.04555,-0.09458 0.07381,-0.138655 0.290283,-0.452716 0.717205,-0.80749 0.958548,-1.294874 0.150701,-0.243563 0.356753,-0.584203 0.521286,-0.820373 0.07355,-0.105569 0.158104,-0.203144 0.232283,-0.30827 0.04952,-0.07017 0.08909,-0.14702 0.138531,-0.217243 0.03598,-0.05109 0.08118,-0.09522 0.117361,-0.146173 0.0269,-0.03788 0.04762,-0.0798 0.07143,-0.119694 0.138666,-0.202805 0.273392,-0.41091 0.396396,-0.62353 0.05962,-0.103058 0.108077,-0.212498 0.170768,-0.313718 0.224775,-0.362917 0.252154,-0.371415 0.518975,-0.680454 0.07632,-0.101168 0.221818,-0.275692 0.280875,-0.406136 0.158581,-0.350269 -0.179133,0.116957 0.195259,-0.477189 0.298521,-0.47374 0.801483,-1.057153 1.138198,-1.470535 0.297602,-0.300446 0.595205,-0.600893 0.892807,-0.901339 0.186856,-0.174689 0.379562,-0.343324 0.560569,-0.524067 0.411944,-0.411345 0.688155,-0.934738 1.058103,-1.380188 0.125769,-0.178405 0.259258,-0.351609 0.377305,-0.535214 0.114632,-0.178292 0.212524,-0.366811 0.320078,-0.549459 0.432469,-0.73442 0.865683,-1.47133 1.357339,-2.168068 0.09915,-0.141689 0.296353,-0.43971 0.430489,-0.581513 0.0435,-0.04599 0.210296,-0.118391 0.147015,-0.120236 -6.225323,-0.181481 -6.020384,1.932723 -5.988629,-0.491415 -0.0062,-0.01103 -0.01371,-0.04476 -0.01864,-0.0331 -0.0255,0.06029 -0.02753,0.128241 -0.0479,0.190452 -0.0035,0.01069 -0.0192,0.01431 -0.02265,0.02502 -0.03093,0.09612 -0.03848,0.198482 -0.06356,0.296012 -0.05826,0.02237 -0.107058,0.196715 -0.128471,0.239018 -0.08356,0.165081 -0.0785,0.129922 -0.186449,0.27861 -0.02865,0.03946 -0.05479,0.08069 -0.08219,0.121038 -0.03348,0.102545 -0.07225,0.223918 -0.108888,0.324577 -0.08451,0.232199 -0.196799,0.458463 -0.213299,0.709297 -0.03628,0.1062 -0.06285,0.216236 -0.108849,0.318602 -0.09657,0.214884 -0.448191,0.852266 -0.56384,1.04486 -0.07541,0.125578 -0.411966,0.644558 -0.530828,0.789176 -0.08044,0.09787 -0.175641,0.18261 -0.263461,0.273915 -0.0325,0.05666 -0.07054,0.110474 -0.09748,0.169972 -0.109361,0.241486 -0.158963,0.507869 -0.296617,0.737902 -0.08584,0.187924 -0.18363,0.370174 -0.273032,0.556432 -0.317621,0.66172 -0.07859,0.221256 -0.443083,0.850164 -0.161332,0.24375 -0.287401,0.405487 -0.400565,0.666793 -0.124814,0.288205 -0.113324,0.399141 -0.214702,0.720261 -0.113941,0.360915 -0.342319,0.95237 -0.473713,1.301418 -0.09134,0.212673 -0.182681,0.425347 -0.274022,0.638021 -0.07115,0.15655 -0.144653,0.312055 -0.213459,0.46965 -0.0479,0.109716 -0.08751,0.22297 -0.136609,0.332156 -0.101793,0.226374 -0.198819,0.385509 -0.287154,0.612346 -0.02463,0.06326 -0.04034,0.129646 -0.06051,0.194469 -0.08603,0.275705 -0.08405,0.247169 -0.147416,0.559429 -0.02901,0.142951 -0.04119,0.289574 -0.07957,0.430299 -0.136516,0.500523 -0.390685,0.96754 -0.450242,1.489456 -0.01197,0.146141 -0.02061,0.292592 -0.0359,0.438423 -0.04412,0.420671 -0.05428,0.368057 -0.109669,0.774914 -0.07623,0.559935 -0.136532,1.12273 -0.26822,1.673778 -0.06715,0.234168 -0.148301,0.464768 -0.201454,0.702504 -0.05577,0.249463 -0.03048,0.373693 -0.04972,0.605459 -0.0056,0.06695 -0.09286,0.193767 -0.02595,0.199854 6.068367,0.552131 6.032517,-1.672512 6.043634,0.41986 0.0074,-0.06251 0.01186,-0.125448 0.02224,-0.187535 6.2e-4,-0.0037 0.008,-0.002 0.01,-0.0052 0.02165,-0.03502 0.04162,-0.07113 0.05996,-0.107997 0.02561,-0.05148 0.04567,-0.105625 0.07178,-0.156855 0.156663,-0.307389 0.05745,-0.04222 0.172274,-0.419941 0.05432,-0.189117 0.131214,-0.360867 0.208005,-0.5417 0.02731,-0.06432 0.04806,-0.13144 0.07788,-0.194638 0.02232,-0.04729 0.09934,-0.05864 0.09923,-0.121503 0.09425,-0.15099 0.05648,-0.07429 0.125383,-0.263447 0.01838,-0.05045 0.02828,-0.104647 0.0541,-0.151724 0.0091,-0.0166 0.03557,-0.01694 0.04678,-0.03219 0.03804,-0.05181 0.102659,-0.19255 0.131576,-0.252712 0.04295,-0.223846 0.142592,-0.538248 0.31883,-0.774205 0.454489,-0.944683 -0.127162,0.283952 0.227414,-0.520022 0.03358,-0.07615 0.07782,-0.147278 0.111771,-0.223263 0.08274,-0.185161 0.136862,-0.37616 0.185681,-0.57225 0.137927,-0.454963 0.364788,-0.868876 0.596445,-1.282173 0.113266,-0.200159 0.221388,-0.402687 0.305181,-0.617424 0.02147,-0.05502 0.03339,-0.113588 0.05662,-0.167887 0.0235,-0.05494 0.05543,-0.105879 0.08315,-0.158818 0.179837,-0.242383 0.0204,-0.01832 0.19976,-0.301961 0.138792,-0.219493 -0.007,0.02263 0.135773,-0.18055 0.203547,-0.289632 -0.05765,0.04772 0.141631,-0.204063 0.03499,-0.06835 0.07678,-0.13308 0.111413,-0.201609 0.01215,-0.02404 0.0164,-0.05167 0.02931,-0.07531 0.0078,-0.01419 0.02477,-0.02206 0.03184,-0.03661 0.05147,-0.105984 0.107145,-0.279344 0.144312,-0.386998 0.03946,-0.09189 0.08737,-0.18001 0.126598,-0.272 0.01921,-0.04504 0.02704,-0.09468 0.04881,-0.138537 0.04935,-0.0994 0.155129,-0.158931 0.202042,-0.260338 0.09896,-0.186427 0.183818,-0.378105 0.279294,-0.566386 0.04208,-0.08299 0.09193,-0.162274 0.128295,-0.247926 0.03891,-0.09167 0.03645,-0.197495 0.08188,-0.287319 0.01388,-0.03812 0.09105,-0.244942 0.114148,-0.320676 0.01525,-0.04999 0.02444,-0.101879 0.04255,-0.150905 0.137746,-0.372937 0.321934,-0.72961 0.536711,-1.063486 0.485464,-0.863009 0.02373,-0.01825 0.354184,-0.676761 0.04959,-0.09882 0.11075,-0.191797 0.156585,-0.292417 0.02683,-0.05891 0.03793,-0.123875 0.06066,-0.184488 0.04694,-0.125175 0.117975,-0.274145 0.17345,-0.395091 0.06479,-0.143987 0.123032,-0.290985 0.192079,-0.432977 0.103349,-0.212532 0.235961,-0.413915 0.297138,-0.644893 0.08024,-0.300166 0.169429,-0.587852 0.302626,-0.870309 0.16336,-0.346423 0.09671,-0.160742 0.235244,-0.418438 0.02068,-0.03846 0.03649,-0.07934 0.05473,-0.119014 0.213408,-0.408487 -0.05163,0.09149 0.224755,-0.400767 0.222026,-0.395443 0.420289,-0.804285 0.641867,-1.200023 0.06592,-0.139566 0.23131,-0.498067 0.308978,-0.628122 0.06901,-0.115551 0.157425,-0.218709 0.226883,-0.333989 0.122383,-0.20312 0.179015,-0.441324 0.311851,-0.639332 0.139035,-0.318244 0.0808,-0.193112 0.234144,-0.510601 0.03545,-0.0734 0.075,-0.144911 0.107001,-0.219874 0.02786,-0.06525 0.04143,-0.136314 0.07234,-0.200175 0.158795,-0.328069 0.274103,-0.465125 0.49052,-0.778673 0.180645,-0.234371 0.328663,-0.39597 0.454077,-0.66009 0.07827,-0.164841 0.171444,-0.529356 0.225609,-0.685737 0.193958,-0.559982 0.172285,-0.46723 0.45903,-1.00784 0.05376,-0.124664 0.1114,-0.247723 0.161268,-0.373993 0.03222,-0.0816 0.05505,-0.166625 0.08483,-0.249147 0.197174,-0.546378 0.421003,-1.082636 0.694278,-1.596033 0.04769,-0.09992 0.625556,-1.309616 0.65686,-1.379593 0.108916,-0.243465 0.220369,-0.486448 0.310082,-0.737623 0.180301,-0.504803 0.254272,-1.044394 0.445436,-1.545184 0.124296,-0.325619 0.294708,-0.631709 0.442062,-0.947563 0.111189,-0.232723 0.586291,-0.646653 0.333568,-0.69817 -7.394938,-1.507431 -5.650655,-2.412292 -6.060217,-0.249371 -0.01342,0.07085 -0.02323,0.162545 -0.08992,0.20163 -0.01919,0.03722 -0.03218,0.07836 -0.05758,0.11165 -0.03058,0.04007 -0.05886,-0.0068 -0.05942,-0.0051 -0.02153,0.06402 -0.02607,0.132545 -0.0391,0.198818 -0.01481,-0.06032 -0.0028,-0.05646 -0.03787,-2.44e-4 -0.03318,-0.0597 -0.0089,-0.02977 -0.06769,0.09665 -0.06844,0.147073 -0.151019,0.282565 -0.226456,0.425868 -0.02808,0.05334 -0.05257,0.108493 -0.07885,0.16274 -0.0092,-0.02545 -0.0027,-0.06577 -0.02762,-0.07636 -0.02127,-0.009 -0.0409,0.02335 -0.05602,0.04082 -0.08855,0.102333 -0.120954,0.304751 -0.197149,0.413073 -0.05088,0.09236 -0.224468,0.410205 -0.278432,0.496945 -0.193271,0.310659 -0.428562,0.594151 -0.640641,0.891478 -0.02801,0.03015 -0.05602,0.0603 -0.08403,0.09045 -0.01988,2.52e-4 -0.04277,-0.0098 -0.05963,7.57e-4 -0.09151,0.05715 -0.192165,0.352836 -0.22809,0.442715 -0.06316,0.20292 -0.07391,0.260383 -0.186441,0.478212 -0.202808,0.392592 -0.467501,0.747449 -0.687567,1.129597 -0.0081,0.01476 -0.09971,0.215724 -0.160606,0.25268 -0.0172,0.01044 -0.04453,-0.0068 -0.06005,0.006 -0.02629,0.02167 -0.03384,0.05922 -0.05316,0.08728 -0.159691,0.231916 -0.187997,0.245716 -0.411462,0.502999 -0.100617,0.152883 -0.205734,0.302899 -0.301851,0.45865 -0.487237,0.789537 -0.50536,0.936671 -1.126536,1.753259 -0.253779,0.333614 -0.558561,0.626337 -0.811819,0.960346 -0.237836,0.313669 -0.356315,0.707177 -0.601159,1.016464 -0.148589,0.222249 -0.291,0.448756 -0.445767,0.666748 -0.357234,0.503167 -0.547676,0.696232 -0.872979,1.187321 -0.283616,0.428157 -0.350418,0.59417 -0.592455,1.056782 -0.11801,0.225555 -0.237183,0.4505 -0.355774,0.675749 -0.440352,0.801141 -0.437701,0.840647 -0.957007,1.604344 -0.321746,0.473164 -0.735067,0.906448 -0.899088,1.468432 -0.01837,0.05544 -0.03095,0.113148 -0.05511,0.166323 -0.02724,0.05996 -0.163682,0.16353 -0.0983,0.171369 12.008617,1.439698 5.799416,2.520474 6.016976,0.33052 0.0063,-0.06354 0.139865,-0.08719 0.07672,-0.175533 0.01478,-0.02714 0.02734,-0.0556 0.04433,-0.08141 0.06735,-0.102268 0.01392,0.0629 0.103294,-0.148582 0.039,-0.09229 0.04944,-0.19742 0.07408,-0.294124 0.08429,-0.287775 0.0039,-0.03749 0.12761,-0.348861 0.146138,-0.367913 0.26959,-0.746574 0.482643,-1.084326 0.114789,-0.284556 0.240604,-0.563741 0.380634,-0.836972 0.156049,-0.304489 0.337063,-0.591539 0.38755,-0.936993 0.04149,-0.168729 0.0744,-0.339697 0.122455,-0.506675 0.101622,-0.353124 0.279781,-0.646796 0.393159,-0.993348 0.04609,-0.161447 0.06022,-0.238697 0.135249,-0.39022 0.02925,-0.05908 0.07026,-0.111758 0.100648,-0.170266 0.114023,-0.219519 0.194311,-0.455373 0.311469,-0.673463 0.06118,-0.168933 0.06479,-0.197059 0.147885,-0.355339 0.115066,-0.219166 0.232597,-0.397523 0.245179,-0.657213 -0.0018,-0.01377 -0.01778,-0.02591 -0.01398,-0.03927 0.04272,-0.150114 0.163002,-0.364714 0.241777,-0.472296 0.147376,-0.201273 0.66148,-0.777317 0.818644,-0.956104 0.351328,-0.448989 0.365777,-0.446152 0.67997,-0.937103 0.137039,-0.214134 0.260857,-0.436567 0.398762,-0.650144 0.174958,-0.270963 0.354816,-0.53883 0.539629,-0.80317 0.176891,-0.253009 0.380444,-0.48758 0.545286,-0.7486 0.103106,-0.163263 0.17049,-0.346518 0.255735,-0.519777 0.287545,-0.637168 0.558544,-1.28068 0.863663,-1.909842 0.109608,-0.226013 0.222383,-0.45049 0.336257,-0.674384 0.118474,-0.23294 0.259133,-0.455311 0.360765,-0.696077 0.08384,-0.198625 0.129048,-0.41143 0.193573,-0.617145 0.128746,-0.255249 0.249806,-0.514524 0.38624,-0.765749 0.107253,-0.197491 0.229594,-0.386407 0.344392,-0.579611 0.07065,-0.142036 0.138651,-0.285422 0.211954,-0.426108 0.06953,-0.133447 0.142419,-0.265146 0.216472,-0.396138 0.06386,-0.112963 0.325318,-0.314924 0.197218,-0.335639 -1.970691,-0.318686 -3.972757,-0.397424 -5.959135,-0.596136 -0.0033,0.04176 0.0061,0.08652 -0.0098,0.125275 -0.0074,0.01813 -0.07198,0.02488 -0.05246,0.02654 1.988717,0.168589 3.976184,0.359352 5.968681,0.475 0.04278,0.0025 0.05759,-0.124197 0.01488,-0.127704 -6.136121,-0.503885 -6.837718,-2.232832 -6.030688,-0.30519 -0.261693,0.770658 -0.780431,1.404667 -1.262137,2.048519 -0.04368,0.05732 -0.0888,0.113568 -0.131038,0.171962 -0.03666,0.05068 -0.0667,0.106131 -0.105554,0.155152 -0.02751,0.03471 -0.06284,0.06246 -0.09278,0.09508 -0.144909,0.157887 -0.27272,0.33 -0.451051,0.455343 -0.375897,0.311811 -0.271039,0.207903 -0.548115,0.485397 -0.03356,0.03361 -0.06986,0.06496 -0.09912,0.10238 -0.09124,0.116679 -0.158585,0.250415 -0.245066,0.370663 -0.06824,0.09488 -0.141737,0.185879 -0.212605,0.278819 -0.14132,0.192038 -0.282148,0.392062 -0.440259,0.571047 -0.372981,0.422223 -0.818295,0.777809 -1.256,1.129161 -0.05876,0.0347 -0.121422,0.0635 -0.176268,0.104094 -0.380744,0.281822 -0.525828,0.816297 -0.879183,1.131143 -0.225245,0.321498 -0.476058,0.605946 -0.771965,0.866962 -0.126156,0.111281 -0.268231,0.203468 -0.395545,0.313424 -0.279431,0.241334 -0.293277,0.287649 -0.521844,0.57776 -0.962672,1.3517 0.376818,-0.57732 -0.627567,1.056401 -0.196124,0.319013 -0.434879,0.610205 -0.635607,0.926341 -0.190157,0.299488 -0.355641,0.613959 -0.53626,0.919293 -0.754904,1.276154 -0.304808,0.460756 -0.901634,1.578696 -0.494029,0.794392 -0.392764,0.658672 -0.930254,1.416045 -0.350396,0.493739 -0.702549,0.901268 -0.829094,1.506596 2.018894,0.09571 4.038371,0.179841 6.056684,0.28713 0.01331,7.08e-4 0.01491,0.04878 0.01786,0.03578 0.01749,-0.07704 0.01831,-0.156943 0.02746,-0.235415 9.97e-4,0.02752 -8.64e-4,0.02754 0.02107,-0.03454 0.01498,-0.04238 0.02767,-0.08554 0.04151,-0.128309 0.0092,-0.0083 0.02329,-0.01322 0.02759,-0.02482 0.02908,-0.07844 0.03237,-0.163985 0.05853,-0.242953 0.01948,-0.05882 0.04095,-0.116964 0.06186,-0.175289 0.03054,-0.08516 0.06166,-0.170116 0.09249,-0.255174 0.03323,-0.09259 0.05934,-0.188044 0.09968,-0.277764 0.166123,-0.369525 0.159087,-0.228644 0.301248,-0.604907 0.02609,-0.06904 0.03683,-0.142937 0.05519,-0.214421 0.07041,-0.274184 0.03881,-0.140652 0.09951,-0.425045 0.08859,-0.307367 0.07069,-0.280861 0.20417,-0.587947 0.129205,-0.297256 0.285191,-0.579119 0.296897,-0.912077 0.02171,-0.08825 0.03929,-0.177612 0.06512,-0.264741 0.09865,-0.332772 0.256246,-0.640983 0.408972,-0.951203 0.04465,-0.103805 0.08352,-0.210122 0.130955,-0.312682 0.113908,-0.246271 0.248554,-0.483535 0.337139,-0.741395 0.03183,-0.09265 0.06577,-0.184597 0.09549,-0.277945 0.03231,-0.101514 0.0545,-0.206256 0.09055,-0.306503 0.03992,-0.111003 0.09135,-0.217522 0.13703,-0.326282 0.03341,-0.07531 0.07194,-0.148541 0.100218,-0.225921 0.02321,-0.06354 0.02953,-0.13253 0.05382,-0.195665 0.03219,-0.08371 0.07665,-0.162175 0.114981,-0.243263 0.03489,-0.07676 0.06463,-0.156073 0.104668,-0.230276 0.13513,-0.25043 0.264228,-0.412669 0.42044,-0.65658 0.379091,-0.591912 0.73357,-1.199841 1.107185,-1.795142 0.190946,-0.277309 0.403152,-0.541122 0.572839,-0.831926 0.115693,-0.198271 0.188894,-0.418479 0.279786,-0.629276 0.405658,-0.940797 0.787727,-1.8922 1.217954,-2.822148 0.614378,-1.097704 -0.0046,0.02285 0.444938,-0.825182 0.143287,-0.270332 0.308046,-0.529207 0.446638,-0.801944 0.02959,-0.05823 0.05546,-0.118273 0.08319,-0.177409 0.02572,-0.04556 0.416188,-0.742489 0.266681,-0.757593 -12.74898,-1.287891 -4.088385,-1.156321 -6.22551,-0.193976 -0.362972,0.408307 0.09017,-0.09459 -0.312944,0.329477 -0.059,0.06207 -0.101276,0.142446 -0.171825,0.190985 -0.02712,0.01865 -0.06761,-0.01597 -0.09862,-0.0049 -0.09262,0.03301 -0.142642,0.146541 -0.238257,0.173908 -0.202081,0.129753 -0.18478,0.108806 -0.383668,0.284967 -0.179864,0.15931 -0.330365,0.358162 -0.527806,0.497368 -0.06373,0.04493 -0.13651,0.07542 -0.204765,0.113129 -0.248933,0.122067 -0.04863,0.01691 -0.260066,0.144841 -0.04892,0.0296 -0.102111,0.05239 -0.148607,0.08567 -0.207996,0.148863 -0.383023,0.339691 -0.539298,0.540508 -0.07625,0.07938 -0.149431,0.161836 -0.22876,0.238144 -0.23337,0.224483 -0.259488,0.228849 -0.501083,0.4197 -0.208921,0.16504 -0.416459,0.331159 -0.653594,0.455807 -0.04652,0.03923 -0.09304,0.07845 -0.139564,0.117679 -0.04244,0.02825 -0.08796,0.05236 -0.127331,0.08475 -0.112409,0.09247 -0.154724,0.171032 -0.249435,0.287059 -0.181028,0.221773 -0.164827,0.19601 -0.365996,0.402498 -0.166265,0.23468 -0.296648,0.47963 -0.494291,0.693529 -0.278858,0.301795 -0.630215,0.542321 -0.813147,0.923868 -0.406468,0.646843 0.033,-0.02317 -0.478318,0.657291 -0.365972,0.487036 -0.592057,1.071709 -1.037925,1.50113 -0.18312,0.234539 -0.301942,0.376788 -0.464348,0.621018 -0.116964,0.175894 -0.317244,0.513088 -0.399887,0.694919 -0.148786,0.327361 -0.255431,0.709686 -0.361905,1.049061 -0.201238,0.875011 -0.10744,0.422906 -0.277937,1.357026 -0.222556,0.972148 -0.204102,0.725432 -0.51285,1.643922 -0.122125,0.363308 -0.213345,0.7365 -0.335683,1.099764 -0.05037,0.153907 -0.107357,0.305801 -0.151096,0.461721 -0.06037,0.215198 -0.135907,0.619756 -0.170734,0.837821 -0.236447,1.480514 0.0972,-0.561813 -0.09282,0.871031 -0.02034,0.153359 -0.05743,0.304026 -0.08615,0.456039 -0.03816,0.1287 -0.07482,0.257853 -0.114479,0.3861 -0.02561,0.08281 -0.16747,0.237804 -0.08128,0.247008 2.411172,0.257503 5.881588,2.312877 5.991419,-0.02697 0.0034,-0.07272 -0.0056,-0.145496 -0.0083,-0.218244 5.75e-4,-0.253618 0.0029,-0.261216 -0.0061,-0.520883 -0.0032,-0.09192 -0.0178,-0.183855 -0.01218,-0.275659 0.0253,-0.412994 0.163222,-0.804088 0.355772,-1.166895 0.08953,-0.118375 0.175415,-0.239603 0.2686,-0.355126 0.07796,-0.09665 0.179533,-0.17522 0.24454,-0.281017 0.02811,-0.04574 0.0139,-0.106627 0.02581,-0.158973 0.02336,-0.102625 0.04724,-0.205415 0.07989,-0.305473 0.11995,-0.367617 0.214911,-0.566438 0.367219,-0.920661 0.158932,-0.431877 0.05741,-0.191574 0.282908,-0.641654 0.129534,-0.258544 0.152672,-0.345108 0.336936,-0.57286 0.08016,-0.09908 0.197778,-0.164513 0.262044,-0.278424 0.03202,-0.0419 0.06855,-0.08035 0.09881,-0.123534 0.03385,-0.04829 0.06036,-0.101713 0.0967,-0.148158 0.191428,-0.244637 0.442739,-0.423818 0.675508,-0.625706 0.24149,-0.277921 0.436409,-0.586417 0.611775,-0.909766 0.01951,-0.0344 0.04118,-0.06766 0.05852,-0.103198 0.01207,-0.02473 0.0068,-0.0616 0.02948,-0.07711 0.02827,-0.01928 0.0056,0.09924 0.03953,0.09473 0.413404,-0.05489 -0.202179,-0.107926 0.259845,-0.04628 0.03878,-0.03622 0.08914,-0.06308 0.116325,-0.108651 0.02931,-0.04914 0.03083,-0.110218 0.04697,-0.165115 0.01485,-0.05047 0.02866,-0.10131 0.04599,-0.150985 0.09732,-0.278966 0.220553,-0.549568 0.284642,-0.839588 0.07612,-0.331257 0.09887,-0.512326 0.278901,-0.836062 0.240361,-0.432219 0.618223,-0.906 1.012896,-1.21739 0.07964,-0.06283 0.168862,-0.112445 0.253293,-0.168668 0.277493,-0.117262 0.168888,-0.05224 0.40362,-0.22367 0.0422,-0.03082 0.08971,-0.05597 0.125288,-0.09425 0.106959,-0.115101 0.155996,-0.28298 0.290996,-0.375881 0.300597,0.02818 -0.168011,0.01426 0.174346,-0.133791 0.0577,-0.02495 -0.03259,0.227661 0.105213,0.08543 0.166984,-0.172351 0.01536,-0.172498 0.132461,-0.163032 0.01388,0.0047 0.02727,0.01696 0.04163,0.01407 0.0465,-0.0093 0.08845,-0.03439 0.133495,-0.04923 0.09403,-0.03096 0.187835,-0.06309 0.283616,-0.08812 0.481799,-0.1259 0.972194,-0.209918 1.46777,-0.258248 0.153122,-0.03172 0.307246,-0.05893 0.459365,-0.09515 0.291071,-0.06931 1.117772,-0.30165 1.347227,-0.364189 0.406685,-0.110843 1.472825,-0.39315 1.886825,-0.520119 0.212144,-0.06506 0.419738,-0.144127 0.629606,-0.21619 0.318294,-0.142338 0.839556,-0.372439 1.150258,-0.523788 0.216709,-0.105563 0.427679,-0.222657 0.644524,-0.327942 0.770151,-0.373934 1.552721,-0.730309 2.371299,-0.986184 0,0 -5.805209,-0.698462 -5.805209,-0.698462 z" />
  <path
     style="fill:#000000;fill-opacity:1;fill-rule:nonzero;stroke:none"
     id="path3985"
     d="m 35.545782,16.07903 c 0.06276,0.3566 0.121756,0.713884 0.188293,1.069799 0.121767,0.651341 0.300608,1.293623 0.3766,1.951876 0.07208,0.624357 0.04639,1.256156 0.06627,1.884344 0.02415,0.763302 0.07988,1.526553 0.06581,2.290108 -0.0069,0.374442 -0.303099,4.465078 -0.32506,4.773718 -0.608116,5.293955 0.05437,-0.609464 -0.435025,4.137868 -0.04582,0.444442 -0.152935,0.884608 -0.154993,1.331401 -0.0025,0.552382 0.101233,1.100196 0.14125,1.651132 0.142852,1.966717 0.115264,1.86121 0.16123,3.860429 -0.20178,3.557968 -0.0085,-0.263368 -0.11516,3.24461 -0.01419,0.466834 -0.04218,0.93317 -0.06914,1.399441 -0.02195,0.379645 -0.03051,0.760844 -0.07759,1.138198 -0.03115,0.24968 -0.10625,0.491899 -0.156558,0.738435 -0.04376,0.214464 -0.08376,0.429678 -0.125644,0.644516 -0.150338,0.768364 -0.03937,1.548763 -0.05553,2.323067 -0.0054,0.258699 -0.007,0.644265 -0.148154,0.892448 -0.0094,-0.161287 -0.01882,-0.322574 -0.02823,-0.483862 -0.02405,0.03189 -0.112049,0.09386 -0.07215,0.09566 1.99839,0.08987 3.999719,0.09785 5.998795,0.170886 0.01608,5.87e-4 -0.01512,0.03699 -0.0035,0.04815 0.0096,0.0092 0.01094,-0.0242 0.01544,-0.03668 0.0075,-0.02086 0.01373,-0.04218 0.02059,-0.06327 0.0017,-0.04295 0.0066,-0.08589 0.0052,-0.12885 -0.0018,-0.05868 -0.0144,-0.116809 -0.01455,-0.175514 -3.79e-4,-0.151161 0.02692,-0.30123 0.04735,-0.451004 0.05241,-0.384176 0.09395,-0.58897 0.165599,-0.991539 0.16521,-1.527794 0.120745,-1.723824 0.586273,-3.276051 0.141944,-0.473288 0.329657,-0.932187 0.520541,-1.387943 0.07947,-0.189754 0.705297,-1.416841 0.7942,-1.71489 0.0807,-0.270551 0.09585,-0.556465 0.143781,-0.834698 0.03353,-0.405749 0.04841,-0.813474 0.100599,-1.217248 0.05068,-0.39206 0.174623,-0.773704 0.207668,-1.167643 0.06539,-0.779536 0.01028,-3.003883 -0.02337,-3.676974 -0.0435,-0.869939 -0.155316,-1.736175 -0.1805,-2.606836 -0.022,-0.760533 0.02606,-1.521479 0.03909,-2.282218 -0.0032,-0.09611 -0.122104,-3.744887 -0.142186,-4.014095 -0.108491,-1.454318 -0.244624,-1.586345 -0.291176,-2.908062 -0.0084,-0.237434 0.01945,-0.474764 0.02856,-0.71217 0.0061,-0.159566 0.01141,-0.319162 0.01711,-0.478742 0.0068,-0.319988 0.07585,-0.632261 0.125078,-0.946886 0.01116,-0.07136 0.0155,-0.143827 0.02987,-0.21461 0.0999,-0.492187 -0.02369,0.329248 0.0642,-0.305234 -0.0075,-0.172661 0.108647,-0.334531 0.140952,-0.495088 0.0028,-0.01415 0.02814,-0.306454 -0.0069,-0.305069 -2.01065,0.07944 -4.015462,0.268629 -6.023194,0.402944 0.04542,0.156175 0.100036,0.309963 0.136254,0.468525 0.05217,0.228419 0.08508,0.460818 0.128607,0.691041 0.0766,0.405101 0.170161,0.807278 0.231772,1.214928 0.21732,1.437916 0.29898,2.408585 0.32429,3.888673 0.01165,0.680913 -0.02106,1.361862 -0.03158,2.042794 -0.04146,1.82257 -0.0059,1.956188 -0.187114,3.705366 -0.09915,0.956927 -0.247316,1.623101 -0.311597,2.573923 -0.02972,0.439552 -0.0195,0.880958 -0.03839,1.321108 -0.01614,0.376046 -0.04445,0.751471 -0.06668,1.127207 -0.0089,0.411326 -0.05296,1.420631 0.01879,1.854388 0.07701,0.465512 0.23994,0.913273 0.331661,1.37611 0.167033,0.842867 0.252932,1.423629 0.238818,2.247341 -0.0022,0.129108 -0.03353,0.256069 -0.0503,0.384103 7.31e-4,0.06313 -0.0119,0.127841 0.0022,0.189379 0.01962,0.08568 0.06518,0.163267 0.09728,0.245093 0.04717,0.120253 0.09883,0.238888 0.14054,0.361142 0.08864,0.259793 0.102305,0.383342 0.09744,0.641072 2.029981,-0.04507 4.063991,3.71e-4 6.089941,-0.135198 0.09197,-0.0062 0.01179,-0.184879 0.0332,-0.274539 0.0523,-0.219017 0.107518,-0.438472 0.187323,-0.649029 0.127332,-0.335953 0.292166,-0.656504 0.432802,-0.987108 0.515648,-1.212178 0.504488,-1.217451 0.979769,-2.459021 0.803014,-2.092878 0.131686,-0.433617 0.905245,-2.153861 0.09668,-0.21499 0.212859,-0.424217 0.274431,-0.65176 0.06888,-0.254564 0.08562,-0.52072 0.113789,-0.78293 0.107671,-1.002357 0.06278,-1.113698 0.03916,-2.243876 -0.02133,-0.578886 -0.04266,-1.157772 -0.064,-1.736658 -0.01675,-0.634285 -0.02703,-1.268774 -0.05025,-1.902855 -0.02299,-0.627701 -0.07015,-1.254435 -0.08836,-1.882293 -0.01281,-0.441649 0.01988,-0.884344 -0.0047,-1.325495 -0.04448,-0.798975 -0.120865,-0.97234 -0.304394,-1.682846 -0.01799,-0.32667 -0.386406,-0.633928 -0.348901,-0.959725 0.01127,-0.09786 0.08339,-0.09002 0.130291,-0.03104 0.02558,0.03217 0.03169,0.07584 0.04754,0.113766 -2.01345,-0.06126 -4.0269,-0.122514 -6.040349,-0.183771 -0.0031,-0.0047 -0.0089,-0.01987 -0.0092,-0.01423 -0.02013,0.420006 0.01339,0.553145 0.03265,1.059999 0.0465,1.223255 0.03115,1.289761 0.03092,2.669288 -0.04731,0.582871 -0.0796,1.167156 -0.141933,1.748612 -0.05751,0.536439 -0.16376,1.067029 -0.217445,1.603864 -0.05222,0.522145 -0.06875,1.047251 -0.100058,1.571066 -0.08905,1.48973 -0.154168,2.980562 -0.22125,4.471392 -0.205488,2.129661 0.0048,0.490171 -0.302559,2.08974 -0.03559,0.185186 -0.04751,0.374446 -0.0841,0.559437 -0.01679,0.08492 -0.05767,0.163761 -0.07568,0.248437 -0.01589,0.07473 -0.0094,0.152541 -0.01666,0.228592 -0.0081,-0.01449 -0.04118,-0.06978 -0.0073,-0.06925 2.033678,0.03232 4.066721,0.213526 6.099826,0.155413 0.109968,-0.0031 1.34e-4,-0.220162 0.0069,-0.329966 0.02704,-0.438242 0.141823,-1.635267 0.169334,-1.934491 0.06702,-0.893329 0.222452,-2.919798 0.269176,-3.74938 0.03831,-0.680283 0.06347,-1.361262 0.08914,-2.042139 0.02208,-0.585891 0.04803,-1.171813 0.05409,-1.758089 0.01386,-1.341847 -0.02542,-1.677826 -0.09841,-2.979643 0.01308,-0.306444 0.02617,-0.612889 0.03925,-0.919334 -8.04e-4,-0.217208 -0.01101,-0.434584 -0.0024,-0.651624 0.0084,-0.211566 0.0237,-0.484777 0.177769,-0.653824 -2.018801,0.0039 -4.038138,-0.03506 -6.056402,0.01165 -0.04289,9.93e-4 0.0093,0.08539 0.01074,0.128268 0.0043,0.130267 0.0035,0.260657 0.0065,0.390962 0.01411,0.62073 0.044,1.23817 0.08386,1.857806 0.04025,1.000149 0.05443,0.616285 -0.0191,1.582456 -0.01837,0.241407 -0.03198,0.483389 -0.06102,0.723746 -0.02478,0.205141 -0.07691,0.406424 -0.100291,0.611728 -0.03674,0.322574 -0.0533,0.647128 -0.07995,0.970692 -0.05128,0.398079 -0.10256,0.796159 -0.15384,1.194239 -0.165896,0.651164 -0.257356,1.112676 -0.495074,1.72113 -0.144482,0.369809 -0.09697,0.306685 -0.305141,0.460925 0,0 6.01878,0.224912 6.01878,0.224912 v 0 c -0.07533,-0.775983 0.09922,-1.549976 0.217396,-2.312073 0.08874,-0.395935 0.167311,-0.794287 0.266219,-1.187806 0.08484,-0.337532 0.215961,-0.663344 0.284801,-1.004499 0.04251,-0.210666 0.03525,-0.428418 0.04763,-0.642973 0.04513,-0.781959 0.06552,-1.565869 0.07745,-2.348904 0.0103,-0.243036 0.02032,-0.486084 0.0309,-0.729108 0.01773,-0.40761 0.01741,-0.668642 0.08092,-1.064347 0.01935,-0.120534 0.05191,-0.238588 0.08028,-0.357322 0.02403,-0.100576 0.180082,-0.293607 0.07691,-0.300538 -2.019611,-0.135668 -4.047752,-0.06811 -6.071628,-0.102157 -0.0035,0.07057 -0.01159,0.202486 -0.0058,0.261017 0.02213,0.223165 0.09072,0.410782 0.14506,0.631564 0.127106,0.516441 0.233135,1.037966 0.372834,1.551387 0.205688,1.646327 0.17319,1.198681 0.288083,2.938648 0.03805,0.576213 0.09919,1.151969 0.10141,1.729432 0.0026,0.670234 -0.02161,1.341794 -0.08702,2.008833 -0.15776,1.608607 -0.349826,2.182438 -0.719397,3.698415 -0.118977,0.38771 -0.217357,0.782348 -0.35693,1.163128 -0.0931,0.254 -0.217635,0.495637 -0.339592,0.737113 -0.02756,0.05457 -0.168664,0.144459 -0.107665,0.148459 2.014371,0.132087 6.139872,2.147612 6.054681,0.130713 -6.94e-4,-0.01643 -0.0079,-0.03194 -0.01179,-0.04791 -0.06254,-0.03328 -0.02636,-0.0061 -0.07836,-0.109907 -0.179701,-0.358719 -0.09894,-0.138436 -0.162324,-0.739836 -0.125361,-1.189426 -0.08516,-0.623214 -0.05577,-2.105169 0.08911,-3.554713 -0.03441,0.680049 0.129076,-2.982063 0.022,-0.492851 0.02348,-0.986432 0.0415,-1.479446 0.05999,-1.641275 0.169255,-3.281191 0.43556,-4.904033 0.09787,-0.534598 0.203595,-1.067818 0.293612,-1.603795 0.05854,-0.348549 0.08237,-0.702837 0.151982,-1.049345 0.203424,-1.012508 0.137073,-0.402551 0.284789,-0.976803 0.02614,-0.101618 0.168691,-0.297936 0.06426,-0.308148 -2.015393,-0.197098 -4.045741,-0.186036 -6.068611,-0.279054 -0.05378,0.219594 -0.119649,0.452671 -0.0908,0.681695 0.05287,0.419652 0.312629,0.745784 0.589726,1.045427 0.109789,0.203411 0.240762,0.396741 0.329368,0.610233 0.206784,0.498236 0.557928,1.756629 0.617384,2.211591 0.08035,0.614852 0.0917,1.237477 0.101247,1.857484 0.02384,1.548627 -0.0615,2.091953 -0.194729,3.60077 -0.07191,0.438662 -0.145255,0.87709 -0.215721,1.315986 -0.04605,0.286824 -0.07969,0.575748 -0.133827,0.861157 -0.04594,0.242203 -0.116991,0.479088 -0.166218,0.720645 -0.04222,0.207182 -0.06239,0.418599 -0.108023,0.625057 -0.235525,1.065511 -0.266567,1.001173 -0.706879,2.146724 -0.163607,0.407127 -0.309142,0.821991 -0.490823,1.22138 -0.451209,0.991892 -0.654412,1.277246 -1.234867,2.167527 -0.154975,0.237695 -0.314727,0.472248 -0.474037,0.707059 -0.03938,0.05805 -0.192123,0.169642 -0.122002,0.171459 2.008076,0.05201 4.017481,-0.01235 6.026221,-0.01853 -0.01991,0.03899 -0.02141,0.138132 -0.05974,0.116975 -0.06253,-0.03452 -0.05654,-0.131187 -0.08483,-0.196771 -0.04034,-0.0935 -0.09038,-0.183377 -0.121062,-0.280471 -0.03653,-0.115582 -0.05456,-0.236229 -0.07972,-0.354807 -0.01844,-0.08693 -0.0193,-0.178667 -0.05107,-0.26166 -0.02208,-0.05769 -0.07134,-0.10087 -0.107004,-0.151305 -0.07838,-0.112107 -0.180624,-0.210862 -0.235131,-0.336321 -0.306774,-0.706114 -0.429659,-1.457686 -0.502862,-2.220569 -0.04303,-0.448391 -0.0146,-0.901204 -0.04571,-1.350579 -0.01934,-0.279361 -0.08032,-0.554544 -0.105497,-0.83344 -0.02902,-0.321456 -0.03799,-0.644407 -0.05699,-0.966611 -0.01359,-0.369445 -0.04751,-0.738701 -0.04077,-1.108334 0.05294,-2.899222 0.1185,0.251432 0.14612,-2.535758 0.0045,-0.453519 -0.03385,-0.90662 -0.03563,-1.360158 -0.0049,-1.242091 0.06441,-2.483895 0.02473,-3.726221 -9.53e-4,-0.683451 -0.01351,-1.366983 -0.0029,-2.050352 0.03274,-2.101586 0.216532,-4.196834 0.232927,-6.298705 -2.015978,0.0096 -4.03219,0.06115 -6.047932,0.02888 -0.04203,-6.73e-4 0.0047,-0.08414 0.0121,-0.12553 0.0042,-0.02361 -0.0013,-0.07147 0.02244,-0.06836 0.02405,0.0031 0.01019,0.04818 0.008,0.07233 -0.01518,0.164113 -0.0609,0.279379 -0.109383,0.441449 -0.01767,0.111822 -0.04177,0.247049 -0.04604,0.358494 -0.0024,0.06335 0.0066,0.12668 0.0063,0.190071 -0.0016,0.35404 -0.04504,0.707902 -7.24e-4,1.061693 0.03708,0.169039 0.06369,0.340723 0.111246,0.507118 0.248761,0.870311 0.367747,0.888229 0.597534,1.915875 0.122635,0.548446 0.199707,1.106293 0.281644,1.662278 0.283769,1.925534 0.241314,1.94508 0.375493,3.982598 0.04524,0.758576 0.136135,1.515805 0.135725,2.275729 -4.66e-4,0.864414 -0.08217,1.726963 -0.138351,2.589549 -0.153131,2.351047 -0.0889,1.491992 -0.434614,3.600781 -0.280791,1.712776 -0.03374,0.636016 -0.513135,2.370451 -0.05045,0.250249 -0.09518,0.501724 -0.151366,0.750749 -0.05629,0.249479 -0.125244,0.495936 -0.185989,0.744369 -0.08166,0.333978 -0.162539,0.668156 -0.241231,1.002847 -0.110057,0.468089 -0.196349,0.94215 -0.325012,1.40547 -0.50302,1.811404 -0.491831,1.619629 -1.249454,3.267464 -0.265365,0.780673 -0.133381,0.36337 -0.324612,1.015071 -0.03233,0.11016 -0.07026,0.21878 -0.09789,0.330208 -0.03456,0.139348 -0.04351,0.279901 -0.0716,0.419568 -0.0084,0.06006 -0.06418,0.472665 -0.02905,0.475784 2.017317,0.179134 4.046462,0.183606 6.068254,0.301978 0.02603,0.0015 0.04581,0.08118 0.05413,0.05647 0.05299,-0.15738 0.06115,-0.326445 0.09173,-0.489667 -0.183978,-0.224231 -0.229359,-0.579864 -0.250979,-0.848377 -0.05992,-0.744139 0.03231,-1.488912 0.122563,-2.225833 0.02705,-0.23093 0.07635,-0.460331 0.08114,-0.692791 0.0053,-0.258946 -0.03504,-0.51682 -0.05089,-0.775335 -0.02322,-0.378703 -0.04969,-0.757259 -0.06633,-1.136308 -0.158098,-3.602436 0.06419,0.981988 -0.04141,-3.009434 -0.01452,-0.548936 -0.05978,-1.096628 -0.08967,-1.644942 2.14e-4,-1.605397 -0.0063,-2.27935 0.01954,-3.871006 0.0089,-0.545908 0.06218,-1.092048 0.03808,-1.637496 -0.01935,-0.438114 -0.145143,-0.866905 -0.168051,-1.304848 -0.07271,-1.38991 0.05001,-2.734319 0.131737,-4.121862 0.296747,-3.054464 0.19579,-1.808187 0.409033,-4.803528 0.05512,-0.774313 0.151626,-1.54697 0.162054,-2.323173 0.0085,-0.632539 -0.106969,-1.262266 -0.105387,-1.894861 0.0025,-1.007413 0.181071,-2.010104 0.123532,-3.019724 0,0 -5.711967,0.03155 -5.711967,0.03155 z" />
  <path
     style="fill:#ffffff;stroke-width:0.0623174"
     d="m 27.438481,31.858206 c -1.410897,-0.18307 -2.696104,-0.660389 -3.707887,-1.377086 -0.991694,-0.702467 -1.96324,-1.906918 -2.587937,-3.20833 -0.52122,-1.085841 -1.023748,-2.748819 -1.181286,-3.909139 l -0.03807,-0.280429 0.735197,-0.354819 c 1.023256,-0.493842 1.700813,-0.974786 2.221716,-1.577021 0.485498,-0.561302 2.908262,-3.782945 4.277842,-5.688413 l 0.903603,-1.257163 8.338634,-0.0014 c 5.653146,-9.55e-4 8.325981,0.01907 8.299345,0.06216 -0.0564,0.09126 -4.438052,4.134929 -7.290365,6.728016 -4.092374,3.72045 -6.303417,6.070814 -6.898533,7.333219 -0.231866,0.491854 -0.515375,1.63686 -0.66095,2.669384 l -0.11417,0.80977 -0.244964,0.0435 c -0.253363,0.045 -1.722381,0.05055 -2.052171,0.0078 z"
     id="path4056" />
  <path
     style="fill:#ffffff;stroke-width:0.0623174"
     d="M 24.378746,42.072089 14.94927,33.612498 14.213383,31.992891 c -0.525656,-1.156911 -0.720507,-1.648346 -0.682049,-1.720204 0.06392,-0.11943 3.077303,-4.261115 4.796083,-6.591876 l 1.211949,-1.643469 0.10724,0.833342 c 0.665026,5.167755 3.065507,8.313352 6.913183,9.059055 1.032552,0.200115 2.923104,0.183093 3.67695,-0.03311 0.169696,-0.04867 0.174134,-0.04311 0.242192,0.303447 0.319794,1.628414 0.860358,3.415424 1.458041,4.820027 l 0.09762,0.229418 -1.192672,0.393756 c -1.058532,0.34947 -1.206003,0.414783 -1.311186,0.580709 -0.174537,0.275326 -0.123057,0.753082 0.102007,0.946674 0.092,0.07913 0.219293,0.143881 0.282875,0.143881 0.06358,0 0.707902,-0.193168 1.431824,-0.429263 l 1.316222,-0.429261 0.09991,0.195571 c 0.05495,0.107565 0.222307,0.385736 0.371906,0.618158 0.149599,0.232422 0.271997,0.433653 0.271997,0.44718 0,0.01353 -0.616805,0.223752 -1.370679,0.467166 -1.475146,0.476302 -1.526521,0.506953 -1.599068,0.954009 -0.04639,0.28587 0.120757,0.635498 0.349013,0.730045 0.155158,0.06427 0.361334,0.01171 1.834501,-0.467679 l 1.659697,-0.540085 0.627606,0.634667 c 0.345183,0.349067 0.618371,0.641476 0.607085,0.649797 -0.01129,0.0083 -0.735613,0.245894 -1.609615,0.527938 -1.803658,0.582048 -1.932616,0.658529 -1.930922,1.145174 0.0012,0.332058 0.110918,0.552627 0.326424,0.655961 0.152969,0.07335 0.321843,0.02992 1.898857,-0.488345 0.952027,-0.312869 1.795009,-0.609766 1.873295,-0.659772 0.07829,-0.05001 0.159026,-0.174358 0.179422,-0.27634 0.0204,-0.101982 0.05762,-0.198114 0.08272,-0.213627 0.0251,-0.01551 0.35307,0.177202 0.728818,0.428257 0.868578,0.580338 1.693928,1.021872 3.104285,1.660686 2.25575,1.021732 2.757046,1.34804 3.07954,2.004559 0.40948,0.8336 0.47312,1.833164 0.192652,3.025905 l -0.135546,0.576436 h -4.74867 -4.74867 z"
     id="path4058" />
  <path
     style="fill:#ffffff;stroke-width:0.0623174"
     d="M 23.375799,44.345879 C 17.977551,39.579478 13.45279,35.586148 13.320773,35.471812 L 13.080742,35.263928 12.908374,33.40581 c -0.167746,-1.808301 -0.169329,-1.863106 -0.05905,-2.044191 l 0.113313,-0.186074 0.267926,0.589334 c 0.147359,0.324134 0.478247,1.042858 0.735307,1.597164 l 0.467381,1.007831 9.628042,8.634131 9.628043,8.634132 4.656686,0.0035 4.656685,0.0035 -0.06188,0.162745 c -0.03403,0.08951 -0.192863,0.397982 -0.352958,0.685492 l -0.291081,0.522743 -4.552998,-0.002 -4.552998,-0.002 z"
     id="path4060" />
</svg>
