<?xml version="1.0" encoding="UTF-8" standalone="no"?>
<svg
   width="64"
   height="64"
   viewBox="0 0 64 64"
   version="1.1"
   id="svg9304"
   sodipodi:docname="youtube.svg"
   inkscape:version="1.2 (dc2aedaf03, 2022-05-15)"
   xmlns:inkscape="http://www.inkscape.org/namespaces/inkscape"
   xmlns:sodipodi="http://sodipodi.sourceforge.net/DTD/sodipodi-0.dtd"
   xmlns="http://www.w3.org/2000/svg"
   xmlns:svg="http://www.w3.org/2000/svg">
  <defs
     id="defs9308" />
  <sodipodi:namedview
     id="namedview9306"
     pagecolor="#505050"
     bordercolor="#eeeeee"
     borderopacity="1"
     inkscape:showpageshadow="0"
     inkscape:pageopacity="0"
     inkscape:pagecheckerboard="0"
     inkscape:deskcolor="#505050"
     showgrid="false"
     inkscape:zoom="11.313709"
     inkscape:cx="59.308579"
     inkscape:cy="26.560697"
     inkscape:window-width="3440"
     inkscape:window-height="1376"
     inkscape:window-x="0"
     inkscape:window-y="32"
     inkscape:window-maximized="1"
     inkscape:current-layer="svg9304" />
  <path
     style="fill:#000000;stroke-width:0.0623174"
     d="M 30.097426,61.943955 C 26.565762,61.726816 23.476287,61.043214 20.388011,59.795575 10.695397,55.879834 3.7597498,47.231267 2.0293488,36.902813 c -0.30105,-1.796912 -0.347136,-2.446366 -0.347136,-4.891918 0,-2.445552 0.04609,-3.095006 0.347136,-4.891918 0.787774,-4.702084 2.685768,-9.170134 5.507395,-12.964907 C 9.2887128,11.797868 11.595058,9.5073313 13.91073,7.8237723 19.546053,3.7267344 26.503021,1.668079 33.275615,2.0934571 39.667434,2.4949192 45.458306,4.7228262 50.381749,8.6746552 56.796016,13.823103 60.82745,21.47574 61.473655,29.729779 c 0.08181,1.044915 0.08062,3.523959 -0.0022,4.589984 -0.43397,5.585925 -2.48252,11.056582 -5.822109,15.547957 -1.685025,2.266171 -3.844032,4.434423 -6.108879,6.135037 -4.089031,3.070347 -9.063105,5.084766 -14.146056,5.728923 -1.708383,0.216501 -3.83932,0.301899 -5.296982,0.212275 z m 12.04547,-19.995181 c 0.287752,-0.05705 0.717148,-0.210876 1.070994,-0.383678 0.483995,-0.236361 0.681985,-0.379775 1.096361,-0.794151 0.412686,-0.412686 0.559064,-0.614339 0.795835,-1.09636 0.540408,-1.100166 0.50838,-0.648748 0.50838,-7.165151 0,-6.516935 0.03212,-6.06455 -0.508909,-7.166504 -0.240978,-0.490813 -0.379087,-0.679486 -0.80791,-1.103698 -0.422384,-0.417844 -0.623353,-0.562871 -1.095831,-0.790794 -1.043303,-0.503291 -0.346049,-0.47357 -11.110233,-0.47357 -10.593395,0 -10.065595,-0.01932 -10.967867,0.401479 -1.200182,0.559738 -2.027058,1.547207 -2.414282,2.88318 l -0.140733,0.485545 v 5.764362 5.764363 l 0.14333,0.495013 c 0.367664,1.269782 1.183155,2.277308 2.267031,2.800878 1.023154,0.494238 0.299102,0.463542 11.068411,0.469232 8.388242,0.0044 9.676379,-0.0071 10.095423,-0.09015 z"
     id="path10153" />
  <path
     style="fill:#000000;stroke-width:0.0623174"
     d="m 30.099318,32.882986 v -3.990084 l 0.549342,0.291621 c 3.384622,1.796744 6.616511,3.539045 6.616801,3.567096 1.99e-4,0.01923 -1.520962,0.901209 -3.380359,1.959948 -1.859396,1.058738 -3.47186,1.978197 -3.583252,2.043241 l -0.202532,0.118262 z"
     id="path10155" />
  <path
     style="fill:#000000;stroke-width:0.00390625"
     d="m 30.050781,32.126616 v -3.297212 l 0.03613,0.01939 c 0.01987,0.01066 1.671777,0.892572 3.670898,1.959797 1.999122,1.067226 3.63527,1.940846 3.635886,1.94138 6.16e-4,5.33e-4 -1.054353,0.602447 -2.344375,1.337586 l -2.345495,1.336616 -0.03051,-0.0011 -0.03051,-0.0011 0.599497,-0.341433 c 2.164536,-1.232775 3.54525,-2.028706 3.936431,-2.269209 0.0777,-0.04777 0.08924,-0.05623 0.08535,-0.06253 -0.0245,-0.03965 -2.806795,-1.541543 -6.068767,-3.275953 -0.932416,-0.495772 -1.082384,-0.575299 -1.09082,-0.578453 -0.0065,-0.0024 -0.0068,0.154599 -0.0068,3.263486 v 3.266043 h -0.02344 -0.02344 z"
     id="path10157" />
  <path
     style="fill:#000000;stroke-width:0.00390625"
     d="m 30.050781,36.179914 v -0.756086 h 0.02344 0.02344 v 0.725027 c 0,0.686546 3.6e-4,0.72489 0.0068,0.722427 0.0037,-0.0014 0.0613,-0.03437 0.12793,-0.0732 0.129386,-0.07539 0.949347,-0.543823 1.853993,-1.059153 l 0.553153,-0.315104 h 0.0279 c 0.01535,0 0.02785,0.0013 0.02779,0.0029 -7.8e-5,0.0021 -2.136159,1.221258 -2.621615,1.49632 l -0.0228,0.01292 z"
     id="path10159" />
  <path
     style="fill:#000000;stroke-width:0.00390625"
     d="m 30.050781,33.71875 v -3.212891 h 0.02343 0.02343 l 9.82e-4,3.180664 9.81e-4,3.180664 9.74e-4,-3.180664 9.74e-4,-3.180664 h 1.511397 1.511396 l 0.567705,0.304093 c 2.141883,1.147303 3.569659,1.923956 3.569659,1.941753 0,0.0093 -0.49715,0.303162 -1.203125,0.711232 -0.741982,0.428882 -1.450117,0.834005 -3.291016,1.882785 -2.422798,1.380294 -2.669272,1.521464 -2.664581,1.526155 0.0011,0.0011 0.0984,-0.05329 0.216136,-0.120959 0.312203,-0.17942 1.13468,-0.648999 2.098306,-1.197991 l 0.227985,-0.129888 0.02137,0.0027 c 0.01175,0.0015 0.02078,0.0032 0.02006,0.0038 -0.0073,0.0063 -2.630815,1.502147 -2.634468,1.502147 -8.81e-4,0 -0.0016,-1.445801 -0.0016,-3.212891 z"
     id="path10161" />
  <path
     style="fill:#000000;stroke-width:0.00390625"
     d="m 30.050781,33.71875 v -3.212891 h 0.02343 0.02343 l 9.82e-4,3.053711 9.81e-4,3.053711 9.74e-4,-3.053711 9.74e-4,-3.053711 h 1.511604 1.511603 l 0.547967,0.293457 c 2.130457,1.14094 3.588983,1.934364 3.588983,1.952373 0,0.01009 -0.507654,0.309856 -1.285157,0.758873 -0.736623,0.425409 -1.369627,0.787529 -3.064453,1.753064 -2.527109,1.439685 -2.813647,1.603717 -2.809204,1.608159 9.52e-4,9.52e-4 0.103432,-0.0566 0.227733,-0.1279 0.221202,-0.126877 1.460879,-0.834508 2.027368,-1.157259 0.294848,-0.167987 0.293763,-0.167447 0.320412,-0.159479 0.0098,0.0029 0.09158,-0.04436 -1.063184,0.61489 -0.935419,0.534025 -1.559999,0.889604 -1.562607,0.889604 -0.001,0 -0.0018,-1.445801 -0.0018,-3.212891 z"
     id="path10163" />
  <path
     style="fill:#000000;stroke-width:0.00390625"
     d=""
     id="path10165" />
  <path
     style="fill:#000000;stroke-width:0.00390625"
     d="m 30.050781,33.71875 v -3.212891 h 0.02343 0.02343 l 9.83e-4,2.520508 9.82e-4,2.520508 9.74e-4,-2.520508 9.73e-4,-2.520508 h 1.511791 1.511791 l 0.575123,0.308079 c 2.147212,1.150204 3.561452,1.919687 3.561452,1.937774 0,0.008 -0.310484,0.193234 -0.839844,0.501013 -0.776255,0.451327 -1.61704,0.932913 -3.787109,2.169188 -2.055345,1.170917 -2.530829,1.443092 -2.527267,1.446654 0.002,0.002 0.01373,-0.0047 0.43547,-0.246278 0.297332,-0.17031 1.645522,-0.939547 2.010336,-1.147037 0.04973,-0.02828 0.09477,-0.05142 0.100097,-0.05142 0.0053,0 0.0152,0.0011 0.02195,0.0025 l 0.01227,0.0025 -0.02643,0.01553 c -0.14257,0.08377 -2.604222,1.487379 -2.608573,1.487379 -0.001,0 -0.0018,-1.445801 -0.0018,-3.212891 z"
     id="path10167" />
  <path
     style="fill:#000000;stroke-width:0.00390625"
     d="m 30.050781,33.71875 v -3.212891 h 0.02343 0.02343 l 9.85e-4,1.90918 9.84e-4,1.90918 9.73e-4,-1.90918 9.72e-4,-1.90918 h 1.512019 1.512019 l 0.578802,0.3101 c 2.171905,1.163623 3.557445,1.917543 3.557298,1.935649 -1.13e-4,0.01398 -0.848738,0.510419 -2.082013,1.217972 -0.512028,0.293761 -1.63557,0.934723 -3.535156,2.016747 -0.977569,0.556834 -1.524231,0.870567 -1.533203,0.879916 -0.0055,0.0057 2.53e-4,0.0025 0.40625,-0.229777 0.338159,-0.19343 1.411286,-0.805693 1.908601,-1.088936 0.126872,-0.07226 0.221294,-0.123702 0.227051,-0.123702 0.0054,0 0.01549,0.0011 0.02237,0.0025 l 0.01252,0.0025 -0.02668,0.01556 c -0.183586,0.107071 -2.604369,1.48725 -2.608581,1.48725 -0.0011,0 -0.0021,-1.445801 -0.0021,-3.212891 z"
     id="path10169" />
  <path
     style="fill:#000000;stroke-width:0.00390625"
     d="m 30.050781,33.71875 v -3.212891 h 0.02343 0.02343 l 9.88e-4,1.401368 9.87e-4,1.401367 9.71e-4,-1.401367 9.71e-4,-1.401368 h 1.512278 1.512278 l 0.529714,0.283789 c 2.201707,1.179538 3.605887,1.943525 3.605887,1.961893 0,0.0013 -0.0031,0.0044 -0.0068,0.0069 -0.290218,0.187449 -1.670996,0.984405 -4.225586,2.438919 -0.492136,0.280209 -0.445359,0.253161 -0.442596,0.255923 0.0011,0.0011 0.01435,-0.005 0.02936,-0.01367 0.02689,-0.0155 0.04226,-0.01874 0.06283,-0.01323 0.008,0.0022 0.0066,0.0038 -0.01367,0.01608 -0.07793,0.04706 -2.60775,1.489228 -2.612372,1.489228 -0.0011,0 -0.0021,-1.445801 -0.0021,-3.212891 z m 0.571326,2.857923 c 0.426623,-0.243851 0.826922,-0.472291 1.450981,-0.828035 0.06276,-0.03577 0.112561,-0.06558 0.110675,-0.06624 -0.0056,-0.002 -2.054867,1.167481 -2.070156,1.181357 -0.0089,0.0081 0.07082,-0.03692 0.5085,-0.287084 z"
     id="path10171" />
  <path
     style="fill:#000000;stroke-width:0.00390625"
     d="m 30.050781,33.71875 v -3.212891 h 0.02343 0.02343 l 9.92e-4,1.006836 9.91e-4,1.006836 9.69e-4,-1.006836 9.69e-4,-1.006836 h 1.512386 1.512385 l 0.558904,0.299424 c 2.155842,1.154955 3.568012,1.923215 3.575293,1.945058 0.0021,0.0062 -0.07588,0.05481 -0.318172,0.198263 -0.539662,0.319525 -1.56511,0.910169 -3.13049,1.80312 -0.287164,0.163809 -0.5256,0.30108 -0.529858,0.305047 -0.0043,0.004 -0.0088,0.0061 -0.01011,0.0048 -0.0013,-0.0013 -0.0024,-5.09e-4 -0.0024,0.0018 0,0.0023 -0.0043,0.0052 -0.0095,0.0065 -0.0052,0.0013 -0.01186,0.0046 -0.01476,0.0073 -0.0029,0.0027 -0.01577,0.01 -0.02859,0.01627 -0.03663,0.01789 -0.634739,0.35896 -0.632833,0.360865 9.37e-4,9.38e-4 0.01489,-0.0055 0.03101,-0.01438 0.02914,-0.01599 0.04841,-0.01969 0.06619,-0.0127 0.0054,0.0021 -0.164433,0.100899 -0.673828,0.391905 -1.099415,0.628073 -1.950402,1.112519 -1.954273,1.112519 -0.0012,0 -0.0022,-1.445801 -0.0022,-3.212891 z m 0.101563,3.124799 c 0,-0.0011 -0.0053,7.74e-4 -0.01172,0.0041 -0.0064,0.0033 -0.01172,0.0069 -0.01172,0.008 0,0.0011 0.0053,-7.75e-4 0.01172,-0.0041 0.0064,-0.0033 0.01172,-0.0069 0.01172,-0.008 z m 0.27539,-0.156162 c 0.139649,-0.07999 0.590528,-0.33741 1.001953,-0.572046 0.411426,-0.234637 0.749805,-0.428407 0.751954,-0.430602 0.0085,-0.0086 -0.0085,8.86e-4 -0.462891,0.259779 -0.935322,0.532929 -1.553558,0.887214 -1.560547,0.894284 -0.0065,0.0065 0.0059,-4.09e-4 0.269531,-0.151415 z"
     id="path10173" />
  <path
     style="fill:#000000;stroke-width:0.00390625"
     d="m 30.050781,33.71875 v -3.212891 h 0.02343 0.02343 l 9.98e-4,0.717774 9.97e-4,0.717773 9.66e-4,-0.717773 9.66e-4,-0.717774 h 1.512366 1.512365 l 0.04135,0.02202 c 0.02274,0.01211 0.298865,0.160022 0.613611,0.328694 2.142418,1.148117 3.480469,1.876521 3.480469,1.894687 0,0.0059 -0.150392,0.09838 -0.363282,0.223315 -0.109472,0.06424 -0.09956,0.05803 -0.09687,0.06072 0.0038,0.0038 0.41801,-0.243227 0.448433,-0.267441 0.0075,-0.006 0.01416,-0.01333 0.01475,-0.01632 0.0017,-0.0088 -0.0568,-0.04366 -0.307715,-0.183141 -0.57181,-0.317868 -2.226519,-1.211768 -3.666829,-1.980879 l -0.149251,-0.0797 0.02231,-0.0011 0.02231,-0.0011 2.085923,1.113816 c 1.147257,0.612599 2.093202,1.117603 2.1021,1.122232 l 0.01618,0.0084 -0.238834,0.13637 c -0.436598,0.24929 -2.329789,1.328698 -3.397038,1.93683 l -1.052734,0.599862 -0.02342,-0.0025 -0.02342,-0.0025 0.376939,-0.214575 c 1.408785,-0.80196 2.847687,-1.627021 3.492173,-2.002401 0.279611,-0.162858 0.26578,-0.154615 0.263399,-0.156995 -0.0011,-0.0011 -0.07889,0.04276 -0.172777,0.09756 -0.59213,0.345621 -1.333809,0.772165 -2.492965,1.43372 -0.370606,0.211513 -0.716016,0.408771 -0.767578,0.438353 -0.05156,0.02958 -0.171094,0.09768 -0.265625,0.15134 -0.334326,0.189759 -0.488374,0.278052 -0.496094,0.284339 -0.0043,0.0035 0.0056,-8.03e-4 0.02197,-0.0096 0.02956,-0.0158 0.04951,-0.01953 0.06721,-0.01256 0.0053,0.0021 -0.107458,0.06834 -0.439453,0.258174 -0.568425,0.325025 -1.526017,0.871131 -1.880187,1.072256 -0.150391,0.0854 -0.280782,0.159495 -0.289758,0.164649 -0.009,0.0052 -0.01733,0.0094 -0.01856,0.0094 -0.0012,0 -0.0022,-1.445801 -0.0022,-3.212891 z m 0.101563,3.124725 c 0,-0.0011 -0.0035,-7e-5 -0.0078,0.0022 -0.0043,0.0023 -0.0078,0.0051 -0.0078,0.0061 0,0.0011 0.0035,7e-5 0.0078,-0.0022 0.0043,-0.0023 0.0078,-0.0051 0.0078,-0.0061 z m 0.378906,-0.215496 c 0.203027,-0.115973 0.656543,-0.374771 1.007812,-0.575107 0.35127,-0.200336 0.64043,-0.366093 0.642579,-0.368349 0.0058,-0.0061 -0.02633,0.01186 -0.304688,0.170208 -0.871058,0.495508 -1.711705,0.976867 -1.71875,0.984165 -0.0052,0.0053 -0.04335,0.02694 0.373047,-0.210917 z"
     id="path10175" />
  <path
     style="fill:#000000;stroke-width:0.0078125"
     d=""
     id="path10207" />
  <path
     style="fill:#ffffff;stroke-width:0.0883883"
     d="m 23.46006,41.945608 -1.686425,-0.05197 -0.668514,-0.330398 c -0.912145,-0.450806 -1.553926,-1.106227 -2.036286,-2.079561 l -0.3747,-0.756092 -0.0239,-6.055485 c -0.02341,-5.932163 -0.02015,-6.066747 0.160134,-6.608513 0.540554,-1.624365 1.924562,-2.790693 3.508791,-2.956919 0.950738,-0.09976 18.538517,-0.09718 19.489164,0.0029 0.620569,0.0653 0.89236,0.144512 1.386078,0.403953 0.819406,0.430586 1.509312,1.161699 1.92783,2.042979 0.314128,0.661466 0.326435,0.725246 0.388757,2.014806 0.08747,1.809964 0.0859,8.171416 -0.0024,9.86989 -0.06976,1.341234 -0.08058,1.397167 -0.398083,2.057277 -0.452499,0.940784 -1.149518,1.639722 -2.05672,2.062382 -0.664928,0.309784 -0.742526,0.324728 -2.017353,0.388488 -1.529597,0.0765 -15.086115,0.07365 -17.596326,-0.0037 z m 10.547355,-7.203425 c 1.85947,-1.061172 3.380854,-1.957428 3.380854,-1.99168 0,-0.03425 -1.640708,-0.937505 -3.646019,-2.007229 l -3.646019,-1.944952 -0.05505,0.936217 c -0.07571,1.287741 -0.09033,6.046957 -0.02062,6.713913 l 0.05691,0.544522 0.274543,-0.160695 c 0.150998,-0.08838 1.795926,-1.028925 3.655396,-2.090096 z"
     id="path21298" />
</svg>
